<svg id="レイヤー_1" data-name="レイヤー 1" xmlns="http://www.w3.org/2000/svg" width="100" height="100" viewBox="0 0 100 100"><path d="M78,18H51.8a4,4,0,0,0,0,8H68.343L37.172,57.172a4,4,0,1,0,5.657,5.656L74,31.657V48.2a4,4,0,0,0,8,0V22A4,4,0,0,0,78,18Z"/><path d="M92,8V74H26V8H92m2.061-8H23.939A5.939,5.939,0,0,0,18,5.939V76.061A5.939,5.939,0,0,0,23.939,82H94.061A5.939,5.939,0,0,0,100,76.061V5.939A5.939,5.939,0,0,0,94.061,0Z"/><path d="M84,100H4a4,4,0,0,1-4-4V16a4,4,0,0,1,8,0V92H84a4,4,0,0,1,0,8Z"/></svg>