<?xml version="1.0" encoding="utf-8"?>
<!-- Generator: Adobe Illustrator 24.1.1, SVG Export Plug-In . SVG Version: 6.00 Build 0)  -->
<svg version="1.1"
	 id="svg8" xmlns:cc="http://creativecommons.org/ns#" xmlns:dc="http://purl.org/dc/elements/1.1/" xmlns:inkscape="http://www.inkscape.org/namespaces/inkscape" xmlns:rdf="http://www.w3.org/1999/02/22-rdf-syntax-ns#" xmlns:sodipodi="http://sodipodi.sourceforge.net/DTD/sodipodi-0.dtd" xmlns:svg="http://www.w3.org/2000/svg"
	 xmlns="http://www.w3.org/2000/svg" xmlns:xlink="http://www.w3.org/1999/xlink" x="0px" y="0px" width="100px" height="100px"
	 viewBox="0 0 100 100" style="enable-background:new 0 0 100 100;" xml:space="preserve">
<style type="text/css">
	.st0{fill:#FF2116;}
	.st1{fill:#2C2C2C;}
</style>
<sodipodi:namedview  bordercolor="#666666" borderopacity="1.0" fit-margin-bottom="0" fit-margin-left="0" fit-margin-right="0" fit-margin-top="0" id="base" inkscape:current-layer="g899" inkscape:cx="122.12727" inkscape:cy="167.02823" inkscape:document-units="mm" inkscape:object-nodes="false" inkscape:pageopacity="0.0" inkscape:pageshadow="2" inkscape:snap-others="false" inkscape:snap-page="false" inkscape:window-height="705" inkscape:window-maximized="1" inkscape:window-width="1366" inkscape:window-x="-8" inkscape:window-y="-8" inkscape:zoom="0.98994949" pagecolor="#ffffff" showgrid="false">
	</sodipodi:namedview>
<g id="layer1" transform="translate(36.076172,-93.731774)" inkscape:groupmode="layer" inkscape:label="Capa 1">
	<g id="g899" transform="matrix(1.4843054,0,0,1.4843054,17.471885,-90.243502)">
		<g id="g876">
			<path class="st0" d="M24.09,137.836c-0.532-1.182-1.358-2.01-1.358-2.01l-10.104-9.927c0,0-0.886-0.828-2.127-1.358
				c-1.478-0.649-3.072-0.592-3.072-0.592L-23,124.008c-3.841,0-6.913,3.132-6.913,6.913v53.177c0,3.841,3.132,6.913,6.913,6.913
				h40.65c3.841,0,6.913-3.132,6.913-6.913v-43.722C24.563,140.376,24.682,139.075,24.09,137.836z M22.259,140.376v43.782
				c0,2.599-2.067,4.666-4.666,4.666h-40.65c-2.599,0-4.666-2.067-4.666-4.666V130.98c0.054-2.659,2.123-4.669,4.723-4.669H7.488
				c0,0,1.241,0,2.127,0.413c0.886,0.356,1.478,0.945,1.478,0.945l10.044,9.868c0,0,0.592,0.649,0.886,1.301
				c0.236,0.532,0.236,1.478,0.236,1.478V140.376z"/>
			
				<path id="path2697" inkscape:connector-curvature="0" sodipodi:nodetypes="scccscccscccccssscacccsccccccccccccccccccccaccccccccc" class="st0" d="
				M-16.324,163.949c-1.537-1.537,0.119-3.721,4.726-6.027l2.895-1.418l1.122-2.482c0.592-1.358,1.537-3.545,2.067-4.905
				l0.945-2.423l-0.649-1.831c-0.769-2.246-1.065-5.554-0.592-6.796c0.649-1.654,2.895-1.478,3.781,0.296
				c0.709,1.358,0.592,3.841-0.177,6.972l-0.649,2.54l0.592,1.005c0.296,0.532,1.241,1.831,2.067,2.895l1.537,1.95l1.95-0.236
				c6.144-0.828,8.271,0.592,8.271,2.54c0,2.482-4.846,2.659-8.922-0.177c-0.886-0.649-1.537-1.301-1.537-1.301
				s-2.54,0.532-3.781,0.828c-1.301,0.356-1.95,0.592-3.841,1.182c0,0-0.649,0.945-1.122,1.654
				c-1.594,2.599-3.485,4.786-4.846,5.554C-13.961,164.658-15.555,164.718-16.324,163.949z M-13.901,163.063
				c0.886-0.532,2.659-2.659,3.9-4.609l0.473-0.769l-2.246,1.122c-3.485,1.774-5.142,3.428-4.254,4.43
				C-15.555,163.829-15.023,163.772-13.901,163.063L-13.901,163.063z M8.906,156.681c0.886-0.592,0.709-1.831-0.236-2.303
				c-0.769-0.356-1.358-0.473-3.308-0.413c-1.182,0.06-3.132,0.356-3.485,0.413c0,0,1.065,0.709,1.537,1.005
				c0.649,0.356,2.186,1.005,3.308,1.358C7.782,157.036,8.434,156.977,8.906,156.681L8.906,156.681z M-0.253,152.84
				c-0.532-0.532-1.418-1.714-1.95-2.54c-0.709-0.945-1.122-1.654-1.122-1.654s-0.532,1.714-1.005,2.776l-1.358,3.368l-0.413,0.769
				c0,0,2.127-0.709,3.191-1.005c1.122-0.296,3.485-0.769,3.485-0.769L-0.253,152.84z M-3.208,141.025
				c0.119-1.122,0.177-2.246-0.177-2.776c-1.005-1.065-2.186-0.177-2.01,2.423c0.06,0.886,0.296,2.363,0.592,3.249l0.532,1.654
				l0.356-1.241C-3.68,143.624-3.384,142.146-3.208,141.025L-3.208,141.025z"/>
			<g id="g858">
				<path id="path845" inkscape:connector-curvature="0" class="st1" d="M-13.665,171.158h2.54c0.828,0,1.478,0.06,1.95,0.236
					c0.532,0.177,0.945,0.473,1.301,1.005c0.356,0.532,0.532,1.122,0.532,1.89c0,0.649-0.119,1.241-0.413,1.774
					c-0.296,0.473-0.649,0.828-1.122,1.065c-0.473,0.236-1.182,0.296-2.186,0.296h-0.886v4.017h-1.714v-10.283H-13.665z
					 M-11.951,172.516v3.604h0.828c0.769,0,1.301-0.119,1.537-0.413c0.296-0.296,0.413-0.709,0.413-1.358
					c0-0.473-0.119-0.828-0.296-1.122c-0.177-0.296-0.413-0.473-0.649-0.532c-0.177-0.177-0.532-0.177-1.005-0.177h-0.828V172.516z"
					/>
				<path id="path847" inkscape:connector-curvature="0" class="st1" d="M-6.043,171.158h2.303c1.122,0,2.01,0.177,2.659,0.592
					s1.182,1.005,1.537,1.774c0.356,0.769,0.532,1.654,0.532,2.599c0,1.005-0.177,1.89-0.473,2.659s-0.769,1.418-1.418,1.89
					c-0.649,0.473-1.537,0.709-2.719,0.709h-2.423v-10.223H-6.043z M-4.389,172.575v7.562h0.709c1.005,0,1.714-0.356,2.127-1.005
					c0.473-0.709,0.649-1.594,0.649-2.719c0-2.54-0.945-3.781-2.836-3.781L-4.389,172.575z"/>
				<path id="path849" inkscape:connector-curvature="0" class="st1" d="M2.583,171.158h5.671v1.358H4.237v3.072h3.191v1.358H4.237
					v4.49H2.523L2.583,171.158z"/>
			</g>
		</g>
	</g>
</g>
</svg>
