<svg width="43" height="43" viewBox="0 0 43 43" fill="none" xmlns="http://www.w3.org/2000/svg">
<path d="M30.9992 36.917C29.5821 36.917 28.5154 36.2922 27.9669 35.8961C25.0411 37.8161 22.6945 36.5361 21.8107 35.8961C18.8849 37.8161 16.523 36.5361 15.6392 35.8961C11.9059 38.3342 9.11733 35.6065 9.10209 35.5761C8.87352 35.3475 8.87352 34.9818 9.10209 34.7684C9.33066 34.5399 9.69638 34.5399 9.92495 34.7684C10.0164 34.8599 12.2411 36.978 15.3345 34.7075C15.563 34.5399 15.883 34.5703 16.0811 34.7684C16.1726 34.8599 18.4126 36.9932 21.5059 34.7075C21.7345 34.5399 22.0545 34.5703 22.2526 34.7684C22.344 34.8599 24.5688 36.9932 27.6621 34.7075C27.8907 34.5399 28.2107 34.5703 28.4088 34.7684C28.5002 34.8599 30.7249 36.9932 33.8183 34.7075C34.0773 34.5246 34.443 34.5703 34.6259 34.8294C34.8088 35.0884 34.763 35.4541 34.504 35.637C33.2088 36.5818 32.0202 36.9018 30.9992 36.9018V36.917ZM27.723 31.4922C27.4335 31.4922 27.1897 31.2789 27.144 30.9894L25.0411 15.7665C24.9954 15.4465 25.224 15.157 25.5288 15.1113C25.8488 15.0808 26.1383 15.2942 26.184 15.5989L28.2869 30.8218C28.3326 31.1418 28.104 31.4313 27.7992 31.477C27.7688 31.477 27.7383 31.477 27.723 31.477V31.4922ZM15.9288 31.4922C15.9288 31.4922 15.883 31.4922 15.8526 31.4922C15.5326 31.4465 15.3192 31.157 15.3649 30.837L17.4678 15.6142C17.5135 15.2942 17.803 15.0808 18.123 15.1265C18.443 15.1722 18.6564 15.4618 18.6107 15.7818L16.5078 31.0046C16.4621 31.2941 16.2183 31.5075 15.9288 31.5075V31.4922Z" fill="#43B681"/>
<path d="M26.1963 15.4614H25.0382V9.07664C25.0382 9.07664 25.0382 9.01569 25.0382 8.98521H18.6229C18.6229 8.98521 18.6229 9.04617 18.6229 9.07664V10.9966H17.4648V9.07664C17.4648 6.68426 19.4306 4.74902 21.8382 4.74902C24.2458 4.74902 26.2115 6.6995 26.2115 9.07664V15.4614H26.1963ZM18.882 7.84236H24.7639C24.261 6.71474 23.1182 5.90712 21.8229 5.90712C20.5277 5.90712 19.3848 6.71474 18.882 7.84236Z" fill="#43B681"/>
<path d="M26.8218 16.1325H16.8104C16.4904 16.1325 16.2313 15.8734 16.2313 15.5534C16.2313 15.2334 16.4904 14.9744 16.8104 14.9744H26.8218C27.1418 14.9744 27.4009 15.2334 27.4009 15.5534C27.4009 15.8734 27.1418 16.1325 26.8218 16.1325ZM33.4656 14.7153C33.4656 14.7153 33.3132 14.7153 33.2523 14.6696L29.3209 13.0544C29.0313 12.9325 28.879 12.5972 29.0009 12.3077C29.1228 12.0182 29.458 11.8658 29.7475 11.9877L33.6789 13.6029C33.9685 13.7248 34.1209 14.0601 33.9989 14.3496C33.9075 14.5782 33.6942 14.7153 33.4656 14.7153ZM10.1818 14.7153C9.95324 14.7153 9.7399 14.5782 9.64847 14.3496C9.52657 14.0601 9.66371 13.7096 9.96847 13.6029L13.8999 11.9877C14.1894 11.8658 14.5399 12.0029 14.6466 12.3077C14.7685 12.5972 14.6313 12.9477 14.3266 13.0544L10.3951 14.6696C10.3951 14.6696 10.2428 14.7153 10.1818 14.7153ZM26.8218 13.542H16.8104C16.4904 13.542 16.2313 13.2829 16.2313 12.9629C16.2313 12.6429 16.4904 12.3839 16.8104 12.3839H26.8218C27.1418 12.3839 27.4009 12.6429 27.4009 12.9629C27.4009 13.2829 27.1418 13.542 26.8218 13.542ZM33.5723 10.6467H29.4428C29.1228 10.6467 28.8637 10.3877 28.8637 10.0677C28.8637 9.74769 29.1228 9.48864 29.4428 9.48864H33.5723C33.8923 9.48864 34.1513 9.74769 34.1513 10.0677C34.1513 10.3877 33.8923 10.6467 33.5723 10.6467ZM14.2047 10.6467H10.0751C9.75514 10.6467 9.49609 10.3877 9.49609 10.0677C9.49609 9.74769 9.75514 9.48864 10.0751 9.48864H14.2047C14.5247 9.48864 14.7837 9.74769 14.7837 10.0677C14.7837 10.3877 14.5247 10.6467 14.2047 10.6467ZM29.5342 8.17817C29.3056 8.17817 29.0923 8.04102 29.0009 7.81245C28.879 7.52293 29.0161 7.17245 29.3209 7.06579L33.2523 5.45055C33.5418 5.32864 33.8923 5.46579 33.9989 5.77055C34.1209 6.06007 33.9837 6.41055 33.6789 6.51721L29.7475 8.13245C29.7475 8.13245 29.5951 8.17817 29.5342 8.17817ZM14.1132 8.17817C14.1132 8.17817 13.9609 8.17817 13.8999 8.13245L9.96847 6.53245C9.67895 6.41055 9.52657 6.07531 9.64847 5.78579C9.77038 5.49626 10.1056 5.34388 10.3951 5.46579L14.3266 7.08102C14.6161 7.20293 14.7685 7.53817 14.6466 7.82769C14.5551 8.05626 14.3418 8.1934 14.1132 8.1934V8.17817Z" fill="#43B681"/>
<path d="M14.0095 34.1738L12.8818 33.9452L13.5218 30.8519C13.5828 30.5776 13.8114 30.3947 14.0856 30.3947H29.5676C29.8418 30.3947 30.0856 30.5928 30.1314 30.8519L30.7714 33.9452L29.6437 34.1738L29.1104 31.5376H14.558L14.0095 34.1738ZM26.9771 28.0786H18.4285V26.9205H26.9771V28.0786ZM26.4742 24.0862H18.9618V22.9281H26.4742V24.0862ZM26.0933 20.0938H19.4952V18.9357H26.0933V20.0938ZM18.6114 15.5376H17.4533V12.9928H18.6114V15.5376ZM22.4056 12.81H21.2476V10.3262H22.4056V12.81Z" fill="#43B681"/>
</svg>
