<svg width="43" height="43" viewBox="0 0 43 43" fill="none" xmlns="http://www.w3.org/2000/svg">
<path d="M18.8919 30.4804C16.3165 29.6728 14.5792 27.3259 14.5792 24.6133C14.4573 23.6685 14.9907 22.0379 15.7831 20.9711C15.7831 20.9559 15.8136 20.9254 15.8288 20.8949C15.9507 20.6359 15.8593 20.3158 15.6002 20.1939C15.3869 20.072 15.0821 20.1482 14.945 20.3616C14.0306 21.5959 13.5429 23.0741 13.5429 24.6133C13.3905 25.741 14.0306 27.6612 14.9754 28.9108C15.5393 29.8861 17.1699 31.0291 18.6024 31.471C18.6481 31.4862 18.7091 31.5015 18.7548 31.5015C18.9681 31.5167 19.1815 31.3491 19.2577 31.1357C19.3491 30.8614 19.1815 30.5719 18.9072 30.4804H18.8919Z" fill="#4FABCD"/>
<path d="M29.7882 24.4758C29.7882 29.2762 25.8869 33.1622 21.1018 33.1622C16.3166 33.1622 12.4001 29.2609 12.4001 24.4758C12.2325 23.1347 12.9945 20.8184 14.0917 19.3249C14.0917 19.3249 14.0917 19.3097 14.1069 19.2944L20.2331 10.1966C20.7056 9.49557 21.4675 9.49557 21.9399 10.1966L25.2164 15.0579L23.9363 16.9628C23.342 17.7705 23.0372 18.7153 23.0372 19.7059C23.0372 22.2661 25.1249 24.3539 27.6851 24.3539C28.4319 24.3539 29.1481 24.171 29.7729 23.8662C29.7729 24.0643 29.7882 24.2777 29.7882 24.4758ZM27.6699 13.2597L30.5501 17.5419C30.5501 17.5419 30.5501 17.5572 30.5654 17.5724C31.0225 18.1972 31.2664 18.9287 31.2664 19.7059C31.2664 21.687 29.651 23.3024 27.6699 23.3024C25.6888 23.3024 24.0734 21.687 24.0734 19.7059C23.9972 19.142 24.3173 18.1972 24.7744 17.5724C24.7744 17.5724 24.7744 17.5572 24.7897 17.5419L26.2679 15.3322L27.6547 13.2749L27.6699 13.2597ZM32.3179 19.7059C32.3179 18.7153 32.0131 17.7553 31.4188 16.9628L28.1118 12.0405C28.0204 11.8881 27.8528 11.8119 27.6851 11.8119C27.5175 11.8119 27.3499 11.9034 27.2584 12.0405L26.5574 13.0768C26.1765 13.6559 25.4755 13.5492 25.003 12.8482L21.5285 7.69734C21.437 7.54495 21.2694 7.46875 21.1018 7.46875C20.9341 7.46875 20.7665 7.56019 20.6598 7.69734L13.2383 18.7001C12.0039 20.3764 11.3486 22.3728 11.3486 24.4606C11.3486 29.8248 15.7223 34.1985 21.0865 34.1985C26.4508 34.1985 30.8244 29.8248 30.8244 24.4606C30.8244 24.0339 30.794 23.6072 30.7635 23.3938C30.7482 23.2719 30.9464 22.9976 31.2207 22.7538C31.7083 22.3271 32.3179 21.0774 32.3179 19.6907" fill="#4FABCD"/>
<path d="M25.8278 19.5839C25.8126 19.4163 25.8735 19.081 25.9802 18.8524C26.1021 18.5934 25.9802 18.2734 25.7059 18.1667C25.4468 18.0448 25.1268 18.1667 25.0201 18.4257C24.8525 18.7915 24.7763 19.1725 24.7763 19.5839C24.6849 20.3611 25.2487 21.4126 26.0412 21.946C26.1326 22.007 26.2393 22.0375 26.3307 22.0375C26.4679 22.0527 26.666 21.9613 26.7727 21.8089C26.9403 21.565 26.8641 21.245 26.6355 21.0774C26.1326 20.7421 25.8431 20.1935 25.8431 19.5839" fill="#4FABCD"/>
<path d="M20.8439 31.2111C20.6153 30.8606 20.2343 30.7844 19.9905 31.0435C19.7314 31.455 19.8533 31.8512 20.2648 31.9274C20.7524 31.9121 21.0115 31.5921 20.8439 31.2111Z" fill="#4FABCD"/>
<path d="M27.3936 22.4183C27.8508 22.586 28.2166 22.3879 28.2013 21.9764C28.0946 21.504 27.7289 21.3059 27.3936 21.5345C27.0888 21.824 27.0888 22.2202 27.3936 22.4031" fill="#4FABCD"/>
</svg>
