<svg width="43" height="43" viewBox="0 0 43 43" fill="none" xmlns="http://www.w3.org/2000/svg">
<path d="M30.217 18.1486C28.5418 19.9028 26.8034 21.7202 22.2045 23.0793C19.3599 23.9169 17.3054 25.3234 15.9463 27.3305C14.919 28.8635 14.4291 30.5387 14.0498 32.0716L12.6591 30.6809C13.5125 29.5588 14.0498 28.4684 14.5871 27.4253C15.725 25.1338 16.6416 23.3164 20.3871 22.1311C23.6743 21.088 26.1397 19.8554 27.9413 18.3698C29.49 17.0739 30.2486 15.8254 30.865 14.8298C31.4813 13.8183 31.8922 13.123 32.8088 12.7911L34.7843 14.7666C32.6034 15.62 31.4339 16.8527 30.217 18.1486ZM9.78282 27.8204C14.5397 24.5965 17.0367 21.1355 19.5337 14.4189L22.7893 11.1633C22.7893 11.2739 22.7893 11.3846 22.8051 11.4952C22.8209 11.7955 22.8367 12.0799 22.8525 12.3486C22.8841 13.6445 22.5838 14.5769 21.9991 15.1459C21.9043 15.2407 21.7936 15.3197 21.683 15.4145C21.2563 15.7622 20.719 16.2047 20.7348 16.9001C20.7348 17.4532 21.0351 17.7377 21.2879 17.8957C21.5408 18.0537 21.8885 18.1328 22.2994 18.1328C22.6786 18.1328 23.1053 18.0695 23.6269 17.9431C24.4645 17.7377 25.223 17.4374 25.5075 17.2952C27.3881 16.3943 28.605 15.3671 29.174 14.1502C29.2688 13.9606 29.3478 13.7393 29.4584 13.4865C29.7745 12.6647 30.2486 11.4636 31.023 11.0211L32.1609 12.159C31.1968 12.6331 30.6911 13.4707 30.1222 14.4031C28.9211 16.3785 27.2775 19.0652 20.1184 21.3409C16.0253 22.6368 14.9506 24.7861 13.8128 27.0618C13.3228 28.0417 12.8171 29.0531 12.0427 30.0804L9.78282 27.8204ZM26.9298 7.02275C26.9298 7.02275 27.0089 6.99114 27.0405 7.02275L27.9413 7.92356C26.7718 8.71374 24.2432 10.6734 24.6699 12.554C24.8596 13.36 25.3811 13.8974 26.0606 13.9764C26.914 14.0712 27.7042 13.4707 28.0835 12.6805C28.2415 12.3486 28.3206 12.0009 28.3838 11.6532C28.5418 10.8472 28.684 10.1993 29.8061 9.82L30.375 10.3889C29.4584 11.0369 28.9685 12.2854 28.6208 13.1704C28.526 13.4074 28.447 13.6287 28.368 13.7867C27.8781 14.8298 26.8034 15.7306 25.0966 16.5366C24.2274 16.9475 22.2835 17.5322 21.6988 17.1687C21.6356 17.1213 21.5724 17.0581 21.5566 16.8843C21.5566 16.6314 21.8094 16.3943 22.1887 16.0783C22.3152 15.9834 22.4416 15.8728 22.5522 15.7622C23.3266 15.0352 23.7059 13.8816 23.6743 12.3328C23.6743 12.0483 23.6585 11.7639 23.6269 11.4478C23.6111 11.0843 23.5795 10.705 23.5795 10.3257L26.8824 7.02275H26.9298ZM29.1582 9.14044C27.9097 9.70938 27.7042 10.6734 27.5462 11.4636C27.483 11.7639 27.4198 12.0483 27.3091 12.2854C27.0089 12.9017 26.4873 13.1546 26.1555 13.1072C25.7288 13.0598 25.5707 12.6173 25.5075 12.3486C25.2546 11.2423 26.8666 9.63036 28.5576 8.5399L29.1582 9.14044ZM36.254 15.0194L27.641 6.4064C27.2775 6.04292 26.6928 6.04292 26.3293 6.4064L11.7899 20.9458C11.616 21.1197 11.616 21.3883 11.7899 21.5622C11.9637 21.736 12.2324 21.736 12.4062 21.5622L18.0324 15.936C15.804 21.3567 13.4019 24.3752 9.18228 27.2041L8.02861 26.0504C8.02861 26.0504 7.997 25.9714 8.02861 25.9398L10.9839 22.9845C11.1577 22.8106 11.1577 22.542 10.9839 22.3681C10.8101 22.1943 10.5414 22.1943 10.3676 22.3681L7.41226 25.3234C7.04878 25.6869 7.04878 26.2875 7.41226 26.6509L16.0253 35.264C16.1991 35.4536 16.452 35.5326 16.689 35.5326C16.9261 35.5326 17.1631 35.4378 17.3528 35.264L32.2715 20.3453C32.4453 20.1714 32.4453 19.9028 32.2715 19.7289C32.0976 19.5551 31.829 19.5551 31.6551 19.7289L16.7364 34.6476C16.7364 34.6476 16.6574 34.6792 16.6258 34.6476L14.761 32.7828C15.1561 31.1866 15.5986 29.4008 16.6732 27.8046C17.9059 25.9556 19.8024 24.6755 22.4574 23.9011C27.2775 22.4788 29.174 20.4875 30.8334 18.7333C32.1135 17.39 33.2355 16.2205 35.448 15.4303L35.6377 15.62C35.6377 15.62 35.6693 15.699 35.6377 15.7306L33.0617 18.3066C32.8878 18.4804 32.8878 18.7491 33.0617 18.9229C33.2355 19.0968 33.5042 19.0968 33.678 18.9229L36.254 16.3469C36.6175 15.9834 36.6175 15.3829 36.254 15.0194Z" fill="#8B786C"/>
</svg>
