<svg width="43" height="43" viewBox="0 0 43 43" fill="none" xmlns="http://www.w3.org/2000/svg">
<path d="M21.8259 26.4107C21.4754 26.4107 21.1859 26.1212 21.1859 25.7707C21.1859 25.4202 21.4754 25.1306 21.8259 25.1306C22.1764 25.1306 22.466 25.4202 22.466 25.7707C22.466 26.1212 22.1764 26.4107 21.8259 26.4107ZM21.8259 24.3382C21.0335 24.3382 20.3934 24.9782 20.3934 25.7707C20.3934 26.5631 21.0335 27.2032 21.8259 27.2032C22.6184 27.2032 23.2584 26.5631 23.2584 25.7707C23.2584 24.9782 22.6184 24.3382 21.8259 24.3382ZM21.323 16.9014C21.4145 16.81 21.5059 16.7795 21.6278 16.7795H22.0393C22.1612 16.7795 22.2526 16.8252 22.3441 16.9014C22.4355 16.9776 22.466 17.0843 22.466 17.2062L22.2679 22.86C22.2679 23.0886 22.0698 23.2562 21.8564 23.2562C21.6431 23.2562 21.4449 23.0886 21.4449 22.86L21.2316 17.2062C21.2316 17.0843 21.2621 16.9928 21.3535 16.9014M20.622 22.8904C20.6525 23.5305 21.1706 24.0486 21.8259 24.0486C22.4812 24.0486 22.9993 23.5457 23.0298 22.8904L23.2279 17.2367C23.2279 16.9014 23.1213 16.5966 22.8927 16.3528C22.6641 16.109 22.3593 15.9871 22.024 15.9871H21.6126C21.2773 15.9871 20.9725 16.109 20.7439 16.3528C20.5153 16.5966 20.3934 16.9014 20.4087 17.2367L20.622 22.8904ZM33.0878 29.7024C32.4782 30.7692 31.3657 31.394 30.1466 31.394H13.5205C12.2861 31.394 11.1889 30.7539 10.5793 29.7024C9.96976 28.6357 9.96976 27.3708 10.5793 26.3193L18.8847 11.9791C19.4943 10.9124 20.6068 10.2876 21.8259 10.2876C23.0451 10.2876 24.1575 10.9276 24.7671 11.9791L33.0725 26.3193C33.6821 27.3708 33.6821 28.6509 33.0725 29.7024M25.4529 11.5829C24.6909 10.2723 23.3346 9.49512 21.8259 9.49512C20.3172 9.49512 18.9609 10.2723 18.199 11.5829L9.89356 25.9078C9.1316 27.2184 9.1316 28.7728 9.89356 30.0834C10.6555 31.394 12.0118 32.1712 13.5205 32.1712H30.1466C31.6553 32.1712 33.0116 31.394 33.7735 30.0834C34.5355 28.7728 34.5355 27.2184 33.7735 25.9078L25.4529 11.5829ZM31.3657 28.7119C31.1066 29.169 30.6495 29.4129 30.1313 29.4129H13.5205C13.0024 29.4129 12.5452 29.1538 12.2861 28.7119C12.0271 28.2699 12.0271 27.7518 12.2861 27.2946L20.6068 12.9544C20.8658 12.4973 21.3078 12.2534 21.8412 12.2534C22.3745 12.2534 22.8165 12.5125 23.0755 12.9544L31.381 27.2946C31.64 27.7365 31.64 28.2547 31.381 28.7119M23.7461 12.5735C23.3499 11.8877 22.6336 11.4762 21.8259 11.4762C21.0182 11.4762 20.3172 11.8877 19.9058 12.5735L11.6004 26.8984C11.2041 27.5842 11.2041 28.4071 11.6004 29.1081C11.9966 29.7938 12.7128 30.2053 13.5205 30.2053H30.1466C30.939 30.2053 31.6553 29.7938 32.0667 29.1081C32.4629 28.4223 32.4629 27.5994 32.0667 26.8984L23.7461 12.5735ZM9.74117 19.2787C9.74117 19.2787 9.80212 19.2787 9.84784 19.2787C10.0612 19.2178 10.1831 19.0044 10.1221 18.7911C9.84784 17.7396 9.985 16.6576 10.5336 15.7127C11.0822 14.7679 11.9509 14.0974 13.0024 13.8231C13.2157 13.7621 13.3376 13.5488 13.2767 13.3354C13.2157 13.1221 13.0024 13.0002 12.789 13.0611C11.5394 13.3964 10.4879 14.2041 9.8326 15.3165C9.19255 16.429 9.02492 17.7396 9.36018 18.9892C9.4059 19.1568 9.57353 19.2787 9.74117 19.2787ZM30.1313 15.7889C31.2133 16.0785 31.8534 17.191 31.5638 18.2577C31.5029 18.4711 31.6248 18.6844 31.8381 18.7454C31.8686 18.7454 31.8991 18.7454 31.9448 18.7454C32.1124 18.7454 32.2801 18.6235 32.3258 18.4558C32.722 16.9624 31.8381 15.4232 30.3447 15.027C30.1313 14.966 29.918 15.0879 29.857 15.3013C29.7961 15.5146 29.918 15.728 30.1313 15.7889ZM11.3413 18.4558C11.387 18.6387 11.5546 18.7454 11.7223 18.7454C11.7528 18.7454 11.7985 18.7454 11.8289 18.7454C12.0423 18.6844 12.1642 18.4711 12.1033 18.2577C11.8137 17.191 12.4538 16.0785 13.5357 15.7889C13.7491 15.728 13.871 15.5146 13.8101 15.3013C13.7491 15.0879 13.5357 14.966 13.3224 15.027C11.8289 15.4232 10.9298 16.9624 11.3261 18.4558M30.6647 13.8231C31.7162 14.0974 32.6001 14.7679 33.1335 15.7127C33.6668 16.6576 33.8192 17.7396 33.5449 18.7911C33.484 19.0044 33.6059 19.2178 33.8192 19.2787C33.8497 19.2787 33.8802 19.2787 33.9259 19.2787C34.0935 19.2787 34.2612 19.1568 34.3069 18.9892C34.6422 17.7396 34.4745 16.429 33.8192 15.3165C33.1639 14.2041 32.1124 13.3964 30.8628 13.0611C30.6495 13.0002 30.4361 13.1221 30.3752 13.3354C30.3142 13.5488 30.4361 13.7621 30.6495 13.8231" fill="#AC80C9"/>
</svg>
