<svg xmlns="http://www.w3.org/2000/svg" viewBox="0 0 97.8 97.8"><path d="M48.9 0C21.9 0 0 21.9 0 48.9s21.9 48.9 48.9 48.9 48.9-21.9 48.9-48.9S75.9 0 48.9 0zM26.3 62v-9.8l-4.8 8h-2.3l-4.7-7.7V62H9.6V43.5h4.3l6.5 10.7 6.4-10.7H31V62h-4.7zm23.4 0H34.8V43.5h14.5v4H40v3.1h8.2v3.9H40v3.4h9.7V62zm20.5 0h-4.3l-8.2-9.9V62h-5.1V43.5h4.3l8.2 9.9v-9.9h5.1V62zm18.6-1.9c-1.5 1.5-3.7 2.3-6.4 2.3s-4.9-.8-6.4-2.3c-1.5-1.5-2.3-3.6-2.3-6.4V43.5H79v10.1c0 1.6.3 2.7.9 3.4.6.7 1.5 1 2.6 1s2-.4 2.6-1c.6-.7.9-1.8.9-3.4V43.5h5.2v10.3c-.1 2.7-.8 4.8-2.4 6.3z" fill-rule="evenodd" clip-rule="evenodd" fill="#fff"/></svg>