<svg version="1.1" id="レイヤー_1" xmlns="http://www.w3.org/2000/svg" x="0" y="0" viewBox="0 0 537.6 94.8" xml:space="preserve"><style>.st0{fill:none;stroke:#b4d5ea;stroke-miterlimit:10}</style><path class="st0" d="M15.4 82.2c-2-.2-3-1.2-3.2-3.2v-4.5c.3-4.8 1.6-9.3 4-13.4l26.7-40.9.7-1.1-1.1-.8-7.4-5-1.2-.8-.8 1.2-14.4 22.2-1.2-1.3c-2.6-3.5-4-7.5-4.3-11.8V7.4H1.4v15.5c.1 3.5.7 7 2 10.2 1.1 3.2 2.8 6.3 5 9l3.4 4.1-5.7 8.6C2.6 60.8.7 67.4.3 74.4v4.8c.4 4.4 1.9 7.9 4.4 10.3 2.5 2.5 5.9 3.9 10.3 4.4h31.4V82.1H45l-29.6.1zm101-80.6H115v11h10.7v-11h-1.4zm-5.8 11h1.4v-11h-10.7v11h1.3zm-2.4 3.3c-3.9.1-7.1 1.7-9.4 5-2 2.9-3 6.2-2.9 9.8v48.5c-.3 2-1.2 3-3.2 3.2h-5.4c-2.8-.4-4.7-1.8-5.7-4.4l-1.9-7c-1.2-5-1.5-10.2-1.1-15.3L81.8 28c.6-4.3-.5-8.2-3.3-11.5-2.4-2.6-5.4-3.9-8.9-3.9l-7.2.4-1.4-.1v11.2h8.6c.4.7.6 1.5.5 2.3L67 54.1c-.6 6.6-.2 13.2 1.4 19.6l1.9 7.3v.2C73.1 89 78.8 93.3 87.1 94h6c4.3-.4 7.8-1.9 10.3-4.4 2.5-2.5 3.9-5.9 4.4-10.3v-49c-.1-1.2.2-2.2 1-2.9h7.4V15.7h-1.4l-6.6.2zm60.4 11.7V15.8H150V7.4h-11.8v8.4h-6.6v11.8h6.6v23.3c-.1 5.6-.6 11.2-1.6 16.6l-4.8 22.6-.3 1.4 1.4.3 8.8 1.8 1.4.3.3-1.4 4.7-22.7c1.2-6.2 1.8-12.6 2-18.9V27.6h18.5z"/><path class="st0" d="M187.9 43.1c-2.6-3.5-6-5.3-10.1-5.3h-19v11.8h17.4l-1.9 3.7-.6 1.2 1.2.7 7.8 4.4 1.2.7.7-1.2 3.4-6.2c1.6-3.4 1.6-6.6-.1-9.8zm-1.4-41.2h-1.4v10.7H196V1.9h-9.5zm-5.7 10.7h1.4V1.9h-10.7v10.7h9.3zm-13.4 69.7c-1.7 0-2.6-.6-3.1-2.1v-9h-11.8v9.4c.6 4.1 2.1 7.4 4.6 9.6 2.5 2.2 5.9 3.5 10.1 3.8h21.2V82.2H187l-19.6.1zm91.3-57.9h-8.5V7.5h-11.7v16.9h-13.1V7.5h-11.8v16.9h-12.2v11.8h12.2v43.5c.4 4.4 1.9 7.8 4.3 10.3 2.5 2.5 5.9 3.9 10.4 4.4h23.1V82.6h-22.8c-2.1-.3-3-1.2-3.2-3.2V36.1h13.1v12.6c0 1.2-.4 2.2-1.1 3.1h-7v11.8h7.7c3.8-.2 6.9-2 9-5.2 1.8-2.9 2.8-6.1 2.9-9.6V36.2h9.9V24.4h-1.2zm60.8 20.1c-4.9-4.8-10.8-7.3-17.6-7.7h-10V5.3h-11.8v87h11.8V48.6h10c3.4.3 6.4 1.6 9.1 4l9.1 9.8.9 1 1-.9 6.6-6 1-.9-.9-1-9.2-10.1zm34.4 34.8c-1.4-.1-2-.8-2.1-2.1v-40H363c3.5-.1 6.8-1.2 9.7-3.2 2.9-2.1 5.1-4.7 6.5-7.9l3.4-9 .5-1.3-1.3-.5-8.4-3.2-1.3-.5-.5 1.3-3.3 8.9c-1.2 2.2-3 3.4-5.5 3.8h-11.1V5.1h-11.8v72.4c.4 4 1.8 7.3 4.1 9.6s5.5 3.7 9.6 4.1h30.9V79.4h-1.4l-29.2-.1zM377.6.5h-1.4v11.4h11.2V.5h-9.8zm13.8 0H390v11.3h11.1V.5h-1.4zm39.4 45.9V36h-22.1v11.8h22.1v-1.4zM457 5.1h-1.4v31.3c-.2 4.2-1.3 8.2-3.2 12l-22 37.7-.7 1.2 1.2.7 7.7 4.4 1.2.7.7-1.2 22-37.6c2.9-5.5 4.5-11.5 4.7-17.7V5.1H457zm-27.6 14.6h1.4V7.9h-22.1v11.8h20.7zm107.6-.6c-.4-4.1-1.8-7.4-4.1-9.7-2.3-2.3-5.5-3.6-9.6-4h-42.7v11.8H523c1.4.1 2.1.7 2.2 2.1v16.8c-.3 3.5-1.6 6.7-3.9 9.5l-12.8 12.6c-1.8-3.1-2.9-6.4-3.1-10V35.9h-11.8v12.3c.1 3 .7 6.1 1.8 9.1.9 3.1 2.3 6 4.2 8.6l20.1 26.7.8 1.1 1.1-.8 7.1-5.3 1.1-.8-.8-1.1-13.5-18.2 14-13.8c4.5-5 6.9-10.9 7.3-17.6V19.2l.2-.1z"/></svg>