<svg version="1.1" id="レイヤー_1" xmlns="http://www.w3.org/2000/svg" x="0" y="0" viewBox="0 0 40 40.1" xml:space="preserve"><style>.st0{fill:#fff}</style><path class="st0" d="M29.1 0H10.9C4.9 0 0 4.9 0 10.9v18.4c0 6 4.9 10.9 10.9 10.9h18.2c6 0 10.9-4.9 10.9-10.9V10.9C40 4.9 35.1 0 29.1 0zm7.3 28.5c0 4.3-3.5 7.7-7.7 7.7H11.3c-4.3 0-7.7-3.5-7.7-7.7V11.3c0-4.3 3.5-7.7 7.7-7.7h17.4c4.3 0 7.7 3.5 7.7 7.7v17.2z"/><circle class="st0" cx="30.8" cy="9.3" r="2.4"/><path class="st0" d="M20 9.8c-5.7 0-10.3 4.6-10.3 10.3 0 5.7 4.6 10.3 10.3 10.3 5.7 0 10.3-4.6 10.3-10.3 0-5.7-4.6-10.3-10.3-10.3zm0 17c-3.7 0-6.8-3-6.8-6.8 0-3.7 3-6.8 6.8-6.8 3.7 0 6.8 3 6.8 6.8s-3 6.8-6.8 6.8z"/></svg>