<svg version="1.1" id="レイヤー_1" xmlns="http://www.w3.org/2000/svg" x="0" y="0" viewBox="0 0 615.8 107.7" xml:space="preserve"><style>.st0{fill:#fff}</style><path class="st0" d="M17.1 93.7c-2.3-.2-3.4-1.3-3.6-3.6V85c.3-5.5 1.8-10.7 4.6-15.3l30.6-47 .9-1.3-1.3-.9-8.5-5.7-1.3-.9-.9 1.4-16.7 25.3-1.4-1.6c-3-4.1-4.6-8.6-4.9-13.5V7.8H1.1v17.7c.1 4.1.9 8 2.3 11.7 1.3 3.7 3.2 7.2 5.7 10.4l3.9 4.7-6.5 9.9C2.5 69.1.3 76.7-.1 84.7v5.5c.5 5 2.2 9 5 11.8 2.8 2.8 6.8 4.5 11.8 5h36.1V93.5h-1.6l-34.1.2zM133 1.3h-1.6v12.5h12.3V1.3h-1.6zm-6.6 12.5h1.5V1.3h-12.3v12.5h1.6zm-2.8 3.8c-4.5.1-8.1 2-10.8 5.7-2.3 3.3-3.4 7.1-3.3 11.2v55.6c-.3 2.3-1.4 3.4-3.6 3.7h-6.2c-3.2-.4-5.4-2.1-6.5-5.1L91 80.6c-1.4-5.8-1.8-11.7-1.2-17.6l3.6-31.8c.7-5-.6-9.4-3.8-13.1-2.7-3-6.1-4.5-10.2-4.5l-8.3.5-1.5.1v12.9h9.7c.5.8.7 1.7.6 2.7l-3.6 31.7c-.7 7.5-.2 15.1 1.6 22.5l2.2 8.4v.2c3.2 8.9 9.6 13.9 19.2 14.7h6.8c5-.5 9-2.2 11.8-5 2.8-2.8 4.5-6.8 5.1-11.8V34.3c-.2-1.4.2-2.5 1.2-3.4h8.5V17.6h-9.1zm69.3 13.5V17.6h-21.3V8h-13.5v9.6h-7.6v13.5h7.6v26.7c-.1 6.4-.7 12.8-1.8 19.1l-5.5 25.9-.3 1.6 1.6.3 10.1 2.1 1.6.3.3-1.6 5.4-26.1c1.3-7.1 2.1-14.4 2.2-21.7V31h19.7l1.5.1z"/><path class="st0" d="M215.1 48.9c-2.9-4-6.8-6-11.6-6h-21.9v13.5h20l-2.2 4.2-.7 1.4 1.4.8 9 5 1.4.8.8-1.4 3.9-7.1c2-3.7 2-7.4.1-11l-.2-.2zm-1.6-47.3h-1.6v12.3h12.6V1.6h-11zm-6.6 12.3h1.6V1.6h-12.3v12.3h10.7zm-15.3 80c-1.9 0-3-.7-3.6-2.4V81.1h-13.5v10.8c.7 4.8 2.5 8.5 5.3 11.1 2.8 2.6 6.7 4 11.6 4.3h24.3V93.8h-1.6l-22.5.1zm104.7-66.4h-9.7V8h-13.4v19.4h-15.1V8h-13.5v19.4h-14v13.5h14v49.9c.5 5 2.1 9 5 11.8 2.8 2.8 6.8 4.5 11.9 5.1H288V94.2h-26.2c-2.4-.3-3.5-1.4-3.7-3.6V40.9h15.1v14.4c0 1.3-.4 2.5-1.2 3.6h-8v13.5h8.8c4.4-.3 7.9-2.3 10.3-6 2.1-3.3 3.2-7 3.3-11V40.9h11.3V27.4h-1.4zm69.8 23.1c-5.6-5.5-12.4-8.4-20.1-8.8h-11.5V5.5H321v99.9h13.5V55.2h11.4c3.9.3 7.3 1.8 10.4 4.6l10.5 11.3 1.1 1.2 1.2-1.1 7.6-6.9 1.2-1.1-1.1-1.2-10.7-11.4zm39.5 39.9c-1.7-.2-2.3-.9-2.5-2.4v-46H416c4-.2 7.8-1.4 11.1-3.7 3.4-2.4 5.9-5.4 7.5-9.1l3.9-10.3.6-1.5-1.5-.6-9.6-3.6-1.5-.6-.6 1.5-3.8 10.2c-1.4 2.5-3.4 3.9-6.3 4.3H403V5.3h-13.5v83.1c.5 4.6 2 8.3 4.7 11 2.6 2.6 6.3 4.2 11 4.7h35.5V90.5h-35.1zM432.9 0h-1.6v13h12.8V0h-11.2zm15.7 0H447v13h12.8V0h-1.6zm45.2 52.7V40.8h-25.3v13.5h25.3v-1.6zm30.1-47.4h-1.6v35.9c-.2 4.8-1.5 9.4-3.7 13.8l-25.2 43.2-.8 1.4 1.4.8 8.9 5 1.4.8.8-1.4 25.3-43.1c3.3-6.3 5.1-13.2 5.4-20.3V5.3h-11.9zm-31.7 16.8h1.6V8.6h-25.3v13.5h23.7zm123.6-.8c-.5-4.7-2-8.4-4.7-11.1-2.6-2.6-6.3-4.2-11-4.6h-48.8v13.5H600c1.7.1 2.4.8 2.6 2.5v19.3c-.4 4-1.9 7.7-4.5 10.9l-14.7 14.5c-2.1-3.5-3.3-7.4-3.6-11.5V40.7h-13.5v14.1c.2 3.5.9 7 2.1 10.5 1.1 3.6 2.7 6.9 4.8 9.9l23 30.6.9 1.3 1.3-.9 8.2-6.1 1.3-.9-1-1.3L591.3 77l16.1-15.9c5.1-5.7 7.9-12.5 8.4-20.2V21.3z"/></svg>