<svg version="1.1" id="レイヤー_1" xmlns="http://www.w3.org/2000/svg" x="0" y="0" viewBox="0 0 65.2 60.8" xml:space="preserve"><style>.st0{fill:#fff}</style><path class="st0" d="M0 48.3h2.2v5.4h1.4v-5.4h2.1v-1.4H0zm50.9 5.4v-4.4l1.4 2h1.1l1.4-2v4.4h1.4v-6.8h-1.6l-1.8 2.7-1.8-2.7h-1.5v6.8zm-5.8-6.8h1.4v6.8h-1.4zm15.8 0l-2.7 6.8h1.5l.7-1.7h2.5l.7 1.7h1.5l-2.7-6.8h-1.5zm.1 3.7l.7-1.8.7 1.8H61zm-23.6 3.1h.7V51h2.8v2.7h1.4v-6.8h-1.4v2.7h-2.8v-2.7h-1.4v6.8h.7zm-26.6-6.8c-1.9 0-3.5 1.6-3.5 3.5s1.6 3.5 3.5 3.5 3.5-1.6 3.5-3.5-1.6-3.5-3.5-3.5zm0 5.4c-1.1 0-2-.9-2-2s.9-2 2-2 2 .9 2 2-.9 2-2 2zm21.3-2.6c-1.2-.3-1.5-.4-1.5-.9 0-.3.3-.6.9-.6.6 0 1.2.2 1.7.7l.8-1.1c-.7-.5-1.5-.9-2.5-.9-1.4 0-2.4.8-2.4 2 0 1.3.9 1.7 2.2 2.1 1.1.3 1.4.5 1.4.9s-.4.6-1 .6c-.8 0-1.4-.3-2-.8l-.9 1c.8.7 1.8 1.1 2.9 1.1 1.5 0 2.5-.7 2.5-2.1 0-1.2-.8-1.6-2.1-2zm-11.8-2.8h-3.6v6.8h3.6c1.1 0 2-.9 2-2 0-.5-.2-1-.5-1.3.3-.4.5-.8.5-1.3.1-1.2-.9-2.2-2-2.2zm0 5.4h-2.2V51h2.2c.4 0 .6.3.6.6s-.2.7-.6.7zm0-2.7h-2.2v-1.3h2.2c.4 0 .6.3.6.6.1.4-.2.7-.6.7zm4.8-2.7h1.4v6.8h-1.4z"/><linearGradient id="SVGID_1_" gradientUnits="userSpaceOnUse" x1="-1843.1" y1="2119.212" x2="-1843.1" y2="2152.302" gradientTransform="rotate(-20.236 -6828.783 -4190.49)"><stop offset="0" stop-color="#8abbd4"/><stop offset=".779" stop-color="#1d487e"/></linearGradient><path d="M54.4 2.1C53.1.8 51.3 0 49.4 0c-4.8 0-8.9 1.8-12.5 4-4.6 2.8-8.7 6.2-12.2 10-3.1 3.2-5.6 7-6.8 10.9-1.2 4.2-1.2 8.8 2.6 11.5 2.2 1.5 5.1 2.2 8 2.4 6.3.4 14.5-1.1 19-5.9 2.5-2.7 4.2-6.1 5.4-9.5.9-2.6 1.5-5.2 2.1-7.8.6-2.5 1.1-5.1 1.2-7.7.1-1.9-.2-4.1-1.6-5.6-.1-.1-.2-.1-.2-.2zm-5 1.2zm3.4 10.1v-.2.2zm.5-6.6c.4 1.2.5 2.6.3 3.8-.3 2.4-1.2 4.8-2.1 7.1-.9 2.4-1.8 4.7-2.9 7-.6 1.4-1.3 2.7-2.2 3.9-1.1 1.5-2.5 2.9-4 4-4.6 3.4-11.7 4.8-17.1 4.1-1.6-.2-3.1-.6-4.2-1.4-5.6-4-1.2-12.7 2.5-17.4 3.4-4.3 7.6-8.2 12.6-11 4.1-2.3 10-5.5 14.4-3.4 1.4.7 2.2 1.9 2.7 3.3z" fill="url(#SVGID_1_)"/><path d="M51.5 17.7c.9-2.3 1.9-4.6 2.1-7.1.1-1.2.1-2.6-.3-3.8-.4-1.4-1.3-2.6-2.7-3.3-2.6-1.2-5.7-.6-8.7.6 1.5-.6 3.1-.8 4.5-.4 1.3.4 2.3 1.2 2.9 2.3.3.5.6 1.1.7 1.6.4 1.4.5 2.9.5 4.3-.1 2.9-.6 5.8-1.3 8.6-.7 2.7-1.7 5.4-3.3 7.8-3.3 4.9-9.4 7.9-15.3 8.2-1.4.1-2.7 0-3.9-.6-5.5-2.5-3.3-10.8-1-15.4 2.1-4.2 5.1-8.2 8.8-11.5 1.8-1.6 4.3-3.7 6.9-4.8-1.9.8-3.7 1.8-5.2 2.7-5 2.8-9.2 6.7-12.6 11-3.7 4.7-8.1 13.4-2.5 17.4 1.2.8 2.7 1.2 4.2 1.4 5.4.7 12.5-.7 17.1-4.1 1.5-1.1 2.9-2.5 4-4 .9-1.2 1.6-2.5 2.2-3.9 1-2.3 2-4.6 2.9-7z" fill="#2e6195"/><path d="M45.9 28.4c1.6-2.4 2.6-5.1 3.3-7.8.8-2.8 1.3-5.7 1.3-8.6 0-1.4 0-2.9-.5-4.3-.2-.6-.4-1.1-.7-1.6-.7-1.1-1.7-2-2.9-2.3-1.4-.4-3-.2-4.5.4-.2.1-.3.1-.5.2-1.1.5-2.2 1.1-3.2 1.8 1.8-1.2 3.7-2 5.6-1.6 1.2.2 2.3 1 2.9 1.9 1.8 2.5 1.8 5.8 1.7 8.7-.1 3.9-.6 8.3-2.3 11.9C43.8 32 38.3 35.3 33 36c-1.2.2-2.5.2-3.6-.2-5.3-1.9-4.2-9.7-2.6-14.2 1.5-4 3.8-8 6.7-11.3 1.1-1.2 2.5-2.7 4.1-3.8-1.2.9-2.2 1.8-3.2 2.6-3.7 3.3-6.7 7.3-8.8 11.5-2.3 4.6-4.5 12.9 1 15.4 1.2.5 2.5.6 3.9.6 6-.3 12-3.3 15.4-8.2z" fill="#1d487e"/><path class="st0" d="M44.8 59H46c-.2.5-.6.8-1.2.8-.7 0-1.3-.6-1.3-1.3s.6-1.3 1.3-1.3c.3 0 .6.1.9.4l.6-.6c-.4-.4-.9-.6-1.5-.6-1.2 0-2.1 1-2.1 2.1 0 1.2 1 2.1 2.1 2.1 1.2 0 2.1-1 2.1-2.1v-.4h-2.1v.9zm-23.7-2.5c-1.2 0-2.1 1-2.1 2.1s1 2.1 2.1 2.1c1.2 0 2.1-1 2.1-2.1s-.9-2.1-2.1-2.1zm0 3.4c-.7 0-1.3-.6-1.3-1.3s.6-1.3 1.3-1.3c.7 0 1.3.6 1.3 1.3s-.6 1.3-1.3 1.3zm13.6-3.4h.9v4.2h-.9zm15.2 1.7c-.7-.2-.9-.3-.9-.5s.2-.4.5-.4c.4 0 .7.2 1.1.4l.5-.7c-.4-.3-.9-.5-1.5-.5-.9 0-1.5.5-1.5 1.3s.5 1.1 1.4 1.3c.7.2.8.3.8.5s-.2.4-.6.4c-.5 0-.9-.2-1.2-.5l-.5.6c.5.4 1.1.7 1.8.7.9 0 1.5-.5 1.5-1.3-.1-.8-.6-1.1-1.4-1.3zm-12.5 2.5h.9v-2.8l1.9 2.8h1v-4.2h-.9v2.8l-1.9-2.8h-1zm-11.6-4.2h-.9v4.2h2.9v-.9h-2zm-9.2 1.7h-1.8v-1.7h-.9v4.2h.9V59h1.8v1.7h.8v-4.2h-.8zm13.3 2.5h1.2c1.2 0 2.1-.9 2.1-2.1 0-1.2-.9-2.1-2.1-2.1h-1.8v4.2h.6zm.3-3.3h.9c.7 0 1.2.6 1.2 1.2s-.6 1.2-1.2 1.2h-.9v-2.4z"/></svg>