<svg version="1.1" id="レイヤー_1" xmlns="http://www.w3.org/2000/svg" x="0" y="0" viewBox="0 0 40.4 231.2" xml:space="preserve"><style>.st0{fill:#fff}</style><path class="st0" d="M5.2 6.4c.1-.9.5-1.3 1.4-1.4h1.9c2.1.1 4 .7 5.8 1.7l17.6 11.5.5.3.3-.5 2.2-3.2.3-.5-.5-.3-9.5-6.2.6-.5c1.5-1.1 3.2-1.7 5.1-1.8h6.6V.4h-6.7c-1.5 0-3 .3-4.4.9-1.4.5-2.7 1.2-3.9 2.2L20.7 5 17 2.5C14.4 1 11.6.2 8.6 0h-2c-2 .2-3.5.8-4.5 1.9C1 2.9.4 4.4.2 6.3v13.4h5.1v-.6L5.2 6.4zm34.7 43.5v-.6h-4.7v4.6h4.7v-.6zm-4.7-2.5v.6h4.7v-4.6h-4.7v.6zm-1.4-1c0-1.7-.8-3.1-2.1-4-1.2-.9-2.7-1.3-4.2-1.3H6.6c-.9-.1-1.3-.5-1.4-1.4v-2.3c.2-1.2.8-2 1.9-2.5l3-.8c2.2-.5 4.4-.7 6.6-.5l12 1.4c1.9.3 3.5-.2 4.9-1.4 1.1-1 1.7-2.3 1.7-3.8l-.2-3.1v-.6h-4.9v3.7c-.3.2-.6.3-1 .2l-11.9-1.4c-2.8-.3-5.7-.1-8.4.6l-3.2.8C2.3 31.2.5 33.6.2 37.2v2.4c.1 2.1.8 3.6 1.8 4.7 1.1 1.1 2.6 1.7 4.4 1.9h20.9c.5-.1.9.1 1.3.4v3.2h5v-3.4zm-5 26h5.1v-8h3.6v-5.1h-3.6v-2.9h-5.1v2.9h-10c-2.4 0-4.8-.3-7.2-.7l-9.7-2.1-.6-.1-.1.6-.8 3.8-.1.6.6.1 9.8 2c2.7.5 5.4.8 8.1.8h10v8.1z"/><path class="st0" d="M22.1 80.8c1.5-1.1 2.3-2.6 2.3-4.4v-8.2h-5.1v7.5l-1.6-.8-.5-.3-.3.5-1.9 3.4-.3.5.5.3 2.7 1.4c1.4.8 2.8.8 4.2.1zm17.7-.6v-.6h-4.6v4.7h4.6v-4.1zm-4.6-2.5v.6h4.6v-4.6h-4.6v4zm-30-5.8c0-.7.3-1.1.9-1.3H10v-5.1H6c-1.8.3-3.2.9-4.2 2S.3 70 .2 71.9V81h5.1v-.6l-.1-8.5zm24.9 39.4v-3.7h7.3v-5h-7.3v-5.7h7.3v-5.1h-7.3v-5.2H25v5.2H6.3c-1.8.2-3.3.9-4.4 1.9C.8 94.8.2 96.3 0 98.2v9.9h5.1v-9.8c.1-.9.5-1.3 1.4-1.4h18.6v5.7h-5.4c-.5 0-.9-.2-1.3-.5v-3h-5.1v3.3c.1 1.7.9 3 2.2 3.9 1.3.8 2.6 1.2 4.1 1.2H25v4.3h5.1v-.5zm-8.7 26.2c2-2.1 3.2-4.6 3.3-7.6v-4.3h13.6v-5.1H.9v5.1h18.8v4.3c-.1 1.5-.7 2.7-1.7 3.9l-4.2 3.9-.4.4.4.4 2.6 2.9.4.4.4-.4 4.2-3.9zM6.5 152.3c.1-.6.3-.9.9-.9h17.2v4.8c.1 1.5.5 2.9 1.4 4.2.9 1.3 2 2.2 3.4 2.8l3.9 1.4.6.2.2-.6 1.4-3.6.2-.6-.6-.2-3.8-1.4c-.9-.5-1.5-1.3-1.6-2.4v-4.8h8.8v-5.1H7.4c-1.7.2-3.1.8-4.1 1.8-1 1-1.6 2.4-1.8 4.1v13.2h5.1v-.6l-.1-12.3zm33.9 10.2v-.6h-4.9v4.8h4.9v-4.2zm0 5.9v-.6h-4.9v4.8h4.9v-.6zm-19.8 17h4.5v-9.5H20v9.5h.6zm17.9 11.3v-.6H25c-1.8-.1-3.5-.5-5.2-1.4l-16.2-9.5-.6-.2-.3.5-1.9 3.3-.3.5.5.3 16.2 9.5c2.4 1.2 4.9 1.9 7.6 2h13.5v-.6l.2-3.8zm-6.4-11.9v.6h5.1v-9.5h-5.1v8.9zm.3 46.4c1.8-.2 3.2-.8 4.2-1.8s1.6-2.4 1.7-4.1V207h-5.1v18.3c0 .6-.3.9-.9 1h-7.2c-1.5-.1-2.9-.7-4.1-1.7l-5.4-5.5c1.3-.8 2.8-1.2 4.3-1.3h5.3v-5.1h-5.3c-1.3.1-2.6.3-3.9.8-1.3.4-2.6 1-3.7 1.8L.8 223.9l-.5.4.4.5 2.3 3.1.4.5.5-.4 7.8-5.8 6 6c2.1 1.9 4.7 3 7.6 3.1l7.1-.1z"/></svg>