<svg xmlns="http://www.w3.org/2000/svg" viewBox="0 0 39.9 39.7"><path d="M39.9 19.9c0 10.2-7.7 18.6-17.6 19.8V26.4c0-.3 0-.3.3-.3h4.9c.2 0 .2 0 .2-.2 0 0 .7-3.8 1-5.6.1-.3.1-.3-.3-.3h-6c-.2 0-.2 0-.2-.2v-2.1c0-.5 0-1.1.2-1.6.2-.6.4-1.2.9-1.7.4-.4.9-.6 1.4-.8.5-.1 1-.2 1.5-.2h2.6c.2 0 .2 0 .2-.2V8c0-.1 0-.1-.1-.1h-.2c-1.1-.2-2.3-.4-3.4-.4-.9 0-1.8 0-2.7.1-.9.1-1.8.3-2.6.6-.9.3-1.8.8-2.5 1.5-.8.8-1.4 1.7-1.8 2.8-.5 1.4-.7 2.8-.8 4.2v3c0 .3 0 .3-.3.3h-3.5c-.1 0-.1 0-.1.3v5.5c0 .3 0 .3.3.3h3.5c.3 0 .3 0 .3.3v12.8C6.4 37.1 0 29.3 0 19.9 0 8.9 8.9 0 19.9 0c11.1 0 20 8.9 20 19.9z" fill="#fff"/></svg>