<svg xmlns="http://www.w3.org/2000/svg" viewBox="0 0 112.3 111.9"><linearGradient id="a" gradientUnits="userSpaceOnUse" x1="-1826.463" y1="2126.513" x2="-1826.463" y2="2221.697" gradientTransform="rotate(-20.236 -6808.366 -4164.42)"><stop offset="0" stop-color="#8abbd4"/><stop offset=".779" stop-color="#1d487e"/></linearGradient><path d="M107.2 6.1c-3.7-3.9-9-6.1-14.3-6.1C79.2 0 67.2 5.2 57 11.5c-13.1 8.1-25 17.9-35.3 28.8-8.9 9.3-16.2 20-19.6 31.4-3.6 12-3.4 25.4 7.4 33 6.3 4.4 14.5 6.4 22.9 7 18.2 1.2 41.7-3.1 54.6-16.9 7.2-7.7 12-17.5 15.5-27.4 2.6-7.3 4.4-14.9 6.2-22.5 1.7-7.3 3.1-14.7 3.5-22.3.3-5.6-.7-11.7-4.5-16-.2-.2-.3-.4-.5-.5zM93 9.6h-.2.2zm9.7 28.8c0-.1.1-.5.1-.5-.1.2-.1.4-.1.5zm1.4-18.9c1.1 3.5 1.4 7.5 1 11.1-.8 7-3.6 13.8-6.1 20.4-2.6 6.8-5.3 13.6-8.4 20.2-1.8 4-3.7 7.7-6.3 11.2-3.2 4.4-7.1 8.3-11.4 11.6-13.2 9.8-33.6 13.9-49.2 11.9-4.5-.6-8.8-1.8-12.2-4.2-16.1-11.4-3.4-36.6 7.2-50 9.7-12.3 22-23.5 36.2-31.6 11.9-6.8 28.8-15.7 41.5-9.9 3.9 1.8 6.4 5.3 7.7 9.3z" fill="url(#a)"/><path d="M98.9 50.9c2.5-6.6 5.3-13.3 6.1-20.4.4-3.6.2-7.5-1-11.1-1.3-4-3.7-7.5-7.8-9.4-7.5-3.4-16.5-1.7-25.1 1.7 4.4-1.7 8.8-2.3 13-1.2 3.7 1 6.5 3.6 8.5 6.7.9 1.5 1.6 3 2.1 4.7 1.2 4 1.4 8.2 1.3 12.4-.2 8.4-1.7 16.7-3.9 24.8-2.1 7.8-4.9 15.6-9.5 22.4-9.6 14.2-27.1 22.7-44 23.7-3.9.2-7.9-.1-11.2-1.6-15.8-7.2-9.4-31-2.8-44.4C30.7 47 39.3 35.5 49.9 26c5.2-4.7 12.3-10.6 19.7-13.8-5.4 2.3-10.6 5.1-15 7.6C40.3 27.9 28 39.1 18.4 51.4 8 65.1-4.8 90.3 11.4 101.7c3.4 2.4 7.7 3.6 12.2 4.2 15.6 2 36.1-2.1 49.2-11.9 4.4-3.2 8.2-7.2 11.4-11.6 2.6-3.5 4.5-7.2 6.3-11.2 3.1-6.6 5.8-13.5 8.4-20.3z" fill="#2e6195"/><path d="M82.8 81.6c4.6-6.8 7.4-14.5 9.5-22.4 2.2-8.1 3.7-16.4 3.9-24.8.1-4.2-.1-8.4-1.3-12.4-.5-1.6-1.2-3.2-2.1-4.7-2-3.2-4.8-5.7-8.5-6.7-4.1-1.1-8.6-.5-12.9 1.2l-1.5.6c-3.1 1.4-6.2 3.2-9.1 5.2 5.1-3.5 10.7-5.7 16.1-4.6 3.5.7 6.5 2.9 8.5 5.6 5.3 7.1 5.1 16.6 4.9 25.1-.3 11.3-1.6 23.9-6.6 34.2-6.8 14.2-22.5 23.6-37.8 25.7-3.5.5-7.2.5-10.3-.7-15.2-5.5-12-27.9-7.4-40.7C32.3 50.5 39 39.3 47.5 29.7c3.1-3.5 7.2-7.7 11.7-11-3.4 2.5-6.5 5.1-9.1 7.5-10.6 9.5-19.2 21-25.3 33.2-6.6 13.3-13 37.2 2.8 44.4 3.3 1.5 7.3 1.8 11.2 1.6 16.9-1 34.4-9.5 44-23.8z" fill="#1d487e"/></svg>