<svg version="1.1" id="レイヤー_1" xmlns="http://www.w3.org/2000/svg" x="0" y="0" viewBox="0 0 7176 116.5" xml:space="preserve"><style>.st1{fill:#fff}.st4{fill:#73b2d0}.st5{fill:#44a7d0}.st6{opacity:.5}.st7{fill:#acd6ec}.st8{fill:#fbfbfc}.st10{fill:#f9dc91}.st11{fill:#b6611f}.st13{fill:#3699d6}.st14{fill:none;stroke:#fff;stroke-width:2.8346;stroke-miterlimit:10}.st15{fill:#074f84}.st16{fill:#ebabca}.st17{fill:#efeeee}.st18{fill:#ee84a9}</style><path d="M1672.9 6.3c7.4.1 14.3 1.5 20.8 4 6.5 2.6 12.2 6.2 17.1 10.9s8.8 10.3 11.6 16.9c2.9 6.6 4.4 13.9 4.6 22 .1 8.1-1.1 15.5-3.7 22.2-2.6 6.6-6.3 12.3-11.1 17.1s-10.5 8.5-16.9 11c-6.5 2.6-13.5 3.9-21.1 3.9-7.2.1-14.1-1-20.5-3.1s-12.2-5.4-17.3-9.7-9.2-9.7-12.3-16.2c-3.1-6.5-4.9-14-5.4-22.6-.3-5.9.3-11.6 1.9-17.2 1.6-5.5 4-10.7 7.3-15.5 3.2-4.8 7.1-9 11.7-12.6s9.7-6.4 15.3-8.3c5.6-1.9 11.6-2.9 18-2.8z" fill="#c8c8c9"/><path class="st1" d="M1647.6 16.4c3.5-2.1 7.6-3.7 12.1-4.9 4.6-1.2 9.4-1.8 14.6-1.6 5.2.1 10.5 1.2 16 3.1 5.5 2 10.9 5.1 16.3 9.5 4.8 3.8 8.4 8.3 10.8 13.2 2.4 5 3.8 10.2 4.2 15.5.3 4.6.2 8.6-.5 11.9-.6 3.3-1.8 6.4-3.6 9.3s-4.1 6-7.1 9.4c-2.2 2.6-5.1 5.2-8.7 7.8s-7.6 5.1-12 7.4c-4.4 2.2-9.1 4-14 5.3s-9.9 1.8-15 1.7-10.1-1.3-14.9-3.5c-1.7-.8-3.6-1.8-5.7-3s-3.9-2.6-5.3-4.4c-4.8-5.5-8.2-11.3-10.1-17.3s-2.6-12-2.2-17.9c.4-6 1.7-11.6 4-17 2.2-5.4 5.2-10.2 8.9-14.4 3.7-4.2 7.7-7.6 12.2-10.1z"/><path d="M1670.1 38.5l1.8-3.1c-.1-.1-1-.5-2.6-1.4s-3.6-1.9-5.9-3.1c-2.3-1.2-4.6-2.1-6.9-3-3.5-1.3-6.3-2.3-8.6-2.9-2.3-.7-3.4-1-3.5-1l-1 3.5c.1 0 1.2.3 3.4 1s5 1.6 8.4 2.9c2.1.8 4.3 1.7 6.6 2.9s4.2 2.2 5.8 3c1.8.8 2.5 1.2 2.5 1.2zm14.7-9.3l3.5 1 4.9-17.6-3.5-.9zm36.5 22.6l1.3-3.4c-.1-.1-1.1-.5-3.2-1.2s-4.5-1.5-7.3-2.2c-1.4-.4-2.8-.8-4.2-1.1s-2.6-.6-3.7-.8-1.6-.3-1.6-.4l-.7 3.6 1.5.3c1 .2 2.2.5 3.6.8s2.8.7 4.1 1.1c2.7.7 5.1 1.4 7.1 2.2 2.1.7 3.1 1.1 3.1 1.1zM1693 87.2l3.6-.3c0-.1-.1-1.4-.3-3.7-.2-2.3-.6-5-1.2-7.8-.4-2-.8-3.8-1.3-5.6-.5-1.7-1-3.1-1.3-4.2-.4-1.1-.6-1.7-.7-1.8l-3.4 1.3c.1 0 .3.5.6 1.6.4 1.1.8 2.4 1.3 4s.9 3.4 1.3 5.2c.4 1.9.7 3.6.9 5.3.2 1.7.4 3.1.5 4.2-.1 1.3 0 1.8 0 1.8zm17.9 5c.1-.1 1-.9 2.6-2.5s3.5-3.9 5.8-7c2.1-2.9 3.7-5.4 4.7-7.6 1-2.1 1.5-3.3 1.6-3.3l-3.4-1.3c0 .1-.5 1.1-1.4 3.1-1 2-2.4 4.3-4.3 7-2.2 2.9-4 5.1-5.5 6.6l-2.3 2.3 2.2 2.7zm-66-18.4l2.4 2.7 20.8-18.6-2.3-2.7zm-18-5l3.6-.6-.3-2.4c-.2-1.6-.4-3.6-.6-6.1-.2-2.4-.3-4.9-.3-7.3s.1-4.8.2-7c.2-2.2.3-4 .4-5.4s.2-2.1.2-2.2l-3.6-.4c0 .1-.1.8-.2 2.3s-.3 3.3-.4 5.5-.2 4.6-.2 7.2c0 2.6.1 5.1.3 7.5.2 2.4.4 4.5.6 6.2.2 1.7.3 2.6.3 2.7zm52.7 36.3l.5-3.6c-.1 0-1.4-.2-3.9-.7-2.6-.4-6.2-1.3-10.8-2.7-1.9-.6-3.8-1.3-5.8-2.1s-3.5-1.6-4.9-2.2c-1.3-.6-2-1-2-1L1651 96c.1 0 .9.4 2.2 1.1 1.3.7 3 1.5 5.1 2.4s4.1 1.6 6.1 2.2c4.7 1.4 8.4 2.3 11.1 2.8s3.9.6 4.1.6z" fill="#161717"/><path d="M1663.4 32.2c.1-.2.9-.6 2.5-1.2s3.7-1.3 6.1-2.1 4.8-1.5 7.2-2.3c2.4-.8 4.5-1.4 6.2-1.9s2.6-.7 2.7-.6c.2 0 .7.5 1.6 1.5s2 2.3 3.3 3.9 2.7 3.3 4.1 5.1 2.8 3.5 4.1 5.1c1.3 1.6 2.3 3 3.1 4.1.8 1.1 1.2 1.7 1.2 1.8s-.5 1-1.4 2.5-2.1 3.4-3.5 5.6c-1.4 2.2-2.8 4.3-4.2 6.5-1.4 2.1-2.6 4-3.7 5.4-1.1 1.5-1.7 2.2-1.9 2.3s-1-.1-2.3-.5-3-.9-5.1-1.5c-2-.6-4.1-1.3-6.4-2.1-2.2-.8-4.3-1.5-6.3-2.2s-3.6-1.3-4.9-1.8-2-.8-2-.9c-.1-.1-.2-1.1-.3-2.9s-.2-4-.2-6.5c-.1-2.6-.1-5.1-.1-7.7v-6.5c.1-2 .1-3 .2-3.1zm57.7 3s.4.8 1.1 2.3 1.5 3.8 2.4 6.7 1.5 6.5 2 10.8c.4 4.2.5 8.1.1 11.5s-.8 6.1-1.3 8.1-.7 3-.7 3h-2.6c-.6 0-1.1-.1-1.3-.2-.1-.1-.2-.7-.1-1.8 0-1.1.1-2.5.2-4.1.1-1.7.1-3.4.1-5.3s-.1-3.6-.4-5.2c-.5-3.2-1.2-6-2-8.3s-1.3-3.7-1.3-4.2c0-.3.2-1.1.6-2.4.4-1.3.8-2.9 1.3-4.6.5-1.7.9-3.2 1.3-4.4s.6-1.9.6-1.9zm-26.8 49.2c.2 0 .9.1 2.2.3 1.3.2 2.8.5 4.7.8 1.8.3 3.6.6 5.4 1 1.8.3 3.3.6 4.5.8 1.3.2 1.9.4 2 .4s.2.6.1 1.7c-.1 1.2-.2 2.5-.3 4-.1 1.5-.3 2.8-.4 4s-.2 1.7-.2 1.7-.9.9-2.8 2.7-5 3.9-9.4 6.3c-3 1.6-5.9 2.8-8.7 3.6-2.9.8-5.2 1.3-7.1 1.6s-2.8.4-2.8.4-.3-.4-.8-1.2c-.5-.8-1.2-1.7-1.9-2.8-.8-1.1-1.5-2.3-2.3-3.4s-1.4-2.1-1.9-3-.8-1.3-.8-1.4c-.1-.1.4-.5 1.3-1.4 1-.9 2.2-2 3.7-3.3s3.1-2.8 4.9-4.2c1.7-1.5 3.4-2.9 5-4.2 1.6-1.3 2.9-2.4 3.9-3.2 1-.8 1.6-1.2 1.7-1.2zM1628 63.1c.2-.1.9.1 2 .6 1.2.5 2.5 1.2 4.1 1.9 1.6.8 3.1 1.4 4.6 2s3.1 1.2 4.7 1.7 3 1.1 4.1 1.4c1.2.4 1.8.6 2 .8.2.1.4.8.5 2s.4 2.7.7 4.5c.3 1.8.7 3.6 1.1 5.4.5 1.9 1.1 3.7 1.6 5.6s1.1 3.5 1.4 4.9c.4 1.3.6 2.1.6 2.4-.1.1-.7.4-1.9.9-1.2.4-2.7 1-4.5 1.6s-3.5 1.2-5.3 1.8-3.3 1-4.5 1.4-1.8.5-1.8.5-.5-.4-1.5-1.3-2.3-2.1-3.8-3.6-2.9-3.3-4.3-5.3c-1.2-1.7-2.1-3.4-3-5.1-.8-1.8-1.5-3.3-2-4.5s-.7-1.8-.7-1.8.1-.7.3-2.2c.2-1.5.6-3.1 1-4.9.3-1.2.7-2.6 1.3-4.3s1.2-3.1 1.8-4.3c.9-1.2 1.3-1.9 1.5-2.1zm-5.7-22.7s.4-.8 1.1-2.5c.7-1.6 1.9-3.8 3.5-6.4s3.6-5.4 6.2-8.3c1.9-2.2 3.8-4.2 6-5.7 2.1-1.6 4.1-2.9 5.9-3.9 1.8-1.1 3.3-1.8 4.5-2.4 1.2-.5 1.7-.8 1.7-.8s-.1.5-.3 1.6c-.2 1.1-.4 2.4-.7 4l-.9 4.8c-.3 1.6-.5 3-.7 4.1-.2 1.2-.3 1.8-.4 1.9-.1.3-.9 1-2.5 2.1s-4 2.9-7.3 5.4c-1.6 1.3-3.1 2.7-4.6 4.3s-2.7 3-3.8 4.1c-1 1.2-1.7 1.7-1.9 1.7s-.8-.4-1.8-1.1-1.8-1.4-2.7-2.1c-.8-.4-1.3-.8-1.3-.8zm53.4-34s.8.1 2.4.2 3.6.4 6.1.9 5 1.2 7.7 2.1c2.2.8 4.2 1.7 6.1 2.6 1.9 1 3.4 1.9 4.6 2.6s1.8 1.1 1.8 1.1h-11.6c-1.5 0-2.3 0-2.5-.1-.3 0-.9-.3-1.6-.9-.7-.6-1.5-1.3-2.4-2s-1.7-1.4-2.5-1.9c-.7-.5-1.7-1.1-3-1.9-1.3-.7-2.5-1.4-3.6-1.9-.9-.6-1.5-.8-1.5-.8z" fill="#464c4f"/><path class="st4" d="M821.5 6.2c2 0 3.7.7 5.1 2.1 1.4 1.4 2.1 3.1 2.1 5.1v93.8c0 2.1-.7 3.8-2.1 5.1-1.4 1.4-3.1 2.1-5.1 2.1h-93.8c-2 0-3.7-.7-5.1-2.1-1.4-1.4-2.1-3.1-2.1-5.1V13.4c0-2 .7-3.7 2.1-5.1 1.4-1.4 3.1-2.1 5.1-2.1h93.8z"/><path class="st5" d="M815.8 6.2h.2c1.8.1 3.3.8 4.6 2.1s1.9 2.9 1.8 4.8v88.3c0 1.9-.7 3.4-2 4.8-1.3 1.3-2.9 2-4.8 2h-88.5c-1.9 0-3.4-.7-4.8-2-1.3-1.3-2-2.9-2-4.8V13c0-1.9.7-3.4 2-4.8 1.3-1.3 2.9-2 4.8-2.1l88.7.1z"/><g class="st6"><path class="st7" d="M752.7 14.3c0 .6-.6 1.3-1.9 1.9-1.3.6-2.9 1.4-4.8 2.3-1.9.9-3.8 1.9-5.7 3.2-1.9 1.3-3.5 2.9-4.6 4.8-.9 1.3-1.6 2.9-2 4.6-.4 1.7-.9 3.3-1.4 4.6s-1.3 2-2.3 2c-1.1 0-1.7-.9-1.9-2.6-.2-1.7-.3-3.7-.3-5.8.1-3.1.3-5.8.6-8.3.4-2.4 1-4.3 2.1-5.6 1-1.3 2.5-2.2 4.4-2.6 1.9-.5 4.6-.8 8-.9 2.8-.1 4.9-.1 6.3 0 1.4.1 2.3.4 2.8.8s.7.9.7 1.6z"/></g><path class="st8" d="M753.7 75.1v-29h-5.5v13.7c0 1.6.1 4.3.3 8h-.1l-12.6-21.7H728v29h5.5V61.4c0-1.7-.1-4.4-.4-8.3h.2l12.7 22h7.7zm23.1 0V70h-10.6v-7.5h9.8v-5h-9.8v-6.4h10.6v-5h-16.7v29zm35.3 0l7.3-29h-6l-3.8 15.8c-.3 1-.5 2.3-.8 3.8s-.5 2.8-.7 3.8c-.1-1.2-.3-2.4-.6-3.8-.3-1.6-.5-2.7-.7-3.4l-4.2-16.2h-5.9l-4.1 16.2c-.3.8-.5 2.1-.9 3.8-.3 1.5-.4 2.7-.5 3.5-.3-2.1-.8-4.7-1.4-7.6L786 46.2h-6l7.4 29h6.9l3.9-15.2c.1-.7.4-1.8.7-3.4.3-1.6.5-2.8.6-3.5.1.6.3 1.8.7 3.5.3 1.6.5 2.7.7 3.4l3.9 15.2 7.3-.1z"/><path d="M2582.3 108.1c0-1.8-1.1-3.3-3.2-4.6-2.1-1.3-4.7-1.9-7.6-1.9-3 0-5.6.6-7.7 1.9-2.1 1.3-3.2 2.8-3.2 4.6 0 1.7 1.1 3.2 3.2 4.5 2.1 1.3 4.7 1.9 7.7 1.9s5.5-.6 7.6-1.9c2.1-1.3 3.2-2.8 3.2-4.5z" fill="#424242"/><path class="st10" d="M2571.4 6.2c4.7 0 9.2.8 13.3 2.5s7.8 3.9 11 6.8 5.6 6.3 7.4 10.1c1.8 3.8 2.6 7.9 2.6 12.3 0 2.2-.3 4.5-.9 6.9-.6 2.3-1.4 4.6-2.5 6.8-1.4 3-2.9 5.7-4.4 8.2-1.5 2.4-2.5 4.1-3 4.9-.8 1.5-1.4 3-1.6 4.4s-.4 2.7-.4 3.9c0 1.3-.2 2.5-.5 3.6-.5 1.7-1.4 3.1-2.6 4.2s-3.3 1.8-6.1 2.3c-2.9.4-7 .7-12.5.7-5.4 0-9.5-.2-12.5-.7-2.9-.5-5-1.3-6.3-2.4s-2.1-2.6-2.6-4.5c-.3-1.5-.6-3.4-.7-5.7-.2-2.2-.9-4.5-2.2-6.7-.4-.8-1.3-2.3-2.6-4.4-1.3-2.1-2.7-4.7-4.1-7.7-1-2.2-1.8-4.4-2.5-6.8-.6-2.3-.9-4.6-.9-6.9 0-4.4.9-8.5 2.6-12.3 1.8-3.8 4.2-7.2 7.4-10.1s6.8-5.2 11-6.8 8.8-2.6 13.6-2.6z"/><path class="st11" d="M2591.2 80.3c0-.7-.9-1.4-2.6-2s-4.2-1.1-7.2-1.4c-3-.4-6.3-.5-9.9-.5-3.7 0-7 .2-10 .5-3 .4-5.4.8-7.2 1.4s-2.6 1.3-2.6 2c0 .8.9 1.5 2.6 2.1s4.2 1.1 7.2 1.4c3 .4 6.4.5 10 .5s6.9-.2 9.9-.5 5.4-.8 7.2-1.4 2.6-1.4 2.6-2.1z"/><path class="st11" d="M2591.2 80.3c0-.7-.9-1.4-2.6-2s-4.2-1.1-7.2-1.4c-3-.4-6.3-.5-9.9-.5-3.7 0-7 .2-10 .5-3 .4-5.4.8-7.2 1.4s-2.6 1.3-2.6 2c0 .8.9 1.5 2.6 2.1s4.2 1.1 7.2 1.4c3 .4 6.4.5 10 .5s6.9-.2 9.9-.5 5.4-.8 7.2-1.4 2.6-1.4 2.6-2.1z"/><path d="M2585.8 80.3c0-.5-1.4-.9-4.2-1.3s-6.2-.5-10.2-.5-7.5.2-10.2.5c-2.8.4-4.2.8-4.2 1.3s1.4 1 4.2 1.3 6.2.6 10.2.6 7.4-.2 10.2-.6 4.2-.8 4.2-1.3z" fill="#f39400"/><path class="st11" d="M2562.6 54.2l-1.7-.7c0 .1-.1.4-.2.7-1.2 2.8-1.5 4.7-1 5.7.6 1 1.7 2.1 3.4 3.5 1.7 1.2 2.5 2.2 2.5 3 0 2.8-1 8.7-3.1 17.8l1.7.4c2.1-9.2 3.1-15.3 3.1-18.2 0-1.3-1-2.8-3.1-4.4-1.5-1.2-2.5-2.1-3-2.9-.3-.5.1-1.9 1.1-4.1.1-.4.2-.7.3-.8zm18.7-1.3l-1.6.8c1.2 2.6 1.6 4.5 1.2 5.5-.3.6-1.6 1.8-4 3.4-.4.3-.6.4-.7.5-1.8 1.4-1.7 8.5.4 21.4l1.8-.3c-2-12.1-2.3-18.7-1.1-19.6 0-.1.2-.2.5-.4 2.8-1.8 4.3-3.2 4.7-4.1.6-1.7.2-4-1.2-7.2z"/><path class="st1" d="M2579.7 47l-.6-3.3c-.4-2.6-.5-4.7-.3-6.3.2-1.4.7-2.1 1.4-2.1 1 0 1.5.7 1.6 2.2.1 1.6-.3 3.8-1.2 6.4-.1 1.2-.5 2.2-.9 3.1zm-16.9 1.3c-.2-.6-.4-1.3-.7-1.9-.9-3-1.3-5.6-1.3-7.7.1-2.1.7-3.2 1.8-3.4.4-.1.7.3 1 1.2.3 1.2.4 2.9.2 5-.2 2.5-.5 4.8-1 6.8zm8.4.8c-.4-1-.7-2.1-1-3.3-.8-3.1-1.1-5.6-.9-7.7.1-1.9.6-2.9 1.5-2.9 1 .1 1.6.8 1.8 2.3.3 1.7.2 3.8-.4 6.4-.1 2-.5 3.7-1 5.2zm-10.2 4.3l1.6.8c.1-.3.3-.7.5-1.1.3.4.5.9.8 1.3 1.7 2.5 3.2 3.3 4.7 2.3 1-.6 1.9-1.7 2.7-3.1.1.1.1.3.2.4.6 1.1 1.3 1.9 1.9 2.3 1 .7 1.9.8 2.7.2 1.1-.7 2.1-2 3.2-3.9.1.3.3.7.4 1.1l1.7-.6-.9-3c.6-1.5 1.3-3.4 2-5.5.9-3 1.3-5.4 1.2-7.2-.1-2.6-1.3-3.8-3.4-3.8-1.8 0-2.9 1.3-3.3 3.8-.2 1.7-.1 3.9.4 6.7.3 2 .6 4 1.2 6-1.2 2.6-2.3 4.3-3.5 5-.2.1-.4.1-.7-.1-.4-.3-.9-.9-1.4-1.8-.3-.4-.5-.9-.8-1.4.8-1.9 1.4-4.3 2-7.2s.7-5.3.3-7.1c-.4-2.5-1.6-3.8-3.6-3.8-2-.1-3.1 1.4-3.4 4.5-.2 2.2.1 5 1 8.3.4 2 1 3.8 1.7 5.3-.8 1.7-1.7 3-2.7 3.7-.4.3-1.2-.4-2.3-1.9-.4-.7-.9-1.5-1.3-2.4.9-2.7 1.5-5.8 1.7-9.3.2-2.3.1-4.2-.3-5.6-.6-1.9-1.6-2.8-3.1-2.5-2 .4-3 2.1-3.2 5.1-.1 2.3.3 5.1 1.3 8.3.5 1.5 1.1 2.9 1.6 4.1-.2.6-.6 1.4-.9 2.1z"/><path class="st5" d="M2591.2 81.1v1.3c0 .8 0 1.8-.1 2.8s-.3 1.9-.7 2.6c-.3.5-.6 1-.9 1.4s-.7.8-.9 1c-.4.4-.6.8-.4 1.3.1.3.2.7.1 1.1 0 .4-.2.7-.4 1.1l-.4.2-.6 2.7.5 1c.4.7.3 1.3-.3 1.8l-1 1.1-.6 2.7.2.4c.2.6 0 1.2-.5 1.7l-.2.2v.2s-.4.4-1.1 1.2c-.7.8-2 1.5-4 2.3s-4.8 1.2-8.6 1.2-6.8-.4-8.7-1.2-3.3-1.5-4-2.3-1.1-1.2-1.1-1.2l-.4-2-.4-.4c-.8-.8-1-1.7-.6-2.7l.2-.5-.5-2.5-.5-.5c-.7-.8-.9-1.6-.6-2.6l.2-.7-.5-2.5s-.2-.3-.7-.8c-.4-.5-1-1.4-1.6-2.7-.4-.7-.6-1.6-.7-2.6-.1-1.1-.1-2-.1-2.8v-1.3s.6.2 1.9.6 3.4.8 6.3 1.3 6.8.6 11.6.6 8.7-.2 11.5-.6 5-.8 6.3-1.3c1.6-.4 2.3-.6 2.3-.6z"/><path class="st13" d="M2554.7 91.3c5.3.2 10.1.2 14.4.1 4.3-.1 7.6-.2 10.2-.4 2.5-.2 3.8-.3 3.8-.3 1.1-.1 1.6-.1 1.5 0s-.5.3-1.3.6c-.7.3-1.5.5-2.4.7-4.5.7-8.3 1.2-11.5 1.4-3.2.3-5.9.4-8.2.4h-6l-.5-2.5zm1.8 8.8l-.6-2.5c1.9 0 4.4-.1 7.7-.3s6.9-.5 11-1.1c4.1-.5 8.4-1.3 12.8-2.3l-.6 2.7c-4.2 1-8.3 1.7-12.2 2.2s-7.4.8-10.6 1c-3 .2-5.6.3-7.5.3zm29.6.4l-.5 2.7c-2.1.4-4.3.8-6.7 1.2-2.4.4-4.7.8-6.8 1-.3.1-.5.3-.5.6s.2.5.6.6c2.3.3 4.4.3 6.4.1s3.5-.4 4.7-.6 1.7-.4 1.7-.4l-.3.9c-.2.6-.7 1.3-1.5 2-.8.8-2.1 1.4-4 2s-4.5.9-7.8.9c-3.4 0-6-.3-7.9-.9s-3.2-1.3-4-2c-.8-.8-1.3-1.4-1.5-2s-.2-.9-.2-.9l-.4-1.8c3-.1 7-.3 12.2-.8s10.6-1.3 16.5-2.6z"/><path class="st5" d="M2552.4 79.5c-1.1-.4-1.9-.1-2.3 1-.3.5-.3 1-.2 1.4.2.4.6.7 1.2.9 4.1 1.8 10.9 2.7 20.3 2.7s16.2-.9 20.4-2.7c1.2-.4 1.5-1.2 1-2.3-.4-1.1-1.2-1.4-2.3-1-3.7 1.6-10.1 2.4-19.1 2.4s-15.4-.8-19-2.4z"/><path class="st1" d="M2558.6 12c-2.8.7-5.5 2.2-8 4.5s-4.4 4.7-5.6 7.3c-1.2 2.4-1.7 4.9-1.8 7.6s.6 5.2 1.9 7.5c.2.4.4.7.7 1.1.3.3.6.6 1 .8.7.3 1.4.4 2.2.1.8-.3 1.4-.7 1.9-1.3.5-.5.9-1.1 1.3-1.8s.7-1.4 1.1-2.1c1-2 2.2-3.6 3.8-4.9 1.6-1.3 3.3-2.5 5.1-3.6s3.4-2.3 4.9-3.8c.8-.8 1.4-1.7 2-2.6.6-1 .8-2 .7-3.1-.1-1-.6-2-1.4-3-1.2-1.5-2.7-2.5-4.4-2.8-1.8-.5-3.6-.4-5.4.1z"/><path class="st10" d="M2555.6 85.6c1.2.5 3 1 5.5 1.5 2.4.5 5.7.8 9.9.8 4.3 0 7.7-.3 10.3-.9s4.6-1.2 5.9-1.8c.4-.2.5-.5.4-.9s-.4-.6-.8-.6c-1.8.2-4.1.4-7 .6s-6 .3-9.4.3c-3.3 0-6.1-.1-8.6-.2-2.4-.1-4.4-.3-5.9-.4-.4 0-.7.2-.8.6s.1.8.5 1z"/><path class="st13" d="M4415.1 6.2c2 0 3.7.7 5.1 2.2 1.4 1.4 2.1 3.1 2.1 5.1v93.8c0 2-.7 3.7-2.1 5.1s-3.1 2.1-5.1 2.1h-93.8c-2 0-3.7-.7-5.1-2.1s-2.1-3.1-2.1-5.1V13.4c0-1.9.7-3.6 2.1-5.1 1.4-1.4 3.1-2.2 5.1-2.2h93.8v.1z"/><path class="st7" d="M4409.4 6.2c1.9 0 3.5.7 4.8 2s2 3 1.8 4.8v88.3c0 1.8-.6 3.4-1.9 4.7-1.3 1.3-2.9 2-4.8 2h-88.5c-1.9 0-3.4-.7-4.8-2s-2-2.9-2-4.8V13c0-1.9.7-3.5 2-4.8s2.9-2 4.8-2h88.6z"/><path class="st8" d="M4364.2 30c-1 .1-1.8.4-2.5 1.2-.6.7-.9 1.5-.9 2.5 0 .9.4 1.7 1.1 2.5l8.9 8.9c.3.4.5.8.5 1.3s-.2.9-.5 1.3L4341.5 77c-.7.7-1.1 1.6-1.1 2.5s.4 1.8 1.1 2.5l5.1 5.1c.7.7 1.6 1.1 2.5 1.1 1 0 1.8-.4 2.6-1.1l29.3-29.3c.3-.4.7-.6 1.3-.6.5 0 .9.2 1.3.6l8.9 8.9c.7.7 1.5 1 2.5 1s1.8-.3 2.5-.9 1.1-1.4 1.2-2.4V33.8c.1-1.1-.3-2-1.1-2.7-.8-.7-1.7-1.1-2.8-1l-30.6-.1z"/><g class="st6"><path class="st1" d="M4346.3 14.3c0 .6-.6 1.3-1.9 1.9s-2.9 1.4-4.8 2.3-3.8 1.9-5.7 3.2c-1.9 1.3-3.5 2.9-4.6 4.8-.9 1.3-1.6 2.9-2 4.6-.4 1.7-.9 3.3-1.4 4.6s-1.3 2-2.3 2c-1.1 0-1.7-.9-1.9-2.6-.2-1.7-.3-3.7-.3-5.8.1-3.1.3-5.8.6-8.3.4-2.4 1-4.3 2.1-5.6 1-1.3 2.5-2.2 4.4-2.6s4.6-.8 8-.9c2.8-.1 4.9-.1 6.3 0s2.3.4 2.8.8.7.9.7 1.6z"/></g><path class="st14" d="M19.4 100.4c-2.4-.3-3.6-1.4-3.8-3.8v-5.4c.3-5.8 1.9-11.3 4.8-16.1l32.2-49.4.9-1.4-1.4-.9-9-6-1.4-.9-.9 1.4-17.4 26.5-1.4-1.6c-3.1-4.3-4.9-9.1-5.2-14.3V10H2.6v18.7c.1 4.3.9 8.4 2.4 12.4C6.4 45 8.4 48.7 11 52l4.1 5-6.6 10.3c-4.2 7.3-6.6 15.2-7 23.6v5.7c.5 5.3 2.3 9.5 5.3 12.5s7.2 4.8 12.5 5.3H57v-14.2h-1.7l-35.9.2zM141.3 3.1h-1.7v13.2h13V3.1h-1.7zm-6.9 13.2h1.6V3.1h-12.9v13.2h1.7zm-2.9 4c-4.8.1-8.6 2.1-11.3 6-2.4 3.5-3.6 7.5-3.5 11.8v58.5c-.3 2.4-1.5 3.6-3.8 3.8h-6.6c-3.4-.4-5.6-2.2-6.9-5.4l-2.3-8.5c-1.4-6.1-1.9-12.3-1.3-18.5l3.8-33.4c.7-5.2-.6-9.9-3.9-13.8-2.9-3.1-6.5-4.7-10.7-4.7l-8.7.5-1.6.1v13.6h10.4c.5.9.7 1.8.6 2.8l-3.8 33.3c-.8 7.9-.2 15.9 1.6 23.7l2.3 8.9v.2c3.3 9.4 10.2 14.6 20.3 15.5h7.2c5.2-.5 9.4-2.3 12.4-5.3s4.8-7.2 5.3-12.4V37.9c-.2-1.5.2-2.7 1.3-3.6h9V20.2h-1.7l-8.1.1zm72.9 14.2V20.3H182V10.2h-14.2v10.1h-8v14.2h8v28.1c-.1 6.7-.7 13.5-1.9 20.1l-5.8 27.3-.3 1.6 1.6.3 10.6 2.2 1.6.3.3-1.6 5.7-27.4c1.4-7.5 2.2-15.2 2.4-22.8V34.5h22.4z"/><path class="st14" d="M227.8 53.2c-3.1-4.2-7.2-6.3-12.3-6.3h-23V61h21l-2.3 4.4-.8 1.4 1.4.8 9.5 5.3 1.5.8.8-1.5 4.1-7.5c2.1-3.9 2.1-7.8.1-11.5zM226 3.4h-1.7v13h13.2v-13H226zm-6.9 13h1.7v-13h-13v13h11.3zM203 100.5c-2.1 0-3.2-.8-3.7-2.5V87.1h-14.2v11.4c.7 5 2.6 8.9 5.6 11.6s7.1 4.2 12.2 4.6h25.8v-14.2H203zm110.2-69.9H303V10.2h-14.1v20.4h-15.8V10.2h-14.2v20.4h-14.7v14.2h14.7v52.5c.5 5.3 2.2 9.4 5.2 12.4s7.2 4.8 12.5 5.3h27.9v-14.2H277c-2.5-.3-3.6-1.5-3.8-3.8V44.8H289V60c0 1.4-.4 2.6-1.3 3.7h-8.4v14.2h9.4c4.6-.3 8.3-2.4 10.9-6.3 2.2-3.5 3.4-7.4 3.5-11.6V44.8H315V30.6h-1.8zm73.4 24.3c-5.9-5.7-13-8.8-21.2-9.3h-12.1V7.5h-14.2v105.1h14.2V59.8h12c4.1.3 7.7 1.9 10.9 4.8l11 11.9 1.1 1.2 1.2-1.1 8-7.3 1.2-1.1-1.1-1.2-11-12.1zM428.1 97c-1.7-.2-2.5-.9-2.6-2.6V46.1h13.6c4.2-.2 8.2-1.5 11.7-3.9 3.5-2.5 6.2-5.7 7.9-9.6l4.1-10.8.6-1.6-1.6-.6-10.1-3.8-1.6-.6-.6 1.6-4 10.7c-1.4 2.6-3.6 4.1-6.6 4.6h-13.5V7.3h-14.2v87.4c.5 4.9 2.1 8.8 4.9 11.5 2.8 2.8 6.7 4.4 11.6 5H465V97h-36.9zm28.7-95.2h-1.7v13.7h13.5V1.8h-11.8zm16.6 0h-1.7v13.6h13.5V1.8h-1.7zM521 57.2V44.7h-26.6v14.2H521v-1.7zm31.6-49.9h-1.7v37.8c-.2 5-1.5 9.9-3.9 14.5l-26.5 45.5-.9 1.5 1.5.8 9.3 5.3 1.4.8.8-1.4 26.6-45.4c3.5-6.7 5.4-13.9 5.7-21.4v-38h-12.3zM519.3 25h1.7V10.8h-26.6V25h24.9zm130-.8c-.5-5-2.1-8.9-4.9-11.7-2.8-2.8-6.7-4.4-11.6-4.9h-51.5v14.2h51.2c1.7.1 2.5.9 2.7 2.6v20.3c-.4 4.3-2 8.1-4.7 11.5L615 71.5c-2.2-3.7-3.5-7.8-3.7-12.1V44.5h-14.2v14.9c.2 3.7.9 7.4 2.2 11 1.1 3.8 2.8 7.3 5 10.4l24.2 32.2 1 1.3 1.3-1 8.6-6.4 1.3-1-1-1.3-16.4-22 16.9-16.7c5.4-6 8.4-13.1 8.8-21.2l.3-20v-.5zM917.8 100c-2.4-.3-3.6-1.4-3.8-3.8v-5.4c.3-5.8 1.9-11.3 4.8-16.1L951 25.3l.9-1.4-1.4-.9-9-6-1.4-.9-.9 1.4-17.4 26.7-1.4-1.6c-3.1-4.3-4.9-9.1-5.2-14.3V9.6H901v18.7c.1 4.3.9 8.4 2.4 12.4 1.4 3.9 3.4 7.6 6 10.9l4.1 5-6.6 10.4c-4.2 7.3-6.6 15.2-7 23.6v5.7c.5 5.3 2.3 9.5 5.3 12.5s7.2 4.8 12.5 5.3h37.9V100h-37.8zm121.9-97.2h-1.7V16h13V2.8h-1.7zm-6.9 13.2h1.6V2.8h-12.9V16h1.7zm-2.9 4c-4.8.1-8.6 2.1-11.3 6-2.4 3.5-3.6 7.5-3.5 11.8v58.5c-.3 2.4-1.5 3.6-3.8 3.8h-6.6c-3.4-.4-5.6-2.2-6.9-5.4l-2.3-8.5c-1.4-6.1-1.9-12.3-1.3-18.5l3.8-33.4c.7-5.2-.6-9.9-3.9-13.8-2.9-3.1-6.5-4.7-10.7-4.7l-8.7.5-1.6.1V30h10.4c.5.9.7 1.8.6 2.8l-3.8 33.3c-.8 7.9-.2 15.9 1.6 23.7l2.3 8.9v.2c3.3 9.4 10.2 14.6 20.3 15.5h7.2c5.2-.5 9.4-2.3 12.4-5.3s4.8-7.2 5.3-12.4V37.6c-.2-1.5.2-2.7 1.3-3.6h9V20h-9.8zm72.9 14.1V20h-22.4V9.9h-14.2V20h-8v14.2h8v28.1c-.1 6.7-.7 13.5-1.9 20.1l-5.8 27.3-.3 1.6 1.6.3 10.6 2.2 1.6.3.3-1.6 5.7-27.4c1.4-7.5 2.2-15.2 2.4-22.8V34.1h22.4z"/><path class="st14" d="M1126.2 52.9c-3.1-4.2-7.2-6.3-12.3-6.3h-23v14.1h21l-2.3 4.4-.8 1.4 1.4.8 9.5 5.3 1.5.8.8-1.5 4.1-7.5c2.1-3.9 2.1-7.8.1-11.5zm-1.7-49.8h-1.7V16h13.2V3.1h-11.5zm-7 12.9h1.7V3.1h-13V16h11.3zm-16.1 84.2c-2.1 0-3.2-.8-3.7-2.5V86.8h-14.2v11.3c.7 5 2.6 8.9 5.6 11.6s7.1 4.2 12.2 4.6h25.8v-14.2h-1.7l-24 .1zm110.2-69.9h-10.2V9.9h-14.1v20.4h-15.8V9.9h-14.2v20.4h-14.7v14.2h14.7V97c.5 5.3 2.2 9.4 5.2 12.4s7.2 4.8 12.5 5.3h27.9v-14.2h-27.5c-2.5-.3-3.6-1.5-3.8-3.8V44.5h15.8v15.2c0 1.4-.4 2.6-1.3 3.7h-8.4v14.2h9.4c4.6-.3 8.3-2.4 10.9-6.3 2.2-3.5 3.4-7.4 3.5-11.6V44.5h11.9V30.3h-1.8zm73.4 24.3c-5.9-5.7-13-8.8-21.2-9.3h-12.1V7.2h-14.2v105.1h14.2V59.5h12c4.1.3 7.7 1.9 10.9 4.8l11 11.9 1.1 1.2 1.2-1.1 8-7.3 1.2-1.1-1.1-1.2-11-12.1zm41.5 42c-1.7-.2-2.5-.9-2.6-2.6V45.7h13.6c4.2-.2 8.2-1.5 11.7-3.9 3.5-2.5 6.2-5.7 7.9-9.6l4.1-10.8.6-1.6-1.6-.6-10.1-3.8-1.6-.6-.6 1.6-4 10.7c-1.4 2.6-3.6 4.1-6.6 4.6h-13.5V7h-14.2v87.4c.5 4.9 2.1 8.8 4.9 11.5 2.8 2.8 6.7 4.4 11.6 5h37.3V96.6h-36.9zm28.8-95.2h-1.7v13.7h13.5V1.4h-11.8zm16.5 0h-1.7v13.7h13.5V1.4h-1.7zm47.6 55.4V44.3h-26.6v14.2h26.6v-1.7zM1451 7h-1.7v37.8c-.2 5-1.5 9.9-3.9 14.5l-26.5 45.5-.9 1.5 1.5.8 9.3 5.3 1.4.8.8-1.4 26.6-45.4c3.5-6.7 5.4-13.9 5.7-21.4V7H1451zm-33.3 17.6h1.7V10.4h-26.6v14.3h1.7l23.2-.1zm130-.8c-.5-5-2.1-8.9-4.9-11.7s-6.7-4.4-11.6-4.9h-51.5v14.3h51.2c1.7.1 2.5.9 2.7 2.6v20.3c-.4 4.3-2 8.1-4.7 11.5l-15.5 15.3c-2.2-3.7-3.5-7.8-3.7-12.1V44.2h-14.2v14.9c.2 3.7.9 7.4 2.2 11 1.1 3.8 2.8 7.3 5 10.4l24.2 32.2 1 1.3 1.3-1 8.6-6.4 1.3-1-1-1.3-16.4-22 16.9-16.7c5.4-6 8.4-13.1 8.8-21.2l.3-20v-.6zm268.5 76.6c-2.4-.3-3.6-1.4-3.8-3.8v-5.4c.3-5.8 1.9-11.3 4.8-16.1l32.2-49.4.9-1.4-1.4-.9-9-6-1.4-.9-.9 1.4-17.4 26.7-1.4-1.6c-3.1-4.3-4.9-9.1-5.2-14.3V10h-14.2v18.7c.1 4.3.9 8.4 2.4 12.4 1.4 3.9 3.4 7.6 6 10.9l4.1 5-6.8 10.4c-4.2 7.3-6.6 15.2-7 23.6v5.7c.5 5.3 2.3 9.5 5.3 12.5s7.2 4.8 12.5 5.3h37.9v-14.2h-1.7l-35.9.1zm121.9-97.3h-1.6v13.2h12.9V3.1h-1.7zm-6.9 13.2h1.6V3.1h-12.9v13.2h1.7zm-2.9 4c-4.8.1-8.6 2.1-11.3 6-2.4 3.5-3.6 7.5-3.5 11.8v58.5c-.3 2.4-1.5 3.6-3.8 3.8h-6.6c-3.4-.4-5.6-2.2-6.9-5.4l-2.3-8.5c-1.4-6.1-1.9-12.3-1.3-18.5l3.8-33.4c.7-5.2-.6-9.9-3.9-13.8-2.9-3.1-6.5-4.7-10.7-4.7l-8.7.5-1.6.1v13.6h10.4c.5.9.7 1.8.6 2.8l-3.8 33.3c-.8 7.9-.2 15.9 1.6 23.7l2.3 8.9v.2c3.3 9.4 10.2 14.6 20.3 15.5h7.2c5.2-.5 9.4-2.3 12.4-5.3s4.8-7.2 5.3-12.4V37.9c-.2-1.5.2-2.7 1.3-3.6h9v-14h-9.8zm72.9 14.2V20.3h-22.4V10.2h-14.2v10.1h-8v14.2h8v28.1c-.1 6.7-.7 13.5-1.9 20.1l-5.8 27.3-.3 1.6 1.6.3 10.6 2.2 1.6.3.3-1.6 5.7-27.4c1.4-7.5 2.2-15.2 2.4-22.8V34.5h22.4z"/><path class="st14" d="M2024.6 53.2c-3.1-4.2-7.2-6.3-12.3-6.3h-23V61h21l-2.3 4.4-.8 1.4 1.4.8 9.5 5.3 1.5.8.8-1.5 4.1-7.5c2.1-3.9 2.1-7.8.1-11.5zm-1.7-49.8h-1.7v13h13.2v-13h-11.5zm-7 13h1.7v-13h-13v13h11.3zm-16.1 84.1c-2.1 0-3.2-.8-3.7-2.5V87.1h-14.2v11.4c.7 5 2.6 8.9 5.6 11.6s7.1 4.2 12.2 4.6h25.8v-14.2h-25.7zM2110 30.6h-10.2V10.2h-14.1v20.4h-15.8V10.2h-14.2v20.4H2041v14.2h14.7v52.5c.5 5.3 2.2 9.4 5.2 12.4s7.2 4.8 12.5 5.3h27.9v-14.2h-27.5c-2.5-.3-3.6-1.5-3.8-3.8V44.8h15.8V60c0 1.4-.4 2.6-1.3 3.7h-8.4v14.2h9.4c4.6-.3 8.3-2.4 10.9-6.3 2.2-3.5 3.4-7.4 3.5-11.6V44.8h11.9V30.6h-1.8zm73.4 24.3c-5.9-5.7-13-8.8-21.2-9.3h-12.1V7.5h-14.2v105.1h14.2V59.8h12c4.1.3 7.7 1.9 10.9 4.8l11 11.9 1.1 1.2 1.2-1.1 8-7.3 1.2-1.1-1.1-1.2-11-12.1zm41.5 42.1c-1.7-.2-2.5-.9-2.6-2.6V46.1h13.6c4.2-.2 8.2-1.5 11.7-3.9 3.5-2.5 6.2-5.7 7.9-9.6l4.1-10.8.6-1.6-1.6-.6-10.1-3.8-1.6-.6-.6 1.6-4 10.7c-1.4 2.6-3.6 4.1-6.6 4.6h-13.5V7.3H2208v87.4c.5 4.9 2.1 8.8 4.9 11.5 2.8 2.8 6.7 4.4 11.6 5h37.3V97h-36.9zm28.8-95.2h-1.7v13.7h13.5V1.8h-11.8zm16.5 0h-1.7v13.6h13.5V1.8h-1.7zm47.6 55.4V44.7h-26.6v14.2h26.6v-1.7zm31.6-49.9h-1.7v37.8c-.2 5-1.5 9.9-3.9 14.5l-26.5 45.5-.9 1.5 1.5.8 9.3 5.3 1.4.8.8-1.4 26.6-45.4c3.5-6.7 5.4-13.9 5.7-21.4v-38h-12.3zM2316.1 25h1.7V10.8h-26.6V25h24.9zm130-.8c-.5-5-2.1-8.9-4.9-11.7-2.8-2.8-6.7-4.4-11.6-4.9h-51.5v14.2h51.2c1.7.1 2.5.9 2.7 2.6v20.3c-.4 4.3-2 8.1-4.7 11.5l-15.5 15.3c-2.2-3.7-3.5-7.8-3.7-12.1V44.5h-14.2v14.9c.2 3.7.9 7.4 2.2 11 1.1 3.8 2.8 7.3 5 10.4l24.2 32.2 1 1.3 1.3-1 8.6-6.4 1.3-1-1-1.3-16.4-22 16.9-16.7c5.4-6 8.4-13.1 8.8-21.2l.3-19.9v-.6zm268.5 76.2c-2.4-.3-3.6-1.4-3.8-3.8v-5.4c.3-5.8 1.9-11.3 4.8-16.1l32.2-49.4.9-1.4-1.4-.9-9-6-1.4-.9-.9 1.4-17.4 26.7-1.4-1.6c-3.1-4.3-4.9-9.1-5.2-14.3V10h-14.2v18.7c.1 4.3.9 8.4 2.4 12.4 1.4 3.9 3.4 7.6 6 10.9l4.1 5-6.8 10.4c-4.2 7.3-6.6 15.2-7 23.6v5.7c.5 5.3 2.3 9.5 5.3 12.5s7.2 4.8 12.5 5.3h37.9v-14.2h-1.7l-35.9.1zm121.9-97.3h-1.6v13.2h12.9V3.1h-1.7zm-6.9 13.2h1.6V3.1h-12.9v13.2h1.7zm-2.9 4c-4.8.1-8.6 2.1-11.3 6-2.4 3.5-3.6 7.5-3.5 11.8v58.5c-.3 2.4-1.5 3.6-3.8 3.8h-6.6c-3.4-.4-5.6-2.2-6.9-5.4l-2.3-8.5c-1.4-6.1-1.9-12.3-1.3-18.5l3.8-33.4c.7-5.2-.6-9.9-3.9-13.8-2.9-3.1-6.5-4.7-10.7-4.7l-8.7.5-1.6.1v13.6h10.4c.5.9.7 1.8.6 2.8l-3.8 33.3c-.8 7.9-.2 15.9 1.6 23.7l2.3 8.9v.2c3.3 9.4 10.2 14.6 20.3 15.5h7.2c5.2-.5 9.4-2.3 12.4-5.3s4.8-7.2 5.3-12.4V37.9c-.2-1.5.2-2.7 1.3-3.6h9v-14h-9.8zm72.9 14.2V20.3h-22.4V10.2H2863v10.1h-8v14.2h8v28.1c-.1 6.7-.7 13.5-1.9 20.1l-5.8 27.3-.3 1.6 1.6.3 10.6 2.2 1.6.3.3-1.6 5.7-27.4c1.4-7.5 2.2-15.2 2.4-22.8V34.5h22.4z"/><path class="st14" d="M2923 53.2c-3.1-4.2-7.2-6.3-12.3-6.3h-23V61h21l-2.3 4.4-.8 1.4 1.4.8 9.5 5.3 1.5.8.8-1.5 4.1-7.5c2.1-3.9 2.1-7.8.1-11.5zm-1.7-49.8h-1.7v13h13.2v-13h-11.5zm-7 13h1.7v-13h-13v13h11.3zm-16.1 84.1c-2.1 0-3.2-.8-3.7-2.5V87.1h-14.2v11.4c.7 5 2.6 8.9 5.6 11.6s7.1 4.2 12.2 4.6h25.8v-14.2h-25.7zm110.2-69.9h-10.2V10.2h-14.1v20.4h-15.8V10.2h-14.2v20.4h-14.7v14.2h14.7v52.5c.5 5.3 2.2 9.4 5.2 12.4s7.2 4.8 12.5 5.3h27.9v-14.2h-27.5c-2.5-.3-3.6-1.5-3.8-3.8V44.8h15.8V60c0 1.4-.4 2.6-1.3 3.7h-8.4v14.2h9.5c4.6-.3 8.3-2.4 10.9-6.3 2.2-3.5 3.4-7.4 3.5-11.6V44.8h11.9V30.6h-1.9zm73.4 24.3c-5.9-5.7-13-8.8-21.2-9.3h-12.1V7.5h-14.2v105.1h14.2V59.8h12c4.1.3 7.7 1.9 10.9 4.8l11 11.9 1.1 1.2 1.2-1.1 8-7.3 1.2-1.1-1.1-1.2-11-12.1zm41.5 42.1c-1.7-.2-2.5-.9-2.6-2.6V46.1h13.6c4.2-.2 8.2-1.5 11.7-3.9 3.5-2.5 6.2-5.7 7.9-9.6l4.1-10.8.6-1.6-1.6-.6-10.1-3.8-1.6-.6-.6 1.6-4 10.7c-1.4 2.6-3.6 4.1-6.6 4.6h-13.5V7.3h-14.2v87.4c.5 4.9 2.1 8.8 4.9 11.5 2.8 2.8 6.7 4.4 11.6 5h37.3V97h-36.9zm28.8-95.2h-1.7v13.7h13.5V1.8h-11.8zm16.5 0h-1.7v13.6h13.5V1.8h-1.7zm47.6 55.4V44.7h-26.6v14.2h26.6v-1.7zm31.7-49.9h-1.7v37.8c-.2 5-1.5 9.9-3.9 14.5l-26.5 45.5-.9 1.5 1.5.8 9.3 5.3 1.4.8.8-1.4 26.6-45.4c3.5-6.7 5.4-13.9 5.7-21.4v-38h-12.3zM3214.5 25h1.7V10.8h-26.6V25h24.9zm130-.8c-.5-5-2.1-8.9-4.9-11.7-2.8-2.8-6.7-4.4-11.6-4.9h-51.5v14.2h51.2c1.7.1 2.5.9 2.7 2.6v20.3c-.4 4.3-2 8.1-4.7 11.5l-15.5 15.3c-2.2-3.7-3.5-7.8-3.7-12.1V44.5h-14.2v14.9c.2 3.7.9 7.4 2.2 11 1.1 3.8 2.8 7.3 5 10.4l24.2 32.2 1 1.3 1.3-1 8.6-6.4 1.3-1-1-1.3-16.4-22 16.9-16.7c5.4-6 8.4-13.1 8.8-21.2l.3-20v-.5z"/><path class="st15" d="M5283.9 42.6l14.2.4.5-20.4c0-.8-.3-1.3-.9-1.6-.4-.2-1.1-.4-1.9-.6s-1.9-.4-3.3-.5c-1.8-.1-3.3-.1-4.5.1s-2.1.4-2.7.6c-.6.3-1 .8-1 1.5l-.4 20.5z"/><path class="st16" d="M5297.7 20.9c.6.3.9.9.9 1.6l-.1 5.5c-.2-.1-.4-.2-.5-.3-.5-.3-1.2-.5-2.1-.7s-2.1-.4-3.6-.5c-2-.1-3.6-.1-5 .1s-2.3.4-2.9.6h-.2l.2-5.3c0-.8.3-1.3 1-1.5.6-.2 1.6-.4 2.7-.6 1.2-.2 2.7-.2 4.5-.1 1.3.1 2.4.3 3.3.5.7.3 1.4.5 1.8.7z"/><path class="st15" d="M5255.4 37.4l16.6.5.6-24.1c0-.7-.4-1.2-1.1-1.4-.5-.2-1.3-.4-2.2-.6-1-.2-2.2-.4-3.8-.4-2.1-.1-3.9-.1-5.2.1-1.4.2-2.4.4-3.1.6-.8.2-1.2.7-1.3 1.4l-.5 23.9z"/><path class="st16" d="M5271.5 12.3c.7.3 1.1.7 1.1 1.4l-.2 5.2-.6-.3c-.5-.2-1.3-.4-2.4-.6s-2.5-.4-4.2-.5c-2.2-.1-4.1-.1-5.7.1s-2.7.4-3.5.6c0 0-.1 0-.3.1l.1-5c.1-.8.5-1.3 1.3-1.4.7-.2 1.7-.4 3.1-.6 1.4-.2 3.1-.2 5.2-.1 1.5.1 2.8.2 3.8.4 1 .3 1.8.5 2.3.7z"/><path class="st17" d="M5257.9 69s.3-.7 1-2.2 1.4-3.8 2.2-6.9c.8-3.1 1.5-7.2 2.1-12.2.6-4.5.7-7.6.3-9.3-.4-1.7-.6-2.6-.6-2.6l-29.4 1.7c0 5.3-.4 10-1.1 13.9s-1.5 7.2-2.4 9.9c-.9 2.6-1.7 4.6-2.4 5.9-.7 1.3-1.1 1.9-1.1 1.9l-.3 6.2 31.3 1.4.4-7.7z"/><path class="st4" d="M5263 43l-.2 3.8-29.8.6c.1-1.2.2-2.4.3-3.7l29.7-.7zm-.5 11.1l-.8 3.7H5231c.3-1.2.6-2.3.9-3.6l30.6-.1zm-4 10.8c-.3.6-.7 1.3-1.3 2.2-.6.9-.9 1.3-.9 1.3l-29.4-.1c.2-.3.4-.8.7-1.4.3-.6.6-1.3 1-2.2l29.9.2z"/><path class="st4" d="M5256.3 69.1v-.7c.6-.6 1.4-2.1 2.6-4.4 1.1-2.3 2.1-5.7 3-10.2s1.3-10.5 1.2-17.8l45.3 7.4-1.7 20 10 1.3-1.1 11.4-59.3-7z"/><path class="st15" d="M5307.8 49.3l-.4 3.7-44.8-6.1c.1-.5.1-1.3.2-2.4s.1-1.6.1-1.6l44.9 6.4zm-1.3 14l-45.6-5.6c.2-.5.4-1.1.5-1.7s.2-1.3.3-1.9l45.2 5.7-.4 3.5zm-48 1.6l57.5 6.6-.4 3.6-59.4-6.5v-.1c.2-.3.5-.8.9-1.4s.9-1.5 1.4-2.2z"/><path class="st17" d="M5304.4 52.5l3.1.4-.2 2.7-44.9-6v-1.4c.1-.3.1-.5.1-.9v-.5l6.1.9.4-3.8 1.8.3-.5 3.8 3.9.6.4-3.8 1.8.2-.5 3.8 3.8.6.5-3.8 1.7.2-.4 3.8 3.8.6.5-3.8 1.7.3-.4 3.7 3.8.6.5-3.8 1.7.3-.4 3.7 3.8.6.5-3.7 1.7.2-.4 3.7 3.8.6.4-3.7 1.8.3.1 3.3zm3.8-7.2l.2-2.6-45.5-7v2.7zm-4.8 17.7l13.2 1.6-.3 2.7-56.1-6.9c.3-1 .4-1.6.6-2 .1-.4.2-.6.2-.6l6.6.8.4-3.6 1.8.2-.4 3.6 3.8.5.4-3.6 1.7.2-.3 3.7 3.8.5.4-3.7 1.7.3-.4 3.6 3.9.5.4-3.6 1.7.2-.4 3.6 3.9.5.4-3.6 1.7.2-.4 3.7 3.8.5.4-3.7 1.8.3-.4 3.6 3.8.5.4-3.6 1.8.2.1 3.4zm8.4 11.6l3.8.5-.6 8.3-59.3-6.1.6-8.9 5.9.5.4-3.6 1.7.3-.3 3.5 4.2.5.4-3.6 1.7.2-.4 3.6 4.3.5.3-3.6 1.8.2-.4 3.6 4.2.4.4-3.5 1.7.2-.3 3.5 4.2.5.4-3.5 1.8.1-.5 3.7 4.3.5.3-3.7 1.9.3-.4 3.6 4.1.5.4-3.6 1.8.2-.3 3.6 4.1.4.4-3.5 1.8.2-.4 3.5 4.2.5.3-3.6 1.9.2z"/><path class="st15" d="M5214.4 73.8c5.6 0 11.7.1 18.2.4s13.1.7 19.8 1.2c6.7.5 13.3 1 19.8 1.6s12.6 1.2 18.3 1.7c5.7.6 10.7 1.1 15.1 1.6s7.7.9 10.2 1.2c2.5.3 3.7.4 3.7.4.8.1 1.2.5 1.2 1.3-.1 1.1-.2 2.7-.3 4.8-.2 2.1-.4 4.4-.6 6.7-.2 2.4-.5 4.6-.8 6.6-.3 2.1-.6 3.6-.9 4.5-.8 2.6-2.3 4.6-4.4 6.2-2.1 1.5-4.2 2.3-6.5 2.3h-72.5c-1.2 0-2.9-.4-4.9-1.3-2.1-.9-4.2-2.3-6.6-4.3-2.3-2-4.5-4.7-6.5-8-1.5-2.6-2.6-5.3-3.2-8.2s-1-5.7-1.1-8.2c-.1-2.6-.1-4.7.1-6.3.2-1.6.2-2.5.2-2.5-.1-1 .2-1.5.8-1.6s.9-.1.9-.1z"/><path class="st16" d="M5320.3 89.1l.2-2.3c-.1 0-1.5-.1-4.1-.4s-6.2-.6-10.7-1.1-9.7-.9-15.6-1.4-12.1-1-18.8-1.5c-6.7-.5-13.5-1-20.4-1.4s-13.6-.7-20.2-1c-6.6-.2-12.7-.3-18.3-.3v5.1c5.6-.1 11.7 0 18.3.1 6.6.2 13.4.4 20.3.6s13.7.5 20.4.9c6.7.3 13 .6 18.9 1 5.9.3 11.1.6 15.6.9s8.1.5 10.6.6c2.5.1 3.8.2 3.8.2z"/><path class="st4" d="M5226.3 73.3h7.3c2.2 0 4.5 0 7.1.1 2.5.1 5.1.1 7.6.2s4.8.2 6.7.3c6.4.4 12.6.9 18.7 1.5 6.1.5 11.9 1.1 17.2 1.6 5.4.5 10.1 1 14.3 1.5 4.2.4 7.5.8 10 1.2l-.1 1.8c-2.8-.3-6.5-.8-11.4-1.3-4.8-.5-10.3-1.1-16.5-1.7s-12.7-1.2-19.6-1.8c-6.9-.6-13.9-1.1-21-1.6-7.1-.4-13.9-.8-20.4-1l.1-.8z"/><path class="st16" d="M3493.7 27.2c3.5 0 6.9.7 10.2 2s6.1 3.4 8.5 6.2 4 6.4 4.8 10.7.5 9.5-.8 15.4c-.8 3.4-2.3 6.9-4.3 10.4s-4.5 7-7.4 10.5-5.9 6.8-9 10.1c-3.1 3.2-6.3 6.2-9.3 8.9-3.1 2.7-5.9 5.1-8.3 7.1-2.5 2-4.5 3.6-6 4.7s-2.3 1.7-2.3 1.7-.8-.6-2.3-1.7-3.5-2.7-6-4.7-5.3-4.4-8.3-7.1-6.2-5.7-9.4-8.9-6.2-6.6-9-10.1-5.3-7-7.4-10.6-3.5-7-4.3-10.4c-1.4-5.9-1.7-11-.7-15.3s2.6-7.9 5.1-10.7c2.4-2.8 5.3-4.9 8.5-6.2 3.2-1.3 6.5-2 9.9-2 3.5 0 6.6.6 9.2 1.8 2.6 1.2 4.9 2.7 6.7 4.5 1.9 1.8 3.4 3.5 4.6 5.3 1.2 1.8 2.1 3.3 2.6 4.5s.8 1.8.8 1.8.3-.6.8-1.8 1.4-2.7 2.6-4.5c1.2-1.8 2.7-3.5 4.6-5.3 1.9-1.8 4.1-3.3 6.7-4.5s5.7-1.8 9.2-1.8z"/><path class="st18" d="M3443.2 29c-2.2 0-4.5.3-6.8.9s-4.4 1.6-6.4 2.9c2.3-1.9 4.8-3.4 7.6-4.3s5.5-1.4 8.3-1.4c4.4 0 8.2.9 11.5 2.6 3.2 1.7 5.8 4 7.9 6.7 2.1 2.7 3.6 5.6 4.5 8.6l-2 4.6c-.2.4-.5.7-1 .7-.4 0-.7-.2-.9-.7-.6-1.5-1.4-3.4-2.6-5.7s-2.6-4.6-4.5-6.9c-1.8-2.3-4-4.2-6.6-5.8-2.6-1.4-5.6-2.2-9-2.2zm50.5-1.8c3.5 0 6.9.7 10.2 2s6.1 3.4 8.5 6.2 4 6.4 4.8 10.7.5 9.5-.8 15.4c-.8 3.4-2.3 6.9-4.3 10.4-2.1 3.6-4.5 7.1-7.4 10.5s-5.9 6.8-9 10-6.3 6.2-9.3 8.9c-3.1 2.7-5.9 5.1-8.4 7.1s-4.5 3.6-6 4.7-2.2 1.7-2.2 1.7 0-.2.1-.5.3-.7.5-.9c1.6-1.8 3.8-4.1 6.6-7s5.8-6.1 9.1-9.6 6.5-7.3 9.7-11.4c3.2-4 5.9-8.1 8.3-12.1 2.4-4.1 4-8.1 4.9-12 1.3-5.6 1.6-10.5 1-14.6s-1.9-7.5-3.9-10.1-4.4-4.6-7.3-5.8-5.9-1.9-9.2-1.9c-1.3 0-2.5.1-3.8.2s-2.4.4-3.4.8c3.2-1.8 6.9-2.7 11.3-2.7z"/><path class="st7" d="M3432.3 39.9c-1.4 1.8-2.3 3.8-2.6 6.1-.4 2.3-.3 4.6.2 6.9.5 2.3 1.3 4.5 2.5 6.5.3.4.6.6 1.1.5s.8-.4.8-.8c.2-1.3.5-2.5.8-3.8.4-1.3.8-2.4 1.4-3.5 1-1.9 2.1-3.4 3.5-4.4s2.8-2.1 4.4-3.3c1.1-.8 1.8-2.1 2.2-3.7.4-1.6-.1-2.9-1.3-3.8-1.5-1.2-3.1-1.8-4.7-1.6-1.6.1-3.1.7-4.5 1.6-1.5.9-2.8 2-3.8 3.3zm47.9 7.8c1 0 2.6-.3 4.9-1s4.3-2 6.4-3.9c.9-1 1.4-2.2 1.4-3.8.1-1.6-.6-2.8-1.9-3.8-1.3-.9-2.9-1-4.7-.3s-3.2 1.8-4.3 3.4c-.8 1-1.5 2.1-2.1 3.3s-1.1 2.3-1.6 3.5c-.3.7-.2 1.3.2 1.9s1 .7 1.7.7z"/><path class="st18" d="M3489.2 21.7l.1.4c.2-.1 1-.2 2.4-.3 1.4-.2 3.2-.2 5.2-.1 2.1.1 4.3.4 6.6 1s4.5 1.6 6.4 3c3.1 2.2 5.6 4.6 7.3 7.1 1.7 2.6 3 5 3.7 7.3s1.2 4.1 1.3 5.3l.3-.1c.3-1 .3-2.4.2-4.3s-.4-3.9-1-6.2c-.6-2.2-1.5-4.4-2.9-6.5-1.3-2.1-3.1-4-5.4-5.6-2.3-1.5-4.7-2.6-7.2-3.1s-4.9-.7-7.2-.5-4.3.6-6.1 1.1-2.9.9-3.7 1.5z"/><path class="st16" d="M3496.9 12.5v.4s.5 0 1.6-.1 2.5 0 4.2 0c1.7.1 3.6.4 5.6.8 2 .4 4 1.1 5.8 2.1 2.6 1.3 4.7 3 6.4 5s3 3.8 3.9 5.6c.9 1.8 1.4 3.1 1.5 3.9l.4-.2c.1-1.1-.1-2.7-.6-4.9-.4-2.2-1.4-4.4-2.7-6.8-1.4-2.3-3.4-4.3-6.1-5.9-2.7-1.7-5.4-2.5-8.1-2.6-2.7-.1-5.1.2-7.3.9-2.1.6-3.7 1.3-4.6 1.8z"/><path class="st18" d="M3450.4 21.7l-.1.4c-.2-.1-1-.2-2.4-.3-1.4-.2-3.2-.2-5.2-.1-2.1.1-4.3.4-6.6 1s-4.5 1.6-6.4 3c-3.1 2.2-5.6 4.6-7.3 7.1-1.7 2.6-3 5-3.7 7.3s-1.2 4.1-1.3 5.3l-.3-.1c-.3-1-.3-2.4-.2-4.3s.4-3.9 1-6.2c.6-2.2 1.5-4.4 2.9-6.5 1.3-2.1 3.1-4 5.4-5.6 2.3-1.5 4.7-2.6 7.2-3.1s4.9-.7 7.2-.5 4.3.6 6.1 1.1 2.9.9 3.7 1.5z"/><path class="st16" d="M3442.7 12.5v.4s-.5 0-1.6-.1-2.5 0-4.2 0c-1.7.1-3.6.4-5.6.8-2 .4-4 1.1-5.8 2.1-2.6 1.3-4.7 3-6.4 5s-3 3.8-3.9 5.6c-.9 1.8-1.4 3.1-1.5 3.9l-.4-.2c-.1-1.1.1-2.7.6-4.9.4-2.2 1.4-4.4 2.7-6.8 1.4-2.3 3.4-4.3 6.1-5.9 2.7-1.7 5.4-2.5 8.1-2.6 2.7-.1 5.1.2 7.3.9 2.1.6 3.6 1.3 4.6 1.8z"/><path class="st18" d="M3449 106.7l.2-.4-2.2-1.4-2.1-1.5-2.1-1.6-2-1.7c-2.6-2.2-5.1-4.7-7.5-7.5-2.4-2.6-4.6-5.4-6.6-8.2-1-1.4-2-2.9-3-4.4l-.6-1.2c-.2-.4-.5-.8-.7-1.2l-1.3-2.3-.5.2c.1 2 .5 3.9 1 5.7.5 1.8 1.2 3.5 2.1 5.2 1.7 3.3 3.8 6.4 6.3 9.2 2.6 2.8 5.4 5.2 8.6 7.1 1.6 1 3.3 1.9 5 2.6 1.5.7 3.4 1.2 5.4 1.4z"/><path class="st16" d="M3437.5 109.7l.2-.3c-.5-.4-1-.8-1.6-1.2s-1.1-.8-1.6-1.3c-.6-.4-1.1-.8-1.6-1.2l-1.5-1.2c-1.1-.8-2.1-1.7-3.1-2.6s-1.9-1.9-2.8-2.8c-1.8-1.9-3.4-4.1-4.7-6.4-.6-1.2-1.3-2.3-1.9-3.5l-1.8-3.6-.3.2c-.1 1.5 0 2.9.3 4.3s.6 2.7 1.2 4.1c1 2.8 2.5 5.2 4.5 7.4 1 1.1 2 2.1 3.2 2.9 1.2.9 2.3 1.7 3.6 2.4s2.5 1.3 3.8 1.8 2.6.8 4.1 1z"/><path class="st18" d="M3519.1 75.5l-.5-.2-1.3 2.3c-.3.4-.5.8-.7 1.2l-.6 1.2c-1 1.5-2 3-3 4.4-2.1 2.8-4.3 5.5-6.6 8.2-2.4 2.8-4.9 5.3-7.5 7.5l-2 1.7-2.1 1.5-2.1 1.6-2.2 1.4.2.4c1.9-.3 3.8-.7 5.5-1.4 1.8-.7 3.4-1.6 5.1-2.6 3.1-1.9 6-4.3 8.6-7.1 2.5-2.8 4.6-5.9 6.3-9.2.8-1.7 1.5-3.4 2.1-5.2.3-1.9.7-3.7.8-5.7z"/><path class="st16" d="M3522.8 85.7l-.3-.1-.9 1.8c-.3.6-.6 1.2-.8 1.9-.6 1.1-1.2 2.2-1.9 3.5-1.4 2.4-3 4.6-4.7 6.4-.9 1-1.8 1.9-2.8 2.8l-3 2.7c-.6.4-1.1.8-1.6 1.2l-1.5 1.2c-.6.4-1.1.8-1.6 1.2s-1.1.8-1.6 1.2l.2.3c1.5-.3 2.9-.6 4.2-1.1s2.6-1.1 3.8-1.8c2.6-1.4 4.8-3.2 6.7-5.3 2-2.2 3.5-4.7 4.5-7.4.5-1.3.9-2.7 1.2-4.1 0-1.4.1-2.9.1-4.4z"/><path class="st1" d="M6110.7 6.3h108.2v108.1h-108.2z"/><path class="st10" d="M6142.3 112.6v-60c0-.6-.2-1.1-.7-1.5s-1-.7-1.6-.7h-10.7c-.6 0-1.2.2-1.6.7s-.6 1-.6 1.5v60h15.2z"/><path class="st5" d="M6172.6 112.6V70.2c0-.6-.2-1.2-.6-1.6s-.9-.6-1.6-.6h-10.7c-.6 0-1.2.2-1.6.6s-.6.9-.6 1.6v42.4h15.1z"/><path d="M6200.8 112.6c.6 0 1.2-.2 1.6-.7.4-.4.6-1 .6-1.5V25.9c0-.6-.2-1.1-.6-1.5s-.9-.7-1.6-.7H6190c-.6 0-1.1.2-1.5.7-.4.4-.7 1-.7 1.5v84.5c0 .6.2 1.1.7 1.5.4.4 1 .7 1.5.7h10.8z" fill="#51499c"/><path fill="#abbcc3" d="M6219.1 110.9v3.5h-108.2V6.2h3.6v104.7"/><path d="M6219.1 6.2v108.3h-108.3V6.2h108.3zm-1.8 1.8h-104.6v104.7h104.6V8z" fill="#9785bd"/><path class="st5" d="M7008.5 60.9c-.1-4.7.5-9.6 1.8-14.6 1.3-5.1 3.4-9.9 6.2-14.6 2.8-4.7 6.3-8.9 10.6-12.7 4.3-3.8 9.3-6.7 15.1-8.9s12.3-3.4 19.5-3.4c7.2-.1 13.7.9 19.5 3s11 4.8 15.3 8.4c4.4 3.5 8.1 7.5 11.1 12s5.3 9.2 6.9 14 2.5 9.6 2.8 14.3c.3 4.6-.2 9.5-1.3 14.6-1.2 5.1-3.1 10.1-5.7 15-2.7 4.8-6.1 9.2-10.4 13.2s-9.4 7.1-15.4 9.5-12.9 3.6-20.7 3.7c-8 .1-15.1-.9-21.1-3.2-6.1-2.2-11.2-5.3-15.5-9-4.3-3.8-7.8-8-10.5-12.7s-4.7-9.5-6.1-14.4c-1.2-5.1-1.9-9.7-2.1-14.2z"/><path d="M7048.3 22.6c-.2-.3 0-.6.5-1 .5-.3 1-.5 1.5-.6.4-.1.9-.1 1.3 0s.7.2.8.3c.1.1.3.4.5.7.2.3.5.6.9.9s.9.5 1.3.4h.8l.6.6c.3.3.4.5.4.5l-.2.2c-.1.2-.3.3-.5.3l-.6.3c-.2.1-.3.3-.2.6.1.3.3.5.6.4.3 0 .5-.1.7-.2.1-.1.4-.3.7-.6.4-.3.7-.4 1-.4.7.1 1 .4 1 .9 0 .2-.1.3-.2.3-.2 0-.4.1-.6.1l-.6.3c-.2.1-.4.3-.8.4-.3.1-.6.2-.9.2s-.4 0-.6.1-.4.1-.7.1-.5 0-.9-.1c-.3-.1-.4-.4-.3-.8s0-.6 0-.6 0-.3.1-.8-.2-.8-.8-.9c-.3-.1-.6.1-.8.4-.2.4-.3.5-.3.5s-.1.1-.2.4c-.2.3-.3.5-.3.7-.1.1-.3.3-.5.6s-.5.3-.9.1c-.3-.1-.3-.6 0-1.3.3-.8.5-1.3.7-1.4.1-.3.3-.5.5-.6s.3-.3.3-.5c-.1-.4-.5-.7-1.3-.8-.3 0-.6 0-1.1.1-.5.4-.8.4-.9.2z" fill="#3396d4"/><path class="st10" d="M7010.6 45s.3.2.8.6c.5.4.9.8 1.1 1.3.2.4.2 1.1.1 2.2s-.1 1.8-.1 2.2.1.6.4.5.5 0 .5.1c.1.1.1.6.2 1.4s.1 1.7.2 2.7.1 1.7.2 2.3c.1.8.2 1.7.5 2.6.3.9.5 1.8.6 2.6s.1 1.3.2 1.6.3.5.7.5c.4 0 .7-.2.9-.6s.4-.7.5-1.1c.1-.3.1-.7.2-1.3s.2-1 .2-1.1c.1-.1.2-.6.3-1.3.2-.7.2-1.1.2-1.1s.1 0 .3-.1c.2-.1.4-.2.6-.2.2-.1.6-.4 1.3-.9.6-.5 1-.9 1.2-1 .1-.1.6-.5 1.3-1.1.7-.6 1.2-1 1.5-1.2s.8-.3 1.3-.2 1 .1 1.3.2c.1.1.4.4.8 1.1s.8 1.3 1.1 1.9c.4.6.5.9.5.9v1.4c0 1 0 1.6.2 1.9s.5.4 1 .3c.4-.1.7-.1.9.1.1.1.3.6.6 1.3.3.7.5 1.2.5 1.4.1.1.1.5.2 1.2s.2 1.4.3 2.3c.1.8.3 1.5.6 1.9s.7.8.9 1.1c.2.3.5.7.9 1.3s.6 1 .6 1-.2-.1-.7-.2c-.5-.2-.8-.3-1-.5-.2-.1-.6-.5-1.3-1.1-.7-.6-1.2-.9-1.4-1-.2-.1-.3 0-.4.2s-.1.4 0 .6.4.5 1 1c.5.4.8.8 1 1.1.2.3.6.7 1.2 1.2s1 .8 1.2 1l.9.9c.5.5.9 1 1.4 1.4s.7.7.7.7.2.1.6.2c.4.2.7.3 1 .4.2.1.6.4 1.2.7.6.3 1.1.5 1.6.6.4 0 .8-.1 1-.3s.4-.5.5-.9 0-.7-.3-.9c-.3-.2-.5-.5-.7-.7-.1-.3-.5-.7-1.2-1.4s-1.1-1-1.1-1-.2-.2-.5-.7c-.4-.4-.6-.9-.7-1.3-.3-.9-.7-1.7-1.3-2.5-.2-.3-.4-.4-.6-.4s-.5-.1-.8-.3c-.3-.1-.6-.4-1-.7-.4-.3-.6-.6-.6-.8 0-.1 0-.4-.1-.8s-.1-.7-.2-1.1c-.1-.3-.1-.6-.1-1.2v-1c.1-.2.3-.2.8-.1.4.1.8.2 1.1.4.2.2.6.6 1.2 1.3.6.7.9 1 .9 1s0 .1.1.4.3.4.6.6c.3.2.7.1 1.1-.1.4-.3.9-.6 1.5-.9s1-.5 1.2-.5.4-.2.8-.4c.3-.3.5-.5.5-.6v-.8c0-.6-.3-1.3-.8-2-.2-.3-.6-.8-1.2-1.3s-.9-1-1.1-1.5-.1-.9.2-1.2c.4-.3.7-.5.9-.7.3-.2.6-.4.9-.5s.5-.1.8.1c.3.2.4.4.2.5-.2.1-.3.3-.4.4-.2.1-.3.4-.3.7s.1.6.3.9c.4.5.9.5 1.6-.1.4-.3.6-.7.7-1.3.1-.5.4-.9.9-1.2.5-.4 1.2-.6 2.2-.6.9 0 1.7-.1 2.3-.3.6-.2 1.3-.5 2-1.1.7-.5 1.3-.9 1.6-1.3.3-.3.7-.7 1.1-1.3s.7-1 .7-1c.2-.1.6-.6 1.3-1.4.6-.7.9-1.6.9-2.8-.1-.6-.2-1-.5-1.1s-.4-.3-.6-.5c-.1-.2-.4-.5-1-1.1-.6-.5-.9-.9-.9-1.1 0-.1.1-.3.2-.5.2-.2.3-.4.4-.5.2-.2.3-.5.4-.8.1-.4.1-.7 0-.9 0-.2-.2-.3-.5-.2-.4 0-.6 0-.7-.1-.1-.2-.3-.4-.6-.7-.3-.3-.3-.6-.1-.9.3-.3.7-.7 1.4-1.2s1.2-.7 1.3-.6c.1.1.1.4 0 .7-.2.3-.2.6 0 .9.1.2.3.3.5.3h.5c.2.1.5.1 1.1.2.5.1.8.1.8.1s0 .1.1.2.1.3.2.4c.1.1.4.3.8.4s.6.2.6.2v3.5c0 .4.5.4 1.3 0 .8-.3 1.3-.7 1.4-1.2s.2-1.1.2-1.8-.3-1.4-.9-2.2c-.6-.7-.9-1.1-.9-1.1s.2-.1.5-.2c.3-.2.7-.4 1.2-.7.4-.3.6-.6.6-1.1s.2-.8.6-1c.4-.1.9-.2 1.5-.1s1-.1 1.5-.3c.4-.3.8-.8 1.1-1.5.3-.8.5-1.3.9-1.7.3-.4.6-1 .9-1.9s.4-1.6.3-2.3c0-.6-.1-1.2-.3-1.5-.2-.4-.4-.7-.5-1.1-.1-.3-.3-.8-.4-1.5-.2-.7-.4-1.1-.8-1.2s-.6-.1-.7.1-.5.3-1.2.2c-.6-.1-1-.4-1.2-.9-.1-.5-.1-1.2.2-1.9.2-.7.8-1.3 1.7-1.8.9-.5 1.6-.8 1.9-.8s.7.1 1.3.4c.5.3 1.1.3 1.6.1.6-.3 1-.8 1.3-1.6.3-.8.7-1.3 1.2-1.6.6-.2 1-.2 1.3 0s.5.6.7 1.1c.3.6.3 1.2 0 2s-.2 1.3.1 1.7c.3.3.5.8.8 1.5l.9 2.1c.3.7.6 1 1 1.1.5.1.8-.3.8-1.1s.1-1.6.2-2.4.1-1.6-.1-2.6-.3-1.6-.4-2c-.1-.3-.1-.8-.1-1.5s.1-1.2.2-1.3.2-.7.1-1.4v-1.2c-2.6-1-5.4-1.7-8.4-2.3s-6-.9-9.2-1.1c0 0-.3.3-.9 1s-1 1-1.2 1.1-.5.1-1.1.1c-.5 0-1.1 0-1.6-.1-.6 0-1.3-.1-2.2-.3-.9-.2-1.3-.3-1.3-.3l-.1-1.2c-6.3.5-12 1.9-17.1 4.2s-9.6 5.2-13.4 8.8c-3.8 3.5-7 7.4-9.6 11.7-3.2 3.7-5.2 8.1-6.6 12.7z"/><path class="st10" d="M7010.6 45s.3.2.8.6c.5.4.9.8 1.2 1.3.1.4.1 1.1 0 2.2s-.1 1.8-.1 2.2.1.6.4.5.5 0 .5.1c.1.1.1.6.2 1.4s.1 1.7.2 2.7.1 1.7.2 2.3c.1.8.2 1.7.5 2.6.3.9.5 1.8.6 2.6s.2 1.3.2 1.6.2.5.6.5.7-.2.9-.6.4-.7.5-1.1c.1-.3.2-.7.3-1.3.1-.6.1-1 .2-1.1s.2-.6.3-1.3c.2-.7.2-1.1.2-1.1s.1 0 .3-.1c.2-.1.4-.2.5-.2.2-.1.6-.4 1.3-.9.6-.5 1-.9 1.2-1s.6-.5 1.3-1.1c.7-.6 1.2-1 1.5-1.2s.7-.3 1.3-.2 1 .1 1.3.2c.1.1.4.4.8 1.1s.8 1.3 1.1 1.9c.3.6.5.9.5.9v1.4c0 1 0 1.6.2 1.9s.5.4 1 .3c.4-.1.7-.1.9.1.1.1.3.6.6 1.3.3.7.5 1.2.5 1.4.1.1.1.5.2 1.2s.2 1.4.3 2.3c.1.8.3 1.5.7 1.9s.7.8.9 1.1.5.7.9 1.3.6 1 .6 1-.2-.1-.7-.2c-.5-.2-.8-.3-1-.5-.2-.1-.6-.5-1.3-1.1-.7-.6-1.2-.9-1.3-1-.3-.1-.4 0-.5.2s-.1.4 0 .6.4.5 1 1c.5.4.9.8 1.1 1.1.1.3.5.7 1.1 1.2s1 .8 1.1 1l.9.9c.5.5.9 1 1.4 1.4s.7.7.7.7.2.1.6.2c.4.2.7.3 1 .4.2.1.6.4 1.2.7.6.3 1.1.5 1.6.6.4 0 .8-.1 1-.3s.4-.5.5-.9 0-.7-.3-.9c-.3-.2-.5-.5-.6-.7-.1-.3-.6-.7-1.3-1.4s-1.1-1-1.1-1-.2-.2-.5-.7c-.4-.4-.6-.9-.7-1.3-.3-.9-.7-1.7-1.3-2.5-.1-.3-.3-.4-.6-.4s-.5-.1-.9-.3c-.3-.1-.6-.4-1-.7-.4-.3-.6-.6-.6-.8 0-.1 0-.4-.1-.8s-.1-.7-.2-1.1c-.1-.3-.1-.6-.1-1.2 0-.5 0-.8.1-1s.3-.2.7-.1c.4.1.8.2 1 .4.2.2.6.6 1.2 1.3.6.7.9 1 .9 1s0 .1.1.4.3.4.5.6c.3.2.7.1 1.1-.1.4-.3.9-.6 1.5-.9s1-.5 1.2-.5.4-.2.8-.4c.3-.3.5-.5.5-.6v-.8c.1-.6-.2-1.3-.7-2-.3-.3-.7-.8-1.2-1.3s-.9-1-1.1-1.5-.1-.9.2-1.2c.4-.3.7-.5.9-.7.3-.2.6-.4.9-.5s.5-.1.9.1c.3.2.3.4.1.5-.2.1-.3.3-.4.4-.1.1-.2.4-.3.7-.1.3 0 .6.3.9.4.5.9.5 1.6-.1.4-.3.6-.7.7-1.3.1-.5.4-.9.9-1.2.5-.4 1.2-.6 2.1-.6s1.6-.1 2.2-.3 1.3-.5 2-1.1c.7-.5 1.3-.9 1.6-1.3.4-.3.8-.7 1.2-1.3s.6-1 .7-1c.2-.1.6-.6 1.3-1.4.6-.7.9-1.6.9-2.8 0-.6-.1-1-.4-1.1s-.5-.3-.6-.5-.4-.5-1-1.1c-.6-.5-.9-.9-1-1.1 0-.1.1-.3.2-.5.2-.2.3-.4.4-.5.2-.2.3-.5.4-.8.1-.4.1-.7.1-.9-.1-.2-.3-.3-.6-.2-.3 0-.6 0-.8-.1-.1-.2-.3-.4-.5-.7s-.2-.6 0-.9c.2-.3.6-.7 1.3-1.2.7-.5 1.2-.7 1.3-.6.2.1.2.4 0 .7s-.2.6-.1.9c.1.2.3.3.5.3h.6c.1.1.4.1 1 .2.5.1.8.1.8.1s0 .1.1.2.2.3.3.4c.1.1.4.3.8.4s.6.2.6.2v3.5c0 .4.5.4 1.3 0 .8-.3 1.3-.7 1.4-1.2s.2-1.1.2-1.8c.1-.7-.2-1.4-.9-2.2-.6-.7-1-1.1-1-1.1s.2-.1.5-.2c.4-.2.7-.4 1.1-.7s.6-.6.6-1.1.3-.8.7-1c.4-.1.9-.2 1.4-.1s1-.1 1.5-.3c.5-.3.9-.8 1.1-1.5.2-.8.5-1.3.8-1.7.3-.4.6-1 .9-1.9s.4-1.6.4-2.3c-.1-.6-.2-1.2-.4-1.5-.2-.4-.4-.7-.6-1.1-.1-.3-.3-.8-.4-1.5-.2-.7-.4-1.1-.8-1.2-.3-.1-.5-.1-.7.1-.1.2-.5.3-1.3.2-.6-.1-1-.4-1.2-.9-.1-.5-.1-1.2.2-1.9.1-.4-.3-1-1.4-1.6s-2.2-1.2-3.6-1.8c-1.3-.6-2.3-1.2-2.8-1.8-.1-.1-.4-.5-.7-1.2-.4-.7-.8-1.6-1.2-2.5-.4-.9-.9-1.7-1.2-2.5-.4-.7-.5-1.1-.5-1.1-6.3.5-12 1.9-17.1 4.2s-9.6 5.2-13.4 8.8c-3.8 3.5-7 7.4-9.6 11.7-2.4 3.8-4.4 8.2-5.8 12.8z"/><path class="st7" d="M7050.9 20.6c.7.2 1.1.7 1.1 1.6s-.2 1.6-.7 2c-.3.3-.7.6-1.2.9s-1 .4-1.4.3c-.4 0-.8-.3-1.2-.8s-.5-.9-.5-1.1c0-.3.2-.4.6-.5s.8-.3 1.3-.7c.4-.3.8-.7 1.1-1.1s.5-.6.9-.6z"/><path class="st10" d="M7073.4 22.4c.3-.1.6.1 1.1.5s.8.8 1.2 1.2c.3.3.4.5.6.8.1.3.2.6.3.8.1.2 0 .7 0 1.4-.1.7-.2 1.2-.2 1.5-.1.3-.2.6-.5.9-.3.4-.6.5-.9.5-.2-.1-.3-.5-.4-1.4-.1-.3-.1-.8-.2-1.4s-.1-1-.1-1.2-.2-.6-.6-1.3c-.4-.6-.6-1.1-.6-1.4-.2-.4 0-.7.3-.9zm1.9 8.6c.3-.1.4.1.5.4.1.4.3.6.7.8.2.1.5.1.9.2s.6.1.8.1c.2.1.3.3.2.6-.1.4-.1.6-.2.8 0 .2-.2.4-.7.7s-.7.4-.6.6c0 .1-.1.7-.2 2s-.2 2.3-.3 3c-.1.8-.2 1.3-.5 1.5s-.5.4-.6.4c-.1.1-.4.5-.9 1.1-.4.6-.9 1.1-1.3 1.5s-.9.7-1.4.9-.9.3-1.2.4c-.3.1-.7.2-1.3.5-.5.3-1 .4-1.4.4-.4.1-.8-.1-1.1-.4-.4-.3-.5-.7-.4-1.2 0-.3.1-.5.3-.7l.3-.3.3-.6c.2-.4.9-.8 2-1.1.3-.1.7-.1 1.2 0h.7s.2-.1.5-.4c.4-.3.6-.5.8-.7l.9-.9c.4-.4.6-.6.6-.8.1-.1.2-.4.3-.9.2-.5.2-.7.2-.7V33c.4-1.1.6-1.9.9-2zm-19.8 27.7c.6-.1 1 0 1.2.4s.3.8.2 1.3c0 .8.2 1.5.6 1.9.3.3.5.4.6.3s.3 0 .5 0 .5.3 1 .9c.4.6.9 1.2 1.3 1.8s.7 1 .8 1.1c.1.3 0 .5-.1.7-.2.2-.2.4-.1.5 0 .1.1.3.3.6.2.4.2.6.1.8-.1.1-.4.2-.9.2s-.9 0-1.1-.1l-.6-.3c-.2-.1-.4-.3-.6-.4s-.5-.2-.9-.1c-.4 0-.7 0-.8-.1-.3-.4-.5-1.2-.4-2.3v-1.6l-.4-.4c-.3-.3-.5-.7-.7-1.1-.3-.6-.4-1.1-.3-1.4.1-.3.1-.5.1-.5v-1.4c.1-.5.1-.8.2-.8zm-3.9 6.3c.5-.6 1.1-.9 1.9-.9.7 0 1.2.1 1.4.2.3.1.4.6.2 1.3-.1.4-.2.7-.3 1.1-.1.3-.2.8-.3 1.5-.1.7-.2 1.3-.1 1.8 0 .5 0 .9-.1 1.2-.1.3-.3.6-.5.7-.2.2-.3.2-.3.2s0 .1-.1.4-.3.9-.6 1.7c-.3.6-.5 1.3-.8 2s-.6 1.1-1 1.3c-.1.1-.4 0-.7-.1s-.8-.3-1.2-.4c-.4-.1-.8-.1-1.3 0-.5.2-.9.1-1.2 0-.4-.3-.9-.6-1.3-1.1-.1-.1-.4-.3-.7-.6-.3-.3-.6-.6-.8-.9-.2-.3-.4-.6-.5-.9s-.1-.5 0-.7.3-.4.6-.8c.4-.3.7-.5.9-.5.3-.1.7 0 1.1 0 .4.1.7 0 .7-.1.1-.1.3-.4.8-.9.4-.4.8-.8 1.1-1 .3-.2.6-.5 1.2-1l.9-.9c.1-.1.2-.6.4-1.3.1-.7.4-1.1.6-1.3zm2.8 12.3s.1.1.3.2c.2.1.6.2 1.2.1.8 0 1.3-.1 1.5-.3.2-.2.3-.4.2-.7 0-.3-.1-.5-.4-.7s-.4-.3-.4-.4 0-.4-.1-.9c-.1-.4 0-.8.2-1.1.2-.3.6-.5 1.1-.6.5-.2.9-.3 1.1-.4.4-.1.6-.4.6-1 .1-.8 0-1.1-.3-1.1s-.4.2-.3.6c0 .1 0 .3-.1.5s-.2.3-.4.3c-.3.1-.4 0-.6-.2-.1-.3-.5-.4-1.1-.4-.3 0-.8.2-1.4.6s-.9.6-.9.7-.1.4-.3.8-.3.9-.4 1.6 0 1.2.1 1.6c.2.5.4.7.4.8zm7.8-5v-.7c0-.5 0-.8.1-1s.3-.4.5-.8c.2-.3.4-.5.5-.6.2-.1.5-.2.9-.2s.6.1.6.4c0 .1-.1.3-.2.5s-.2.4-.3.5c-.1.2 0 .6.3 1.2s.5 1 .6 1.1 0 .3 0 .6c-.1.3-.3.4-.5.4h-.9c-.3 0-.5-.1-.8-.1h-1.1c-.5 0-.7 0-.9-.1-.1-.1-.1-.2-.1-.4s0-.3.1-.4.3-.2.6-.3c.4 0 .6-.1.6-.1zm-16.9 7.1h5.1c.2 0 1.1-.1 2.5-.4s2.6-.5 3.6-.5c1.2-.1 1.9-.2 2.3-.3.4-.2.6-.1.7.2.1.3 0 .6-.3.7-.3.2-.4.3-.6.3-.1.1-.3.1-.6.1s-.5 0-.7.1c-.1 0-.4.1-1 .2-.5.1-1 .3-1.4.6-.4.3-1 .4-1.7.5-.8.1-1.2.2-1.3.2-.1 0-.4 0-.9.1-.4.1-1.3.1-2.7 0h-2.6c-.4 0-.6-.1-.7-.3-.2-.2-.2-.5 0-.9.1-.3.2-.5.3-.6zm16.2-2.5c.3-.3.6-.6 1-.7.3-.2.6-.1.8 0 .2.3.1.5-.2.8-.3.3-.6.5-.9.7-.3.3-.5.5-.9.7-.3.2-.5.2-.7.1-.2-.4.1-.9.9-1.6zm5.1-7c.1-.2.7-.4 1.7-.8 1-.3 1.7-.4 2.2-.2.4.3.6.7.7 1.3s.3 1 .6 1c.3.1.6-.1.9-.6.4-.4.7-.9 1.1-1.3s.6-.7.6-.8c.1 0 .7 0 1.8-.1s2.2-.1 3.3-.1c1.1 0 1.8 0 2.1.1.4.1 1 .4 1.8 1.1s1.3 1 1.4 1.1.3.1.7.2c.4.1.6.1.7.2v.6c0 .4 0 .6.1.7s.4.4.9 1 .8.9.8 1c.3.2.6.3 1.1.3.1 0 .3.1.5.2s.3.3.2.5c0 .2-.2.3-.6.4s-.7.1-.9.1-.6-.2-1.2-.7-1-.7-1.3-.9c-.7-.3-1.2-.3-1.3.2-.1.2-.1.4 0 .5s.2.3.2.5c-.1.3-.3.5-.8.6-.5.2-.9.3-1.1.4-.3.1-.7.1-1.1 0s-.7-.2-.9-.2h-3.1c-.4 0-.6-.3-.6-.8.1-.3.2-.4.3-.4s.3-.1.4-.2.1-.3 0-.5v-.5c-.1-.3-.4-.5-1-.7h-2.7c-1.1 0-1.8 0-2.2.1-.3.1-.8.1-1.6.1h-1.3c-.1-.1-.1-.2-.2-.5s-.2-.5-.5-.9c-.3-.3-.5-.5-.9-.7-.3-.2-.5-.3-.6-.4 0-.1 0-.3-.1-.6-.2-.1-.2-.3-.1-.3zm12.1 36c.4-.1.8-.1 1.1.1.4.2.5.4.5.8.1.4-.2.8-.7 1.4-.5.5-1 .8-1.5.7-.4 0-.7-.2-.9-.5-.2-.3-.3-.6-.4-.9-.1-.6.1-1.2.5-1.5.1-.2.4-.3.7-.2.3 0 .5.1.7.1zm11.1-1.2c.3-.1.3-.4.2-.7-.1-.3-.1-.7 0-1.1.1-.3.2-.5.4-.6.2-.1.4-.2.5-.2.1-.1.2-.1.3-.2.1-.1.2-.3.2-.6v-1.2c-.1-.8.1-1.3.6-1.3.2 0 .4.2.5.6s.2.7.2.9c.1.3.2.7.5 1.3.3.6.4 1 .3 1.3s-.6.8-1.5 1.4-1.6 1.1-1.9 1.3c-.3.1-.8.4-1.5.8s-1.5.8-2.3 1.2-1.4.5-1.7.5c-.5-.1-.8-.2-1-.5s-.2-.4-.1-.6c.1-.4.3-.7.6-.9s.8-.5 1.3-.9c.6-.4 1.1-.8 1.7-1.2.5-.4.9-.6 1.1-.6.3 0 .6.2.8.7.3.6.6.7.8.6zm-14.2-23.2s.2-.3.5-.8.4-1.1.3-1.6-.4-.8-1-.9c-.5-.1-1.3-.2-2.2-.3-1-.1-2-.1-3 0-1 .2-1.7.3-2 .5-.4.3-.6.7-.7 1.3-.1.6-.4 1-1.2 1.2-.3.1-.6 0-1-.1-.3-.2-.5-.3-.7-.5-.3-.5-.7-.5-1.4-.1-.2.1-.6.4-1.2 1l-1.8 1.5c-.6.5-.9.8-1 .9-.2.2-.3.5-.4 1-.1.4-.2.8-.4 1-.1.3-.6.5-1.3.8-.7.3-1.2.5-1.4.7-.3.1-.5.2-.7.1s-.4 0-.5 0c-.2.1-.5.2-1 .4-.4.2-.7 1.1-.8 2.6-.1.5 0 1.1.3 1.7s.6 1.2.8 1.7l.9 1.8c.4.8.8 1.6 1.2 2.3s.6 1.2.7 1.4c.1.3.1.6 0 .8s-.3.4-.4.4c-.3.3-.1.6.3 1 .5.4 1.1.6 2 .7.8 0 1.5-.1 2.1-.2.5-.2 1.1-.2 1.7 0 .4.1.8-.1 1.2-.4s.8-.6 1.3-.7c.4-.1 1.4-.3 2.7-.4 1.4-.1 2.4-.2 3-.1s1.1.3 1.3.6c.3.3.4.5.4.7.1.3 0 .6 0 .8-.1.2 0 .5.1.8.1.2.4.3.8.3s.7.1 1 .3c.2.1.5.4 1 .8s1.4.6 2.6.7c1.3 0 2.2-.1 2.7-.4s.9-.5 1.1-.5c.3-.2.9-.6 1.8-1.3.4-.3.9-.9 1.6-1.8s1-1.3 1-1.3.3-.3 1-.9 1.3-1.2 1.9-1.7 1-1.2 1.3-1.9c.3-.8.4-1.3.5-1.6.1-.3.1-.7 0-1.2s-.2-.8-.2-.9c-.1-.2-.2-.4-.5-.5-.3-.2-.5-.4-.7-.6-.1-.2-.2-.4-.1-.7v-1c0-.3-.4-.9-1.1-1.9-.7-.9-1.1-1.6-1.2-2s-.1-.9 0-1.5 0-.9 0-.9-.1-.2-.4-.7-.4-.8-.6-1.2c-.2-.3-.4-.6-.5-1s-.3-.8-.4-1c-.3-.6-.6-.9-1-.9-.5 0-.8.2-.9.5 0 .3-.1.7-.2 1.3-.1.6-.2 1-.2 1.3s-.2.9-.6 1.7-.7 1.4-.7 1.6c-.3.6-.9.8-2 .8-.4-.1-.9-.2-1.3-.5s-.8-.6-1.1-.9c-.2-.1-.4-.4-.8-.7-.3-.7-.5-1.1-.5-1.4z"/><path class="st14" d="M3613 100.4c-2.4-.3-3.6-1.4-3.8-3.8v-5.4c.3-5.8 1.9-11.3 4.8-16.1l32.2-49.4.9-1.4-1.4-.9-9-6-1.4-.9-.9 1.4-17.4 26.7-1.4-1.6c-3.1-4.3-4.9-9.1-5.2-14.3V10h-14.2v18.7c.1 4.3.9 8.4 2.4 12.4 1.4 3.9 3.4 7.6 6 10.9l4.1 5-6.8 10.4c-4.2 7.3-6.6 15.2-7 23.6v5.7c.5 5.3 2.3 9.5 5.3 12.5s7.2 4.8 12.5 5.3h37.9v-14.2h-1.7l-35.9.1zm121.9-97.3h-1.6v13.2h12.9V3.1h-1.7zm-6.9 13.2h1.7V3.1h-13v13.2h1.7zm-2.9 4c-4.8.1-8.6 2.1-11.3 6-2.4 3.5-3.6 7.5-3.5 11.8v58.5c-.3 2.4-1.5 3.6-3.8 3.8h-6.6c-3.4-.4-5.6-2.2-6.9-5.4l-2.3-8.5c-1.4-6.1-1.9-12.3-1.3-18.5l3.8-33.4c.7-5.2-.6-9.9-3.9-13.8-2.9-3.1-6.5-4.7-10.7-4.7l-8.7.5-1.6.1v13.6h10.4c.5.9.7 1.8.6 2.8l-3.8 33.3c-.8 7.9-.2 15.9 1.6 23.7l2.3 8.9v.2c3.3 9.4 10.2 14.6 20.3 15.5h7.2c5.2-.5 9.4-2.3 12.4-5.3s4.8-7.2 5.3-12.4V37.9c-.2-1.5.2-2.7 1.3-3.6h9v-14h-9.8zm72.9 14.2V20.3h-22.4V10.2h-14.2v10.1h-8v14.2h8v28.1c-.1 6.7-.7 13.5-1.9 20.1l-5.8 27.3-.3 1.6 1.6.3 10.6 2.2 1.6.3.3-1.6 5.7-27.4c1.4-7.5 2.2-15.2 2.4-22.8V34.5h22.4z"/><path class="st14" d="M3821.4 53.2c-3.1-4.2-7.2-6.3-12.3-6.3h-23V61h21l-2.3 4.4-.8 1.4 1.4.8 9.5 5.3 1.5.8.8-1.5 4.1-7.5c2.1-3.9 2.1-7.8.1-11.5zm-1.7-49.8h-1.7v13h13.2v-13h-11.5zm-7 13h1.7v-13h-13v13h11.3zm-16.1 84.1c-2.1 0-3.2-.8-3.7-2.5V87.1h-14.2v11.4c.7 5 2.6 8.9 5.6 11.6s7.1 4.2 12.2 4.6h25.8v-14.2h-25.7zm110.2-69.9h-10.2V10.2h-14.1v20.4h-15.8V10.2h-14.2v20.4h-14.7v14.2h14.7v52.5c.5 5.3 2.2 9.4 5.2 12.4s7.2 4.8 12.5 5.3h27.9v-14.2h-27.5c-2.5-.3-3.6-1.5-3.8-3.8V44.8h15.8V60c0 1.4-.4 2.6-1.3 3.7h-8.4v14.2h9.5c4.6-.3 8.3-2.4 10.9-6.3 2.2-3.5 3.4-7.4 3.5-11.6V44.8h11.9V30.6h-1.9zm73.4 24.3c-5.9-5.7-13-8.8-21.2-9.3h-12.1V7.5h-14.2v105.1h14.2V59.8h12c4.1.3 7.7 1.9 10.9 4.8l11 11.9 1.1 1.2 1.2-1.1 8-7.3 1.2-1.1-1.1-1.2-11-12.1zm41.6 42.1c-1.7-.2-2.5-.9-2.6-2.6V46.1h13.6c4.2-.2 8.2-1.5 11.7-3.9 3.5-2.5 6.2-5.7 7.9-9.6l4.1-10.8.6-1.6-1.6-.6-10.1-3.8-1.6-.6-.6 1.6-4 10.7c-1.4 2.6-3.6 4.1-6.6 4.6h-13.5V7.3h-14.2v87.4c.5 4.9 2.1 8.8 4.9 11.5 2.8 2.8 6.7 4.4 11.6 5h37.3V97h-36.9zm28.7-95.2h-1.7v13.7h13.5V1.8h-11.8zm16.5 0h-1.6v13.6h13.4V1.8h-1.7zm47.6 55.4V44.7H4088v14.2h26.6v-1.7zm31.7-49.9h-1.7v37.8c-.2 5-1.5 9.9-3.9 14.5l-26.5 45.5-.9 1.5 1.5.8 9.3 5.3 1.4.8.8-1.4 26.6-45.4c3.5-6.7 5.4-13.9 5.7-21.4v-38h-12.3zM4112.9 25h1.7V10.8H4088V25h24.9zm130.1-.8c-.5-5-2.1-8.9-4.9-11.7s-6.7-4.4-11.6-4.9H4175v14.2h51.2c1.7.1 2.5.9 2.7 2.6v20.3c-.4 4.3-2 8.1-4.7 11.5l-15.5 15.3c-2.2-3.7-3.5-7.8-3.7-12.1V44.5h-14.2v14.9c.2 3.7.9 7.4 2.2 11 1.1 3.8 2.8 7.3 5 10.4l24.2 32.2 1 1.3 1.3-1 8.6-6.4 1.3-1-1-1.3-16.4-22 16.9-16.7c5.4-6 8.4-13.1 8.8-21.2l.3-19.9v-.6zm268.4 76.2c-2.4-.3-3.6-1.4-3.8-3.8v-5.4c.3-5.8 1.9-11.3 4.8-16.1l32.2-49.4.9-1.4-1.4-.9-9-6-1.4-.9-.9 1.4-17.4 26.7-1.4-1.6c-3.1-4.3-4.9-9.1-5.2-14.3V10h-14.2v18.7c.1 4.3.9 8.4 2.4 12.4 1.4 3.9 3.4 7.6 6 10.9l4.1 5-6.8 10.4c-4.2 7.3-6.6 15.2-7 23.6v5.7c.5 5.3 2.3 9.5 5.3 12.5s7.2 4.8 12.5 5.3h37.9v-14.2h-1.7l-35.9.1zm121.9-97.3h-1.6v13.2h12.9V3.1h-1.7zm-6.9 13.2h1.7V3.1h-13v13.2h1.7zm-2.9 4c-4.8.1-8.6 2.1-11.3 6-2.4 3.5-3.6 7.5-3.5 11.8v58.5c-.3 2.4-1.5 3.6-3.8 3.8h-6.6c-3.4-.4-5.6-2.2-6.9-5.4l-2.3-8.5c-1.4-6.1-1.9-12.3-1.3-18.5l3.8-33.4c.7-5.2-.6-9.9-3.9-13.8-2.9-3.1-6.5-4.7-10.7-4.7l-8.7.5-1.6.1v13.6h10.4c.5.9.7 1.8.6 2.8l-3.8 33.3c-.8 7.9-.2 15.9 1.6 23.7l2.3 8.9v.2c3.3 9.4 10.2 14.6 20.3 15.5h7.2c5.2-.5 9.4-2.3 12.4-5.3s4.8-7.2 5.3-12.4V37.9c-.2-1.5.2-2.7 1.3-3.6h9v-14h-9.8zm72.9 14.2V20.3H4674V10.2h-14.2v10.1h-8v14.2h8v28.1c-.1 6.7-.7 13.5-1.9 20.1l-5.8 27.3-.3 1.6 1.6.3 10.6 2.2 1.6.3.3-1.6 5.7-27.4c1.4-7.5 2.2-15.2 2.4-22.8V34.5h22.4z"/><path class="st14" d="M4719.8 53.2c-3.1-4.2-7.2-6.3-12.3-6.3h-23V61h21l-2.3 4.4-.8 1.4 1.4.8 9.5 5.3 1.5.8.8-1.5 4.1-7.5c2.1-3.9 2.1-7.8.1-11.5zm-1.7-49.8h-1.7v13h13.2v-13h-11.5zm-7 13h1.7v-13h-13v13h11.3zm-16.1 84.1c-2.1 0-3.2-.8-3.7-2.5V87.1h-14.2v11.4c.7 5 2.6 8.9 5.6 11.6s7.1 4.2 12.2 4.6h25.8v-14.2H4695zm110.2-69.9H4795V10.2h-14.1v20.4h-15.8V10.2h-14.2v20.4h-14.7v14.2h14.7v52.5c.5 5.3 2.2 9.4 5.2 12.4s7.2 4.8 12.5 5.3h27.9v-14.2H4769c-2.5-.3-3.6-1.5-3.8-3.8V44.8h15.8V60c0 1.4-.4 2.6-1.3 3.7h-8.4v14.2h9.4c4.6-.3 8.3-2.4 10.9-6.3 2.2-3.5 3.4-7.4 3.5-11.6V44.8h11.9V30.6h-1.8zm73.4 24.3c-5.9-5.7-13-8.8-21.2-9.3h-12.1V7.5h-14.2v105.1h14.2V59.8h12c4.1.3 7.7 1.9 10.9 4.8l11 11.9 1.1 1.2 1.2-1.1 8-7.3 1.2-1.1-1.1-1.2-11-12.1zm41.6 42.1c-1.7-.2-2.5-.9-2.6-2.6V46.1h13.6c4.2-.2 8.2-1.5 11.7-3.9 3.5-2.5 6.2-5.7 7.9-9.6l4.1-10.8.6-1.6-1.6-.6-10.1-3.8-1.6-.6-.6 1.6-4 10.7c-1.4 2.6-3.6 4.1-6.6 4.6h-13.5V7.3h-14.2v87.4c.5 4.9 2.1 8.8 4.9 11.5 2.8 2.8 6.7 4.4 11.6 5h37.3V97h-36.9zm28.7-95.2h-1.7v13.7h13.5V1.8h-11.8zm16.5 0h-1.6v13.6h13.4V1.8h-1.7zm47.6 55.4V44.7h-26.6v14.2h26.6v-1.7zm31.7-49.9h-1.7v37.8c-.2 5-1.5 9.9-3.9 14.5l-26.5 45.5-.9 1.5 1.5.8 9.3 5.3 1.4.8.8-1.4 26.6-45.4c3.5-6.7 5.4-13.9 5.7-21.4v-38h-12.3zM5011.3 25h1.7V10.8h-26.6V25h24.9zm130.1-.8c-.5-5-2.1-8.9-4.9-11.7s-6.7-4.4-11.6-4.9h-51.5v14.2h51.2c1.7.1 2.5.9 2.7 2.6v20.3c-.4 4.3-2 8.1-4.7 11.5l-15.5 15.3c-2.2-3.7-3.5-7.8-3.7-12.1V44.5h-14.2v14.9c.2 3.7.9 7.4 2.2 11 1.1 3.8 2.8 7.3 5 10.4l24.2 32.2 1 1.3 1.3-1 8.6-6.4 1.3-1-1-1.3-16.4-22 16.9-16.7c5.4-6 8.4-13.1 8.8-21.2l.3-19.9v-.6zm268.5 76.2c-2.4-.3-3.6-1.4-3.8-3.8v-5.4c.3-5.8 1.9-11.3 4.8-16.1l32.2-49.4.9-1.4-1.4-.9-9-6-1.4-.9-.9 1.4-17.4 26.7-1.4-1.6c-3.1-4.3-4.9-9.1-5.2-14.3V10h-14.2v18.7c.1 4.3.9 8.4 2.4 12.4 1.4 3.9 3.4 7.6 6 10.9l4.1 5-6.8 10.4c-4.2 7.3-6.6 15.2-7 23.6v5.7c.5 5.3 2.3 9.5 5.3 12.5s7.2 4.8 12.5 5.3h37.9v-14.2h-1.7l-35.9.1zm121.9-97.3h-1.7v13.2h12.9V3.1h-1.7zm-7 13.2h1.7V3.1h-13v13.2h1.7zm-2.9 4c-4.8.1-8.6 2.1-11.3 6-2.4 3.5-3.6 7.5-3.5 11.8v58.5c-.3 2.4-1.5 3.6-3.8 3.8h-6.6c-3.4-.4-5.6-2.2-6.9-5.4l-2.3-8.5c-1.4-6.1-1.9-12.3-1.3-18.5l3.8-33.4c.7-5.2-.6-9.9-3.9-13.8-2.9-3.1-6.5-4.7-10.7-4.7l-8.7.5-1.6.1v13.6h10.4c.5.9.7 1.8.6 2.8l-3.8 33.3c-.8 7.9-.2 15.9 1.6 23.7l2.3 8.9v.2c3.3 9.4 10.2 14.6 20.3 15.5h7.2c5.2-.5 9.4-2.3 12.4-5.3s4.8-7.2 5.3-12.4V37.9c-.2-1.5.2-2.7 1.3-3.6h9v-14h-9.8zm72.9 14.2V20.3h-22.4V10.2h-14.2v10.1h-8v14.2h8v28.1c-.1 6.7-.7 13.5-1.9 20.1l-5.8 27.3-.3 1.6 1.6.3 10.6 2.2 1.6.3.3-1.6 5.7-27.4c1.4-7.5 2.2-15.2 2.4-22.8V34.5h22.4z"/><path class="st14" d="M5618.2 53.2c-3.1-4.2-7.2-6.3-12.3-6.3h-23V61h21l-2.3 4.4-.8 1.4 1.4.8 9.5 5.3 1.5.8.8-1.5 4.1-7.5c2.1-3.9 2.1-7.8.1-11.5zm-1.7-49.8h-1.7v13h13.2v-13h-11.5zm-7 13h1.7v-13h-13v13h11.3zm-16.1 84.1c-2.1 0-3.2-.8-3.7-2.5V87.1h-14.2v11.4c.7 5 2.6 8.9 5.6 11.6s7.1 4.2 12.2 4.6h25.8v-14.2h-25.7zm110.2-69.9h-10.2V10.2h-14.1v20.4h-15.8V10.2h-14.2v20.4h-14.7v14.2h14.7v52.5c.5 5.3 2.2 9.4 5.2 12.4s7.2 4.8 12.5 5.3h27.9v-14.2h-27.5c-2.5-.3-3.6-1.5-3.8-3.8V44.8h15.8V60c0 1.4-.4 2.6-1.3 3.7h-8.4v14.2h9.4c4.6-.3 8.3-2.4 10.9-6.3 2.2-3.5 3.4-7.4 3.5-11.6V44.8h11.9V30.6h-1.8zm73.4 24.3c-5.9-5.7-13-8.8-21.2-9.3h-12.1V7.5h-14.2v105.1h14.2V59.8h12c4.1.3 7.7 1.9 10.9 4.8l11 11.9 1.1 1.2 1.2-1.1 8-7.3 1.2-1.1-1.1-1.2-11-12.1zm41.6 42.1c-1.7-.2-2.5-.9-2.6-2.6V46.1h13.6c4.2-.2 8.2-1.5 11.7-3.9 3.5-2.5 6.2-5.7 7.9-9.6l4.1-10.8.6-1.6-1.6-.6-10.1-3.8-1.6-.6-.6 1.6-4 10.7c-1.4 2.6-3.6 4.1-6.6 4.6h-13.5V7.3h-14.2v87.4c.5 4.9 2.1 8.8 4.9 11.5 2.8 2.8 6.7 4.4 11.6 5h37.3V97h-36.9zm28.7-95.2h-1.7v13.7h13.5V1.8h-11.8zm16.5 0h-1.6v13.6h13.4V1.8h-1.7zm47.6 55.4V44.7h-26.6v14.2h26.6v-1.7zm31.7-49.9h-1.7v37.8c-.2 5-1.5 9.9-3.9 14.5l-26.5 45.5-.9 1.5 1.5.8 9.3 5.3 1.4.8.8-1.4 26.6-45.4c3.5-6.7 5.4-13.9 5.7-21.4v-38h-12.3zM5909.8 25h1.7V10.8h-26.6V25h24.9zm130-.8c-.5-5-2.1-8.9-4.9-11.7s-6.7-4.4-11.6-4.9h-51.5v14.2h51.2c1.7.1 2.5.9 2.7 2.6v20.3c-.4 4.3-2 8.1-4.7 11.5l-15.5 15.3c-2.2-3.7-3.5-7.8-3.7-12.1V44.5h-14.2v14.9c.2 3.7.9 7.4 2.2 11 1.1 3.8 2.8 7.3 5 10.4L6019 113l1 1.3 1.3-1 8.6-6.4 1.3-1-1-1.3-16.4-22 16.9-16.7c5.4-6 8.4-13.1 8.8-21.2l.3-20.1v-.4zm268.5 76.2c-2.4-.3-3.6-1.4-3.8-3.8v-5.4c.3-5.8 1.9-11.3 4.8-16.1l32.2-49.4.9-1.4-1.4-.9-9-6-1.4-.9-.9 1.4-17.4 26.7-1.4-1.6c-3.1-4.3-4.9-9.1-5.2-14.3V10h-14.2v18.7c.1 4.3.9 8.4 2.4 12.4 1.4 3.9 3.4 7.6 6 10.9l4.1 5-6.8 10.4c-4.2 7.3-6.6 15.2-7 23.6v5.7c.5 5.3 2.3 9.5 5.3 12.5s7.2 4.8 12.5 5.3h37.9v-14.2h-1.7l-35.9.1zm121.9-97.3h-1.7v13.2h12.9V3.1h-1.6zm-7 13.2h1.7V3.1h-13v13.2h1.7zm-2.8 4c-4.8.1-8.6 2.1-11.3 6-2.4 3.5-3.6 7.5-3.5 11.8v58.5c-.3 2.4-1.5 3.6-3.8 3.8h-6.6c-3.4-.4-5.6-2.2-6.9-5.4l-2.3-8.5c-1.4-6.1-1.9-12.3-1.3-18.5l3.8-33.4c.7-5.2-.6-9.9-3.9-13.8-2.9-3.1-6.5-4.7-10.7-4.7l-8.7.5-1.6.1v13.6h10.4c.5.9.7 1.8.6 2.8l-3.8 33.3c-.8 7.9-.2 15.9 1.6 23.7l2.3 8.9v.2c3.3 9.4 10.2 14.6 20.3 15.5h7.2c5.2-.5 9.4-2.3 12.4-5.3s4.8-7.2 5.3-12.4V37.9c-.2-1.5.2-2.7 1.3-3.6h9v-14h-9.8zm72.8 14.2V20.3h-22.4V10.2h-14.2v10.1h-8v14.2h8v28.1c-.1 6.7-.7 13.5-1.9 20.1L6449 110l-.3 1.6 1.6.3 10.6 2.2 1.6.3.3-1.6 5.7-27.4c1.4-7.5 2.2-15.2 2.4-22.8V34.5h22.3z"/><path class="st14" d="M6516.6 53.2c-3.1-4.2-7.2-6.3-12.3-6.3h-23V61h21l-2.3 4.4-.8 1.4 1.4.8 9.5 5.3 1.5.8.8-1.5 4.1-7.5c2.1-3.9 2.1-7.8.1-11.5zm-1.7-49.8h-1.7v13h13.2v-13h-11.5zm-7 13h1.7v-13h-13v13h11.3zm-16.1 84.1c-2.1 0-3.2-.8-3.7-2.5V87.1h-14.2v11.4c.7 5 2.6 8.9 5.6 11.6s7.1 4.2 12.2 4.6h25.8v-14.2h-25.7zM6602 30.6h-10.2V10.2h-14.1v20.4h-15.8V10.2h-14.2v20.4H6533v14.2h14.7v52.5c.5 5.3 2.2 9.4 5.2 12.4s7.2 4.8 12.5 5.3h27.9v-14.2h-27.5c-2.5-.3-3.6-1.5-3.8-3.8V44.8h15.8V60c0 1.4-.4 2.6-1.3 3.7h-8.4v14.2h9.4c4.6-.3 8.3-2.4 10.9-6.3 2.2-3.5 3.4-7.4 3.5-11.6V44.8h11.9V30.6h-1.8zm73.4 24.3c-5.9-5.7-13-8.8-21.2-9.3h-12.1V7.5h-14.2v105.1h14.2V59.8h12c4.1.3 7.7 1.9 10.9 4.8l11 11.9 1.1 1.2 1.2-1.1 8-7.3 1.2-1.1-1.1-1.2-11-12.1zM6717 97c-1.7-.2-2.5-.9-2.6-2.6V46.1h13.6c4.2-.2 8.2-1.5 11.7-3.9 3.5-2.5 6.2-5.7 7.9-9.6l4.1-10.8.6-1.6-1.6-.6-10.1-3.8-1.6-.6-.6 1.6-4 10.7c-1.4 2.6-3.6 4.1-6.6 4.6h-13.5V7.3h-14.2v87.4c.5 4.9 2.1 8.8 4.9 11.5 2.8 2.8 6.7 4.4 11.6 5h37.3V97H6717zm28.7-95.2h-1.7v13.7h13.5V1.8h-11.8zm16.5 0h-1.6v13.6h13.4V1.8h-1.7zm47.6 55.4V44.7h-26.6v14.2h26.6v-1.7zm31.7-49.9h-1.7v37.8c-.2 5-1.5 9.9-3.9 14.5l-26.5 45.5-.9 1.5 1.5.8 9.3 5.3 1.4.8.8-1.4 26.6-45.4c3.5-6.7 5.4-13.9 5.7-21.4v-38h-12.3zM6808.2 25h1.7V10.8h-26.6V25h24.9zm130-.8c-.5-5-2.1-8.9-4.9-11.7s-6.7-4.4-11.6-4.9h-51.5v14.2h51.2c1.7.1 2.5.9 2.7 2.6v20.3c-.4 4.3-2 8.1-4.7 11.5l-15.5 15.3c-2.2-3.7-3.5-7.8-3.7-12.1V44.5H6886v14.9c.2 3.7.9 7.4 2.2 11 1.1 3.8 2.8 7.3 5 10.4l24.2 32.2 1 1.3 1.3-1 8.6-6.4 1.3-1-1-1.3-16.4-22 16.9-16.7c5.4-6 8.4-13.1 8.8-21.2l.3-19.9v-.6z"/></svg>