<svg version="1.1" id="レイヤー_1" xmlns="http://www.w3.org/2000/svg" x="0" y="0" viewBox="0 0 2357 72.1" xml:space="preserve"><style>.st0{fill:#ffc600}.st1{fill:#ffae00}.st2{fill:#e09000}</style><path class="st0" d="M2296 48.8c1 1.6 1.2 2.8.8 3.9-.5 1-1.1 2-2 2.8-.6.5-1.4.8-2.2.9s-1.5 0-2-.1-.8-.2-.8-.2 0 .3.1.8 0 1.2-.3 1.9c-.3.8-1.1 1.6-2.3 2.4-.6.4-1.3.6-2 .7-.8.1-1.5.1-2 .1h-.9v.6c0 .4-.2 1-.6 1.6-.4.7-1.1 1.3-2.2 2-.9.5-1.7.7-2.5.7s-1.5-.1-2-.4c-.5-.2-.8-.3-.8-.3l-.6.6c-.4.4-1 .9-1.7 1.4-.7.5-1.6.8-2.6 1-1 .2-2.2-.1-3.5-.6-.1-.1-.8-.5-2.1-1.4-1.3-.9-2.9-2-5-3.4-2-1.4-4.3-2.9-6.7-4.5s-4.9-3.3-7.3-4.9c-2.4-1.7-4.6-3.2-6.7-4.5-2-1.4-3.7-2.5-4.9-3.3s-1.9-1.3-2-1.4c-2.4-1.8-4.4-3.3-6.3-4.4-1.8-1.1-2.9-2-3.1-2.7-.3-.7-.7-2.2-1.3-4.6-.5-2.4-.7-5.6-.6-9.9.2-4.2.6-7.8 1.4-10.7.7-2.9 1.8-4.9 3.2-5.9 0 0 .6.4 1.9 1.1 1.3.7 2.8 1.5 4.7 2.4 1.9.9 3.9 1.7 5.9 2.2 3.1.9 5.9 1.3 8.5 1.4 2.6.1 5.3-.3 8.1-1.1 2.7-.8 5.4-1.3 8-1.4 2.6-.1 5.2.2 7.8.9 1 .3 2 1.1 3.1 2.4 1 1.3 2 2.8 3 4.5s1.9 3.5 2.7 5.3c.9 1.8 1.6 3.4 2.3 4.8s1.2 2.4 1.6 2.9c.5.7 1.5 1.8 2.8 3.3 1.3 1.5 2.7 3.1 4.3 4.9s2.9 3.4 4.3 4.9c1.1 1.5 2 2.6 2.5 3.3z"/><path class="st0" d="M2260.7 61.8c.6 1.6.4 3.1-.5 4.6s-2.2 2.3-3.8 2.5c-1.2.2-2.2 0-2.9-.5-.7-.5-1.2-1-1.5-1.5-.3-.5-.4-.8-.4-.8s-.3.1-.9.4c-.6.2-1.4.4-2.3.4-.9 0-1.8-.3-2.7-.9-.9-.6-1.4-1.3-1.8-2.2-.3-.9-.5-1.7-.5-2.3v-1s-.3 0-1-.1-1.4-.2-2.3-.4c-.9-.2-1.6-.6-2.3-1.1-.6-.6-1-1.3-1.1-2-.2-.8-.2-1.5-.2-2 .1-.6.1-.9.1-.9s-.2 0-.6.1-.9 0-1.4-.3c-.6-.2-1.2-.8-1.8-1.7-.7-1-.9-2-.7-2.9.2-.9.7-1.8 1.3-2.7.6-.9 1.4-1.5 2.1-2 .8-.5 1.7-.7 2.9-.7 1.1.1 1.8.3 2.1.9.3.5.6 1.1.6 1.6.1.5.2.8.3.8.1.1.5-.1 1.1-.6.6-.4 1.6-.7 2.9-.9.4-.1.9-.1 1.4 0 .5 0 .9.2 1.2.5 1 .8 1.6 1.6 1.8 2.4.3.8.4 1.5.3 2.1-.1.6-.1.9 0 .9.1.1.5.1 1.4.2.9.1 1.8.5 2.7 1s1.6 1.6 1.9 3.1c.1.4.2.9.2 1.7 0 .8.1 1.2.2 1.3.1 0 .3 0 .8.1s1.1.3 1.8.7 1.2 1 1.7 2c-.2-.1-.1 0-.1.2z"/><path class="st1" d="M2296.5 49.8c.2.3.3.6.4 1 .2 1.2-.1 2.3-.9 3.4-.3.4-.7.9-1.3 1.3-.6.6-1.4.9-2.2 1s-1.5 0-2-.1-.8-.2-.8-.2 0 .3.1.8 0 1.2-.3 1.9c-.3.8-1.1 1.5-2.3 2.3-.6.4-1.3.7-2 .8-.8.1-1.5.1-2 0s-.9-.1-.9-.1v.7c0 .5-.2 1-.6 1.7-.4.7-1.1 1.3-2.2 1.9-.9.5-1.7.8-2.5.8s-1.5-.2-2-.4-.8-.4-.8-.4-.2.2-.6.7c-.4.5-1 .9-1.7 1.4-.7.5-1.6.8-2.6 1-1 .2-2.2-.1-3.5-.6-.3-.1-.5-.2-.8-.4l.2-.2c1.2.4 2.4.2 3.4-.6 1-.7 1.5-1.8 1.4-3.1-.1-.2-.1-.3 0-.4.1-.2.2-.2.4-.2.2.1.4.1.6.2.7.4 1.6.7 2.4.8.9.1 1.7 0 2.5-.4.8-.3 1.4-.9 1.9-1.7.5-.8.6-1.7.3-2.5 0-.2 0-.3-.1-.5s0-.3.1-.4c.1-.2.3-.2.5-.2s.5.1.7.1c1.7.6 3.2.3 4.6-.7.6-.5 1.1-1.1 1.3-2 .2-.8.3-1.6 0-2.4-.1-.2-.1-.3-.1-.4 0-.3.1-.4.4-.4h.8c1.6.2 3.1-.2 4.3-1.3 1.3-1.1 1.9-2.5 1.8-4.2 0-1.6-.5-3-1.6-4.3s-2.1-2.5-3.1-3.8c-1.2-1.6-2.1-3.3-2.7-5.2.8 1 1.8 2.3 3 3.9l3.6 4.8c1.2 1.6 2.2 3 3 4.1s1.2 1.7 1.2 1.7c.4.4.5.6.7.8z"/><path class="st2" d="M2272.2 64.7c-1.1-.6-2.1-1.5-3-2.6s-1.8-2-2.5-2.8c-.7-.8-1.4-1.1-1.9-.8-.5.2-.7.6-.5 1.1.2.5.6 1.1 1.1 1.6s1.2 1.1 1.8 1.6 1.1.9 1.4 1.1c2.1 1.7 3.7 2.6 4.7 2.7 1 .2 1.7.2 2.1.2 0 0-.2-.2-.7-.5-.6-.4-1.4-.9-2.5-1.6zm10-2.5c.7.1 1.3 0 1.8 0 .5-.1.7-.1.6-.2-.6-.2-1.3-.4-2-.8s-1.3-.7-1.8-1.1c-2.5-1.7-4.4-3.1-5.7-4.5s-2.2-2.2-2.7-2.7l-1.2-1.2c-.5-.5-1-.5-1.5 0s-.5 1 0 1.5l.6.6.6.6c1.4 1.5 2.9 2.8 4.5 4 1.6 1.2 3 2.1 4.2 2.8 1.2.7 2.1 1 2.6 1zm5.7-6.5c1.7.7 3 1.1 4 .9s1.5-.3 1.7-.4c0 0-.4-.1-1.3-.4-.9-.3-2.3-1.1-4.3-2.5-.1-.1-.5-.3-1.1-.9-.6-.5-1.3-1.1-1.9-1.7s-1.1-1-1.3-1.2c-.9-.9-1.8-1.8-2.6-2.8l-2.4-3c-.4-.5-.9-.6-1.5-.2-.5.5-.6 1-.2 1.5 2.5 3.3 4.6 5.7 6.2 7.2 1.6 1.7 3.2 2.8 4.7 3.5zm-64.7-15.9l9.3 6.9 2.2-2.2s-.3-.1-.9-.4c-.6-.3-1.5-.7-2.5-1.2-1.2-.6-2.5-1.3-3.9-2s-2.7-1.2-3.7-1.7c-.2-.1-.4 0-.5.2-.1 0-.1.2 0 .4z"/><path class="st0" d="M2309.6 20.2c.4 2.6.5 5.1.5 7.4s-.1 4.2-.3 5.7c-.2 1.4-.2 2.2-.2 2.2s-.3.2-.8.6-1.2.9-2 1.5-1.5 1.2-2.2 1.8-1.2 1.1-1.6 1.4c-.4.4-.9 1-1.7 1.8-.7.9-1.5 1.8-2.4 2.7-.8 1-1.5 1.8-2.1 2.4s-.8 1-.8 1-.3-.3-.8-1-1.2-1.6-2-2.6-1.6-2.1-2.3-3.1c-.8-1-1.4-1.9-2-2.5-1.4-1.7-2.9-3.4-4.3-5s-2.9-3.7-4.5-6.3c-.1-.2-.6-.5-1.4-1.2-.9-.6-1.9-1.2-3.3-1.7-1.3-.5-2.7-.8-4.1-.8-1.4 0-2.5 0-3.3.1-.7.1-1.4.2-2 .4-.6.2-1.2.5-1.9.8 0 0-.4.2-1.1.6-.7.4-1.7.8-2.9 1.3s-2.6.9-4.1 1.2c-1.5.3-3 .4-4.6.2-1.2-.1-2.2-.4-3-1-.8-.6-1.3-1.3-1.6-2-.3-.7-.5-1.3-.4-1.8.1-.7.8-1.4 2.1-2.1s2.8-1.6 4.4-2.6c2-1.2 4.2-2.5 6.5-3.9s4.4-2.3 6.4-2.8c1-.3 2.3-.5 3.9-.7 1.6-.2 3.3-.3 5.1-.4s3.4-.2 5-.2h5.4s.4 0 1.3-.1 2-.2 3.3-.4c1.4-.2 2.8-.4 4.2-.7 1.4-.3 2.7-.6 3.9-1 1.5-.5 2.8-1.1 3.8-1.8 1-.6 1.9-1.1 2.5-1.4s1.2-.2 1.6.2c.5.6 1.1 2.1 1.8 4.5.8 2.5 1.4 5.6 2 9.3z"/><path class="st1" d="M2296.2 42.9c0 .1 0 .5.1 1 .1.6.1 1.2.2 1.9v1.6c-.1.5-.2.9-.3 1l-.2.2-11.6-15.6c-.2-.2.1-.4.8-.5s1.7-.2 2.9-.2h5c.1 0 .3-.1.7-.2.4-.1.7-.1 1 0 .3.1.4.6.4 1.3-.1.3-.1.6-.2 1.1-.3 1.4-.3 2.8.2 4.1.4 1.5.7 2.9 1 4.3z"/><path class="st2" d="M2288.9 33.3s-.2.1-.6.4c-.4.2-.5.8-.2 1.6.1.2.5.9 1.1 1.9.6 1.1 1.4 2.3 2.3 3.8s1.8 2.9 2.6 4.3c.9 1.4 1.6 2.5 2.2 3.4.1.1 0 .2-.1.3s-.2.1-.2 0c-1.3-1.3-2.8-2.9-4.3-4.7s-3-3.7-4.5-5.5c-1.5-1.8-2.8-3.4-4-4.8-.5-.6-1.1-1.3-1.6-1.9s-1.1-1.2-1.7-1.9l9 3.1z"/><path class="st2" d="M2272.1 26.1c-1.7-.3-3.3-.2-4.8.2-1.6.4-3.1 1-4.6 1.8-1.5.7-3 1.4-4.5 2-1.5.6-3.1.9-4.7 1-1.6.1-3.3-.4-5.1-1.4-1.2-.6-2.1-1.5-2.5-2.6-.5-1.1-.7-1.8-.7-2.3 0-.3 0-.7.1-1.1.1-.4.3-.9.9-1.4s1.5-1.1 3-1.6c1.7-.7 3.3-1.5 4.7-2.4s2.9-1.9 4.3-2.8c1.4-.9 2.9-1.6 4.5-2.2.9-.3 2-.5 3.1-.7 1.2-.2 2.3-.2 3.5-.1-2.2.6-4.5 1.4-6.7 2.5s-4.2 2.3-6.1 3.7c-.9.8-2.1 1.5-3.5 2.2-1.4.6-2.7 1.3-3.9 1.9-1.2.6-1.8 1.3-1.8 2.1-.1.6.1 1.1.6 1.6l1.2 1.2c1.3.9 2.7 1.3 4.2 1.3 1.4-.1 2.9-.4 4.4-1s2.9-1.2 4.2-1.9c1.3-.7 2.5-1.2 3.5-1.6 2.5-.7 4.5-1 6.2-.9 1.7.1 3.1.4 4.4 1s2.4 1.3 3.6 2.1c1.2.8 2.4 1.6 3.9 2.4s3.1 1.4 5.2 1.9c.3.1.9.2 1.8.3l2.7.3c.9.1 1.4.3 1.6.4s-.2.4-1.4.8c-.3.1-1.1.3-2.4.5-1.3.2-3 .1-5.1-.3-2-.4-4.2-1.5-6.5-3.2-1.4-1.1-2.5-1.9-3.4-2.4-.9-.5-2.2-1-3.9-1.3zm-10.9 39.4c.4-.8.5-1.8.4-3-.1-1.2-.4-2.1-1.1-2.9-.6-.9-1.4-1.4-2.3-1.6-.9-.2-1.3-.3-1.3-.3s0-.4.1-1.1c.1-.7 0-1.5-.2-2.4-.2-.9-.7-1.7-1.5-2.2-1.1-.9-2.1-1.4-3-1.4s-1.3-.1-1.4-.3c.1-1.9-.3-3.3-1.2-4.3-.9-1-2-1.5-3.4-1.6-1.4-.1-2.8.4-4.3 1.4-.5-1.3-1.3-2.2-2.4-2.6-1-.4-2.1-.4-3.3-.1s-2 .9-2.7 1.8c-.4.5-.9 1.1-1.3 1.8s-.6 1.3-.6 1.8c0 0 .3-.3.8-.9.5-.6 1.2-1.2 2-1.8s1.6-1 2.4-1.2c.5-.1 1-.1 1.5 0s1 .5 1.3 1.3c.2.5.1 1-.2 1.5-.3.5-.7.9-.9 1.4-.4.5-.8 1.2-1.3 2.1-.5.9-.9 1.8-1.1 2.8-.2 1-.2 1.9.1 2.8 0 0 .1-.2.2-.7.1-.5.2-.8.4-1 .4-.7.9-1.7 1.6-2.8.7-1.1 1.5-2.2 2.4-3.3s1.8-1.8 2.8-2.3c1-.4 1.9-.5 2.9-.1s1.6 1.3 1.8 2.9c.1.7-.1 1.5-.8 2.4-.6.9-1.3 2-2.1 3.1s-1.5 2.3-2 3.5-.7 2.5-.4 3.9c.1.6.2.9.4.9s.2-.3.3-.8c.1-.6.3-1.3.8-2.1s.8-1.5 1.1-2c.6-1.1 1.4-2.1 2.1-3.2s1.8-1.7 3.2-1.8c1.1-.2 2 0 2.9.6.9.6 1.2 1.5 1.1 2.6-.1 1.2-.4 2.2-1 3.1-.6.9-1.1 1.7-1.7 2.6s-.9 2-1 3.3c-.1.6 0 1.1.2 1.5.2.4.3.4.4.1.2-1.1.7-2.4 1.4-3.9s1.7-2.4 2.8-2.7c.7-.2 1.4-.1 2.2.2.8.3 1.3.8 1.6 1.5.3.6.4 1.3.2 2.2-.2.9-.4 1.7-.7 2.4-.3.7-.4 1-.4 1 .3-.1.7-.4 1.2-.8s.9-1 1-1.3zm33.7-19.1l1.4 2.2s.3-.3.8-1c.5-.6 1.2-1.4 1.9-2.2.7-.9 1.4-1.6 2-2.3.6-.7 1.4-1.5 2.4-2.3 1-.9 1.9-1.6 2.8-2.3.8-.7 1.2-1.1 1.2-1.3 0-.2-.3-.1-.8.2-.6.3-1.2.6-2 1.1-.7.5-1.5.9-2.2 1.3-.5.3-1.1.8-2 1.6-.8.7-1.7 1.5-2.5 2.3-.8.8-1.5 1.5-2.1 2-.7.5-.9.7-.9.7z"/><path d="M36 72.1c-5.2 0-10-.9-14.4-2.6-4.4-1.8-8.2-4.2-11.5-7.4-3.3-3.2-5.8-6.9-7.6-11.2C.7 46.6-.2 42-.2 36.9s.9-9.7 2.7-14c1.8-4.3 4.3-8 7.6-11.2 3.3-3.2 7.1-5.7 11.5-7.4C26 2.5 30.8 1.6 36 1.6c4.7 0 9.2.7 13.3 2.2C53.5 5.3 57 7.5 60 10.5l-1.2 1.4c-3.2-3.1-6.7-5.2-10.5-6.5-3.8-1.3-7.9-1.9-12.3-1.9-4.9 0-9.4.8-13.5 2.5-4.2 1.7-7.8 4.1-10.9 7.1-3.1 3-5.5 6.6-7.2 10.6-1.7 4-2.5 8.4-2.5 13.1 0 4.7.8 9.1 2.5 13.1s4.1 7.6 7.2 10.6c3.1 3 6.7 5.4 10.9 7.1 4.2 1.7 8.7 2.5 13.5 2.5 4.4 0 8.5-.7 12.4-2 3.9-1.3 7.4-3.5 10.4-6.6L60 63c-3 3-6.6 5.2-10.7 6.7-4.1 1.6-8.6 2.4-13.3 2.4zm24.1-9l-1.9-.2V37.5h1.9v25.6zm22.5 8.7V1.9h23.7c8.6 0 15.3 2 20.2 6 4.9 4 7.3 9.7 7.3 16.9 0 4.8-1.1 8.9-3.3 12.3-2.2 3.4-5.3 6.1-9.4 7.9-4.1 1.8-9 2.7-14.7 2.7H83.7l.9-.9v24.9h-2zm2-25.1l-.9-.8h22.8c8.2 0 14.4-1.8 18.8-5.5 4.3-3.7 6.5-8.9 6.5-15.5 0-6.7-2.2-11.9-6.5-15.6-4.3-3.7-10.6-5.5-18.8-5.5H83.7l.9-.8v43.7zm47.6 25.1l-18.3-25.4h2.5l18.3 25.4h-2.5zm48.3.3c-5.1 0-9.9-.9-14.2-2.6-4.4-1.8-8.2-4.2-11.4-7.4-3.2-3.2-5.7-6.9-7.5-11.2-1.8-4.3-2.7-8.9-2.7-14s.9-9.7 2.7-14c1.8-4.3 4.3-8 7.5-11.2 3.2-3.2 7-5.7 11.4-7.4 4.4-1.8 9.1-2.6 14.2-2.6s9.9.9 14.2 2.6c4.4 1.8 8.2 4.2 11.4 7.4 3.2 3.2 5.7 6.9 7.5 11.2 1.8 4.3 2.7 8.9 2.7 14s-.9 9.7-2.7 14c-1.8 4.3-4.3 8-7.5 11.2-3.2 3.2-7 5.7-11.4 7.4-4.3 1.7-9 2.6-14.2 2.6zm0-1.9c4.8 0 9.3-.8 13.4-2.5s7.7-4 10.8-7c3.1-3 5.4-6.6 7.1-10.6 1.7-4 2.5-8.4 2.5-13.2s-.8-9.2-2.5-13.2-4.1-7.6-7.1-10.6c-3.1-3-6.7-5.4-10.8-7-4.1-1.7-8.6-2.5-13.4-2.5-4.8 0-9.3.8-13.4 2.5s-7.7 4-10.8 7c-3.1 3-5.4 6.6-7.1 10.6-1.7 4-2.5 8.4-2.5 13.2s.8 9.2 2.5 13.2 4.1 7.6 7.1 10.6c3.1 3 6.7 5.4 10.8 7 4.2 1.7 8.6 2.5 13.4 2.5zm79.4 1.9c-8.3 0-14.9-2.5-19.7-7.4-4.8-4.9-7.2-12.3-7.2-22.2V1.9h2v40.5c0 9.3 2.2 16.3 6.5 20.9 4.4 4.6 10.5 6.9 18.4 6.9 7.9 0 14.1-2.3 18.4-6.9 4.4-4.6 6.5-11.6 6.5-20.9V1.9h2v40.6c0 9.9-2.4 17.2-7.2 22.2-4.8 4.9-11.3 7.4-19.7 7.4zm51-.3V1.9h23.7c5.7 0 10.6.9 14.7 2.7 4.1 1.8 7.2 4.4 9.4 7.8 2.2 3.4 3.3 7.5 3.3 12.4 0 4.8-1.1 8.9-3.3 12.3-2.2 3.4-5.3 6.1-9.4 7.9-4.1 1.8-9 2.7-14.7 2.7H312l.9-.9v24.9h-2zm2-25.1l-.9-.8h22.8c8.2 0 14.4-1.8 18.8-5.5 4.3-3.7 6.5-8.9 6.5-15.5 0-6.7-2.2-11.9-6.5-15.6-4.3-3.7-10.6-5.5-18.8-5.5H312l.9-.8v43.7zm118.3 25.4c-5.1 0-9.9-.9-14.2-2.6-4.4-1.8-8.2-4.2-11.4-7.4-3.2-3.2-5.7-6.9-7.5-11.2-1.8-4.3-2.7-8.9-2.7-14s.9-9.7 2.7-14c1.8-4.3 4.3-8 7.5-11.2 3.2-3.2 7-5.7 11.4-7.4 4.4-1.8 9.1-2.6 14.2-2.6 4.6 0 9 .7 13.1 2.2 4.1 1.5 7.7 3.7 10.7 6.7l-1.2 1.4c-3.2-3.1-6.7-5.2-10.5-6.5-3.8-1.3-7.8-1.9-12.1-1.9-4.8 0-9.3.8-13.4 2.5s-7.7 4.1-10.8 7.1c-3.1 3-5.4 6.6-7.1 10.6-1.7 4-2.5 8.4-2.5 13.1 0 4.7.8 9.1 2.5 13.1s4.1 7.6 7.1 10.6c3.1 3 6.7 5.4 10.8 7.1 4.1 1.7 8.6 2.5 13.4 2.5 4.3 0 8.3-.6 12.1-1.9 3.8-1.3 7.3-3.5 10.5-6.5l1.2 1.4c-3 3-6.6 5.2-10.7 6.7-4.1 1.4-8.5 2.2-13.1 2.2zm68 0c-5.1 0-9.9-.9-14.2-2.6-4.4-1.8-8.2-4.2-11.4-7.4-3.2-3.2-5.7-6.9-7.5-11.2-1.8-4.3-2.7-8.9-2.7-14s.9-9.7 2.7-14c1.8-4.3 4.3-8 7.5-11.2 3.2-3.2 7-5.7 11.4-7.4 4.4-1.8 9.1-2.6 14.2-2.6s9.9.9 14.2 2.6c4.4 1.8 8.2 4.2 11.4 7.4 3.2 3.2 5.7 6.9 7.5 11.2 1.8 4.3 2.7 8.9 2.7 14s-.9 9.7-2.7 14c-1.8 4.3-4.3 8-7.5 11.2-3.2 3.2-7 5.7-11.4 7.4-4.3 1.7-9 2.6-14.2 2.6zm0-1.9c4.8 0 9.3-.8 13.4-2.5s7.7-4 10.8-7c3.1-3 5.4-6.6 7.1-10.6 1.7-4 2.5-8.4 2.5-13.2s-.8-9.2-2.5-13.2-4.1-7.6-7.1-10.6c-3.1-3-6.7-5.4-10.8-7-4.1-1.7-8.6-2.5-13.4-2.5-4.8 0-9.3.8-13.4 2.5s-7.7 4-10.8 7c-3.1 3-5.4 6.6-7.1 10.6-1.7 4-2.5 8.4-2.5 13.2s.8 9.2 2.5 13.2 4.1 7.6 7.1 10.6c3.1 3 6.7 5.4 10.8 7 4.2 1.7 8.7 2.5 13.4 2.5zm53.1 1.6V1.9h1.7L587.2 60h-.9l33.2-58.1h1.7v69.9h-2v-67h.8l-32.7 57.1h-1.2L553.4 4.8h.9v67h-2zm93.5 0V1.9h23.7c5.7 0 10.6.9 14.7 2.7 4.1 1.8 7.2 4.4 9.4 7.8 2.2 3.4 3.3 7.5 3.3 12.4 0 4.8-1.1 8.9-3.3 12.3-2.2 3.4-5.3 6.1-9.4 7.9-4.1 1.8-9 2.7-14.7 2.7h-22.6l.9-.9v24.9h-2zm2-25.1l-.9-.8h22.8c8.2 0 14.4-1.8 18.8-5.5 4.3-3.7 6.5-8.9 6.5-15.5 0-6.7-2.2-11.9-6.5-15.6-4.3-3.7-10.6-5.5-18.8-5.5h-22.8l.9-.8v43.7zm54.5 25.1l32.5-69.9h2l32.5 69.9H767L735.3 3.5h1l-31.7 68.3h-2.3zM713 50.7l1-1.9h43.4l1 1.9H713zm68.4 21.1V1.9h1.7l52.3 67.6h-1.1V1.9h2v69.9h-1.7L782.3 4.2h1.1v67.6h-2zm79.5 0V1.9h2v69.9h-2zm26.6 0V1.9h45v1.9h-43v66.1H934v1.9h-46.5zm1.5-34.6v-1.9h39v1.9h-39zm80.3 34.9c-5.1 0-9.8-.9-14.3-2.8s-7.9-4.2-10.2-7.1l1.4-1.3c2.2 2.6 5.4 4.8 9.5 6.6 4.2 1.8 8.7 2.7 13.5 2.7 5.1 0 9.2-.7 12.4-2.1 3.2-1.4 5.6-3.3 7.2-5.6 1.6-2.4 2.3-5 2.3-7.8 0-3.3-.8-6-2.4-8-1.6-2-3.7-3.6-6.4-4.8-2.7-1.2-5.6-2.1-8.7-2.9-3.1-.8-6.3-1.5-9.4-2.3-3.2-.8-6.1-1.8-8.7-3.1-2.7-1.3-4.8-3.1-6.4-5.3-1.6-2.3-2.4-5.2-2.4-8.9 0-3.1.8-5.9 2.4-8.6 1.6-2.7 4.2-4.8 7.6-6.5 3.4-1.7 7.9-2.5 13.3-2.5 3.7 0 7.4.6 11 1.7 3.6 1.2 6.7 2.7 9.2 4.6l-1.1 1.6C986.4 7.5 983.3 6 980 5c-3.4-1-6.7-1.5-9.8-1.5-4.9 0-8.9.7-12.1 2.1-3.2 1.4-5.6 3.3-7.1 5.7-1.5 2.4-2.3 5-2.3 7.9 0 3.4.8 6.1 2.4 8.1 1.6 2 3.7 3.6 6.4 4.8 2.7 1.2 5.6 2.1 8.7 2.9 3.2.8 6.3 1.6 9.4 2.4 3.1.8 6 1.9 8.7 3.2 2.7 1.3 4.8 3 6.4 5.2 1.6 2.2 2.4 5.1 2.4 8.7 0 3.1-.8 5.9-2.5 8.6-1.7 2.7-4.3 4.8-7.8 6.4-3.5 1.8-8 2.6-13.5 2.6zm245.7 0c-5.2 0-10-.9-14.4-2.6-4.4-1.8-8.2-4.2-11.5-7.4-3.3-3.2-5.8-6.9-7.6-11.2-1.8-4.3-2.7-8.9-2.7-14s.9-9.7 2.7-14c1.8-4.3 4.3-8 7.6-11.2 3.3-3.2 7.1-5.7 11.5-7.4 4.4-1.8 9.2-2.6 14.4-2.6 4.7 0 9.2.7 13.3 2.2 4.2 1.5 7.7 3.7 10.7 6.7l-1.2 1.4c-3.2-3.1-6.7-5.2-10.5-6.5-3.8-1.3-7.9-1.9-12.3-1.9-4.9 0-9.4.8-13.5 2.5-4.2 1.7-7.8 4.1-10.9 7.1-3.1 3-5.5 6.6-7.2 10.6-1.7 4-2.5 8.4-2.5 13.1 0 4.7.8 9.1 2.5 13.1s4.1 7.6 7.2 10.6c3.1 3 6.7 5.4 10.9 7.1 4.2 1.7 8.7 2.5 13.5 2.5 4.4 0 8.5-.7 12.4-2 3.9-1.3 7.4-3.5 10.4-6.6l1.2 1.5c-3 3-6.6 5.2-10.7 6.7s-8.6 2.3-13.3 2.3zm24.1-9l-1.9-.2V37.5h1.9v25.6zm22.5 8.7V1.9h23.7c8.6 0 15.3 2 20.2 6 4.9 4 7.3 9.7 7.3 16.9 0 4.8-1.1 8.9-3.3 12.3-2.2 3.4-5.3 6.1-9.4 7.9-4.1 1.8-9 2.7-14.7 2.7h-22.6l.9-.9v24.9h-2.1zm2-25.1l-.9-.8h22.8c8.2 0 14.4-1.8 18.8-5.5 4.3-3.7 6.5-8.9 6.5-15.5 0-6.7-2.2-11.9-6.5-15.6-4.3-3.7-10.6-5.5-18.8-5.5h-22.8l.9-.8v43.7zm47.6 25.1l-18.3-25.4h2.5l18.3 25.4h-2.5zm48.3.3c-5.1 0-9.9-.9-14.2-2.6-4.4-1.8-8.2-4.2-11.4-7.4-3.2-3.2-5.7-6.9-7.5-11.2-1.8-4.3-2.7-8.9-2.7-14s.9-9.7 2.7-14c1.8-4.3 4.3-8 7.5-11.2 3.2-3.2 7-5.7 11.4-7.4 4.4-1.8 9.1-2.6 14.2-2.6s9.9.9 14.2 2.6c4.4 1.8 8.2 4.2 11.4 7.4 3.2 3.2 5.7 6.9 7.5 11.2 1.8 4.3 2.7 8.9 2.7 14s-.9 9.7-2.7 14c-1.8 4.3-4.3 8-7.5 11.2-3.2 3.2-7 5.7-11.4 7.4-4.3 1.7-9 2.6-14.2 2.6zm0-1.9c4.8 0 9.3-.8 13.4-2.5s7.7-4 10.8-7c3.1-3 5.4-6.6 7.1-10.6 1.7-4 2.5-8.4 2.5-13.2s-.8-9.2-2.5-13.2-4.1-7.6-7.1-10.6c-3.1-3-6.7-5.4-10.8-7-4.1-1.7-8.6-2.5-13.4-2.5s-9.3.8-13.4 2.5-7.7 4-10.8 7c-3.1 3-5.4 6.6-7.1 10.6-1.7 4-2.5 8.4-2.5 13.2s.8 9.2 2.5 13.2 4.1 7.6 7.1 10.6c3.1 3 6.7 5.4 10.8 7 4.2 1.7 8.6 2.5 13.4 2.5zm79.4 1.9c-8.3 0-14.9-2.5-19.7-7.4-4.8-4.9-7.2-12.3-7.2-22.2V1.9h2v40.5c0 9.3 2.2 16.3 6.5 20.9 4.4 4.6 10.5 6.9 18.4 6.9 7.9 0 14.1-2.3 18.4-6.9 4.4-4.6 6.5-11.6 6.5-20.9V1.9h2v40.6c0 9.9-2.4 17.2-7.2 22.2-4.8 4.9-11.3 7.4-19.7 7.4zm51-.3V1.9h23.7c5.7 0 10.6.9 14.7 2.7 4.1 1.8 7.2 4.4 9.4 7.8 2.2 3.4 3.3 7.5 3.3 12.4 0 4.8-1.1 8.9-3.3 12.3-2.2 3.4-5.3 6.1-9.4 7.9-4.1 1.8-9 2.7-14.7 2.7H1491l.9-.9v24.9h-2zm2-25.1l-.9-.8h22.8c8.2 0 14.4-1.8 18.8-5.5 4.3-3.7 6.5-8.9 6.5-15.5 0-6.7-2.2-11.9-6.5-15.6-4.3-3.7-10.6-5.5-18.8-5.5H1491l.9-.8v43.7zm118.3 25.4c-5.1 0-9.9-.9-14.2-2.6-4.4-1.8-8.2-4.2-11.4-7.4-3.2-3.2-5.7-6.9-7.5-11.2-1.8-4.3-2.7-8.9-2.7-14s.9-9.7 2.7-14c1.8-4.3 4.3-8 7.5-11.2 3.2-3.2 7-5.7 11.4-7.4 4.4-1.8 9.1-2.6 14.2-2.6 4.6 0 9 .7 13.1 2.2 4.1 1.5 7.7 3.7 10.7 6.7l-1.2 1.4c-3.2-3.1-6.7-5.2-10.5-6.5-3.8-1.3-7.8-1.9-12.1-1.9-4.8 0-9.3.8-13.4 2.5s-7.7 4.1-10.8 7.1c-3.1 3-5.4 6.6-7.1 10.6-1.7 4-2.5 8.4-2.5 13.1 0 4.7.8 9.1 2.5 13.1s4.1 7.6 7.1 10.6c3.1 3 6.7 5.4 10.8 7.1 4.1 1.7 8.6 2.5 13.4 2.5 4.3 0 8.3-.6 12.1-1.9 3.8-1.3 7.3-3.5 10.5-6.5l1.2 1.4c-3 3-6.6 5.2-10.7 6.7-4.1 1.4-8.5 2.2-13.1 2.2zm68 0c-5.1 0-9.9-.9-14.2-2.6-4.4-1.8-8.2-4.2-11.4-7.4-3.2-3.2-5.7-6.9-7.5-11.2-1.8-4.3-2.7-8.9-2.7-14s.9-9.7 2.7-14c1.8-4.3 4.3-8 7.5-11.2 3.2-3.2 7-5.7 11.4-7.4 4.4-1.8 9.1-2.6 14.2-2.6s9.9.9 14.2 2.6c4.4 1.8 8.2 4.2 11.4 7.4 3.2 3.2 5.7 6.9 7.5 11.2 1.8 4.3 2.7 8.9 2.7 14s-.9 9.7-2.7 14c-1.8 4.3-4.3 8-7.5 11.2-3.2 3.2-7 5.7-11.4 7.4-4.3 1.7-9 2.6-14.2 2.6zm0-1.9c4.8 0 9.3-.8 13.4-2.5s7.7-4 10.8-7c3.1-3 5.4-6.6 7.1-10.6 1.7-4 2.5-8.4 2.5-13.2s-.8-9.2-2.5-13.2-4.1-7.6-7.1-10.6c-3.1-3-6.7-5.4-10.8-7-4.1-1.7-8.6-2.5-13.4-2.5s-9.3.8-13.4 2.5-7.7 4-10.8 7c-3.1 3-5.4 6.6-7.1 10.6-1.7 4-2.5 8.4-2.5 13.2s.8 9.2 2.5 13.2 4.1 7.6 7.1 10.6c3.1 3 6.7 5.4 10.8 7 4.2 1.7 8.7 2.5 13.4 2.5zm53.1 1.6V1.9h1.7l33.3 58.1h-.9l33.2-58.1h1.7v69.9h-2v-67h.8l-32.7 57.1h-1.2l-32.8-57.1h.9v67h-2zm93.5 0V1.9h23.7c5.7 0 10.6.9 14.7 2.7 4.1 1.8 7.2 4.4 9.4 7.8 2.2 3.4 3.3 7.5 3.3 12.4 0 4.8-1.1 8.9-3.3 12.3-2.2 3.4-5.3 6.1-9.4 7.9-4.1 1.8-9 2.7-14.7 2.7h-22.6l.9-.9v24.9h-2zm2-25.1l-.9-.8h22.8c8.2 0 14.4-1.8 18.8-5.5 4.3-3.7 6.5-8.9 6.5-15.5 0-6.7-2.2-11.9-6.5-15.6-4.3-3.7-10.6-5.5-18.8-5.5h-22.8l.9-.8v43.7zm54.5 25.1l32.5-69.9h2l32.5 69.9h-2.3l-31.7-68.3h1l-31.7 68.3h-2.3zm10.7-21.1l1-1.9h43.4l1 1.9H1892zm68.4 21.1V1.9h1.7l52.3 67.6h-1.1V1.9h2v69.9h-1.7l-52.3-67.6h1.1v67.6h-2zm79.5 0V1.9h2v69.9h-2zm26.6 0V1.9h45v1.9h-43v66.1h44.5v1.9h-46.5zm1.5-34.6v-1.9h39.1v1.9H2068zm80.3 34.9c-5.1 0-9.8-.9-14.3-2.8s-7.9-4.2-10.2-7.1l1.4-1.3c2.2 2.6 5.4 4.8 9.5 6.6 4.2 1.8 8.7 2.7 13.5 2.7 5.1 0 9.2-.7 12.4-2.1 3.2-1.4 5.6-3.3 7.2-5.6 1.6-2.4 2.3-5 2.3-7.8 0-3.3-.8-6-2.4-8-1.6-2-3.7-3.6-6.4-4.8-2.7-1.2-5.6-2.1-8.7-2.9-3.1-.8-6.3-1.5-9.4-2.3-3.2-.8-6.1-1.8-8.7-3.1-2.7-1.3-4.8-3.1-6.4-5.3s-2.4-5.2-2.4-8.9c0-3.1.8-5.9 2.4-8.6 1.6-2.7 4.2-4.8 7.6-6.5 3.4-1.7 7.9-2.5 13.3-2.5 3.7 0 7.4.6 11 1.7 3.6 1.2 6.7 2.7 9.2 4.6l-1.1 1.6c-2.8-2.1-5.9-3.6-9.3-4.6s-6.7-1.5-9.8-1.5c-4.9 0-8.9.7-12.1 2.1-3.2 1.4-5.6 3.3-7.1 5.7-1.5 2.4-2.3 5-2.3 7.9 0 3.4.8 6.1 2.4 8.1 1.6 2 3.7 3.6 6.4 4.8 2.7 1.2 5.6 2.1 8.7 2.9 3.2.8 6.3 1.6 9.4 2.4 3.1.8 6 1.9 8.7 3.2 2.7 1.3 4.8 3 6.4 5.2s2.4 5.1 2.4 8.7c0 3.1-.8 5.9-2.5 8.6-1.7 2.7-4.3 4.8-7.8 6.4-3.3 1.7-7.8 2.5-13.3 2.5z" fill="#fff"/><linearGradient id="SVGID_1_" gradientUnits="userSpaceOnUse" x1="-760.633" y1="1916.95" x2="-760.633" y2="1978.03" gradientTransform="rotate(-20.236 -5185.842 -4185.094)"><stop offset="0" stop-color="#7dc2de"/><stop offset=".779" stop-color="#054b86"/></linearGradient><path d="M1118.7 3.9c-2.4-2.5-5.7-3.9-9.2-3.9-8.8 0-16.5 3.3-23.1 7.4-8.4 5.2-16 11.5-22.6 18.5-5.7 6-10.4 12.8-12.6 20.2-2.3 7.7-2.2 16.3 4.8 21.2 4 2.8 9.3 4.1 14.7 4.5 11.7.8 26.8-2 35.1-10.9 4.6-5 7.7-11.3 9.9-17.6 1.6-4.7 2.8-9.6 4-14.4 1.1-4.7 2-9.5 2.2-14.3.2-3.6-.4-7.5-2.9-10.3-.1-.2-.2-.3-.3-.4zm-9.1 2.3h-.1.1zm6.2 18.5v-.3c.1.1 0 .2 0 .3zm.9-12.2c.7 2.3.9 4.8.6 7.1-.5 4.5-2.3 8.9-3.9 13.1-1.7 4.4-3.4 8.7-5.4 13-1.2 2.5-2.4 4.9-4 7.2-2.1 2.8-4.5 5.4-7.3 7.4-8.4 6.3-21.6 8.9-31.6 7.6-2.9-.4-5.7-1.1-7.8-2.7-10.4-7.3-2.2-23.5 4.6-32.1 6.2-7.9 14.1-15.1 23.3-20.3 7.6-4.3 18.5-10.1 26.6-6.4 2.5 1.3 4.1 3.6 4.9 6.1z" fill="url(#SVGID_1_)"/><path d="M1113.4 32.7c1.6-4.2 3.4-8.5 3.9-13.1.3-2.3.1-4.8-.6-7.1-.8-2.6-2.4-4.8-5-6-4.8-2.2-10.6-1.1-16.1 1.1 2.8-1.1 5.7-1.5 8.3-.8 2.3.6 4.2 2.3 5.4 4.3.6.9 1 2 1.4 3 .8 2.5.9 5.3.9 7.9-.1 5.4-1.1 10.7-2.5 15.9-1.4 5-3.1 10-6.1 14.4-6.2 9.1-17.4 14.6-28.2 15.2-2.5.1-5-.1-7.2-1-10.1-4.6-6-19.9-1.8-28.5 3.9-7.8 9.5-15.2 16.2-21.3 3.3-3 7.9-6.8 12.7-8.8-3.5 1.4-6.8 3.3-9.7 4.9-9.2 5.2-17.1 12.4-23.3 20.3-6.8 8.6-15 24.8-4.6 32.1 2.2 1.5 5 2.3 7.8 2.7 10 1.3 23.2-1.3 31.6-7.6 2.8-2.1 5.3-4.6 7.3-7.4 1.7-2.2 2.9-4.6 4-7.2 2.2-4.3 3.9-8.7 5.6-13z" fill="#0a67a0"/><path d="M1103.1 52.4c2.9-4.3 4.7-9.3 6.1-14.4 1.4-5.2 2.3-10.5 2.5-15.9.1-2.7-.1-5.4-.9-7.9-.3-1-.8-2.1-1.4-3-1.3-2-3.1-3.7-5.4-4.3-2.7-.7-5.5-.3-8.3.7-.3.1-.6.2-.9.4-2 .9-4 2-5.8 3.3 3.3-2.2 6.8-3.7 10.4-3 2.3.4 4.2 1.9 5.4 3.6 3.4 4.6 3.3 10.7 3.1 16.1-.2 7.2-1.1 15.4-4.2 21.9-4.4 9.1-14.5 15.1-24.3 16.5-2.3.3-4.6.3-6.6-.4-9.7-3.5-7.7-17.9-4.7-26.1 2.7-7.5 7-14.7 12.5-20.8 2-2.2 4.6-4.9 7.5-7.1-2.2 1.6-4.1 3.3-5.8 4.8-6.8 6.1-12.3 13.5-16.2 21.3-4.3 8.6-8.4 23.9 1.8 28.5 2.1 1 4.7 1.2 7.2 1 10.6-.6 21.8-6.1 28-15.2z" fill="#054b86"/></svg>