<svg version="1.1" id="レイヤー_1" xmlns="http://www.w3.org/2000/svg" x="0" y="0" viewBox="0 0 11.1 151.2" xml:space="preserve"><style>.st0{fill:#fff}</style><g id="SCROLLバー_00000041981527879743120650000006907730064270337409_"><path class="st0" d="M0 4.2c0-.8.1-1.6.4-2.4.2-.7.5-1.4.9-1.8l1.6.7c-.4.4-.7 1-.9 1.6-.2.6-.3 1.3-.3 2 0 .6.1 1 .2 1.4.1.3.2.5.4.7.2.2.4.2.7.2.3 0 .6-.1.8-.4s.4-.5.5-.9c.1-.3.3-.7.4-1.2.1-.4.2-.9.3-1.4.1-.5.3-.9.5-1.2.2-.4.5-.7.9-.9.4-.2.8-.4 1.4-.4.6 0 1.1.2 1.6.5s.9.8 1.2 1.4.4 1.5.4 2.4c0 .6-.1 1.3-.2 1.9-.2.6-.4 1.2-.7 1.7l-1.5-.6c.2-.5.5-1 .6-1.5.1-.5.2-1 .2-1.5 0-.6-.1-1-.2-1.3s-.3-.6-.5-.8c-.2-.1-.5-.2-.8-.2-.3 0-.6.1-.8.3-.1.3-.3.6-.4 1-.1.3-.2.8-.3 1.2-.2.5-.3.9-.4 1.4-.1.4-.3.9-.5 1.2-.2.4-.5.7-.9.9-.4.3-.8.4-1.4.4-.6 0-1.1-.2-1.6-.5S.7 7.3.4 6.7 0 5.2 0 4.2zm0 11.3c0-.8.1-1.6.4-2.3.3-.7.7-1.3 1.2-1.8s1.1-.9 1.8-1.2c.6-.3 1.3-.4 2.1-.4s1.5.1 2.2.4c.7.3 1.3.7 1.8 1.2s.9 1.1 1.2 1.8c.3.7.4 1.5.4 2.3 0 .9-.2 1.7-.5 2.4s-.8 1.3-1.3 1.8L8 18.5c.4-.4.7-.8.9-1.3.2-.5.3-1 .3-1.6s0-1-.2-1.5-.4-.9-.8-1.2c-.3-.3-.7-.6-1.2-.8-.5-.2-1-.3-1.5-.3-.6 0-1.1.1-1.5.3-.5.2-.9.5-1.2.8-.3.3-.6.7-.8 1.2-.2.5-.3 1-.3 1.5s.1 1.1.3 1.6c.2.5.5.9 1 1.3l-1.2 1.3c-.6-.5-1-1.1-1.3-1.8S0 16.4 0 15.5zm.2 6.1H11V26c0 1.4-.3 2.6-1 3.4-.7.8-1.6 1.2-2.8 1.2-.8 0-1.5-.2-2-.6s-1-.9-1.3-1.6c-.5-.6-.6-1.4-.6-2.4v-3.3l.9.9h-4v-2zm0 7l3.9-2.7V28L.2 30.7v-2.1zm3.8-5l1-.9v3.2c0 .9.2 1.5.6 2 .4.4.9.7 1.6.7.7 0 1.2-.2 1.6-.7.4-.4.6-1.1.6-2v-3.2l1 .9H4zM0 37.9c0-.8.1-1.6.4-2.3.3-.7.7-1.3 1.2-1.8s1.1-.9 1.8-1.2c.7-.3 1.4-.4 2.2-.4.8 0 1.5.1 2.2.4.7.3 1.3.7 1.8 1.2s.9 1.1 1.2 1.8c.3.7.4 1.5.4 2.3 0 .8-.1 1.6-.4 2.3-.3.7-.7 1.3-1.2 1.8s-1.1.9-1.8 1.2c-.7.3-1.4.4-2.2.4-.8 0-1.5-.1-2.2-.4-.7-.3-1.3-.7-1.8-1.2S.7 40.9.4 40.2c-.3-.7-.4-1.5-.4-2.3zm1.8-.1c0 .5.1 1 .3 1.5.2.5.4.9.8 1.2.3.3.7.6 1.2.8.5.2 1 .3 1.5.3.6 0 1.1-.1 1.5-.3.5-.2.9-.5 1.2-.8.3-.3.6-.7.8-1.2.2-.5.3-1 .3-1.5s-.1-1-.3-1.5c-.2-.5-.4-.9-.8-1.2-.3-.3-.7-.6-1.2-.8-.5-.2-1-.3-1.5-.3s-1 .1-1.5.3c-.5.2-.9.5-1.2.8-.3.3-.6.7-.8 1.2-.3.5-.3 1-.3 1.5zm-1.6 8H11v2H1.8v5.6H.2v-7.6zm0 9.2H11v2H1.8v5.6H.2V55zm4.5 14h1.7v64.8H4.7z"/><circle class="st0" cx="5.5" cy="138.9" r="1.2"/><circle class="st0" cx="5.5" cy="144.3" r="1.2"/><circle class="st0" cx="5.5" cy="150" r="1.2"/></g></svg>