<svg version="1.1" id="レイヤー_1" xmlns="http://www.w3.org/2000/svg" x="0" y="0" viewBox="0 0 23.4 503.8" xml:space="preserve"><style>.st0{fill:#fff}.st1{fill:#0c5aa9}.st3{fill:#58c0c9}.st4{fill:#616465}.st7{fill:#93979a}</style><path transform="rotate(-90 11.684 251.911)" class="st0" d="M-240.2 240.2h503.8v23.4h-503.8z"/><path class="st1" d="M16.5 494.4c0 .3-.2.4-.4.4h-.6c-.7 0-1.3-.2-1.8-.5l-5.6-3.7-.2-.1-.1.2-.7 1-.1.2v.1l3 2-.2.2c-.5.4-1 .6-1.6.6h-2v1.6h2.1c.5 0 1-.1 1.4-.3.4-.2.9-.4 1.2-.7l.6-.5 1.2.8c.8.5 1.7.7 2.7.8h.6c.6-.1 1.1-.3 1.4-.6.3-.3.5-.8.6-1.4v-4.3h-1.6v.2l.1 4zM5.4 480.5v.2h1.5v-1.5H5.4v.2zm1.5.8v-.2H5.4v1.5h1.5v-.2zm.4.3c0 .5.2 1 .7 1.3.4.3.9.4 1.3.4H16c.3 0 .4.2.4.4v.7c0 .4-.2.6-.6.8l-1 .3c-.7.2-1.4.2-2.1.1l-3.7-.3c-.6-.1-1.1.1-1.6.5-.4.3-.5.7-.5 1.2l.1 1v.2h1.6V487c.1-.1.2-.1.3-.1l3.8.4c.9.1 1.8 0 2.7-.2l1-.3c1.1-.4 1.7-1.2 1.8-2.3v-.8c-.1-.6-.3-1.1-.6-1.4-.3-.3-.8-.5-1.4-.6H9.4c-.2 0-.3 0-.4-.1v-1H7.3v1zm1.7-8.3H7.3v2.6H6.2v1.6h1.2v.9H9v-.9h3.2c.8 0 1.5.1 2.3.2l3.1.7h.2v-.2l.2-1.2v-.2h-.2l-3.1-.6c-.9-.2-1.7-.3-2.6-.3H9v-2.6z"/><path class="st1" d="M11.1 470.6c-.5.4-.7.8-.7 1.4v2.6H12v-2.4l.5.3.2.1.1-.2.6-1.1.1-.2-.2-.1-.9-.5c-.4-.1-.9-.1-1.3.1zm-5.7.2v.2h1.5v-1.5H5.4v1.3zm1.5.8v-.2H5.4v1.5h1.5v-1.3zm9.6 1.9c0 .2-.1.4-.3.4H15v1.6h1.3c.6-.1 1-.3 1.3-.6.3-.3.5-.8.5-1.4v-2.9h-1.6v2.9zm-8-12.6v1.2H6.2v1.6h2.3v1.8H6.2v1.6h2.3v1.7h1.6v-1.7h6c.6-.1 1.1-.3 1.4-.6.3-.3.5-.8.6-1.4v-3.2h-1.5v3.1c0 .3-.2.4-.4.4h-6v-1.8h1.7c.2 0 .3 0 .4.1v1h1.6v-1.1c0-.5-.3-.9-.7-1.2-.4-.3-.8-.4-1.3-.4h-1.7v-1.4H8.5v.3zm2.8-8.4c-.7.7-1 1.5-1.1 2.4v1.4H5.9v1.6h12v-1.6h-6v-1.4c0-.5.2-.9.5-1.2l1.4-1.3.1-.1-.1-.1-.8-.9-.1-.1-.1.1-1.5 1.2zm4.8-4.7c0 .2-.1.3-.3.3h-5.5v-1.5c0-.5-.2-.9-.4-1.3-.3-.4-.7-.7-1.1-.9l-1.2-.5-.2-.1-.1.2-.4 1.2-.1.2.2.1 1.2.5c.3.2.5.4.5.8v1.5H5.9v1.6h9.9c.6-.1 1-.2 1.3-.6.3-.3.5-.8.6-1.3v-4.2h-1.6v4zm-10.9-3.3v.2h1.6v-1.6H5.2v1.4zm0-1.9v.2h1.6v-1.5H5.2v.2zm6.3-5.4h-1.4v3.1h1.6v-3.2h-.2zm-5.6-3.6v.2h4.2c.6 0 1.1.2 1.7.4l5.2 3 .2.1.1-.2.6-1.1.1-.2-.2-.1-5.2-3c-.8-.4-1.6-.6-2.4-.7H5.9v1.6zm2 3.8v-.2H6.3v3.1h1.6v-2.9zm-.1-14.9c-.6.1-1 .2-1.3.6-.3.3-.5.8-.6 1.3v5.9h1.6v-5.8c0-.2.1-.3.3-.3h2.3c.5 0 .9.2 1.3.5l1.7 1.8c-.4.3-.9.4-1.4.4H10v1.6h1.7c.4 0 .8-.1 1.3-.2.4-.1.8-.3 1.2-.6l3.7-2.8.2-.1-.1-.2-.7-1-.1-.2-.2.1-2.5 1.9-1.9-1.9c-.7-.6-1.5-1-2.4-1H7.8zm8.7-56.4c0 .3-.2.4-.4.4h-.6c-.7 0-1.3-.2-1.8-.5l-5.6-3.7-.2-.1-.1.2-.7 1-.1.2.2.1 3 2-.2.2c-.5.4-1 .6-1.6.6H6.2v1.6h2.1c.5 0 1-.1 1.4-.3.4-.2.9-.4 1.2-.7l.6-.5 1.2.8c.8.5 1.7.7 2.7.8h.6c.6-.1 1.1-.3 1.4-.6.3-.3.5-.8.6-1.4v-4.4h-1.6v.2l.1 4.1zM5.4 352.2v.2h1.5v-1.5H5.4v.2zm1.5.8v-.2H5.4v1.5h1.5v-.2zm.4.3c0 .5.2 1 .7 1.3.4.3.9.4 1.3.4H16c.3 0 .4.2.4.4v.7c0 .4-.2.6-.6.8l-1 .3c-.7.2-1.4.2-2.1.1L9 357c-.6-.1-1.1.1-1.6.5-.4.3-.5.7-.5 1.2l.1 1v.2h1.6v-1.2c.1-.1.2-.1.3-.1l3.8.4c.9.1 1.8 0 2.7-.2l1-.3c1.1-.4 1.7-1.2 1.8-2.3v-.8c-.1-.6-.3-1.1-.6-1.4-.3-.3-.8-.5-1.4-.6H9.4c-.2 0-.3 0-.4-.1v-1H7.3v1zM9 345H7.3v2.6H6.2v1.6h1.2v.9H9v-.9h3.2c.8 0 1.5.1 2.3.2l3.1.7h.2v-.2l.3-1.2v-.2h-.2l-3.1-.6c-.9-.2-1.7-.3-2.6-.3H9V345z"/><path class="st1" d="M11.1 342.4c-.5.4-.7.8-.7 1.4v2.6H12V344l.5.3.2.1.1-.2.6-1.1.1-.2-.2-.1-.9-.5c-.4-.2-.9-.2-1.3.1zm-5.7.1v.2h1.5v-1.5H5.4v1.3zm1.5.8v-.2H5.4v1.5h1.5v-1.3zm9.6 1.9c0 .2-.1.4-.3.4H15v1.6h1.3c.6-.1 1-.3 1.3-.6.3-.3.5-.8.5-1.4v-2.9h-1.6v2.9zm-8-12.6v1.2H6.2v1.6h2.3v1.8H6.2v1.6h2.3v1.7h1.6v-1.7h6c.6-.1 1.1-.3 1.4-.6.3-.3.5-.8.6-1.4v-3.2h-1.5v3.1c0 .3-.2.4-.4.4h-6v-1.8h1.7c.2 0 .3 0 .4.1v1h1.6v-1.1c0-.5-.3-.9-.7-1.2-.4-.3-.8-.4-1.3-.4h-1.7v-1.4H8.5v.3zm2.8-8.4c-.7.7-1 1.5-1.1 2.4v1.4H5.9v1.6h12V328h-6v-1.4c0-.5.2-.9.5-1.2l1.4-1.3.1-.1-.1-.1-.8-.9-.1-.1-.1.1-1.5 1.2zm4.8-4.7c0 .2-.1.3-.3.3h-5.5v-1.5c0-.5-.2-.9-.4-1.3-.3-.4-.7-.7-1.1-.9l-1.2-.5-.2-.1-.1.2-.4 1.2-.1.1.2.1 1.2.5c.3.2.5.4.5.8v1.5H5.9v1.6h9.9c.6-.1 1-.2 1.3-.6.3-.3.5-.8.6-1.3v-4.2h-1.6v4.1zm-10.9-3.3v.2h1.6v-1.6H5.2v1.4zm0-1.9v.2h1.6V313H5.2v.2zm6.3-5.4h-1.4v3.1h1.6v-3.1h-.2zm-5.6-3.6v.2h4.2c.6 0 1.1.2 1.7.4l5.2 3 .2.1.1-.2.6-1.1.1-.2-.2-.1-5.2-3c-.8-.4-1.6-.6-2.4-.7H5.9v1.6zm2 3.8v-.2H6.3v3.1h1.6v-2.9zm-.1-14.8c-.6.1-1 .2-1.3.6-.3.3-.5.8-.6 1.3v5.9h1.6v-5.8c0-.2.1-.3.3-.3h2.3c.5 0 .9.2 1.3.5l1.7 1.8c-.4.3-.9.4-1.4.4H10v1.6h1.7c.4 0 .8-.1 1.3-.2.4-.1.8-.3 1.2-.6l3.7-2.8.2-.1-.1-.2-.7-1-.1-.2-.2.1-2.5 1.9-1.9-1.9c-.7-.6-1.5-1-2.4-1H7.8zm8.7-56.5c0 .3-.2.4-.4.4h-.6c-.7 0-1.3-.2-1.8-.5L8.1 234h-.3l-.1.2-.7 1-.1.2.2.1 3 2-.2.2c-.5.4-1 .6-1.6.6H6.2v1.6h2.1c.5 0 1-.1 1.4-.3.4-.2.9-.4 1.2-.7l.6-.5 1.2.8c.8.5 1.7.7 2.7.8h.6c.6-.1 1.1-.3 1.4-.6.3-.3.5-.8.6-1.4v-4.3h-1.6v.2l.1 3.9zM5.4 223.9v.2h1.5v-1.5H5.4v.2zm1.5.8v-.2H5.4v1.5h1.5v-.2zm.4.4c0 .5.2 1 .7 1.3.4.3.9.4 1.3.4H16c.3 0 .4.2.4.4v.7c0 .4-.2.6-.6.8l-1 .3c-.7.2-1.4.2-2.1.1l-3.7-.4c-.6-.1-1.1.1-1.6.5-.4.3-.5.7-.5 1.2l.1 1v.2h1.6v-1.2c.1-.1.2-.1.3-.1l3.8.4c.9.1 1.8 0 2.7-.2l1-.3c1.1-.4 1.7-1.2 1.8-2.3v-.8c-.1-.6-.3-1.1-.6-1.4-.3-.3-.8-.5-1.4-.6H9.4c-.2 0-.3 0-.4-.1v-1H7.3v1.1zm1.7-8.4H7.3v2.6H6.2v1.6h1.2v.9H9v-.9h3.2c.8 0 1.5.1 2.3.2l3.1.7h.2v-.2l.3-1.2v-.2h-.2l-3.1-.6c-.9-.2-1.7-.3-2.6-.3H9v-2.6z"/><path class="st1" d="M11.1 214.1c-.5.4-.7.8-.7 1.4v2.6H12v-2.4l.5.3.2.1.1-.2.6-1.1.1-.2-.2-.1-.9-.5c-.4-.2-.9-.2-1.3.1zm-5.7.2v.2h1.5V213H5.4v1.3zm1.5.8v-.2H5.4v1.5h1.5v-1.3zm9.6 1.8c0 .2-.1.4-.3.4H15v1.6h1.3c.6-.1 1-.3 1.3-.6.3-.3.5-.8.5-1.4V214h-1.6v2.9zm-8-12.6v1.2H6.2v1.6h2.3v1.8H6.2v1.6h2.3v1.7h1.6v-1.7h6c.6-.1 1.1-.3 1.4-.6.3-.3.5-.8.6-1.4v-3.2h-1.5v3.1c0 .3-.2.4-.4.4h-6V207h1.7c.2 0 .3 0 .4.1v1h1.6v-1c0-.5-.3-.9-.7-1.2-.4-.3-.8-.4-1.3-.4h-1.7v-1.4H8.5v.2zm2.8-8.3c-.7.7-1 1.5-1.1 2.4v1.4H5.9v1.6h12v-1.6h-6v-1.4c0-.5.2-.9.5-1.2l1.4-1.3.1-.1-.1-.1-.8-.9-.1-.1-.1.1-1.5 1.2zm4.8-4.8c0 .2-.1.3-.3.3h-5.5V190c0-.5-.2-.9-.4-1.3-.3-.4-.7-.7-1.1-.9l-1.2-.5-.2-.1-.1.2-.4 1.2-.1.2.2.1 1.2.5c.3.2.5.4.5.8v1.5H5.9v1.6h9.9c.6-.1 1-.2 1.3-.6.3-.3.5-.8.6-1.3V187h-1.6v4.2zm-10.9-3.3v.2h1.6v-1.6H5.2v1.4zm0-1.9v.2h1.6v-1.5H5.2v.2zm6.3-5.4h-1.4v3.1h1.6v-3.1h-.2zM5.9 177v.2h4.2c.6 0 1.1.2 1.7.4l5.2 3 .2.1.1-.2.6-1.1.1-.2-.2-.1-5.2-3c-.8-.4-1.6-.6-2.4-.7H5.9v1.6zm2 3.8v-.2H6.3v3.1h1.6v-2.9zM7.8 166c-.6.1-1 .2-1.3.6-.3.3-.5.8-.6 1.3v5.9h1.6V168c0-.2.1-.3.3-.3h2.3c.5 0 .9.2 1.3.5l1.7 1.8c-.4.3-.9.4-1.4.4H10v1.6h1.7c.4 0 .8-.1 1.3-.2.4-.1.8-.3 1.2-.6l3.7-2.8.2-.1-.1-.2-.7-1-.1-.2-.2.1-2.5 1.9-1.9-1.9c-.7-.6-1.5-1-2.4-1H7.8zm8.7-56.4c0 .3-.2.4-.4.4h-.6c-.7 0-1.3-.2-1.8-.5l-5.6-3.7-.2-.1-.1.2-.7 1-.2.1.2.1 3 2-.2.2c-.5.4-1 .6-1.6.6H6.2v1.6h2.1c.5 0 1-.1 1.4-.3.4-.2.9-.4 1.2-.7l.6-.5 1.2.8c.8.5 1.7.7 2.7.8h.6c.6-.1 1.1-.3 1.4-.6.3-.3.5-.8.6-1.4v-4.3h-1.6v.2l.1 4.1zM5.4 95.7v.1h1.5v-1.4H5.4v.2zm1.5.7v-.1H5.4v1.4h1.5v-.2zm.4.4c0 .5.2 1 .7 1.3.4.3.9.4 1.3.4H16c.3 0 .4.2.4.4v.7c0 .4-.2.6-.6.8l-1 .3c-.7.2-1.4.2-2.1.1l-3.7-.4c-.6-.1-1.1.1-1.6.5-.4.3-.5.7-.5 1.2l.1 1v.2h1.6v-1.2c.1-.1.2-.1.3-.1l3.8.4c.9.1 1.8 0 2.7-.2l1-.3c1.1-.4 1.7-1.2 1.8-2.3v-.8c-.1-.6-.3-1.1-.6-1.4-.3-.3-.8-.5-1.4-.6H9.4c-.2 0-.3 0-.4-.1v-1H7.3v1.1zM9 88.5H7.3v2.6H6.2v1.6h1.2v.9H9v-.9h3.2c.8 0 1.5.1 2.3.2l3.1.7h.2v-.2l.3-1.2V92h-.2l-3.1-.6c-.9-.3-1.8-.4-2.6-.4H9v-2.5z"/><path class="st1" d="M11.1 85.8c-.5.4-.7.8-.7 1.4v2.6H12v-2.4l.5.3.2.1.1-.2.6-1.1.1-.2-.2-.1-.9-.5c-.4-.1-.9-.1-1.3.1zm-5.7.2v.2h1.5v-1.5H5.4V86zm1.5.8v-.2H5.4v1.5h1.5v-1.3zm9.6 1.8c0 .2-.1.4-.3.4H15v1.6h1.3c.6-.1 1-.3 1.3-.6.3-.3.5-.8.5-1.4v-2.9h-1.6v2.9zM8.5 76v1.2H6.2v1.6h2.3v1.8H6.2v1.6h2.3v1.7h1.6v-1.7h6c.6-.1 1.1-.3 1.4-.6.3-.3.5-.8.6-1.4V77h-1.5v3.1c0 .3-.2.4-.4.4h-6v-1.8h1.7c.2 0 .3 0 .4.1v1h1.6v-1.1c0-.5-.3-.9-.7-1.2-.4-.3-.8-.4-1.3-.4h-1.7v-1.3H8.5v.2zm2.8-8.3c-.7.7-1 1.5-1.1 2.4v1.4H5.9v1.6h12v-1.6h-6v-1.4c0-.5.2-.9.5-1.2l1.4-1.3.1-.1-.1-.1-.8-.9-.1-.1-.1.1-1.5 1.2zm4.8-4.8c0 .2-.1.3-.3.3h-5.5v-1.5c0-.5-.2-.9-.4-1.3-.3-.4-.7-.7-1.1-.9L7.5 59l-.2-.1-.1.2-.4 1.2-.1.2.2.1 1.2.5c.3.2.5.4.5.8v1.5H5.9V65h9.9c.6-.1 1-.2 1.3-.6.3-.3.5-.8.6-1.3v-4.2h-1.6v4zM5.2 59.7v.2h1.6v-1.6H5.2v1.4zm0-1.9v.2h1.6v-1.6H5.2v.2zm6.3-5.5h-1.4v3.1h1.6v-3.1h-.2zm-5.6-3.6v.2h4.2c.6 0 1.1.2 1.7.4l5.2 3 .2.1.1-.2.6-1.1.1-.2-.2.1-5.2-3c-.8-.4-1.6-.6-2.4-.7H5.9v1.4zm2 3.8v-.2H6.3v3.1h1.6v-2.9zm-.1-14.8c-.6.1-1 .2-1.3.6-.3.3-.5.8-.6 1.3v5.9h1.6v-5.8c0-.2.1-.3.3-.3h2.3c.5 0 .9.2 1.3.5l1.7 1.8c-.4.3-.9.4-1.4.4H10v1.6h1.7c.4 0 .8-.1 1.3-.2.4-.1.8-.3 1.2-.6l3.7-2.8.2-.1-.1-.2-.7-1-.1-.2-.2.2-2.5 1.9-1.9-1.9c-.7-.6-1.5-1-2.4-1l-2.4-.1z"/><circle transform="rotate(-89.931 11.9 267.074)" class="st0" cx="11.9" cy="267.1" r="6.6"/><path d="M16.4 263c-1.1-.4-1.9-.4-2.1-.4-.2-.2-1-1-2.3-1.4 0-.2.1-.4.1-.5.1 0 .3-.1.6 0 1.1.2 2.9.8 3.6 1.8.1.1.1.3.1.5zm1.9 3.5c-.1-.2-.3-.4-.5-.6 0-.3-.3-1.6-1.1-2.7v-.3c.7.6 1.5 2.3 1.6 3.6zm-.7 3.6l.1.1-.1-.1c-.3.6-.9 1-1.2 1.2-.3-.3-.6-.8-.8-.9.1-.4.6-1.9.6-2.9.2-.2.9-.7 1.4-1.4.4.4.6 1 .6 1.1.2 1.6-.6 2.9-.6 2.9zm-6.5 3.4c.3 0 .6-.1.9-.1.2.1.4.1.6.2-.5 0-1-.1-1.5-.1zm3-10.7c0 .3-.1 1.3-.3 2.4-.7.2-2.6.9-3 1.1-1-.7-1.9-1.4-2.2-1.6.1-1.3.5-2.2.6-2.4 1.2-.7 2.4-.9 2.6-.9 1.3.4 2.1 1.2 2.3 1.4zm-8.7 4.3c0-.2.1-.4.1-.6.2.2.6.4.7.4.1.4.3 1.7 1 2.8-.1.2-.2.9-.2 1.5-.3-.2-.5-.4-.5-.4.1-.1-1.1-1.7-1.1-3.7zm7 4.6c-.1.8-.4 1.2-.5 1.4-1 .3-2.2.1-2.3 0-.5-.3-1.8-1.1-2.1-1.6-.1-.6 0-1.2.1-1.5.4 0 1.4.1 2.5-.1.5.5 1.9 1.5 2.3 1.8zM8 262.1c.1 0 .5 0 .9.2-.2.3-.6 1.2-.6 2.4-.3.2-1.2.9-1.8 1.9-.3-.1-.6-.3-.7-.5v-.2c0-.6.4-1.6.4-1.6-.1 0 .8-1.8 1.8-2.2zm7.3 8.2c-1.1.7-2.4 1-2.7 1.1-.3-.2-1.8-1.2-2.3-1.8.1-.3.3-1.7.5-3 .4-.2 2.3-.9 3-1.1.3.2 1.3 1.1 2.1 2 0 .9-.5 2.5-.6 2.8zm-3.4-10c-.2 0-2.5 0-4 1.3-.1.1-.7.3-1.3 1.3-.5.6-.8 1.3-.9 1.3 0 .1-.6 1.2-.6 2.6v.3c0 1 .3 2 .6 2.7.3.7.6 1.2.7 1.2.4.8 2.2 2.2 3.1 2.3.6.5 3.3.9 4.9 0 2.3-.6 3.4-2.9 3.5-3 .1-.1.8-1.3.8-2.9v-.6c0-1.6-1.2-4.1-2.1-4.6-1-1.3-3.6-2-4.7-1.9z" fill="#494d50"/><path class="st3" d="M16.4 388.6c1.3 0 2.3 1 2.3 2.3v9.1c0 1.3-1 2.3-2.3 2.3h-9c-1.3 0-2.3-1-2.3-2.3v-9.1c0-1.3 1-2.3 2.3-2.3h9z"/><path class="st0" d="M13.5 400.1h-3.2v-.5l2.1-1.2h-2.1v-.6h3.2v.6l-2.1 1.2h2.1zm0-3.2h-3.2v-2.2h.6v1.6h.7v-1.5h.5v1.5h.9v-1.6h.5zm0-3.4l-3.2.7v-.6l2.2-.5-2.2-.6v-.7l2.2-.5-2.2-.5v-.7l3.2.8v.7l-2.4.6 2.4.6z"/><path class="st4" d="M17.8 139.7c.5 0 .9-.4.9-.9s-.4-.9-.9-.9v1.8z"/><path d="M15.5 140.4v-3.2c-1-.2-1.9-.8-2.9-1.4-1.2-.7-2.4-1.5-3.5-1.5-2.2 0-4 2-4 4.5s1.8 4.5 4 4.5c1.2 0 2.4-.8 3.5-1.5 1-.6 1.9-1.2 2.9-1.4z" fill="#f5c839"/><path d="M11.6 140.5s0-.1 0 0c-.1-.1 0-.1 0 0l-.1-.1c.1-.1.2-.1.3-.2h.1c0 .1-.1.2-.1.2.1 0-.1.1-.2.1zm-.8-1.6c-.1 0-.1-.1-.1-.1s0-.1.1-.1h.3c.1 0 .1.1.2.1-.1 0-.1.1-.2.1-.1.1-.2.1-.3 0zm1.1-1.5c-.1 0-.2-.1-.3-.2l.1-.1c.1 0 .2 0 .3.1.1.1.1.1.1.2-.1.1-.1.1-.2 0zm.4 2.7c.1 0 .3-.1.4-.1.2-.1.5-.1.7-.2.9-.2 1.6-.4 2.1-.5v-.1c-.6.1-1.3.3-2.2.5-.2.1-.5.1-.7.2-.1 0-.2.1-.4.1 0-.2-.2-.6-.7-1 .5-.4.6-.9.7-1 .1 0 .2.1.4.1.2.1.5.1.7.2.9.2 1.6.4 2.2.5v-.1c-.6-.1-1.3-.3-2.1-.5-.2-.1-.5-.1-.7-.2-.1 0-.3-.1-.4-.1 0-.2-.1-.3-.2-.5-.1-.1-.3-.2-.5-.2-.1 0-.2.1-.2.2v.2c0 .1.1.1.1.1.1.1.3.2.4.2.1 0 .1 0 .2.1 0 0 0 .2-.3.6-.2.2-.3.3-.3.4-.1-.1-.2-.1-.3-.2-.1 0-.1-.1-.2-.1h-.2c-.1 0-.1.1-.2.2v.2c0 .1.1.2.2.2s.2.1.2 0c.1 0 .1 0 .2-.1s.2-.1.3-.2c.1.1.2.1.3.4.3.4.3.6.3.6-.1 0-.1 0-.2.1-.1 0-.3.1-.4.2l-.1.1v.2c0 .1.1.2.2.2.2 0 .3 0 .5-.2.1-.2.1-.4.2-.5z" fill="#c18d2a"/><path class="st7" d="M16 137.2h.4v3.2H16zm.8.2h.4v2.8h-.4z"/><path class="st4" d="M16.4 137.4h.4v2.8h-.4z"/><path class="st7" d="M16 137.2l.8 3h.4l-.8-3zm1.6.4h.4v2.3h-.4z"/><path class="st4" d="M17.2 137.6h.4v2.3h-.4z"/><path class="st7" d="M16.8 137.4l.8 2.6h.5l-.9-2.6z"/><circle class="st3" cx="12.6" cy="10.5" r="6.8"/><path class="st0" d="M14.9 7.7l-5 .1-.1 5 1.7-1.7 3 3 1.6-1.6-3-3z"/></svg>