<svg version="1.1" id="レイヤー_1" xmlns="http://www.w3.org/2000/svg" x="0" y="0" viewBox="0 0 169.7 120.5" xml:space="preserve"><style>.st0{fill:#fff}</style><path class="st0" d="M6.6 51.1c-.9-.1-1.3-.5-1.4-1.4v-2c.1-2.1.7-4.1 1.8-5.9l12.5-19.3.4-.6-.6-.3-3.6-1.9-.6-.3-.4.6-6.6 10.6-.5-.5c-1.2-1.5-1.8-3.1-1.9-5v-6.7H5l-4 .5-.6.1v6.7c0 1.5.3 3 .9 4.3.5 1.4 1.2 2.6 2.2 3.8L5 35.5l-2.5 3.9C1 42 .2 44.9 0 48v2c.2 1.9.8 3.4 1.9 4.4 1.1 1.1 2.6 1.7 4.6 1.9l14-.1h.7v-5.3h-.7l-13.9.2zm52.5-42l-.8.1v5.5l.8-.1 4.9-.5.8-.1V8.3l-.8.1zM55.7 15l.8-.1V9.4l-.8.1-4.6.6-.8.1v5.4l.8-.1zm-1.4 1.8c-2.3.3-4.1 1.3-5.4 3-1.1 1.5-1.7 3.2-1.6 5v23.9c-.2 1-.7 1.5-1.8 1.6l-3 .1c-1.5-.1-2.6-.8-3.1-2.1l-1-3.4c-.6-2.4-.8-4.9-.6-7.3l1.7-13.4c.3-2.1-.3-3.9-1.8-5.3-1.3-1.1-2.9-1.6-4.7-1.3l-3.7.6-.7.1v5.2l.7-.1L33 23c.2.3.3.7.3 1.1l-1.6 13.2c-.3 3.1-.1 6.2.7 9.2l1 3.4c1.5 3.7 4.5 5.7 9 6h3.1c2.5-.2 4.4-1 5.8-2.2 1.4-1.2 2.3-3 2.6-5.2V24.2c-.1-.6.1-1.1.6-1.5l3.6-.3.8-.1v-6l-.8.1-3.8.4zm38.9 2.3v-6.5l-1 .1L80.5 14V9.5l-.9.1-5.9.7-.9.1v4.4l-3.3.4-.9.1v6.1l.9-.1 3.3-.3v12.2c0 2.9-.4 5.9-1 8.8l-3 11.9-.2.7.9.1 5.6.9.9.1.2-.7 3.1-12.2c.8-3.4 1.2-6.8 1.3-10.2V20.2l11.8-1.1h.8z"/><path class="st0" d="M107.4 26.6c-1.9-1.9-4.5-2.6-7.6-2.4-.2 0-.4 0-.5.1l-12 1-1 .1v6.3l1-.1 11.3-.7-1.3 2.1-.5.7.9.3 5.8 2.1.9.3.5-.7 2.5-3.7c1.3-1.8 1.3-3.7 0-5.4zm-1.1-23.4l-1 .1v6.1l1-.1 6.2-.7 1.1-.1V2.3l-1.1.1-6.2.8zM102 9.8l1-.1V3.6l-1 .1-5.8.7-1 .1v6l1-.1 5.8-.6zm-9.6 39.5c-1.2 0-1.9-.3-2.2-1.1v-5h-1l-6.2.2h-.9v5.1c.4 2.2 1.4 4 3.1 5.1 1.7 1.2 4.1 1.9 7 2l14.4-.1h1v-6.7h-1l-14.2.5zm76-39.3l-8.2.8V0l-1.3.2-8.2 1-1.3.2V12l-11.6 1V2.7l-1.2.1-7.6.9-1.2.1v10.1l-8.8.9-1.1.1v6.8l1.1-.1 8.8-.7v25.8c.3 2.6 1.5 4.6 3.6 6.1s5.1 2.3 8.9 2.6h.2l19.6-.1h1.3v-7.5h-1.3l-19.5.4c-1.8-.1-2.6-.7-2.8-1.9V20.1l11.6-1V27c0 .7-.3 1.4-1 2l-5 .3-1.2.1v7.3l1.2-.1 5.7-.3c3.5-.3 6.3-1.5 8.3-3.7 1.7-2 2.6-4.1 2.7-6.2v-8l8.2-.7 1.4-.1V9.9l-1.3.1zm-150 71.1c-2.3-2.3-5.1-3.6-8.3-3.9L5.5 77V63.1H.3v37.5l.6.1 4 .5.6.1V82.1l4.5.3c1.6.2 3 .9 4.2 2.1l4.4 4.8.5.5.5-.4 3.2-2.5.5-.4-.5-.5-4.4-4.9zm17.4 17.7c-.8-.2-1.1-.5-1.1-1.1V78.6l6 .3c1.9 0 3.7-.4 5.4-1.3 1.7-.9 2.9-2.2 3.7-3.8l1.9-4.4.3-.6-.7-.3-4.8-1.7-.7-.3-.3.6-1.9 4.3c-.7 1-1.6 1.6-3 1.7l-6-.2v-9.6h-.7l-4.7-.1h-.7V97c.2 1.9.9 3.5 2.1 4.7 1.2 1.2 2.9 2.1 5 2.6l16.3 2 .8.1v-5.9l-.8-.1-16.1-1.6zm13.1-37.6h-.8v5.6h.8l4.8.1h.8v-5.7h-5.6zm7.9.1H56V67h.8l5.1.1h.8v-5.8h-.8zm24.9 24.8v-5.5h-.9L68.3 80h-.9v6l.9.1 12.5.8.9.1v-.9zm18.4-22h-1v17.5c-.1 2.3-.9 4.5-2.3 6.6l-15.3 19.2-.5.6.8.5 5.3 3 .8.5.5-.6L104.2 92c2.1-3 3.4-6.3 3.6-9.8v-18h-1l-6.7-.1zm-19.3 7.6h.9v-6.2h-.9l-12.5-.2h-.9v6h.9l12.5.4zm87.1 2.3c-.4-2.7-1.7-4.8-3.9-6.3s-5.3-2.4-9.1-2.7h-.2l-35.3-.4h-1.1v6.8h1.1l35.3 1c1.3.1 1.9.5 2.1 1.4v10.6c-.3 2.2-1.5 4.2-3.6 5.8l-11.5 7c-1.6-2-2.5-4.1-2.7-6.3v-7.4l-1.2-.1-7.6-.4-1.2-.1v7.3c.1 1.8.6 3.7 1.5 5.6.8 1.9 2 3.8 3.5 5.5l17.7 18.3.8.8 1-.4 6.7-2.5 1.1-.4-.8-.8-12.5-12.8 13-7.6c4.3-2.9 6.7-6.5 7-10.9l-.1-11z"/></svg>