<?xml version="1.0" encoding="UTF-8"?>
<svg xmlns="http://www.w3.org/2000/svg" version="1.1" viewBox="0 0 30 30">
  <defs>
    <style>
      .cls-1 {
        fill: none;
        stroke: #0b5288;
        stroke-miterlimit: 10;
      }

      .cls-2 {
        fill: #0b5288;
      }
    </style>
  </defs>
  <!-- Generator: Adobe Illustrator 28.6.0, SVG Export Plug-In . SVG Version: 1.2.0 Build 709)  -->
  <g>
    <g id="_レイヤー_2">
      <g id="_レイヤー_2-2">
        <g>
          <polygon class="cls-1" points="16.8 5.5 7.5 5.5 7.5 24.5 22.5 24.5 22.5 11.2 16.8 5.5"/>
          <polyline class="cls-1" points="16.8 5.5 16.8 11.2 22.5 11.2"/>
          <g>
            <path class="cls-2" d="M10.6,16.8h-.7v1.3h-.9v-4.2h1.7c1,0,1.6.6,1.6,1.4h0c0,1-.8,1.5-1.7,1.5h0ZM11.3,15.3c0-.4-.3-.6-.8-.6h-.7v1.3h.7c.5,0,.7-.3.7-.6h0Z"/>
            <path class="cls-2" d="M14.6,18.1h-1.6v-4.2h1.6c1.3,0,2.2.9,2.2,2.1h0c0,1.2-.9,2.1-2.2,2.1ZM15.9,16c0-.7-.5-1.3-1.3-1.3h-.7v2.5h.7c.8,0,1.3-.5,1.3-1.2h0Z"/>
            <path class="cls-2" d="M18.6,14.7v.9h2v.8h-2v1.6h-.9v-4.2h3.2v.8h-2.3Z"/>
          </g>
        </g>
      </g>
    </g>
  </g>
</svg>