<?xml version="1.0" encoding="utf-8"?><svg xmlns="http://www.w3.org/2000/svg" xmlns:xlink="http://www.w3.org/1999/xlink"><symbol xml:space="preserve" viewBox="0 0 100 100" id="arrow_bottom" xmlns="http://www.w3.org/2000/svg"><path d="m0 27.825 5.75-5.75 44.25 44 44.25-44 5.75 5.75-50 50z"/></symbol><symbol xml:space="preserve" viewBox="0 0 100 100" id="arrow_left" xmlns="http://www.w3.org/2000/svg"><path d="m72.094 0 5.807 5.807L33.736 50.03l44.165 44.162L72.094 100 22.066 50.03z"/></symbol><symbol xml:space="preserve" viewBox="0 0 100 100" id="arrow_right" xmlns="http://www.w3.org/2000/svg"><path d="m27.914 100-5.806-5.806 44.165-44.165L22.108 5.806 27.914 0l50.031 50.029z"/></symbol><symbol xml:space="preserve" viewBox="0 0 100 100" id="arrow_top" xmlns="http://www.w3.org/2000/svg"><path d="m100 71.162-5.787 5.847L49.94 32.857 5.788 77.009 0 71.162l49.94-49.94z"/></symbol><symbol viewBox="0 0 100 100" id="blank" xmlns="http://www.w3.org/2000/svg"><path d="M78 18H51.8a4 4 0 0 0 0 8h16.543L37.172 57.172a4 4 0 1 0 5.657 5.656L74 31.657V48.2a4 4 0 0 0 8 0V22a4 4 0 0 0-4-4Z"/><path d="M92 8v66H26V8h66m2.061-8H23.939A5.939 5.939 0 0 0 18 5.939v70.122A5.939 5.939 0 0 0 23.939 82h70.122A5.939 5.939 0 0 0 100 76.061V5.939A5.939 5.939 0 0 0 94.061 0Z"/><path d="M84 100H4a4 4 0 0 1-4-4V16a4 4 0 0 1 8 0v76h76a4 4 0 0 1 0 8Z"/></symbol><symbol viewBox="0 0 100 100" xml:space="preserve" id="close" xmlns="http://www.w3.org/2000/svg"><path fill-rule="evenodd" clip-rule="evenodd" d="m99.6 10.4-10-10-39.8 39.8L10 .4l-10 10 39.8 39.8L0 90l10 10 39.8-39.8L89.6 100l10-10-39.8-39.8z"/></symbol><symbol id="pdf" style="enable-background:new 0 0 100 100" xml:space="preserve" viewBox="0 0 100 100" xmlns="http://www.w3.org/2000/svg"><style>.gst0{fill:#ff2116}.gst1{fill:#2c2c2c}</style><g id="glayer1" transform="translate(36.076 -93.732)"><g id="gg899" transform="matrix(1.4843 0 0 1.4843 17.472 -90.244)"><g id="gg876"><path class="gst0" d="M24.09 137.836a7.551 7.551 0 0 0-1.358-2.01l-10.104-9.927s-.886-.828-2.127-1.358c-1.478-.649-3.072-.592-3.072-.592l-30.429.059c-3.841 0-6.913 3.132-6.913 6.913v53.177c0 3.841 3.132 6.913 6.913 6.913h40.65c3.841 0 6.913-3.132 6.913-6.913v-43.722s.119-1.301-.473-2.54zm-1.831 2.54v43.782a4.638 4.638 0 0 1-4.666 4.666h-40.65a4.638 4.638 0 0 1-4.666-4.666V130.98c.054-2.659 2.123-4.669 4.723-4.669H7.488s1.241 0 2.127.413a4.9 4.9 0 0 1 1.478.945l10.044 9.868s.592.649.886 1.301c.236.532.236 1.478.236 1.478v.06z"/><path id="gpath2697" class="gst0" d="M-16.324 163.949c-1.537-1.537.119-3.721 4.726-6.027l2.895-1.418 1.122-2.482c.592-1.358 1.537-3.545 2.067-4.905l.945-2.423-.649-1.831c-.769-2.246-1.065-5.554-.592-6.796.649-1.654 2.895-1.478 3.781.296.709 1.358.592 3.841-.177 6.972l-.649 2.54.592 1.005c.296.532 1.241 1.831 2.067 2.895l1.537 1.95 1.95-.236c6.144-.828 8.271.592 8.271 2.54 0 2.482-4.846 2.659-8.922-.177a14.64 14.64 0 0 1-1.537-1.301s-2.54.532-3.781.828c-1.301.356-1.95.592-3.841 1.182 0 0-.649.945-1.122 1.654-1.594 2.599-3.485 4.786-4.846 5.554-1.474.889-3.068.949-3.837.18zm2.423-.886c.886-.532 2.659-2.659 3.9-4.609l.473-.769-2.246 1.122c-3.485 1.774-5.142 3.428-4.254 4.43.473.592 1.005.535 2.127-.174zm22.807-6.382c.886-.592.709-1.831-.236-2.303-.769-.356-1.358-.473-3.308-.413-1.182.06-3.132.356-3.485.413 0 0 1.065.709 1.537 1.005.649.356 2.186 1.005 3.308 1.358 1.06.295 1.712.236 2.184-.06zm-9.159-3.841c-.532-.532-1.418-1.714-1.95-2.54-.709-.945-1.122-1.654-1.122-1.654s-.532 1.714-1.005 2.776l-1.358 3.368-.413.769s2.127-.709 3.191-1.005c1.122-.296 3.485-.769 3.485-.769l-.828-.945zm-2.955-11.815c.119-1.122.177-2.246-.177-2.776-1.005-1.065-2.186-.177-2.01 2.423.06.886.296 2.363.592 3.249l.532 1.654.356-1.241c.235-.71.531-2.188.707-3.309z"/><g id="gg858"><path id="gpath845" class="gst1" d="M-13.665 171.158h2.54c.828 0 1.478.06 1.95.236.532.177.945.473 1.301 1.005.356.532.532 1.122.532 1.89 0 .649-.119 1.241-.413 1.774-.296.473-.649.828-1.122 1.065-.473.236-1.182.296-2.186.296h-.886v4.017h-1.714v-10.283h-.002zm1.714 1.358v3.604h.828c.769 0 1.301-.119 1.537-.413.296-.296.413-.709.413-1.358 0-.473-.119-.828-.296-1.122-.177-.296-.413-.473-.649-.532-.177-.177-.532-.177-1.005-.177h-.828v-.002z"/><path id="gpath847" class="gst1" d="M-6.043 171.158h2.303c1.122 0 2.01.177 2.659.592s1.182 1.005 1.537 1.774c.356.769.532 1.654.532 2.599 0 1.005-.177 1.89-.473 2.659s-.769 1.418-1.418 1.89c-.649.473-1.537.709-2.719.709h-2.423v-10.223h.002zm1.654 1.417v7.562h.709c1.005 0 1.714-.356 2.127-1.005.473-.709.649-1.594.649-2.719 0-2.54-.945-3.781-2.836-3.781l-.649-.057z"/><path id="gpath849" class="gst1" d="M2.583 171.158h5.671v1.358H4.237v3.072h3.191v1.358H4.237v4.49H2.523l.06-10.278z"/></g></g></g></g></symbol></svg>