<svg width="50" height="50" viewBox="0 0 50 50" fill="none" xmlns="http://www.w3.org/2000/svg">
<path d="M50 0H0V50H50V0Z" fill="#D39200"/>
<path d="M4.28725 6.23204C4.20206 6.27768 3.94952 6.37809 3.53268 6.52718C3.20407 6.63671 2.99413 6.71278 2.90894 6.75233V5.39835C3.17669 5.29795 3.49921 5.13972 3.87954 4.92674C4.25988 4.71375 4.52762 4.52206 4.68584 4.34863H6.1098V13.8813H4.2842V6.23204H4.28725Z" fill="white"/>
<path d="M7.12598 12.5997L9.43232 9.03374L9.57227 8.82076C9.87045 8.37349 10.0895 7.99924 10.2325 7.69802C10.3725 7.39679 10.4455 7.06514 10.4455 6.70306C10.4455 6.39575 10.3877 6.16451 10.269 6.00325C10.1504 5.84199 9.98303 5.76288 9.76396 5.76288C9.43535 5.76288 9.20715 5.88764 9.0824 6.14018C8.95766 6.39272 8.89376 6.73654 8.89376 7.17468V7.60978H7.12902V7.13817C7.12902 6.24363 7.33897 5.53468 7.75885 5.01439C8.17874 4.49409 8.83595 4.23242 9.73049 4.23242C10.5551 4.23242 11.1788 4.4515 11.6078 4.8866C12.0368 5.3217 12.2498 5.93936 12.2498 6.73958C12.2498 7.10166 12.195 7.44243 12.0855 7.76496C11.976 8.08748 11.8451 8.37349 11.696 8.62299C11.5469 8.87553 11.3157 9.23152 11.0023 9.694L9.16759 12.4476H12.0033V13.8837H7.12902V12.5997H7.12598Z" fill="white"/>
<path d="M37.7471 25.9485C35.5291 24.1959 32.5898 24.1594 31.5127 24.415L31.388 24.4454C30.1436 24.7375 28.1689 25.2243 25.8595 28.0935C25.8473 28.1087 25.8321 28.127 25.8199 28.1422L25.7895 28.1787C25.7682 28.2122 25.7499 28.2487 25.7499 28.2913C25.7499 28.3248 25.7591 28.3582 25.7743 28.3887L25.8291 28.4769C26.1181 28.9607 26.4863 29.5875 26.7936 30.1625C26.7966 30.1686 26.7997 30.1747 26.8027 30.1808C26.8362 30.2447 26.9001 30.2903 26.9792 30.2903C27.034 30.2903 27.0796 30.269 27.1161 30.2356C27.1313 30.2173 27.1465 30.196 27.1587 30.1778C29.2095 27.342 30.8221 26.9495 31.9144 26.6939L32.0452 26.6635C32.6111 26.5266 34.7654 26.5357 36.3202 27.7619C37.5342 28.7203 38.1488 30.2447 38.1488 32.2924C38.1488 35.7276 36.4784 37.0694 35.0757 37.5927C32.9033 38.4051 30.8221 37.3189 30.8069 37.3098L30.7125 37.2641C29.5198 36.7469 27.7399 35.6698 26.0603 32.2985C22.6799 25.5073 19.8502 24.8683 17.979 24.4423L17.8786 24.421C17.0266 24.2263 14.0661 24.0924 11.7416 25.9485C10.5245 26.9191 9.07922 28.8025 9.07922 32.2772C9.07922 34.3949 9.51432 35.7915 10.631 37.2611C10.8774 37.5958 13.3815 40.8149 18.2224 39.8869C18.9983 39.7378 20.048 39.3696 21.2012 38.5025L22.2661 39.464C22.3361 39.5279 22.4456 39.5218 22.5095 39.4518C22.54 39.4183 22.5521 39.3788 22.5521 39.3362V39.3209L23.3219 34.5927V34.5409C23.3219 34.4953 23.3037 34.4466 23.2641 34.4162C23.2306 34.3858 23.1911 34.3736 23.1515 34.3736H23.1181L23.0694 34.3827L18.5389 35.6515L18.4567 35.6637C18.4232 35.6698 18.3928 35.688 18.3715 35.7154C18.3046 35.7884 18.3107 35.898 18.3837 35.9618L18.4354 36.0105L19.4517 36.9264C18.7975 37.3493 18.2255 37.544 17.7904 37.6292C14.2883 38.2986 12.557 36.0044 12.4931 35.9132L12.4688 35.8797C11.6533 34.8117 11.3795 33.902 11.3795 32.2802C11.3795 30.2264 11.985 28.7021 13.1777 27.7497C14.6929 26.5418 16.7832 26.5327 17.3735 26.6696L17.4739 26.6939C19.0074 27.0408 21.1099 27.5154 24.0035 33.33C25.5065 36.3483 27.39 38.323 29.7602 39.3636C30.0614 39.5187 31.5006 40.2003 33.3688 40.2003C34.1507 40.2003 35.0057 40.0816 35.882 39.756C37.2542 39.2418 40.4521 37.4923 40.4521 32.2985C40.4521 28.8268 38.9825 26.9373 37.7502 25.9637" fill="white"/>
<path d="M19.8106 7.63728C19.5884 7.7103 19.3602 7.77116 19.129 7.7955C19.0164 7.65858 18.9099 7.51252 18.7882 7.38778C19.0803 7.34214 19.3785 7.28433 19.6645 7.18697C20.0874 7.03788 20.4891 6.76403 20.4891 6.18288C20.4891 5.60174 20.1909 5.42831 19.7467 5.42831C19.1351 5.42831 18.557 5.86036 17.9545 6.0125C17.9363 5.95164 17.772 5.4709 17.772 5.4496C17.772 5.407 17.8267 5.42526 17.8541 5.42526C18.1493 5.42526 18.484 5.29138 18.7669 5.20315C19.129 5.0784 19.4972 4.96582 19.8805 4.96582C20.483 4.96582 20.985 5.39788 20.985 6.14029C20.985 7.03179 20.486 7.41516 19.8136 7.63728H19.8106Z" fill="white"/>
<path d="M23.7174 8.0274C23.3949 7.55579 23.0206 7.14807 22.6129 6.77991C22.5095 6.68254 22.403 6.58214 22.2934 6.49999C22.2265 6.44826 22.1626 6.40566 22.1109 6.33568C22.0592 6.2657 22.0409 6.18964 22.0409 6.10445C22.0409 5.94014 22.1109 5.84582 22.2083 5.73932C22.3847 5.55068 22.5673 5.3742 22.7407 5.18251C22.9993 4.89042 23.258 4.59832 23.5075 4.29102C23.614 4.37925 23.7205 4.46749 23.827 4.55573C23.8665 4.58615 23.9152 4.61963 23.9486 4.65918C23.9608 4.67135 23.9669 4.68047 23.9669 4.69873C23.9669 4.75958 23.8848 4.76567 23.8452 4.75959C23.6018 4.99083 23.3523 5.21599 23.1058 5.45331C23.0024 5.55068 22.9081 5.66021 22.8046 5.75758C22.7559 5.80626 22.7012 5.84886 22.6586 5.90059C22.619 5.94318 22.5703 6.00708 22.5703 6.07097C22.5703 6.13183 22.6007 6.1653 22.6373 6.19877C22.7924 6.34482 22.9659 6.46957 23.1211 6.60648C23.474 6.91988 23.8026 7.26978 24.0977 7.6562C23.9699 7.77486 23.8452 7.9057 23.7174 8.02437V8.0274Z" fill="white"/>
<path d="M26.4893 7.92928C26.185 7.92928 25.6921 7.80452 25.6921 7.35421C25.6921 7.03777 25.9873 6.88564 26.2216 6.88564C26.4376 6.88564 26.6506 7.03169 26.7297 7.27206C26.751 7.35117 26.7631 7.42724 26.7662 7.50939C27.0248 7.43332 27.2347 7.19904 27.2347 6.87347C27.2347 6.43229 26.9457 6.2193 26.5927 6.2193C26.039 6.2193 25.7195 6.73046 25.3726 7.15339C25.2601 7.03777 25.1444 6.92216 25.0319 6.80654C25.5613 6.27407 26.0299 5.66553 26.4224 4.99615C26.1272 5.06309 25.8351 5.12089 25.543 5.18175L25.4639 4.67363C25.5035 4.67971 25.54 4.67971 25.5795 4.67971C25.7438 4.67971 25.9051 4.65842 26.0664 4.63712C26.2915 4.60669 26.5167 4.57322 26.7388 4.51541C26.8149 4.49716 26.894 4.46672 26.97 4.44238C27.0552 4.558 27.1404 4.67058 27.2226 4.7862C27.1861 4.81663 27.1465 4.84706 27.113 4.88053C27.0279 4.96572 26.9487 5.07222 26.8757 5.16654C26.6992 5.39778 26.5349 5.63815 26.3645 5.87548C26.4741 5.84506 26.5867 5.83593 26.7023 5.83593C27.2134 5.83593 27.679 6.14627 27.679 6.80044C27.679 7.59762 27.0948 7.92928 26.4893 7.92928ZM26.1789 7.22946C26.109 7.22946 26.0633 7.25989 26.0633 7.34508C26.0633 7.5033 26.2733 7.5246 26.3676 7.5246C26.3493 7.39985 26.3128 7.22946 26.1759 7.22946H26.1789Z" fill="white"/>
<path d="M31.8047 8.16956C31.47 8.11479 30.9619 7.93832 30.6789 7.72533L30.901 7.4728H29.8878L30.1039 7.71012C30.1039 7.74359 30.0795 7.76489 30.0582 7.76489C30.0339 7.76489 30.0126 7.75576 29.9913 7.74359C29.7174 7.9231 29.2976 8.09958 28.9872 8.15739L28.7103 7.79227C28.9811 7.75272 29.398 7.67665 29.614 7.47583H29.2002V5.87235H31.5856V7.47583H31.1475C31.3605 7.65231 31.823 7.71621 32.0846 7.75576L31.8047 8.1726V8.16956ZM28.7316 5.74152V5.40683H30.1586V5.27295H29.1424V4.95956H30.1586V4.8196H28.902V4.4636H30.1525V4.12891L30.6029 4.15933C30.6302 4.15933 30.6637 4.17759 30.6637 4.21106C30.6637 4.24758 30.6333 4.27496 30.6029 4.28408V4.4636H31.8868V4.8196H30.5907V4.95956H31.5978V5.27295H30.5907V5.40683H32.0238V5.74152H28.7286H28.7316ZM31.1597 6.1614H29.5957V6.30745H31.1597V6.1614ZM31.1658 6.57825H29.5988V6.73342H31.1658V6.57825ZM31.1658 7.00726H29.5988V7.16244H31.1658V7.00726Z" fill="white"/>
<path d="M33.9621 4.49743C33.8586 4.7804 33.7491 5.06337 33.6243 5.33416V8.06039H33.1984V6.02181C33.1253 6.16481 33.0371 6.29261 32.9306 6.40519L32.6628 6.07962C33.104 5.57454 33.384 4.86256 33.5361 4.17188L34.0229 4.37269C34.0412 4.38182 34.0594 4.40007 34.0594 4.42441C34.0594 4.47005 33.9894 4.49135 33.9621 4.49743ZM35.2065 6.28652V7.57357H36.0646V7.95998H33.9134V7.57357H34.7623V6.28652H33.8343V5.90619H34.7623V5.04816C34.5189 5.08772 34.2724 5.11814 34.032 5.14248L33.8677 4.76519C34.4184 4.71651 35.2126 4.58872 35.7025 4.30271L36.0341 4.78041C36.0311 4.81388 35.9976 4.83213 35.9702 4.83213C35.9489 4.83213 35.9246 4.81996 35.9063 4.80779C35.6751 4.87169 35.4469 4.93254 35.2126 4.97513V5.90923H36.1528V6.28956H35.2095L35.2065 6.28652Z" fill="white"/>
<path d="M19.7254 13.1754C19.5032 13.2484 19.275 13.3092 19.0438 13.3336C18.9312 13.1967 18.8247 13.0506 18.703 12.9259C18.9951 12.8802 19.2933 12.8255 19.5793 12.725C20.0022 12.5729 20.4039 12.2991 20.4039 11.721C20.4039 11.1429 20.1057 10.9664 19.6615 10.9664C19.0499 10.9664 18.4718 11.3984 17.8693 11.5506C17.8511 11.4897 17.6868 11.009 17.6868 10.9877C17.6868 10.9451 17.7415 10.9633 17.7689 10.9633C18.0641 10.9633 18.3988 10.8295 18.6817 10.7412C19.0438 10.6165 19.412 10.5039 19.7953 10.5039C20.3978 10.5039 20.8998 10.939 20.8998 11.6784C20.8998 12.5699 20.4008 12.9532 19.7284 13.1754H19.7254Z" fill="white"/>
<path d="M23.3736 13.2205C23.261 13.3331 23.1028 13.3514 22.9598 13.3514C22.8381 13.3514 22.7133 13.3209 22.6007 13.2692C22.5886 13.1019 22.5794 12.9406 22.5551 12.7763C22.6829 12.8493 22.8168 12.9011 22.9598 12.9011C23.2579 12.9011 23.2549 11.9304 23.2549 11.6931C23.2549 11.5166 23.258 11.2002 23.048 11.2002C22.975 11.2002 22.902 11.2185 22.8289 11.2337C22.6829 11.8605 22.3695 12.8493 22.047 13.3666C21.904 13.2966 21.7701 13.2084 21.6271 13.1353C21.9679 12.609 22.2174 11.9487 22.3695 11.3128C22.2021 11.3463 22.0318 11.3858 21.8675 11.4345C21.8522 11.3767 21.761 10.9842 21.761 10.9659C21.761 10.9538 21.7701 10.9477 21.7792 10.9477C21.8127 10.9477 21.8431 10.9568 21.8766 10.9568C22.0713 10.9568 22.2721 10.9203 22.4638 10.8838C22.5338 10.546 22.5733 10.2022 22.5946 9.8584C22.7133 9.88883 22.8228 9.92229 22.9354 9.95576C22.9841 9.96793 23.0358 9.98314 23.0784 10.0044C23.0967 10.0136 23.121 10.0227 23.121 10.047C23.121 10.0775 23.0906 10.0957 23.0723 10.1018C23.0297 10.3452 22.9811 10.5917 22.9202 10.826C22.9932 10.8168 23.0663 10.8047 23.1393 10.8047C23.3888 10.8047 23.5409 10.8868 23.6261 11.1698C23.6839 11.3615 23.6961 11.614 23.6961 11.8209C23.6961 12.2012 23.6413 12.965 23.3766 13.2236L23.3736 13.2205ZM24.2864 12.4112C24.2042 12.2864 24.116 12.1708 24.0277 12.0522C24.1342 12.0339 24.402 11.97 24.402 11.8087C24.402 11.5258 24.049 11.0329 23.8726 10.8442C24.0004 10.7621 24.1281 10.6769 24.2559 10.5947C24.5054 10.8686 24.8675 11.474 24.8675 11.8757C24.8675 12.2195 24.5054 12.3351 24.2803 12.4112H24.2864Z" fill="white"/>
<path d="M26.5105 13.6619C26.3736 13.5372 26.2397 13.4094 26.0937 13.2968C26.4619 13.1842 26.9487 12.9439 27.1495 12.5514C27.2499 12.3627 27.2956 12.1376 27.2956 11.9215C27.2956 11.5382 27.1678 11.3221 26.83 11.3221C26.5897 11.3221 26.0085 11.6355 25.7894 11.7816C25.762 11.7177 25.5886 11.2734 25.5886 11.2369C25.5886 11.2065 25.6251 11.2095 25.6403 11.2095C25.7225 11.2095 26.0085 11.1183 26.0967 11.0848C26.3828 10.9813 26.6475 10.8657 26.9517 10.8657C27.539 10.8657 27.7946 11.3282 27.7946 11.9672C27.7946 12.8465 27.1678 13.4124 26.5105 13.6619ZM27.1495 10.5706C26.8118 10.4124 26.471 10.2694 26.112 10.1842C26.1819 10.029 26.2489 9.87381 26.3189 9.72168C26.687 9.7947 27.043 9.93467 27.3838 10.1111C27.3108 10.2663 27.2347 10.4215 27.1495 10.5706Z" fill="white"/>
<path d="M31.7592 13.7076C31.4245 13.6498 30.9164 13.4764 30.6334 13.2665L30.8555 13.0139H29.8423L30.0583 13.2512C30.0583 13.2847 30.0309 13.306 30.0096 13.306C29.9883 13.306 29.9671 13.2969 29.9427 13.2847C29.6689 13.4642 29.249 13.6407 28.9386 13.6955L28.6617 13.3304C28.9325 13.2938 29.3464 13.2147 29.5654 13.0139H29.1516V11.4104H31.5371V13.0139H31.0989C31.3119 13.1904 31.7744 13.2543 32.036 13.2938L31.7561 13.7107L31.7592 13.7076ZM28.6891 11.2796V10.9449H30.1192V10.811H29.1029V10.4976H30.1192V10.3577H28.8626V10.0017H30.1131V9.66699L30.5634 9.69742C30.5908 9.69742 30.6212 9.71567 30.6212 9.74914C30.6212 9.7887 30.5938 9.81303 30.5634 9.82216V10.0017H31.8474V10.3577H30.5512V10.4976H31.5553V10.811H30.5512V10.9449H31.9813V11.2796H28.6861H28.6891ZM31.1172 11.6995H29.5532V11.8455H31.1172V11.6995ZM31.1202 12.1163H29.5532V12.2715H31.1202V12.1163ZM31.1202 12.5423H29.5532V12.6975H31.1202V12.5423Z" fill="white"/>
<path d="M33.8767 10.0356C33.7733 10.3186 33.6638 10.6016 33.539 10.8724V13.5986H33.113V11.56C33.04 11.7 32.9518 11.8308 32.8453 11.9403L32.5775 11.6148C33.0187 11.1097 33.3017 10.3977 33.4508 9.70703L33.9376 9.90785C33.9558 9.91698 33.9741 9.93218 33.9741 9.95957C33.9741 10.0052 33.9041 10.0265 33.8737 10.0326L33.8767 10.0356ZM35.1212 11.8247V13.1118H35.9792V13.4982H33.828V13.1118H34.677V11.8247H33.7489V11.4444H34.677V10.5864C34.4335 10.6229 34.1901 10.6563 33.9467 10.6807L33.7824 10.3034C34.3332 10.2578 35.1273 10.1269 35.6171 9.84091L35.9488 10.3156C35.9458 10.349 35.9123 10.3673 35.8849 10.3673C35.8636 10.3673 35.8362 10.3551 35.818 10.3429C35.5867 10.4068 35.3585 10.4677 35.1242 10.5103V11.4444H36.0644V11.8247H35.1212Z" fill="white"/>
</svg>
