<svg width="50" height="50" viewBox="0 0 50 50" fill="none" xmlns="http://www.w3.org/2000/svg">
<path d="M50 0H0V50H50V0Z" fill="#004C88"/>
<path d="M4.28725 6.23399C4.20206 6.27963 3.94952 6.38004 3.53268 6.52913C3.20407 6.63867 2.99413 6.71473 2.90894 6.75428V5.40031C3.17669 5.2999 3.49919 5.14167 3.87953 4.92869C4.25986 4.7157 4.52762 4.52402 4.68584 4.35059H6.1098V13.8832H4.2842V6.23399H4.28725Z" fill="white"/>
<path d="M7.74065 13.1656C7.32077 12.5996 7.11084 11.839 7.11084 10.8836V7.49403C7.11084 6.45953 7.29948 5.65628 7.67677 5.0873C8.05406 4.51832 8.71735 4.23535 9.66666 4.23535C10.5156 4.23535 11.1271 4.43617 11.5014 4.83476C11.8787 5.23639 12.0704 5.83883 12.0795 6.64818L12.0917 6.81248H10.3604C10.3604 6.37434 10.3178 6.06399 10.2296 5.88751C10.1444 5.71104 9.9618 5.6228 9.68796 5.6228C9.49323 5.6228 9.3411 5.68062 9.23461 5.79928C9.12812 5.91795 9.0551 6.11267 9.00946 6.38651C8.96686 6.66035 8.94555 7.04981 8.94555 7.55185V8.51637C9.04596 8.34294 9.21331 8.20907 9.43846 8.1117C9.66666 8.01434 9.92528 7.96565 10.2143 7.96565C10.9202 7.96565 11.4314 8.2121 11.7509 8.70197C12.0673 9.19184 12.2286 9.86122 12.2286 10.7101C12.2286 11.7629 12.0338 12.5753 11.6413 13.1534C11.2488 13.7315 10.5947 14.0175 9.6758 14.0175C8.75692 14.0175 8.16054 13.7345 7.74065 13.1686V13.1656ZM10.26 12.2649C10.3573 12.0033 10.406 11.5834 10.406 11.0113C10.406 10.6097 10.3939 10.3024 10.3695 10.0803C10.3452 9.86122 10.2813 9.68475 10.1748 9.55087C10.0683 9.417 9.90703 9.35006 9.68492 9.35006C9.52061 9.35006 9.37152 9.39266 9.24373 9.4809C9.11289 9.56609 9.01553 9.66954 8.94251 9.7882V11.3065C8.94251 12.2102 9.19506 12.6605 9.6971 12.6605C9.97094 12.6605 10.1565 12.5296 10.2569 12.2649H10.26Z" fill="white"/>
<path d="M33.229 22.1807C33.229 22.1807 32.7421 22.8288 32.8821 23.4586C33.0251 24.0884 33.7432 24.4657 33.7432 24.4657C33.7432 24.4657 34.23 23.8176 34.09 23.1878C33.947 22.5549 33.229 22.1807 33.229 22.1807Z" fill="white"/>
<path d="M32.4348 25.8807C32.4348 25.8807 32.9216 25.2327 32.7817 24.6028C32.6387 23.9699 31.9206 23.5957 31.9206 23.5957C31.9206 23.5957 31.4338 24.2438 31.5737 24.8736C31.7167 25.5034 32.4379 25.8807 32.4379 25.8807" fill="white"/>
<path d="M34.4369 25.1871C34.4369 25.1871 34.9511 25.7074 35.5383 25.6557C36.1256 25.6039 36.5607 25.0015 36.5607 25.0015C36.5607 25.0015 36.0465 24.4812 35.4592 24.5329C34.872 24.5846 34.4369 25.1901 34.4369 25.1901" fill="white"/>
<path d="M35.2827 22.4118C34.805 22.8955 34.872 23.7536 34.872 23.7536C34.872 23.7536 35.7117 23.8266 36.1925 23.3428C36.6702 22.859 36.6033 22.001 36.6033 22.001C36.6033 22.001 35.7604 21.928 35.2827 22.4118Z" fill="white"/>
<path d="M34.2298 27.1125C34.814 27.1825 35.3648 26.6804 35.3648 26.6804C35.3648 26.6804 34.9662 26.0658 34.382 25.9989C33.7978 25.9289 33.2471 26.4309 33.2471 26.4309C33.2471 26.4309 33.6457 27.0456 34.2298 27.1125Z" fill="white"/>
<path d="M34.7502 36.5059H30.381C30.0402 36.5059 29.7633 36.7827 29.7633 37.1235C29.7633 37.4643 30.0402 37.7412 30.381 37.7412H34.7502C35.091 37.7412 35.3679 37.4643 35.3679 37.1235C35.3679 36.7827 35.091 36.5059 34.7502 36.5059Z" fill="white"/>
<path d="M34.7502 43.3184H30.381C30.0402 43.3184 29.7633 43.5953 29.7633 43.936C29.7633 44.2768 30.0402 44.5537 30.381 44.5537H34.7502C35.091 44.5537 35.3679 44.2768 35.3679 43.936C35.3679 43.5953 35.091 43.3184 34.7502 43.3184Z" fill="white"/>
<path d="M15.1069 35.0059C15.0034 34.9754 14.903 34.945 14.8026 34.9268C14.8026 34.9268 14.9152 34.9602 15.1069 35.0059Z" fill="white"/>
<path d="M34.5889 38.1729H30.5421C30.3474 38.1729 30.1892 38.3311 30.1892 38.5258V39.752L27.5482 40.0411L23.687 39.9528V37.5948C24.2013 37.5278 24.7124 37.4275 25.2236 37.2844C28.9387 36.2347 29.7511 33.9223 29.6689 31.7955C29.5868 29.6322 30.2805 28.7893 31.2754 28.4151C31.5614 28.3086 31.8414 28.2417 32.1 28.196C32.1122 28.7285 32.2187 29.3461 32.456 30.0825C32.5442 30.0764 32.6325 30.0703 32.7207 30.0612C32.4682 29.3066 32.3617 28.6889 32.3556 28.1595C32.8698 28.0987 33.238 28.1321 33.238 28.1321C33.238 28.1321 32.8911 27.9465 32.3982 27.5358C32.5655 26.5104 33.1771 25.8806 33.8039 25.2386C34.1507 24.8856 34.5067 24.5175 34.7897 24.0824L34.5706 23.9424C34.3059 24.3562 33.956 24.7122 33.6183 25.056C33.0037 25.6828 32.386 26.3248 32.1761 27.3441C31.9752 27.1646 31.7623 26.9516 31.5401 26.7021C30.6243 25.6737 29.4438 26.4282 27.7612 27.9952C26.0786 29.5591 23.9609 29.6139 21.8949 27.4992C19.1687 24.7091 16.7893 24.7244 15.1585 24.8826C16.2751 25.3572 16.6646 26.4009 17.2305 29.051C17.8238 31.832 19.3147 33.0886 21.3564 33.262C20.4101 33.4142 20.1636 33.5481 18.6423 34.5978C17.4526 35.4162 15.7822 35.1576 15.1037 35.0055C16.3482 35.3919 17.8208 36.6972 19.1413 37.1536C19.9081 37.4183 20.7174 37.5826 21.5481 37.6465V39.9042L14.2274 39.7459V41.322L27.5482 41.0269L30.1892 41.319V42.5452C30.1892 42.7399 30.3474 42.8981 30.5421 42.8981H34.5889C34.7836 42.8981 34.9418 42.7399 34.9418 42.5452V38.5289C34.9418 38.3342 34.7836 38.1759 34.5889 38.1759V38.1729ZM22.187 37.68C22.4761 37.6861 22.7651 37.6769 23.0542 37.6556V39.9376L22.187 39.9163V37.6769V37.68Z" fill="white"/>
<path d="M13.8502 41.0599C13.8502 41.3915 13.619 41.6623 13.333 41.6623H13.0226C12.7366 41.6623 12.5054 41.3915 12.5054 41.0599V39.9706C12.5054 39.639 12.7366 39.3682 13.0226 39.3682H13.333C13.619 39.3682 13.8502 39.6359 13.8502 39.9706V41.0599Z" fill="white"/>
<path d="M17.9213 6.74484V8.15055H17.477V6.74484H16.0835V6.32496H17.477V4.90099H16.2782V4.49023H19.1262V4.90099H17.9182V6.32496H19.3118V6.74484H17.9213ZM16.8715 6.16066C16.7437 5.85639 16.6099 5.54604 16.4547 5.26003L16.8472 5.04705C16.972 5.31176 17.1271 5.68295 17.191 5.97201L16.8685 6.16066H16.8715ZM18.9193 5.37565C18.7915 5.64645 18.6637 5.91725 18.5146 6.17891L18.189 6.02374C18.3107 5.70121 18.4203 5.37261 18.5146 5.03792L18.9558 5.23873C18.9801 5.25091 19.0075 5.27829 19.0075 5.31176C19.0075 5.36044 18.9466 5.37565 18.9193 5.37565Z" fill="white"/>
<path d="M21.6456 4.74948C21.6243 4.74948 21.606 4.74035 21.5878 4.72818C21.4235 4.79816 21.25 4.84685 21.0766 4.89553V5.47059H21.5634V5.85701H21.0766V5.9635C21.2105 6.2343 21.4478 6.5051 21.6547 6.70287L21.4052 7.04365C21.2835 6.90977 21.1679 6.75459 21.0766 6.59333V8.16639H20.6537V6.61463C20.5319 6.87934 20.3311 7.21403 20.1242 7.39964L19.8322 7.09537C20.1425 6.80327 20.4437 6.30732 20.5654 5.86005H19.9538V5.47364H20.6567V4.9716C20.4681 5.00507 20.2825 5.03245 20.0938 5.05375L19.9356 4.6795C20.3798 4.64299 21.0188 4.55475 21.4052 4.29004C21.4448 4.33872 21.7064 4.65821 21.7064 4.69472C21.7064 4.73123 21.679 4.75557 21.6486 4.75557L21.6456 4.74948ZM21.7034 7.90776V4.8499H23.1608V7.90776H21.7034ZM22.7379 5.24239H22.1111V7.5183H22.7379V5.24239Z" fill="white"/>
<path d="M25.4853 8.0655C24.962 8.0655 24.1222 7.98335 24.1222 7.16488C24.1222 6.56852 24.5634 6.26426 24.9772 6.05735C24.8524 5.56444 24.8372 5.05023 24.8311 4.53906C24.9407 4.54819 25.0563 4.55732 25.1658 4.56341C25.2206 4.56949 25.2754 4.57254 25.3301 4.58166C25.3484 4.58471 25.3697 4.59383 25.3697 4.61817C25.3697 4.63643 25.3545 4.65469 25.3453 4.66686C25.3271 4.79465 25.324 4.93157 25.324 5.0624C25.324 5.22062 25.321 5.71658 25.394 5.82916C25.4031 5.83828 25.4184 5.84132 25.4275 5.84132C25.5674 5.84132 26.2095 5.54923 26.3525 5.45795C26.4072 5.64355 26.4437 5.83524 26.4863 6.02388C26.0269 6.13037 24.5695 6.40725 24.5695 7.11315C24.5695 7.51174 25.1141 7.58781 25.3666 7.58781C25.7804 7.58781 26.1517 7.54521 26.5442 7.39308C26.5655 7.57259 26.5837 7.75819 26.5959 7.9438C26.2277 8.01986 25.8535 8.05942 25.4823 8.05942L25.4853 8.0655Z" fill="white"/>
<path d="M28.6922 4.74928C28.4914 5.3426 28.1233 6.04849 27.676 6.42274L27.3413 6.16411C27.7916 5.73206 28.1111 5.0931 28.245 4.42676L28.7288 4.61845C28.7501 4.62757 28.7683 4.64583 28.7683 4.67321C28.7683 4.71581 28.7227 4.74319 28.6922 4.74623V4.74928ZM30.0706 8.21791C29.9975 8.08099 29.9276 7.94407 29.8545 7.80715C29.1912 7.90452 28.5219 7.9745 27.8555 8.05056C27.8403 8.07186 27.816 8.10228 27.7886 8.10228C27.7673 8.10228 27.7551 8.08404 27.749 8.06274L27.6121 7.63068C27.7186 7.6185 27.8281 7.6185 27.9346 7.59112C28.0229 7.56982 28.035 7.56069 28.0837 7.4755C28.2419 7.20166 28.3697 6.88827 28.4945 6.59313C28.607 6.32233 28.7135 6.04849 28.7987 5.76553L29.2612 6.01503C29.2795 6.02415 29.3038 6.0485 29.3038 6.07588C29.3038 6.12152 29.249 6.14891 29.2156 6.15195C28.9843 6.63269 28.75 7.10734 28.4701 7.55461C28.8657 7.51505 29.2643 7.46941 29.6598 7.41769C29.5564 7.22904 29.4499 7.04345 29.3373 6.86393C29.459 6.77873 29.5777 6.69658 29.6994 6.61443C29.958 7.05257 30.1984 7.50593 30.4296 7.96537L30.0675 8.21791H30.0706ZM30.4326 6.41666C29.961 6.07284 29.4864 5.31521 29.2764 4.71885C29.4225 4.6367 29.5655 4.54542 29.7146 4.46631C29.8819 5.11744 30.2866 5.65904 30.7521 6.05458L30.4326 6.41969V6.41666Z" fill="white"/>
<path d="M31.1477 8.03556V7.63393H31.7106V5.58317L32.1426 5.6136C32.167 5.6136 32.2005 5.63186 32.2005 5.66533C32.2005 5.70184 32.17 5.72923 32.1426 5.73835V7.63393H32.6599V4.99899H31.309V4.5791H34.306V5.00507H33.1163V6.00915H34.1173V6.4473H33.1072V7.61871H34.382V8.0386H31.1477V8.03556Z" fill="white"/>
<path d="M37.9938 6.36219C37.9755 6.36219 37.9572 6.35306 37.939 6.34089C37.6743 6.43217 37.1631 6.63299 36.9228 6.74252V7.40278H36.4877C36.4907 7.33888 36.4907 7.27498 36.4907 7.20196V6.96159C36.1986 7.09851 36.0495 7.27499 36.0495 7.47276C36.0495 7.64315 36.2168 7.73442 36.5515 7.73442C36.9167 7.73442 37.2453 7.68878 37.6195 7.56404L37.6043 8.06607C37.2818 8.17257 36.9258 8.19082 36.6824 8.19082C35.9643 8.19082 35.6022 7.96567 35.6022 7.50319C35.6022 7.28107 35.7057 7.07416 35.9035 6.88552C36.0282 6.7699 36.2138 6.64515 36.4603 6.51736C36.4542 6.32567 36.3933 6.22527 36.2868 6.22527C36.1499 6.22527 36.0252 6.277 35.9095 6.38957C35.8365 6.45651 35.7392 6.54779 35.6266 6.68167C35.4927 6.83076 35.4075 6.93421 35.3558 6.98593C35.2919 6.90987 35.1884 6.79424 35.0515 6.63298C35.4623 6.3135 35.7696 5.921 35.9765 5.47069C35.7818 5.49503 35.5657 5.51329 35.3315 5.52546C35.3162 5.36116 35.2949 5.21206 35.2736 5.08123C35.6175 5.08123 35.9004 5.06906 36.1134 5.03863C36.159 4.91389 36.1986 4.71611 36.2382 4.44531L36.7341 4.55789C36.7645 4.56702 36.7767 4.58223 36.7767 4.60962C36.7767 4.637 36.7585 4.6583 36.7189 4.67351C36.7006 4.74654 36.6672 4.85911 36.6185 5.00516C36.7889 4.98386 37.0353 4.91997 37.3061 4.84695L37.2666 5.31855C37.0658 5.36115 36.7919 5.40375 36.4542 5.45243C36.4025 5.58022 36.3173 5.74148 36.226 5.88145C36.3142 5.85711 36.3872 5.85102 36.4359 5.85102C36.6611 5.85102 36.8071 6.00011 36.871 6.30742C37.1662 6.15528 37.4978 5.99402 37.8629 5.83276L38.0303 6.31351C38.0303 6.34698 38.0151 6.36523 37.9877 6.36523L37.9938 6.36219Z" fill="white"/>
<path d="M19.1993 11.0328C19.0502 11.0236 18.898 11.0206 18.752 11.0206C18.5299 11.0206 18.3108 11.0176 18.0948 11.0297C18.0978 11.1879 18.0917 11.3462 18.1009 11.5044C18.2165 11.7052 18.2378 11.9517 18.2378 12.1829C18.2378 12.8979 17.9457 13.5399 17.3341 13.762C17.2033 13.6495 17.0633 13.5521 16.9355 13.4365C17.2672 13.3574 17.6171 13.0835 17.7327 12.6971C17.6414 12.7549 17.5349 12.7671 17.4284 12.7671C17.115 12.7671 16.9325 12.3776 16.9325 12.046C16.9325 11.6352 17.1424 11.2275 17.5258 11.2275C17.5745 11.2275 17.6262 11.2305 17.6718 11.2458C17.6718 11.1758 17.6719 11.1088 17.6627 11.0389C17.4132 11.0419 17.1637 11.0693 16.9173 11.0906C16.6799 11.1149 16.4457 11.1453 16.2083 11.1849C16.1931 11.0206 16.2022 10.8563 16.1931 10.692C16.6799 10.6707 17.1668 10.6585 17.6536 10.6281C17.6414 10.4181 17.6353 10.2082 17.6323 9.99219C17.7388 10.0013 17.8544 10.0196 17.9579 10.0348C18.0035 10.0439 18.0552 10.0439 18.0948 10.0561C18.1191 10.0591 18.1495 10.0683 18.1495 10.1078C18.1495 10.1474 18.1252 10.1808 18.1009 10.1991C18.0978 10.336 18.0917 10.4729 18.0917 10.6098C18.466 10.5977 18.8433 10.5794 19.2175 10.5581L19.1932 11.0328H19.1993ZM17.5623 11.6443C17.395 11.6443 17.3219 11.833 17.3219 12.0095C17.3219 12.1494 17.3676 12.3563 17.5167 12.3563C17.6779 12.3563 17.7084 12.116 17.7084 11.9699C17.7084 11.8543 17.7084 11.6443 17.5654 11.6443H17.5623Z" fill="white"/>
<path d="M22.5096 13.6244C22.324 13.3931 22.1018 13.1528 21.9071 12.8941C21.6759 12.5899 21.4385 12.2734 21.2134 11.9722C21.1373 11.8688 21.0582 11.7562 20.9821 11.6558C20.9426 11.604 20.8909 11.5097 20.8209 11.5097C20.7205 11.5097 20.6262 11.6862 20.5714 11.7623C20.4984 11.8688 20.4253 11.9844 20.3554 12.0878C20.2306 12.2765 20.1211 12.4682 19.9994 12.6538V12.6751C19.9994 12.7085 19.9841 12.739 19.9507 12.739L19.543 12.3678C19.6921 12.2004 19.8442 12.0331 19.975 11.8444C20.115 11.6527 20.2397 11.4367 20.3858 11.245C20.5257 11.0716 20.6353 10.9651 20.8452 10.9651C20.9973 10.9651 21.1008 11.0594 21.2103 11.1811C21.2894 11.2724 21.3686 11.3911 21.4416 11.4854C21.615 11.7136 21.7854 11.9448 21.9619 12.1578C22.2327 12.4986 22.5856 12.9002 22.8716 13.2167L22.5065 13.6244H22.5096ZM21.901 11.242C21.8128 11.0351 21.7093 10.8373 21.6089 10.6426L21.8858 10.4783C21.9923 10.6669 22.0866 10.8738 22.1688 11.0777L21.901 11.242ZM22.3665 11.0381C22.2814 10.8282 22.184 10.6304 22.0745 10.4326L22.3544 10.2744C22.4578 10.4661 22.5521 10.673 22.6313 10.8799L22.3665 11.0381Z" fill="white"/>
<path d="M26.2551 10.9018C26.2551 10.9018 26.2216 10.8987 26.2064 10.8987C26.036 10.8987 25.8504 10.92 25.6831 10.987C25.1993 11.1786 24.8464 11.7507 24.8464 12.3501C24.8464 13.2385 25.5583 13.342 26.1547 13.342C26.1273 13.5093 26.0969 13.6827 26.0573 13.847H25.9782C25.7135 13.847 25.4001 13.7953 25.1567 13.6919C24.6912 13.5002 24.393 13.0651 24.393 12.4778C24.393 11.9606 24.5238 11.5559 24.7855 11.1391C24.3443 11.2212 23.9031 11.3156 23.4711 11.4251C23.4467 11.2547 23.4133 11.0874 23.392 10.92C24.1557 10.8135 24.9103 10.6918 25.6618 10.5032C25.8383 10.4575 26.0087 10.4058 26.1791 10.3389C26.1973 10.4028 26.3099 10.8196 26.3099 10.8531C26.3099 10.8865 26.2855 10.8957 26.2582 10.8957L26.2551 10.9018Z" fill="white"/>
<path d="M28.8809 13.6856C28.7683 13.5608 28.6649 13.43 28.5493 13.3083C29.1304 13.1439 29.6659 12.9097 29.6659 12.0942C29.6659 11.5405 29.3799 11.0384 28.8992 10.9289C28.7988 11.6713 28.604 12.8488 28.029 13.287C27.9225 13.3691 27.816 13.4239 27.6882 13.4239C27.5361 13.4239 27.39 13.3022 27.2957 13.1744C27.1223 12.9431 27.0614 12.5963 27.0614 12.2951C27.0614 11.2453 27.8069 10.5029 28.6801 10.5029C29.4864 10.5029 30.1436 11.0658 30.1436 12.0638C30.1436 12.9979 29.6081 13.4878 28.8809 13.6856ZM27.5878 11.7078C27.5178 11.8934 27.4843 12.0942 27.4843 12.2951C27.4843 12.4715 27.5178 12.9249 27.7217 12.9249C27.7947 12.9249 27.8586 12.8427 27.9012 12.788C28.248 12.3742 28.3941 11.4979 28.4306 10.935C28.102 11.005 27.7217 11.3458 27.5878 11.7078Z" fill="white"/>
<path d="M33.7706 13.7887C33.1651 13.3932 32.6752 12.669 32.4166 11.9235C32.3557 12.1152 32.2979 12.3069 32.2188 12.4865C32.0393 12.8942 31.7563 13.2654 31.4216 13.5331C31.2999 13.6274 31.1752 13.7126 31.0443 13.7765L30.7218 13.4175C30.8648 13.3506 31.0261 13.2501 31.1569 13.1406C31.6346 12.742 31.9419 12.1578 32.0636 11.455C32.1397 11.0138 32.1214 10.5635 32.1214 10.1162L32.6326 10.174C32.663 10.1771 32.7026 10.1953 32.7026 10.2379C32.7026 10.2805 32.6661 10.3049 32.6356 10.314C32.6295 10.4905 32.6235 10.6608 32.6235 10.8373C32.6235 11.4185 32.8973 12.0453 33.1955 12.4925C33.4176 12.8211 33.8253 13.1862 34.1509 13.3658L33.7706 13.7917V13.7887Z" fill="white"/>
<path d="M35.4805 13.6942C35.3467 13.7064 35.2158 13.7246 35.0789 13.7429C34.9146 13.2287 34.8903 12.6688 34.8903 12.1242C34.8903 11.5157 34.9694 10.901 35.0789 10.3047L35.3984 10.3777C35.4471 10.3899 35.5079 10.3929 35.5566 10.4142C35.5779 10.4234 35.5962 10.4355 35.5962 10.469C35.5962 10.5025 35.5627 10.5238 35.5353 10.5238C35.3893 11.1201 35.3223 11.7926 35.3223 12.4102C35.3223 12.5654 35.3314 12.7145 35.3314 12.8697C35.3953 12.6749 35.4592 12.4771 35.5292 12.2855C35.6205 12.3676 35.7118 12.4528 35.8031 12.535C35.6418 12.9183 35.5231 13.2591 35.4775 13.6881L35.4805 13.6942ZM37.7382 13.466C37.5222 13.4995 37.3092 13.5238 37.0931 13.5238C36.5363 13.5238 36.013 13.4539 35.9217 12.678C36.0526 12.5837 36.1803 12.4832 36.3112 12.395C36.3264 12.8392 36.5576 13.0309 36.9197 13.0309C37.2057 13.0309 37.4917 12.9883 37.7716 12.9122C37.7595 13.0948 37.7504 13.2804 37.7382 13.4691V13.466ZM37.5252 11.2205C37.2574 11.1384 36.9897 11.1019 36.7098 11.1019C36.5181 11.1019 36.3264 11.1232 36.1377 11.1536C36.1347 10.9984 36.1377 10.8493 36.1316 10.6942C36.3994 10.6424 36.6672 10.6272 36.938 10.6272C37.1631 10.6272 37.3822 10.6637 37.6043 10.7185C37.58 10.8858 37.5556 11.0562 37.5252 11.2236V11.2205Z" fill="white"/>
</svg>
