<svg width="50" height="50" viewBox="0 0 50 50" fill="none" xmlns="http://www.w3.org/2000/svg">
<path d="M50 0H0V50H50V0Z" fill="#FABD00"/>
<path d="M6.69379 5.73901H4.10449V4.35156H8.47071V5.54124L6.45647 13.8873H4.69173L6.69379 5.74206V5.73901Z" fill="white"/>
<path d="M25.0199 24.3604C20.9549 24.3604 17.6597 27.6555 17.6597 31.7236C17.6597 35.7916 20.9549 39.0868 25.0199 39.0868C29.0848 39.0868 32.38 35.7916 32.38 31.7236C32.38 27.6555 29.0848 24.3604 25.0199 24.3604ZM24.4722 27.2691C24.4722 27.0227 24.7186 26.7549 25.0199 26.7549C25.3211 26.7549 25.5645 27.0257 25.5645 27.2691V29.7976C25.5645 30.041 25.3211 30.3087 25.0199 30.3087C24.7186 30.3087 24.4722 30.041 24.4722 29.7976V27.2691ZM25.0199 35.4934C22.9052 35.4934 21.1922 33.7804 21.1922 31.6658C21.1922 29.9467 22.3241 28.4923 23.8819 28.0085V29.4355C23.0695 29.8493 22.5127 30.6921 22.5127 31.6658C22.5127 33.0502 23.6354 34.1729 25.0199 34.1729C26.4043 34.1729 27.527 33.0502 27.527 31.6658C27.527 30.6891 26.9672 29.8432 26.1517 29.4294V28.0055C27.7157 28.4892 28.8506 29.9436 28.8506 31.6658C28.8506 33.7804 27.1375 35.4934 25.0199 35.4934Z" fill="white"/>
<path d="M16.5674 31.6563C16.5674 31.3216 16.2723 31.0508 16.0015 31.0508H12.7763C12.5055 31.0508 12.2073 31.3216 12.2073 31.6563C12.2073 31.991 12.5055 32.2618 12.7763 32.2618H16.0015C16.2723 32.2618 16.5674 31.991 16.5674 31.6563Z" fill="white"/>
<path d="M37.8325 31.6563C37.8325 31.3216 37.5374 31.0508 37.2666 31.0508H34.0414C33.7706 31.0508 33.4724 31.3216 33.4724 31.6563C33.4724 31.991 33.7706 32.2618 34.0414 32.2618H37.2666C37.5374 32.2618 37.8325 31.991 37.8325 31.6563Z" fill="white"/>
<path d="M25.023 44.4684C25.3577 44.4684 25.6254 44.1733 25.6254 43.9025V40.6803C25.6254 40.4095 25.3546 40.1113 25.023 40.1113C24.6913 40.1113 24.4175 40.4095 24.4175 40.6803V43.9025C24.4175 44.1733 24.6913 44.4684 25.023 44.4684Z" fill="white"/>
<path d="M36.1408 38.0213C36.3051 37.7322 36.1834 37.3489 35.9491 37.215L33.1499 35.6145C32.9125 35.4807 32.52 35.5659 32.3557 35.8549C32.1884 36.144 32.3131 36.5304 32.5505 36.6642L35.3497 38.2647C35.584 38.3986 35.9765 38.3103 36.1408 38.0182" fill="white"/>
<path d="M18.6577 42.7768C18.9468 42.9411 19.3301 42.8194 19.464 42.5851L21.0645 39.7889C21.1983 39.5516 21.1131 39.1591 20.8241 38.9948C20.535 38.8274 20.1486 38.9522 20.0147 39.1895L18.4143 41.9887C18.2804 42.223 18.3687 42.6155 18.6608 42.7798" fill="white"/>
<path d="M31.4094 42.7651C31.6985 42.5977 31.7867 42.2083 31.6529 41.974L30.0463 39.1778C29.9094 38.9435 29.526 38.8187 29.237 38.9861C28.9479 39.1534 28.8597 39.5459 28.9966 39.7833L30.6031 42.5764C30.737 42.8107 31.1204 42.9324 31.4094 42.7651Z" fill="white"/>
<path d="M13.9142 38.0463C14.0815 38.3353 14.471 38.4236 14.7053 38.2867L17.4984 36.6801C17.7358 36.5463 17.8575 36.1629 17.6901 35.8738C17.5228 35.5848 17.1303 35.4965 16.8929 35.6335L14.0998 37.24C13.8655 37.3739 13.7438 37.7572 13.9111 38.0493" fill="white"/>
<path d="M25.023 23.2068C25.3577 23.2068 25.6254 22.9117 25.6254 22.6409V19.4157C25.6254 19.1449 25.3546 18.8467 25.023 18.8467C24.6913 18.8467 24.4175 19.1449 24.4175 19.4157V22.6409C24.4175 22.9117 24.6913 23.2068 25.023 23.2068Z" fill="white"/>
<path d="M17.6841 27.4568C17.8515 27.1678 17.7267 26.7844 17.4925 26.6505L14.6932 25.0501C14.4559 24.9162 14.0634 25.0014 13.8991 25.2905C13.7317 25.5795 13.8565 25.9659 14.0938 26.0998L16.893 27.7002C17.1273 27.8341 17.5198 27.7459 17.6841 27.4538" fill="white"/>
<path d="M29.2187 24.3238C29.5078 24.4881 29.8881 24.3664 30.0251 24.1321L31.6255 21.3329C31.7594 21.0955 31.6742 20.703 31.3851 20.5387C31.0961 20.3714 30.7096 20.4961 30.5758 20.7335L28.9753 23.5297C28.8415 23.7639 28.9297 24.1564 29.2218 24.3208" fill="white"/>
<path d="M20.809 24.3295C21.098 24.1622 21.1863 23.7727 21.0493 23.5384L19.4428 20.7422C19.3059 20.5079 18.9256 20.3832 18.6335 20.5505C18.3444 20.7179 18.2562 21.1104 18.3931 21.3477L19.9996 24.1409C20.1335 24.3752 20.5169 24.4969 20.8059 24.3295" fill="white"/>
<path d="M32.3497 27.4448C32.5171 27.7339 32.9065 27.8221 33.1408 27.6852L35.934 26.0787C36.1713 25.9418 36.293 25.5614 36.1287 25.2693C35.9614 24.9803 35.5689 24.892 35.3315 25.029L32.5384 26.6355C32.3041 26.7694 32.1824 27.1527 32.3497 27.4418" fill="white"/>
<path d="M12.3652 8.19138V7.69543H13.4423V5.82115H12.5448V5.3252H14.7933V5.82115H13.8926V7.69543H14.988V8.19138H12.3652Z" fill="white"/>
<path d="M17.0448 6.7426V7.26291C17.0448 7.65541 17.0448 8.05095 17.0448 8.44345H16.6188C16.6188 8.01443 16.6188 7.58542 16.6219 7.15945C16.3967 7.39069 16.0377 7.63106 15.7669 7.74972C15.6726 7.59151 15.5661 7.4485 15.4565 7.31158C15.989 7.14119 16.7466 6.56005 17.0083 5.86024C16.6219 5.86328 16.2324 5.90892 15.846 5.93022C15.8399 5.74462 15.8308 5.56206 15.8217 5.3795C16.3207 5.3795 16.8227 5.37646 17.3217 5.35212C17.3947 5.35212 17.4677 5.3369 17.5408 5.31864L17.6655 5.5651C17.4647 5.96977 17.2882 6.38966 17.0418 6.74565L17.0448 6.7426ZM16.8927 5.24258C16.6827 5.03872 16.4545 4.88051 16.2203 4.73446C16.2963 4.59145 16.3663 4.45453 16.4393 4.31152C16.6888 4.44844 16.9292 4.62492 17.1574 4.82878C17.0722 4.97178 16.984 5.1087 16.8896 5.24258H16.8927ZM17.9059 7.698C17.699 7.36635 17.4464 7.10773 17.1909 6.86127L17.4373 6.48094C17.7081 6.66654 17.988 6.97081 18.198 7.26899L17.9059 7.698Z" fill="white"/>
<path d="M19.5185 5.34937C19.4972 6.34128 19.6068 7.26016 19.123 8.08168C19.0317 8.2399 18.9161 8.37986 18.7974 8.48635C18.6879 8.38899 18.5266 8.2399 18.4475 8.16383C18.9769 7.6983 19.0865 7.10195 19.0865 6.25609C19.0865 5.9001 19.0804 5.52584 19.0713 5.16681L19.5216 5.22462C19.5429 5.23071 19.5581 5.23984 19.5581 5.2733C19.5581 5.30069 19.5368 5.33111 19.5216 5.34633L19.5185 5.34937ZM20.766 8.01778C20.5865 8.15774 20.3918 8.26424 20.2031 8.37986C20.1118 8.2977 20.0175 8.22468 19.9384 8.13036C19.9597 8.05429 19.9719 7.97518 19.9719 7.89607V7.30275C19.9719 6.56034 19.9628 5.80577 19.9506 5.06641L20.4192 5.14247C20.4374 5.14856 20.4557 5.16681 20.4557 5.20028C20.4557 5.23984 20.4252 5.26722 20.4039 5.28243C20.3979 5.48933 20.4009 5.69015 20.4009 5.89705C20.4009 6.47819 20.3948 7.0776 20.3857 7.65875C20.6534 7.50053 20.9516 7.21756 21.1646 6.94372C21.2346 6.85548 21.2985 6.75508 21.3654 6.66076C21.3715 6.65163 21.3806 6.63642 21.3898 6.63642C21.408 6.63642 21.408 6.68509 21.408 6.69422C21.4232 6.89504 21.4445 7.08672 21.4719 7.2845C21.262 7.57355 21.0216 7.81697 20.766 8.02082V8.01778Z" fill="white"/>
<path d="M23.6079 7.26298C23.6292 7.69808 23.6474 8.13013 23.6748 8.56828C23.5288 8.58349 23.3858 8.58958 23.2397 8.60783C23.2245 8.16665 23.2032 7.73155 23.191 7.29037C22.8107 7.30254 22.4334 7.31775 22.0531 7.34513C22.05 7.18083 22.047 7.01956 22.0439 6.85526C22.1322 6.86134 22.2174 6.86439 22.3056 6.86743C22.5947 6.87352 22.8807 6.84918 23.1697 6.84005C23.1576 6.58447 23.1484 6.33801 23.1332 6.08243C22.8746 6.08243 22.616 6.10069 22.3573 6.11286C22.3543 5.94855 22.3391 5.78121 22.333 5.6169C22.5855 5.62299 22.8442 5.61995 23.0997 5.60778C23.0845 5.33394 23.0663 5.06618 23.045 4.79538L23.5075 4.85015C23.5348 4.85623 23.5653 4.87753 23.5622 4.92013C23.5622 4.95969 23.5348 4.99316 23.5044 5.00533C23.5075 5.20614 23.5136 5.40087 23.5166 5.60168C23.7904 5.5956 24.0612 5.5743 24.332 5.53779C24.329 5.71122 24.332 5.87857 24.329 6.04592C24.0673 6.04592 23.8026 6.04592 23.544 6.05505C23.5561 6.30454 23.5653 6.55404 23.5805 6.80658C23.9426 6.79137 24.3077 6.77007 24.6698 6.73355C24.6728 6.9009 24.6667 7.06825 24.6698 7.23255C24.3199 7.22951 23.9639 7.25081 23.614 7.26602L23.6079 7.26298ZM24.1038 5.35523C24.046 5.09356 23.9639 4.84406 23.8817 4.59457L24.2012 4.46069C24.2833 4.69497 24.3472 4.94143 24.402 5.18789L24.1038 5.35828V5.35523ZM24.6302 5.23961C24.5663 4.97185 24.4994 4.70715 24.4111 4.45765L24.7184 4.33594C24.8036 4.58239 24.8736 4.80451 24.9253 5.06009L24.6302 5.23961Z" fill="white"/>
<path d="M27.901 7.00716C27.6941 6.99499 27.5328 6.995 27.3685 6.995C27.1768 6.98891 25.8624 6.995 25.4029 7.01325C25.3969 6.83678 25.3847 6.61162 25.3816 6.48079C25.3756 6.41385 25.406 6.41081 25.4273 6.41385C25.4881 6.43211 25.6038 6.44124 25.6372 6.44428C25.8563 6.45645 26.0906 6.45341 26.3431 6.45341C26.8665 6.45341 27.332 6.43819 27.9192 6.4321C27.9071 6.60858 27.904 6.83069 27.901 7.00716Z" fill="white"/>
<path d="M31.1201 6.66121C31.1201 6.66121 31.0897 6.65208 31.0745 6.6399C30.8493 6.73118 30.4173 6.94113 30.2134 7.05371V7.73222H29.8453C29.8483 7.66528 29.8483 7.60139 29.8483 7.52532V7.27886C29.5988 7.42187 29.4741 7.60139 29.4741 7.8022C29.4741 7.97868 29.6171 8.06996 29.9 8.06996C30.2073 8.06996 30.4873 8.02127 30.8067 7.89348L30.7946 8.41073C30.5207 8.52027 30.2195 8.53853 30.0126 8.53853C29.4041 8.53853 29.0968 8.30424 29.0968 7.83263C29.0968 7.60443 29.182 7.39145 29.3523 7.19672C29.4588 7.07805 29.6171 6.95025 29.827 6.81942C29.8209 6.61861 29.7692 6.5182 29.681 6.5182C29.5653 6.5182 29.4588 6.57296 29.3615 6.68554C29.2976 6.75552 29.2185 6.84985 29.1211 6.98677C29.0055 7.14195 28.9355 7.24844 28.8929 7.30017C28.8351 7.22106 28.7499 7.10239 28.6343 6.93809C28.9811 6.60644 29.2428 6.20481 29.4193 5.74233C29.255 5.76667 29.0694 5.78492 28.8716 5.80014C28.8594 5.63279 28.8412 5.47761 28.8229 5.34069C29.115 5.34069 29.3554 5.32852 29.5349 5.29506C29.5714 5.16726 29.6049 4.96341 29.6414 4.68652L30.0613 4.80214C30.0856 4.81126 30.0978 4.82952 30.0978 4.85387C30.0978 4.88125 30.0826 4.90255 30.0491 4.9208C30.0339 4.99687 30.0035 5.11249 29.9639 5.26158C30.1069 5.24028 30.3169 5.17334 30.5451 5.09727L30.5086 5.58107C30.3382 5.62671 30.1069 5.6693 29.8209 5.71798C29.7783 5.85186 29.7053 6.01312 29.6292 6.15917C29.7053 6.13179 29.7661 6.12874 29.8057 6.12874C29.9943 6.12874 30.1191 6.28087 30.1769 6.60035C30.4264 6.44213 30.7094 6.27783 31.0167 6.11049L31.1597 6.60339C31.1597 6.63991 31.1475 6.65512 31.1232 6.65512L31.1201 6.66121Z" fill="white"/>
<path d="M34.2906 7.83851C34.1537 7.70159 34.0137 7.55859 33.8677 7.44297C33.7338 7.85372 33.4691 8.36185 33.1831 8.56266L32.8606 8.28882C33.1679 8.08192 33.4022 7.67116 33.5361 7.22389C33.3474 7.09914 33.1527 6.9957 32.9427 6.94093C32.891 7.0961 32.8423 7.25432 32.7815 7.40341C32.6354 7.77157 32.4377 8.14278 32.0999 8.13669C31.823 8.13061 31.6374 7.81112 31.6466 7.42775C31.6587 6.93484 31.9569 6.59406 32.2794 6.49974C32.4133 6.46018 32.5502 6.46018 32.6841 6.46627C32.7632 6.15591 32.8849 5.71778 32.964 5.38917L32.2703 5.43785L32.2216 4.95406H32.2581C32.4894 4.98145 33.1922 4.97841 33.393 4.90234C33.4296 4.98145 33.4722 5.06056 33.5178 5.13663C33.4113 5.40742 33.3292 5.59911 33.25 5.88208C33.1892 6.09507 33.1375 6.30805 33.0675 6.51495C33.2774 6.56667 33.4691 6.64578 33.6578 6.7614C33.7308 6.46627 33.7703 6.14375 33.7856 5.8334C33.9103 5.94293 34.035 6.04943 34.1537 6.16809C34.1233 6.44193 34.0837 6.71577 34.0168 6.97439C34.175 7.08089 34.3393 7.19042 34.4945 7.32734C34.4306 7.49773 34.3667 7.6742 34.2998 7.84459L34.2906 7.83851ZM32.0178 7.40645C32.0178 7.52208 32.0482 7.62552 32.1395 7.62856C32.1973 7.62856 32.2399 7.60423 32.2794 7.54946C32.389 7.41254 32.5046 7.06263 32.5624 6.87399C32.3312 6.8892 32.0269 7.02003 32.0178 7.40949V7.40645Z" fill="white"/>
<path d="M36.746 8.43788C36.3018 8.43788 36.3353 7.91454 36.3353 7.50379V7.09607C36.3353 6.97741 36.3353 6.83136 36.2136 6.83136C36.1831 6.83136 36.1557 6.84049 36.1253 6.84962C35.6233 7.01392 35.4346 7.87804 35.2795 8.42267C35.1456 8.34052 35.0147 8.26141 34.8839 8.1823C35.0208 7.75937 35.173 7.34861 35.3312 6.93176C35.5077 6.46928 35.6811 6.00376 35.8606 5.54128C35.961 5.28265 36.0523 5.02098 36.1618 4.77148C36.2835 4.83538 36.4691 4.92666 36.5817 5.00881C36.5939 5.01794 36.6061 5.03011 36.6061 5.0514C36.6061 5.08487 36.5756 5.10617 36.5482 5.10921C36.3261 5.54127 36.1253 6.00072 35.9215 6.44495C35.9002 6.48754 35.8819 6.5271 35.8606 6.56665C35.9975 6.47841 36.1497 6.40234 36.3048 6.40234C36.6274 6.40234 36.7278 6.67923 36.7308 7.05043C36.7308 7.27255 36.7278 7.49162 36.7308 7.71373C36.7308 7.82327 36.746 7.97844 36.8586 7.97844C37.0046 7.97844 37.1264 7.86587 37.2328 7.7472C37.3698 7.58899 37.4306 7.42468 37.528 7.22387C37.5827 7.42772 37.6345 7.62853 37.6832 7.83543C37.461 8.25228 37.1507 8.44397 36.7521 8.44701L36.746 8.43788Z" fill="white"/>
<path d="M39.6305 5.71449C39.4662 5.74492 39.3293 5.76621 39.168 5.78143C38.9946 6.3717 38.7634 7.13541 38.4378 7.67701C38.3191 7.60398 38.2035 7.52183 38.0909 7.43663C38.3891 6.93764 38.6082 6.32303 38.7725 5.77839C38.6112 5.78752 38.4043 5.77839 38.2431 5.76622C38.2431 5.62017 38.2431 5.47108 38.2461 5.31895C38.3039 5.33416 38.3617 5.34025 38.4226 5.34938C38.5717 5.36763 38.7238 5.37676 38.8729 5.37068C38.9338 5.12118 38.952 4.94165 38.9733 4.69824C39.1498 4.69824 39.311 4.71346 39.4358 4.72259C39.4175 4.87168 39.3384 5.19116 39.2837 5.36155C39.4206 5.34634 39.5545 5.30374 39.6883 5.26723C39.6701 5.41327 39.6488 5.56236 39.6305 5.71145V5.71449ZM40.589 8.32814C40.4581 8.15775 40.3212 7.98127 40.163 7.8474C40.163 7.89608 40.1599 7.94476 40.1539 7.9904C40.1204 8.43767 39.8526 8.53808 39.5484 8.51678C39.4419 8.50766 39.3354 8.48331 39.2319 8.43463C39.0342 8.33118 38.8394 8.09081 38.8607 7.78655C38.8942 7.3484 39.1863 7.14758 39.5027 7.17192C39.594 7.17801 39.6883 7.19626 39.7766 7.21756C39.7827 7.0137 39.7522 6.81289 39.7614 6.60903C39.7674 6.50558 39.7796 6.4143 39.8161 6.31389C39.9165 6.31998 40.0169 6.32303 40.1204 6.32911C40.1417 6.32911 40.2391 6.31694 40.236 6.36867C40.236 6.3778 40.236 6.38388 40.233 6.38692C40.1873 6.46299 40.166 6.55731 40.16 6.64859C40.1478 6.87983 40.1721 7.11412 40.1721 7.3484C40.4094 7.4762 40.6772 7.6983 40.8628 7.92042C40.7746 8.06038 40.6833 8.20339 40.5859 8.33118L40.589 8.32814ZM39.7766 7.63745C39.7066 7.59181 39.6244 7.5766 39.5392 7.57051C39.4115 7.56138 39.2502 7.59182 39.235 7.79568C39.2198 7.99649 39.4084 8.10298 39.5392 8.11211C39.664 8.12123 39.7583 8.09993 39.7705 7.91129C39.7766 7.82001 39.7766 7.72873 39.7766 7.63745ZM40.7076 6.14655C40.4794 5.91835 40.1995 5.83925 39.9196 5.75101L40.1082 5.33416C40.3882 5.42544 40.6894 5.48934 40.9145 5.72971L40.7076 6.14655Z" fill="white"/>
<path d="M17.3826 13.7594C17.1331 13.9602 16.838 14.0515 16.5489 14.0515C16.1016 14.0515 15.8217 13.7046 15.7974 13.093C15.7913 13.0109 15.7943 12.9287 15.7943 12.8496C15.7943 12.6184 15.7974 12.3871 15.8035 12.1498C15.8126 11.596 15.8187 11.0362 15.8248 10.4824C15.9221 10.5007 16.0225 10.522 16.1199 10.5463C16.1595 10.5554 16.2051 10.5585 16.2416 10.5767C16.266 10.5889 16.2964 10.6072 16.2964 10.6437C16.2964 10.6772 16.272 10.7045 16.2507 10.7167C16.2142 11.4652 16.1838 12.2198 16.1838 12.9683C16.1838 13.3486 16.3085 13.5829 16.6037 13.5829C16.7376 13.5829 16.8775 13.5373 17.0023 13.4581C17.2913 13.2908 17.4921 12.9287 17.6351 12.5606L17.8664 13.1204C17.7538 13.3577 17.5621 13.6133 17.3826 13.7594Z" fill="white"/>
<path d="M20.5166 11.1029C20.5166 11.1029 20.4892 11.0968 20.477 11.0968C20.3371 11.0908 20.191 11.106 20.051 11.1699C19.6555 11.3463 19.3482 11.9062 19.3269 12.5086C19.2965 13.3971 19.8654 13.5249 20.3462 13.5462C20.3158 13.7135 20.2853 13.8839 20.2488 14.0482C20.2275 14.0482 20.2062 14.0482 20.1849 14.0482C19.9719 14.0391 19.7224 13.9752 19.5277 13.8657C19.1595 13.6588 18.8766 13.0624 18.8979 12.4721C18.9161 11.9518 19.05 11.5593 19.3086 11.176C18.9466 11.2064 18.5845 11.252 18.2255 11.3129C18.2255 11.1425 18.2194 10.9721 18.2224 10.8017C18.8462 10.7804 19.4638 10.7469 20.0845 10.6435C20.2306 10.6161 20.3736 10.5857 20.5166 10.54C20.5227 10.607 20.5622 11.033 20.5592 11.0664C20.5592 11.1029 20.5379 11.109 20.5166 11.109V11.1029Z" fill="white"/>
<path d="M23.7265 11.4376C23.6748 11.608 23.6322 11.7875 23.5743 11.9518C23.3614 12.5573 23.1423 13.0198 22.768 13.4549C22.5003 13.7592 22.1991 14.0087 21.8735 14.17C21.7609 14.03 21.6453 13.8931 21.5266 13.7653C21.7062 13.674 21.8826 13.5827 22.05 13.4549C22.2508 13.2876 22.4546 13.1111 22.6189 12.8768C22.8989 12.4813 23.0966 12.034 23.2305 11.5046L22.482 11.5198C22.2843 11.9123 22.0408 12.2866 21.764 12.5786C21.6636 12.46 21.5631 12.3352 21.4536 12.2257C21.9191 11.748 22.2477 11.0634 22.4425 10.3027L22.8624 10.5005C22.8837 10.5096 22.9019 10.534 22.9019 10.5674C22.9019 10.61 22.8654 10.6283 22.8411 10.6283C22.7924 10.7561 22.7528 10.89 22.6981 11.0086C22.9689 11.0086 23.2366 11.0025 23.5074 11.0025C23.5622 11.0025 23.623 10.9965 23.6808 10.9782C23.7204 11.0573 23.766 11.1303 23.8025 11.2125C23.7782 11.2886 23.7508 11.3646 23.7295 11.4346L23.7265 11.4376Z" fill="white"/>
<path d="M25.19 10.814V10.9935C25.19 11.5686 25.19 12.1467 25.1931 12.7217H24.7367C24.7397 12.6152 24.7427 12.5057 24.7427 12.4053V11.7694C24.7427 11.3921 24.7397 11.0148 24.7245 10.6405L25.2052 10.6923C25.2235 10.6923 25.2387 10.7075 25.2387 10.7318C25.2387 10.7683 25.2083 10.7957 25.187 10.814H25.19ZM26.5349 10.8201C26.5349 11.0817 26.541 11.3373 26.541 11.599C26.541 12.3536 26.5257 13.0838 26.1302 13.6954C26.0085 13.881 25.8624 14.0392 25.6829 14.1548C25.5643 14.0575 25.4365 13.9388 25.3087 13.8597C25.4547 13.7532 25.6221 13.6102 25.7346 13.4489C26.0693 12.9743 26.0876 12.4023 26.0876 11.7968C26.0876 11.4012 26.0663 11.0087 26.048 10.6162L26.5257 10.671C26.5531 10.6771 26.5836 10.6923 26.5836 10.7318C26.5836 10.7714 26.5562 10.8018 26.5318 10.8201H26.5349Z" fill="white"/>
<path d="M29.821 12.5087C29.6171 12.4965 29.4558 12.4965 29.2915 12.4965C29.0998 12.4934 27.8311 12.4965 27.3747 12.5147C27.3686 12.3443 27.3564 12.1253 27.3534 11.9944C27.3503 11.9305 27.3807 11.9245 27.402 11.9305C27.4629 11.9488 27.5785 11.9549 27.6089 11.961C27.828 11.9731 28.254 11.9701 28.5035 11.9701C29.0238 11.9701 29.2581 11.9579 29.8392 11.9488C29.8301 12.1192 29.827 12.3413 29.821 12.5117V12.5087Z" fill="white"/>
<path d="M31.2905 13.6616C31.111 13.7681 30.9315 13.8533 30.7368 13.9111C30.7185 13.8563 30.5208 13.336 30.5208 13.336C30.5208 13.3178 30.536 13.3178 30.5451 13.3178C30.5877 13.3178 30.6364 13.3086 30.679 13.2934C31.0289 13.2021 31.3666 12.9952 31.68 12.7518C32.1029 12.4232 32.4985 12.0094 32.8514 11.5317C32.8788 11.7569 32.9092 11.982 32.9366 12.2102C32.4498 12.8492 31.896 13.3086 31.2875 13.6646L31.2905 13.6616ZM31.2206 11.8025C31.0319 11.483 30.8281 11.194 30.5938 10.9445C30.7155 10.8167 30.8311 10.6767 30.9528 10.5459C31.178 10.7863 31.3788 11.0692 31.5583 11.3887C31.4579 11.5439 31.3423 11.6747 31.2236 11.8025H31.2206Z" fill="white"/>
<path d="M34.3667 13.9809C34.245 13.9931 34.1263 14.0113 34.0016 14.0296C33.8525 13.4941 33.8281 12.9129 33.8281 12.3439C33.8281 11.708 33.9011 11.0691 34.0016 10.4453L34.2937 10.5214C34.3362 10.5366 34.3941 10.5396 34.4367 10.5609C34.458 10.5701 34.4732 10.5822 34.4732 10.6187C34.4732 10.6553 34.4427 10.6766 34.4184 10.6766C34.2845 11.3003 34.2237 12.0001 34.2237 12.6452C34.2237 12.8064 34.2298 12.9616 34.2298 13.1259C34.2906 12.9251 34.3484 12.7182 34.4123 12.5174C34.4945 12.6026 34.5797 12.6908 34.6618 12.776C34.5158 13.1746 34.4093 13.5306 34.3636 13.9809H34.3667ZM36.4965 13.7709C36.3109 13.8166 36.0706 13.8166 35.885 13.8074C35.4073 13.7922 34.96 13.704 34.9022 12.8916C35.0148 12.7973 35.1273 12.6969 35.243 12.6086C35.243 13.0711 35.4377 13.278 35.7511 13.2872C35.9975 13.2963 36.2683 13.278 36.5057 13.1868C36.5057 13.3815 36.4996 13.5732 36.4996 13.7709H36.4965ZM36.3748 11.3733C36.1162 11.3125 35.8606 11.2942 35.599 11.3186C35.4194 11.3368 35.2399 11.3733 35.0634 11.422C35.0482 11.2607 35.0391 11.063 35.0239 10.9048C35.2734 10.8287 35.529 10.8287 35.7846 10.8043C35.9945 10.783 36.2044 10.8043 36.4174 10.8409C36.4053 11.0173 36.3961 11.1968 36.3809 11.3733H36.3748Z" fill="white"/>
<path d="M42.1041 8.3945C41.9855 8.40667 41.8699 8.42492 41.7482 8.44317C41.6021 7.90766 41.5778 7.32956 41.5778 6.76363C41.5778 6.13075 41.6508 5.4918 41.7482 4.87109L42.0311 4.94716C42.0737 4.96237 42.1285 4.96542 42.1711 4.98672C42.1924 4.99584 42.2076 5.00802 42.2076 5.04453C42.2076 5.08104 42.1772 5.10234 42.1559 5.10234C42.025 5.72304 41.9672 6.42285 41.9672 7.06485C41.9672 7.22611 41.9733 7.38129 41.9733 7.54255C42.0311 7.34173 42.0889 7.13483 42.1498 6.93402C42.2319 7.01921 42.3141 7.10745 42.3932 7.19264C42.2502 7.58819 42.1467 7.94723 42.1041 8.3945ZM44.2127 8.13282C44.0332 8.17846 43.7989 8.17542 43.6163 8.16933C43.1508 8.15412 42.7157 8.06588 42.6579 7.25654C42.7674 7.16221 42.877 7.06181 42.9896 6.97357C42.9896 7.43301 43.1782 7.63992 43.4825 7.65209C43.7228 7.66122 43.9875 7.64295 44.2157 7.55167C44.2157 7.74336 44.2097 7.93809 44.2097 8.13282H44.2127ZM44.094 5.7413C43.8415 5.68045 43.595 5.66218 43.3395 5.68652C43.163 5.70174 42.9896 5.74129 42.8161 5.78997C42.8009 5.62871 42.7918 5.43095 42.7766 5.27273C43.02 5.19666 43.2664 5.19666 43.5159 5.17231C43.7228 5.15102 43.9267 5.17232 44.1305 5.20883C44.1184 5.38531 44.1093 5.56482 44.094 5.7413Z" fill="white"/>
<path d="M13.8623 12.2288C13.6645 12.3779 13.5276 12.7826 13.5854 13.1234C13.6523 13.5281 14.1057 13.5707 14.343 13.5676C14.4191 13.5676 14.4982 13.5585 14.5742 13.5494C14.5408 13.7076 14.5012 13.8597 14.4677 14.0149H14.3978C13.9353 14.0271 13.272 13.951 13.1959 13.1812C13.1503 12.7096 13.2689 12.3384 13.4485 12.1132C13.062 12.1832 12.6756 12.2836 12.3044 12.4266C12.2801 12.2714 12.2436 12.1163 12.2131 11.9641C12.4109 11.9124 12.63 11.8941 12.8186 11.7937C13.0134 11.6903 13.4393 11.1304 13.5975 10.9144C13.3663 10.9388 13.1351 10.957 12.9069 10.9479C12.9069 10.8018 12.9008 10.6558 12.8886 10.5128C13.2294 10.5341 13.5884 10.5523 13.9292 10.4854C14.0205 10.4671 14.1057 10.4245 14.1878 10.3789C14.2578 10.5067 14.3247 10.6406 14.3856 10.7744C14.0479 11.0422 13.7132 11.4317 13.4089 11.7633C13.8927 11.6842 14.3826 11.6264 14.8663 11.5838C14.8663 11.7481 14.8663 11.9155 14.8633 12.0828C14.5773 12.0554 14.1178 12.0402 13.8592 12.2319L13.8623 12.2288Z" fill="white"/>
</svg>
