<svg width="50" height="50" viewBox="0 0 50 50" fill="none" xmlns="http://www.w3.org/2000/svg">
<path d="M50 0H0V50H50V0Z" fill="#970B31"/>
<path d="M3.91284 11.1271C3.91284 10.5946 4.00716 10.1321 4.19581 9.73964C4.38445 9.34713 4.66133 9.05808 5.03254 8.86944C4.74349 8.65645 4.50616 8.37348 4.32664 8.01749C4.14713 7.6615 4.05585 7.2264 4.05585 6.71828C4.05585 5.93327 4.26274 5.32474 4.67959 4.8866C5.09643 4.4515 5.6928 4.23242 6.46867 4.23242C7.24455 4.23242 7.83787 4.44845 8.24558 4.88051C8.6533 5.31257 8.85716 5.91198 8.85716 6.68177C8.85716 7.21423 8.77197 7.6615 8.59853 8.02358C8.4251 8.38566 8.19386 8.66862 7.90481 8.87248C8.27297 9.06112 8.55289 9.3593 8.74154 9.76702C8.93018 10.1747 9.02451 10.6585 9.02451 11.2153C9.02451 12.1007 8.82065 12.7914 8.41293 13.2874C8.00522 13.7803 7.35713 14.0298 6.47171 14.0298C4.76783 14.0298 3.91892 13.0653 3.91892 11.1332L3.91284 11.1271ZM7.08633 12.2529C7.19283 11.973 7.24455 11.623 7.24455 11.2001C7.24455 10.7285 7.19283 10.3573 7.08633 10.0804C6.97984 9.80657 6.77294 9.66965 6.46867 9.66965C6.16441 9.66965 5.95751 9.80962 5.85101 10.0865C5.74452 10.3664 5.69279 10.7346 5.69279 11.2001C5.69279 11.623 5.74452 11.976 5.85101 12.2529C5.95751 12.5328 6.16441 12.6697 6.46867 12.6697C6.77294 12.6697 6.97984 12.5298 7.08633 12.2529ZM7.13806 6.71523C7.13806 6.37141 7.08329 6.09757 6.97376 5.89676C6.86422 5.69594 6.69383 5.59554 6.46867 5.59554C6.24352 5.59554 6.06704 5.69594 5.95142 5.89676C5.83276 6.09757 5.77495 6.36837 5.77495 6.71523C5.77495 7.69497 6.00619 8.18788 6.46867 8.18788C6.93116 8.18788 7.1411 7.69801 7.1411 6.71523H7.13806Z" fill="white"/>
<path d="M34.5311 24.5969L29.4255 29.453C29.2338 29.6447 29.1334 29.7846 29.1334 30.1832V43.7961C29.1334 43.9543 29.2643 44.0851 29.4255 44.0851H34.6984C34.8597 44.0851 34.9875 43.9543 34.9875 43.7961V24.7216C34.9875 24.5604 34.8628 24.2683 34.5281 24.5999" fill="white"/>
<path d="M19.823 30.9232L14.7174 35.7793C14.5257 35.9709 14.4253 36.1109 14.4253 36.5095V43.7936C14.4253 43.9518 14.5561 44.0827 14.7174 44.0827H19.9903C20.1516 44.0827 20.2824 43.9518 20.2824 43.7936V31.0449C20.2824 30.8836 20.1546 30.5915 19.823 30.9232Z" fill="white"/>
<path d="M36.8497 18.7068C36.8497 18.6673 36.8375 18.6277 36.8071 18.5973C36.7797 18.5699 36.7462 18.5577 36.7128 18.5547H36.6854L36.6428 18.5577L32.733 19.4401L32.663 19.4462C32.6356 19.4523 32.6082 19.4644 32.5869 19.4857C32.5291 19.5436 32.5291 19.6379 32.5869 19.6957L32.6326 19.7413L33.5241 20.6328L24.6669 29.49L20.5745 25.3976C20.5289 25.352 20.4558 25.352 20.4072 25.3976L19.2966 26.5082L12.7366 33.0651C12.691 33.1108 12.691 33.1868 12.7366 33.2325L13.8472 34.343C13.8928 34.3887 13.9659 34.3887 14.0115 34.343L20.4893 27.8683L23.459 30.8379C23.459 30.8379 23.465 30.847 23.4681 30.8531L24.5786 31.9637C24.6243 32.0093 24.6973 32.0093 24.746 31.9637L34.7989 21.9107L35.7361 22.8479C35.7939 22.9057 35.8882 22.9057 35.946 22.8479C35.9734 22.8205 35.9856 22.787 35.9886 22.7505V22.7383L36.8466 18.7464V18.7038L36.8497 18.7068Z" fill="white"/>
<path d="M27.2044 31.7778L24.7338 34.2697C24.6881 34.3093 24.6181 34.3063 24.5756 34.2637L22.3362 31.9817C21.9254 31.574 21.8372 31.9056 21.8372 32.0638V43.7963C21.8372 43.9545 21.965 44.0854 22.1262 44.0854H27.4022C27.5604 44.0854 27.6912 43.9545 27.6912 43.7963V31.8721C27.6912 31.7109 27.5634 31.4188 27.2014 31.7809" fill="white"/>
<path d="M16.9934 7.52437C16.9629 8.03858 16.8169 8.25765 16.3757 8.37327L16.1323 8.01728C16.4396 7.95642 16.5583 7.87427 16.5887 7.49394C16.6282 6.95843 16.6282 6.4138 16.6282 5.8722H16.5065C16.4883 6.3712 16.4609 6.8702 16.3392 7.3479C16.2449 7.70693 16.0562 8.14507 15.8037 8.38848L15.4659 8.14507C15.5329 8.07205 15.6059 8.00511 15.6637 7.92295C15.3442 7.99293 15.0248 8.05683 14.7053 8.12985C14.7022 8.16332 14.684 8.19375 14.6505 8.19375C14.6201 8.19375 14.5988 8.16332 14.5897 8.1329L14.4345 7.75561C14.6323 7.73431 14.827 7.70389 15.0248 7.67954V7.4696H14.5197V7.15316H15.0248V7.00711H14.5288V5.75963H15.0217V5.61662H14.5197V5.27888H15.0217V5.10241C14.9 5.11154 14.7813 5.12067 14.6566 5.13284L14.5531 4.94419C14.5105 5.11153 14.4679 5.28192 14.4223 5.44927C14.4132 5.4797 14.3706 5.60749 14.3706 5.62879V8.3824H13.9781V6.45335C13.9294 6.53551 13.8838 6.61157 13.829 6.68459L13.5886 6.3286C13.9203 5.87829 14.1241 5.02939 14.2124 4.44824L14.6444 4.60646C14.6596 4.61254 14.6809 4.63689 14.6809 4.65819C14.6809 4.69166 14.6323 4.70991 14.611 4.71295L14.5957 4.77685C14.8787 4.74642 15.469 4.67035 15.7154 4.53647L15.9893 4.96245C15.9893 4.99592 15.9649 5.00809 15.9376 5.00809C15.9163 5.00809 15.8889 4.99896 15.8706 4.98374C15.7124 5.01721 15.5511 5.03852 15.3929 5.0659V5.27585H15.9436V5.49492H16.1323V4.49388L16.543 4.54865C16.5674 4.55169 16.613 4.56995 16.613 4.6095C16.613 4.64297 16.5887 4.67035 16.5613 4.68252C16.5552 4.95332 16.543 5.22716 16.5339 5.49795C16.6982 5.49491 16.8625 5.48883 17.0299 5.48883C17.0268 6.16734 17.0299 6.84585 16.9903 7.52132L16.9934 7.52437ZM15.0369 6.02434H14.8544V6.25558H15.0369V6.02434ZM15.0369 6.52942H14.8544V6.73936H15.0369V6.52942ZM15.542 6.02434H15.3777V6.25558H15.542V6.02434ZM15.5511 6.52942H15.3777V6.73936H15.5511V6.52942ZM15.9345 5.87525V5.61662H15.3868V5.75963H15.8676V7.00711H15.3868V7.15316H15.8584V7.46351H15.3868V7.63999C15.5329 7.61869 15.6759 7.58826 15.825 7.56392L15.8037 7.70997C16.0775 7.18664 16.111 6.48073 16.1232 5.87829H15.9345V5.87525Z" fill="white"/>
<path d="M19.8838 6.2744C20.0085 6.55736 20.1667 6.81598 20.3615 7.0381C20.2793 7.16285 20.1941 7.27847 20.1059 7.39409C19.7864 7.21762 19.4639 7.13547 19.114 7.13547C18.9649 7.13547 18.6332 7.20849 18.6332 7.44581C18.6332 7.8231 19.1383 7.85049 19.3696 7.85049C19.6373 7.85049 19.8686 7.79876 20.1302 7.75312C20.0937 7.91743 20.0663 8.07869 20.0359 8.243C19.8564 8.27342 19.6769 8.29472 19.4974 8.29472C19.0288 8.29472 18.2073 8.23387 18.2073 7.49754C18.2073 6.96203 18.7276 6.77947 19.1049 6.77947C19.327 6.77947 19.4791 6.81294 19.6921 6.85554C19.6191 6.69123 19.543 6.52997 19.473 6.36263C19.0501 6.44782 18.5663 6.50867 18.1373 6.52389L18.043 6.09487C18.4689 6.08574 18.898 6.06749 19.3178 5.96709C19.2722 5.83625 19.2326 5.70846 19.1961 5.58067C18.8888 5.64761 18.5815 5.69628 18.2651 5.71454C18.2255 5.57762 18.189 5.43766 18.1525 5.2977C18.4659 5.27944 18.7793 5.2551 19.0927 5.18207C19.0379 4.97517 18.9953 4.76219 18.9588 4.55225C19.1079 4.54008 19.26 4.52182 19.4091 4.5127H19.4243C19.4517 4.5127 19.4821 4.52486 19.4821 4.56442C19.4821 4.5918 19.4639 4.61614 19.4456 4.63135C19.4639 4.77436 19.4852 4.91433 19.5156 5.05733C19.6921 5.00561 19.8625 4.91737 20.0268 4.81392C20.0572 4.97213 20.0937 5.13036 20.1211 5.29466C19.9538 5.35856 19.7803 5.41941 19.6069 5.47418C19.6464 5.6111 19.6951 5.74498 19.7469 5.87581C20.0389 5.80279 20.328 5.68411 20.6049 5.55328C20.6384 5.71758 20.6566 5.87885 20.684 6.03707C20.4223 6.14356 20.1546 6.21354 19.8868 6.27135L19.8838 6.2744Z" fill="white"/>
<path d="M23.1944 7.99651C23.0818 8.11213 22.9266 8.13038 22.7806 8.13038C22.6589 8.13038 22.5341 8.09692 22.4215 8.03911C22.4063 7.87785 22.3972 7.71659 22.3789 7.55533C22.5037 7.63139 22.6436 7.67399 22.7836 7.67399C23.0818 7.67399 23.0757 6.70946 23.0757 6.46605C23.0757 6.28958 23.0787 5.97619 22.8688 5.97619C22.7958 5.97619 22.7228 5.99444 22.6497 6.00965C22.5037 6.63035 22.1903 7.62531 21.8647 8.14256C21.7217 8.06649 21.5909 7.97825 21.4479 7.91131C21.7887 7.38493 22.0382 6.71859 22.1903 6.08572C22.0199 6.11919 21.8526 6.16178 21.6882 6.21047C21.6761 6.16178 21.5818 5.75103 21.5818 5.75103C21.5818 5.72973 21.6061 5.72669 21.6183 5.72669C21.6517 5.72669 21.6791 5.73581 21.7126 5.73581C21.8982 5.73581 22.0929 5.69627 22.2816 5.65671C22.3516 5.32202 22.3911 4.98124 22.4124 4.63437C22.5219 4.66176 22.6284 4.69522 22.7349 4.72869C22.7836 4.74391 22.8384 4.75912 22.8871 4.78042C22.9053 4.78955 22.9357 4.80172 22.9357 4.83214C22.9357 4.85953 22.9084 4.8717 22.8931 4.87778C22.8505 5.11815 22.8019 5.36157 22.741 5.60194C22.814 5.59281 22.8871 5.58064 22.9601 5.58064C23.2096 5.58064 23.3617 5.65671 23.4439 5.94576C23.5047 6.13745 23.5169 6.39303 23.5169 6.59689C23.5169 6.98635 23.4621 7.72572 23.1974 7.99347L23.1944 7.99651ZM23.7329 5.29463C23.6508 5.0786 23.5595 4.87779 23.453 4.6861L23.7512 4.5431C23.8516 4.73174 23.9337 4.92951 24.0128 5.13641L23.7329 5.29463ZM24.1072 7.18717C24.025 7.06242 23.9368 6.94679 23.8516 6.83117C23.9581 6.80987 24.2258 6.74293 24.2258 6.58167C24.2258 6.30783 23.8668 5.80884 23.6964 5.62628C23.8364 5.5563 23.9763 5.48023 24.1072 5.39504C24.3262 5.67496 24.6914 6.28654 24.6914 6.67296C24.6914 6.99548 24.3202 7.11414 24.1072 7.18717ZM24.2228 5.14554C24.1467 4.93255 24.0524 4.72869 23.9459 4.53701L24.2289 4.38184C24.3354 4.57352 24.4297 4.77129 24.5027 4.98732L24.2197 5.14554H24.2228Z" fill="white"/>
<path d="M26.5959 8.03031C26.4894 8.0364 26.386 7.9938 26.3038 7.91774C25.9722 7.60434 25.8444 6.9958 25.8109 6.52419C25.7835 6.13169 25.7957 5.73615 25.8353 5.34365C25.8474 5.19152 25.8565 5.04546 25.8778 4.89941C25.9935 4.9268 26.3038 5.01199 26.4042 5.0698C26.4194 5.07893 26.4316 5.09415 26.4347 5.11545C26.4377 5.16109 26.3951 5.19152 26.3647 5.20064C26.3008 5.4258 26.2704 5.83047 26.2612 6.07084C26.2521 6.2534 26.2643 6.43292 26.2764 6.61548C26.2886 6.80412 26.3251 7.00798 26.389 7.18141C26.4164 7.26356 26.4803 7.45525 26.5716 7.44916C26.748 7.43699 26.9428 6.85889 27.0097 6.68242L27.2653 7.22096C27.1679 7.51306 26.885 8.00901 26.5929 8.03031H26.5959ZM28.2085 7.26052C28.1385 6.56984 27.9773 6.00086 27.6152 5.44101C27.7673 5.37103 27.9104 5.28887 28.0625 5.22194C28.382 5.69963 28.6041 6.45117 28.6832 7.04753C28.525 7.12664 28.3667 7.19663 28.2085 7.26357V7.26052Z" fill="white"/>
<path d="M31.2208 8.27345C30.7066 8.2765 30.2076 8.06047 30.2015 7.36675C30.2015 7.2633 30.2137 7.15984 30.2198 7.05944C29.952 6.96511 29.5899 6.84341 29.5839 6.44482C29.5839 6.27139 29.6782 6.04624 29.7451 5.8941C29.8851 5.92453 30.025 5.96713 30.1589 5.99755C30.0981 6.08579 29.9794 6.25009 29.9794 6.37484C29.9824 6.52393 30.1924 6.59087 30.2928 6.61521C30.3506 6.27443 30.4175 5.94278 30.4754 5.602C30.4084 5.68415 30.3476 5.76631 30.2837 5.84542C30.095 5.65982 29.8973 5.49855 29.6964 5.33729C29.7786 5.2095 29.8607 5.08171 29.949 4.95088C30.1437 5.09692 30.3263 5.25514 30.4967 5.42249C30.5545 5.1456 30.6001 4.85046 30.6153 4.56445C30.734 4.58575 30.8557 4.62226 30.9713 4.64965C31.02 4.65878 31.0717 4.67095 31.1174 4.6892C31.1417 4.69833 31.1691 4.71051 31.1691 4.74398C31.1691 4.78962 31.1234 4.83526 31.0991 4.85656C31.0717 4.95088 31.0504 5.05433 31.0291 5.14865C30.9835 5.34946 30.9409 5.55332 30.8922 5.75413C30.8222 6.07057 30.7492 6.39309 30.6944 6.71562C30.8405 6.743 30.9926 6.743 31.1387 6.75517L31.0717 7.17201C30.9287 7.17201 30.7827 7.15984 30.6397 7.1355C30.6275 7.1994 30.6275 7.26025 30.6275 7.32415C30.6305 7.68318 30.88 7.82923 31.16 7.82618C31.4734 7.8201 31.6103 7.6345 31.6072 7.27851C31.6072 6.86775 31.306 6.4722 31.0687 6.2014C31.2086 6.14664 31.3425 6.07666 31.4703 6.00668C31.8233 6.39614 32.0788 6.80689 32.088 7.40021C32.0971 7.97832 31.6742 8.26129 31.2178 8.27042L31.2208 8.27345Z" fill="white"/>
<path d="M14.2367 12.4477C14.1728 12.758 14.0876 13.1931 13.9385 13.4517L13.6312 13.2935C13.7742 12.9801 13.8746 12.5694 13.9051 12.2164L14.2367 12.3412C14.2611 12.3503 14.2763 12.3716 14.2763 12.402C14.2763 12.4233 14.2519 12.4416 14.2367 12.4477ZM16.9021 12.1769C16.5522 12.0552 16.2175 11.8635 15.9254 11.6018C15.7033 11.8178 15.4812 11.9791 15.2104 12.1038L15.0582 11.8756L15.1008 12.0643C15.0095 12.116 14.9122 12.1495 14.8148 12.189C14.7966 12.116 14.7753 12.04 14.757 11.9669L14.6627 11.9852V13.7104H14.2915V12.0278C14.1089 12.0491 13.9324 12.0795 13.7529 12.1008L13.7134 11.7266C13.7864 11.7174 13.8625 11.7326 13.9294 11.7053C14.0511 11.5501 14.1637 11.3827 14.2732 11.2154C14.1089 11.1332 13.9477 11.0602 13.7742 11.0237V10.8351C14.0389 10.5308 14.258 10.1809 14.4436 9.80664C14.5714 9.86141 14.6962 9.93139 14.8179 10.0044C14.8483 10.0227 14.897 10.047 14.897 10.0957C14.897 10.1383 14.8361 10.1505 14.8087 10.1505C14.617 10.3726 14.4254 10.5947 14.2185 10.8016C14.2945 10.8442 14.3675 10.8898 14.4375 10.9355C14.5106 10.8229 14.5744 10.7073 14.6353 10.5886C14.6931 10.6251 15.0126 10.8198 15.0126 10.8898C15.0126 10.9355 14.9578 10.9446 14.9304 10.9355C14.7266 11.1941 14.5227 11.4527 14.3097 11.7083C14.4314 11.6961 14.5501 11.6779 14.6749 11.6657C14.6536 11.5927 14.6292 11.5166 14.6018 11.4466C14.6992 11.4071 14.7966 11.3645 14.8939 11.3219C14.9396 11.4619 14.9822 11.6049 15.0217 11.7479C15.2225 11.6535 15.4842 11.4953 15.6516 11.328C15.4751 11.1332 15.3047 10.9385 15.1678 10.7042L15.4051 10.4608H15.0552V10.0866H16.75V10.4091C16.6404 10.7316 16.4122 11.0724 16.2084 11.3128C16.4335 11.5288 16.8534 11.687 17.1303 11.7813C17.0481 11.9091 16.9751 12.046 16.899 12.1799L16.9021 12.1769ZM14.8939 13.1353C14.8148 12.8828 14.7601 12.615 14.7053 12.3533L15.0095 12.2286C15.0552 12.4903 15.11 12.7489 15.1921 12.9954L14.8909 13.1323L14.8939 13.1353ZM14.973 13.6221V13.2661H15.7459V12.755H15.1739V12.399H15.7398V11.9152C15.8372 11.9274 15.9376 11.9365 16.038 11.9487C16.0806 11.9517 16.1232 11.9517 16.1688 11.9669C16.1871 11.97 16.2053 11.9852 16.2053 12.0095C16.2053 12.043 16.1718 12.0704 16.1475 12.0795V12.399H16.7743V12.755H16.1475V13.2661H16.969V13.6221H14.9761H14.973ZM15.5298 10.4578C15.6302 10.6738 15.7641 10.8624 15.9132 11.0328C16.0441 10.8777 16.1688 10.6586 16.2449 10.4578H15.5298Z" fill="white"/>
<path d="M18.2347 11.7147C18.037 11.5656 17.8331 11.4135 17.6201 11.2888L17.8818 10.878C18.0339 10.9662 18.3291 11.2249 18.4538 11.3679L18.2378 11.7147H18.2347ZM18.1069 13.592C18.1191 13.6103 18.1252 13.6346 18.1252 13.6559C18.1252 13.6772 18.1069 13.6925 18.0887 13.6925C18.0552 13.6925 17.6962 13.443 17.6475 13.4095C17.8544 13.0444 18.037 12.3872 18.1343 11.9642L18.4812 12.2898C18.3625 12.7279 18.2439 13.16 18.1039 13.589L18.1069 13.592ZM18.323 10.6376C18.1495 10.5038 17.9761 10.3699 17.7905 10.2634L18.0735 9.85262C18.1891 9.94694 18.4629 10.1873 18.5451 10.306L18.323 10.6376ZM20.8849 12.0616C20.7601 12.0251 20.6384 11.9886 20.5198 11.9399V13.6864H20.1212V12.9683H19.2114C19.0928 13.2847 18.9771 13.5434 18.7307 13.7533L18.4142 13.5129C18.8585 13.1356 18.9345 12.5058 18.9345 11.9034C18.8128 11.9551 18.6881 12.0068 18.5573 12.0373L18.3564 11.6813C18.7003 11.6021 19.0867 11.4957 19.3849 11.2796C19.1993 11.1001 19.041 10.8932 18.9041 10.662H18.5846V10.2877H19.4366V9.79785L19.893 9.82828C19.9204 9.82828 19.9599 9.8587 19.9599 9.89826C19.9599 9.94085 19.9173 9.96216 19.8869 9.97129V10.2877H20.891V10.662H20.5046C20.3737 10.9023 20.2003 11.1032 20.0177 11.2827C20.2733 11.4622 20.7784 11.5839 21.0766 11.6265L20.8788 12.0616H20.8849ZM20.1212 12.3354H19.321C19.3118 12.4328 19.3027 12.5362 19.2875 12.6366H20.1212V12.3354ZM20.1212 11.7969C19.9782 11.7117 19.8321 11.6204 19.6952 11.52C19.5796 11.5961 19.4609 11.66 19.3362 11.7239C19.3362 11.8182 19.3362 11.9095 19.3331 12.0038H20.1212V11.7969ZM19.3605 10.6589C19.4579 10.808 19.5705 10.951 19.7043 11.0545C19.826 10.951 19.9325 10.8111 20.0147 10.6589H19.3605Z" fill="white"/>
<path d="M24.6638 13.7106C24.3261 13.4885 24.104 13.2542 23.8514 12.9073C23.6111 13.2451 23.3068 13.525 22.96 13.6863L22.6587 13.3972C23.0512 13.1903 23.3829 12.9378 23.6263 12.5088C23.3768 12.0158 23.2612 11.4682 23.1942 10.8992H22.3027V10.9205C22.3027 11.0817 22.3058 11.24 22.3058 11.4012H23.1729C23.1669 11.7298 23.1669 12.0615 23.1243 12.384C23.0543 12.9165 22.8869 13.0869 22.4397 13.1325L22.2388 12.7856C22.6831 12.7339 22.7409 12.5574 22.75 12.0584V11.7633H22.2997C22.2997 12.381 22.2023 13.2268 21.8311 13.6863L21.4873 13.4368C21.8646 12.9986 21.892 12.2745 21.892 11.6842C21.892 11.2917 21.8676 10.8931 21.8616 10.5006H23.1729C23.1516 10.242 23.1425 9.98031 23.1364 9.72168L23.6172 9.78254C23.6445 9.78558 23.6932 9.80079 23.6932 9.84338C23.6932 9.88294 23.6537 9.9225 23.6232 9.93467C23.6202 10.0412 23.6202 10.1385 23.6202 10.245C23.6202 10.3272 23.6202 10.4154 23.6232 10.4976H24.7977V10.9053H23.6415C23.6689 11.2978 23.745 11.6842 23.8667 12.0493C23.9884 11.7724 24.0736 11.4164 24.1222 11.1091L24.5817 11.3982C24.606 11.4104 24.6273 11.4469 24.6273 11.4773C24.6273 11.526 24.5543 11.5412 24.5239 11.5473C24.4143 11.885 24.2957 12.2197 24.1222 12.5179C24.3413 12.8587 24.6608 13.0869 24.9772 13.2785L24.6699 13.7076L24.6638 13.7106ZM24.5543 10.0503C24.4661 10.1963 24.3809 10.3424 24.2896 10.4823L23.9519 10.3637C24.031 10.1598 24.104 9.94988 24.1588 9.73081L24.5847 9.90424C24.6121 9.91641 24.6456 9.94075 24.6456 9.97726C24.6456 10.0199 24.5847 10.0442 24.5573 10.0472L24.5543 10.0503Z" fill="white"/>
<path d="M28.4793 13.6562C27.8799 13.4463 27.3474 13.0203 26.9884 12.3996C27.3018 12.2992 27.6152 12.2049 27.9164 12.0649H26.6172V13.0355L27.2075 12.8834L27.1588 13.2881C26.7694 13.3885 26.3768 13.4889 25.9843 13.5954C25.9752 13.6258 25.9509 13.6623 25.9174 13.6623C25.9022 13.6623 25.887 13.6501 25.8809 13.6319L25.6922 13.1907C25.8657 13.1633 26.0391 13.142 26.2095 13.1025V12.0801H25.6071V11.6785H26.2095V9.97461H28.4489V10.3549H26.6172V10.5801H28.2177V10.9239H26.6172V11.143H28.2177V11.4746H26.6172V11.6876H28.6741V12.0588H28.1781L28.3759 12.3631C28.3759 12.3996 28.3485 12.4209 28.3211 12.4209C28.2968 12.4209 28.2724 12.4087 28.2511 12.3966C28.026 12.4513 27.7947 12.497 27.5665 12.5335C27.7856 12.9047 28.388 13.1481 28.7471 13.2424L28.4763 13.6471L28.4793 13.6562Z" fill="white"/>
<path d="M31.1295 13.6502C30.6153 13.6563 30.1163 13.4372 30.1102 12.7465C30.1102 12.6431 30.1193 12.5396 30.1285 12.4362C29.8607 12.3418 29.4986 12.2232 29.4926 11.8215C29.4926 11.6481 29.5869 11.423 29.6538 11.2739C29.7938 11.3043 29.9337 11.3469 30.0676 11.3773C30.0068 11.4625 29.8881 11.6299 29.8881 11.7546C29.8911 11.9037 30.1011 11.9676 30.2015 11.995C30.2593 11.6572 30.3262 11.3226 30.3841 10.9818C30.3171 11.0639 30.2563 11.1461 30.1924 11.2252C30.0037 11.0396 29.809 10.8783 29.6051 10.7201C29.6873 10.5923 29.7725 10.4615 29.8577 10.3337C30.0524 10.4797 30.235 10.638 30.4054 10.8053C30.4632 10.5254 30.5088 10.2333 30.524 9.94727C30.6427 9.96856 30.7613 10.002 30.88 10.0325C30.9287 10.0416 30.9804 10.0538 31.0261 10.072C31.0504 10.0811 31.0778 10.0933 31.0778 10.1268C31.0778 10.1755 31.0321 10.2181 31.0078 10.2394C30.9804 10.3337 30.9591 10.4371 30.9378 10.5315C30.8922 10.7323 30.8496 10.9361 30.8009 11.1369C30.7309 11.4534 30.6579 11.7759 30.6031 12.0984C30.7492 12.1258 30.9013 12.1258 31.0474 12.138L30.9804 12.5518C30.8374 12.5518 30.6914 12.5396 30.5484 12.5183C30.5362 12.5822 30.5362 12.6431 30.5362 12.707C30.5392 13.069 30.7887 13.2151 31.0686 13.209C31.379 13.206 31.519 13.0173 31.5159 12.6613C31.5129 12.2506 31.2147 11.855 30.9774 11.5842C31.1173 11.5294 31.2512 11.4595 31.379 11.3864C31.732 11.7759 31.9875 12.1867 31.9967 12.78C32.0058 13.3581 31.5829 13.6411 31.1265 13.6502H31.1295Z" fill="white"/>
</svg>
