<svg width="50" height="50" viewBox="0 0 50 50" fill="none" xmlns="http://www.w3.org/2000/svg">
<path d="M0.0697159 0.00039094L0 49.9307L49.9303 50.0004L50 0.0701068L0.0697159 0.00039094Z" fill="#427935"/>
<path d="M4.42683 6.22803C4.34164 6.27367 4.08912 6.37407 3.67229 6.52315C3.34371 6.63268 3.13377 6.70874 3.04858 6.74829V5.39439C3.31632 5.29399 3.63883 5.13577 4.01914 4.9228C4.39945 4.70982 4.66719 4.51815 4.8254 4.34473H6.24928V13.8768H4.42379V6.22803H4.42683Z" fill="white"/>
<path d="M7.79187 13.2896C7.39026 12.7876 7.1925 12.0787 7.1925 11.1599V10.8313H9.00582V11.1477C9.01495 11.6345 9.07276 11.9844 9.18229 12.1943C9.29182 12.4073 9.49262 12.5107 9.78166 12.5107C10.0707 12.5107 10.2654 12.4043 10.3628 12.1882C10.4601 11.9722 10.5088 11.6223 10.5088 11.1355C10.5088 10.6487 10.4327 10.2471 10.2837 10.0007C10.1346 9.75424 9.86076 9.62645 9.45915 9.61732C9.43481 9.6082 9.32528 9.60516 9.13056 9.60516V8.27559H9.42568C9.83338 8.27559 10.1163 8.16606 10.2745 7.947C10.4327 7.72794 10.5088 7.36589 10.5088 6.86387C10.5088 6.45618 10.451 6.15497 10.3384 5.95721C10.2259 5.76249 10.022 5.66209 9.73298 5.66209C9.45915 5.66209 9.27052 5.76858 9.16707 5.97851C9.06363 6.19148 9.00886 6.50486 9.00278 6.91864V7.34155H7.18945V6.82432C7.18945 5.99372 7.41156 5.34871 7.85576 4.89538C8.29996 4.43901 8.92367 4.21387 9.73298 4.21387C10.5423 4.21387 11.1934 4.43292 11.6406 4.87408C12.0879 5.3122 12.313 5.94504 12.313 6.76956C12.313 7.32025 12.2004 7.77966 11.9722 8.15389C11.7441 8.52811 11.455 8.75935 11.1021 8.85367C11.9114 9.15183 12.313 9.90028 12.313 11.1021C12.313 12.0209 12.1092 12.7389 11.7015 13.2622C11.2938 13.7856 10.6457 14.0441 9.76036 14.0441C8.87499 14.0441 8.19348 13.7916 7.79491 13.2896H7.79187Z" fill="white"/>
<path d="M43.7997 31.3504C42.4793 29.4914 36.5038 22.0738 25.3774 22.0586C14.248 22.0434 8.2543 29.4458 6.92778 31.3017C6.86997 31.3808 6.82129 31.4508 6.78174 31.5086C6.82129 31.5694 6.86997 31.6364 6.92474 31.7185C8.24822 33.5744 14.2206 40.9951 25.3501 41.0103C36.4765 41.0255 42.4732 33.6231 43.7997 31.7702C43.8575 31.6911 43.9062 31.6212 43.9427 31.5634C43.9032 31.5055 43.8575 31.4356 43.7997 31.3565M19.1647 26.738C19.2651 26.5919 19.5998 26.1721 19.6393 26.1173C19.7245 26.0078 19.8949 25.9834 20.0135 25.9652C20.1322 25.9439 20.2904 26.0078 20.3087 26.0991C20.33 26.1873 20.263 26.5311 20.2052 26.5919C20.0409 26.7623 19.618 26.9996 19.3837 26.9631C19.2012 26.9357 19.1312 26.7958 19.1677 26.741M18.7661 27.526C18.7844 27.5047 18.7996 27.4864 18.8057 27.4803C18.9456 27.3221 19.2255 27.2887 19.4172 27.2582C19.6089 27.2248 19.8675 27.3221 19.8979 27.4499C19.9314 27.5777 19.4142 27.812 19.3198 27.8972C19.0521 28.1436 18.6322 28.6456 18.3858 28.7004C18.3067 28.7186 18.2398 28.7065 18.185 28.6791C18.3462 28.2775 18.541 27.8911 18.7631 27.526M22.9191 36.0754C22.767 36.6687 22.5905 36.8816 22.4414 37.0672C22.2924 37.2559 21.7356 37.4962 21.3827 37.4688C21.0297 37.4415 20.981 36.5013 20.9841 36.0176C20.9841 35.8502 20.7468 36.3462 20.6251 35.3391C20.546 34.6941 20.1322 35.406 20.1048 34.977C20.0744 34.548 19.8705 34.6332 19.6515 34.3655C19.4355 34.0978 19.1647 34.3898 18.8635 34.5267C18.5623 34.6606 18.687 34.7306 18.258 34.5967C18.2458 34.5937 18.2428 34.5906 18.2306 34.5876C17.8382 33.6596 17.6252 32.6404 17.6252 31.5694C17.6252 31.3078 17.6404 31.0492 17.6647 30.7966C17.6799 30.7693 17.6952 30.7449 17.7134 30.7236C18.1241 30.2399 18.115 30.1243 18.115 30.1243L18.5683 29.9691C18.5683 29.9691 19.2925 30.0817 19.8371 30.2886C20.2874 30.4589 20.9932 30.8392 21.404 30.6719C21.7021 30.5502 21.9333 30.3859 21.906 30.1395C21.8725 29.8291 21.6291 29.7531 21.3309 29.963C21.2214 30.0391 20.9902 29.4945 20.8076 29.5219C20.6251 29.5492 21.0328 30.1638 20.8776 30.1881C20.7224 30.2155 20.4121 29.5462 20.3573 29.4397C20.3056 29.3332 20.0653 29.0655 19.8462 29.2693C19.3898 29.7044 18.6475 29.677 18.4953 29.7866C18.042 30.1243 17.9233 29.674 17.9325 29.4001C17.9507 29.3363 17.969 29.2754 17.9903 29.2115C18.1394 29.0472 18.6718 28.9955 18.8543 29.1172C19.0551 29.2511 19.1981 29.0837 19.2773 29.0016C19.3564 28.9225 19.329 28.7947 19.2773 28.6852C19.2255 28.5787 19.3777 28.4996 19.4811 28.4722C19.5845 28.4448 19.9314 28.2044 20.0683 28.1223C20.2083 28.0432 20.9232 27.955 21.2457 28.1162C21.5652 28.2775 21.8603 28.1466 22.0185 27.9611C22.2163 27.7268 22.4688 27.5473 22.5814 27.4925C22.694 27.4408 22.3045 27.0757 21.9851 27.4712C21.6626 27.8637 21.5013 27.9002 21.3492 27.9002C21.1971 27.9002 20.3026 27.6751 20.193 27.3921C20.0835 27.1092 20.4729 26.8992 20.8046 26.738C21.1362 26.5798 22.0398 26.5858 22.2711 26.5311C22.7396 26.4276 23.342 26.1934 23.6432 26.4003C23.9444 26.6041 22.3806 26.957 22.8917 27.2369C23.0743 27.3373 23.9018 26.7623 24.1848 26.6163C24.8511 26.2725 23.5398 26.1569 23.7102 25.4601C23.9049 24.6691 22.1007 24.9733 21.2001 25.0403C22.408 24.2705 23.8379 23.8233 25.3774 23.8233C29.0345 23.8293 32.0953 26.3668 32.9076 29.7744C32.9137 29.9417 32.8863 30.0634 32.8681 30.1334C32.7981 30.4133 32.2687 30.6506 31.9614 30.2034C31.8823 30.0908 31.5507 29.7744 31.5628 30.3129C31.572 30.8514 32.0831 30.9062 31.5872 31.2287C31.0912 31.5512 31 31.4721 30.7718 31.5542C30.5436 31.6333 30.3215 32.1871 30.3763 32.4852C30.431 32.7804 31.1369 33.5897 30.6136 33.5562C30.4919 33.5471 29.5639 32.9142 29.4118 32.5065C29.2505 32.0775 29.0741 31.6577 28.9524 31.3352C28.8276 31.0127 28.499 30.9305 28.2222 31.1192C27.9453 31.3078 28.2982 31.4964 28.1005 31.9011C27.9027 32.3027 27.7597 32.6647 27.4707 32.3301C26.7161 31.463 25.6148 31.8889 25.4444 30.9244C25.3531 30.4011 24.9028 30.4498 24.5255 30.1547C24.1483 29.8596 23.9383 29.6983 23.8745 29.9113C23.8166 30.0969 25.058 31.0826 25.1462 31.3352C25.277 31.7094 24.775 32.038 24.4038 32.1262C24.0357 32.2145 23.8745 31.9193 23.5154 31.5421C23.1564 31.1648 22.9982 30.8971 22.9708 31.1922C22.9343 31.6181 23.3116 32.2449 23.6797 32.4791C23.9931 32.6769 24.343 32.7682 24.2426 33.0907C24.1392 33.4132 24.2426 33.2306 23.8897 33.5775C23.5367 33.9274 23.4698 34.04 23.4941 34.5207C23.5185 35.0044 23.3937 35.0318 23.3177 35.4334C23.2416 35.835 23.0682 35.4882 22.9161 36.0784M31.2373 32.9964C31.4989 32.9751 31.8884 33.3371 31.7363 33.4771C31.5841 33.614 31.1916 33.5623 30.9969 33.4102C30.8022 33.258 31.1217 33.0085 31.2373 32.9994M30.9087 32.756C30.8265 32.7256 30.7505 32.6465 30.6896 32.4548C30.6257 32.2631 30.787 32.1566 30.9422 32.2327C31.1004 32.3149 31.3073 32.5522 31.3073 32.6769C31.3073 32.8047 30.9939 32.7895 30.9087 32.756ZM27.4889 32.7378C27.3368 32.8747 26.9443 32.823 26.7466 32.6708C26.5518 32.5187 26.8713 32.2692 26.9869 32.2601C27.2486 32.2358 27.638 32.6008 27.4859 32.7408M24.3217 34.2742C24.2152 34.4476 23.9231 35.7529 23.7254 35.6007C23.5276 35.4486 23.8075 34.0886 23.8623 33.9852C24.1696 33.4254 24.8328 33.4528 24.3187 34.2742M25.3683 39.3278C24.6107 39.3278 23.8805 39.2152 23.1899 39.0114C23.0895 38.9292 23.0347 38.7954 23.0956 38.6311C23.3359 38.0073 24.0509 37.7609 24.6138 37.7092C25.8703 37.5875 27.5224 38.5307 27.7841 38.3785C28.0488 38.2264 28.5812 37.5388 29.3601 37.5662C29.8925 37.5875 29.8895 37.6757 30.0659 37.7457C28.7607 38.7376 27.133 39.3278 25.3653 39.3278M30.8387 37.0794C30.7596 37.0581 30.6805 37.0338 30.5953 36.9881C30.1724 36.7721 30.2241 37.1159 30.0142 37.0398C29.8043 36.9607 30.2485 36.48 29.6248 36.8877C29.0011 37.2954 29.1714 36.8238 28.9007 36.1332C28.6268 35.4425 29.214 34.6545 29.7039 34.4781C30.3763 34.2347 30.7961 34.186 31.1125 34.1099C32.0435 33.8787 32.2413 33.325 32.4086 33.6627C32.4391 33.7266 32.4725 33.7844 32.4999 33.8422C32.5547 33.9426 32.6155 34.1464 32.6186 34.3472C32.2231 35.3817 31.6115 36.3127 30.8387 37.0794ZM32.9654 33.1668C32.7585 33.1089 31.8884 31.9041 32.579 31.1131C32.6946 30.9822 32.3478 30.5989 32.4421 30.5928C32.8194 30.5654 33.0171 30.7967 33.1175 31.1344C33.1236 31.2835 33.1297 31.4325 33.1297 31.5847C33.1297 32.1262 33.0719 32.6556 32.9654 33.1668Z" fill="white"/>
<path d="M16.5209 5.34296C16.4691 5.41902 16.4174 5.50116 16.3627 5.57723L18.4163 5.57114V5.94841H16.3414V5.60462C16.2349 5.75978 16.1284 5.91798 15.9884 6.0336L15.6355 5.78108C16.0067 5.43423 16.2257 4.97178 16.3566 4.44238L16.816 4.59146C16.8495 4.60363 16.8799 4.6158 16.8799 4.66448C16.8799 4.70099 16.8282 4.72533 16.8008 4.73141C16.7703 4.80443 16.7369 4.87746 16.7034 4.94744H18.6749V5.33991H16.5209V5.34296ZM18.7023 8.45238C18.0877 8.05686 17.8656 7.34187 17.8809 6.55691H17.1659L17.4914 6.71512C17.5127 6.72425 17.5523 6.74555 17.5523 6.77901C17.5523 6.83074 17.4914 6.85507 17.458 6.86116C17.388 7.04675 17.2967 7.22321 17.1933 7.38447C17.3819 7.5518 17.5644 7.72219 17.7318 7.91082L17.4306 8.22724C17.2693 8.05078 17.1141 7.87127 16.9377 7.71306C16.6852 8.0021 16.3322 8.24853 15.9976 8.3824L15.6751 8.0599C15.9976 7.94428 16.4022 7.73131 16.6365 7.44227C16.4539 7.32362 16.2653 7.20496 16.0736 7.10456C16.1618 6.98286 16.2379 6.85203 16.314 6.72121C16.5117 6.82769 16.6912 6.96461 16.8768 7.10456C16.9681 6.93723 17.035 6.75163 17.0868 6.563H15.812V6.19485C16.6639 6.19485 17.5158 6.18572 18.3677 6.1766C18.3342 6.3561 18.319 6.53866 18.319 6.72121C18.319 7.34796 18.5289 7.78608 19.0096 8.07207L18.6962 8.44934L18.7023 8.45238Z" fill="white"/>
<path d="M20.7256 5.29713V7.71287H20.3514V5.27279C20.2966 5.41883 20.2449 5.56487 20.1841 5.70482V8.44611H19.7764V6.43198C19.7125 6.5476 19.6334 6.66017 19.5482 6.75449L19.2957 6.43807C19.7064 5.91476 19.9498 5.18152 20.0806 4.5L20.537 4.68863C20.5613 4.7008 20.5887 4.7221 20.5887 4.76165C20.5887 4.80424 20.54 4.82859 20.5066 4.8225L20.397 5.14501L20.7469 5.19064C20.7682 5.19368 20.7865 5.21194 20.7865 5.23628C20.7865 5.27583 20.753 5.29409 20.7287 5.30018L20.7256 5.29713ZM22.5907 8.49783C22.2286 8.33353 21.8787 7.9441 21.6901 7.54857C21.5075 7.96844 21.1729 8.29399 20.7895 8.44611L20.5431 8.16315C20.9051 8.01711 21.2672 7.71287 21.4041 7.28083H20.7865V6.91269H21.4741C21.4802 6.81838 21.4802 6.71797 21.4802 6.6267V6.52325H21.2337C21.1759 6.65104 21.1059 6.77578 21.0207 6.87922L20.7348 6.69059C20.8869 6.43806 21.0055 6.15816 21.0694 5.85695H20.8047V5.50402H21.8513L21.8635 5.09633L20.9416 5.10545V4.72514H22.2925C22.2864 4.98375 22.2712 5.23932 22.2621 5.49794H22.688V5.85695H21.3524L21.4954 5.92388C21.4954 5.92388 21.5167 5.94214 21.5167 5.95126C21.5167 5.99082 21.4771 6.00299 21.4528 6.00299L21.3889 6.14902H22.5663V6.52325H21.8939C21.8909 6.65104 21.8909 6.78491 21.8818 6.91269H22.7428V7.28083H21.9609C22.0917 7.6794 22.5237 7.99278 22.8523 8.12969L22.5815 8.49783H22.5907Z" fill="white"/>
<path d="M24.3918 5.72041C24.2457 5.97293 24.0206 6.3137 23.7924 6.46582L23.479 6.20721C23.7254 6.00945 23.9445 5.72345 24.0662 5.40095L24.4343 5.62001C24.4343 5.62001 24.4587 5.64131 24.4587 5.65652C24.4587 5.68999 24.4131 5.72954 24.3887 5.71737L24.3918 5.72041ZM26.5185 8.44649C26.0803 8.37042 25.6453 8.197 25.2528 7.96273C24.7934 8.21526 24.3096 8.39476 23.8015 8.45561L23.5368 8.08138C24.0023 8.06313 24.4982 7.95056 24.9059 7.68586C24.7842 7.58242 24.6686 7.46376 24.5682 7.33293C24.3705 7.51244 24.1575 7.65544 23.9232 7.76193L23.6585 7.4668C24.0845 7.29034 24.5469 6.89482 24.766 6.43236L25.1341 6.59969C25.1341 6.59969 25.1706 6.62099 25.1706 6.64837C25.1706 6.68184 25.1311 6.69096 25.1067 6.69096L25.052 6.75182H26.1868V7.0013C26.0377 7.24166 25.8004 7.51548 25.5935 7.68282C25.916 7.87754 26.4241 7.96273 26.7831 8.01445L26.5185 8.44649ZM25.7244 5.32793C25.7244 5.58046 25.7274 5.82994 25.7274 6.08247C25.7274 6.42018 25.5692 6.5784 25.2984 6.63925L25.0002 6.32891C25.2163 6.26806 25.3167 6.25589 25.3167 5.96381V5.32489H25.0854C25.055 5.80864 24.9485 6.192 24.6169 6.50842C24.5195 6.60882 24.407 6.69705 24.2883 6.7579L23.9993 6.47495C24.0997 6.42018 24.2031 6.35934 24.2883 6.28632C24.5773 6.04596 24.6564 5.7265 24.6595 5.32489H23.5946V4.9385H24.909V4.46387L25.3654 4.50038C25.3897 4.50038 25.4232 4.51863 25.4232 4.55209C25.4232 4.5886 25.3866 4.61599 25.3593 4.62512V4.9385H26.7284V5.32489H25.7213L25.7244 5.32793ZM24.8207 7.06215C24.9455 7.21731 25.0824 7.36335 25.2345 7.46984C25.3623 7.3664 25.4992 7.20819 25.5875 7.06215H24.8207ZM26.5215 6.56014C26.2872 6.35021 26.0195 5.97598 25.8582 5.6839L26.2172 5.42225C26.3724 5.74171 26.5915 6.00945 26.841 6.23764L26.5215 6.56014Z" fill="white"/>
<path d="M30.6958 7.38447C30.6593 7.98993 30.5497 8.27288 30.0021 8.38241L29.7678 8.01427C30.1238 7.9595 30.2668 7.81346 30.2881 7.38447C30.3124 6.90376 30.3155 6.41392 30.3155 5.9332H30.1177C30.066 6.84291 29.9534 7.82868 29.284 8.41588L28.9524 8.15422C29.0376 8.09033 29.1137 8.02035 29.1836 7.93516C28.7029 8.0386 28.2131 8.11163 27.7293 8.19986C27.7263 8.23029 27.708 8.26375 27.6776 8.26375C27.6594 8.26375 27.6441 8.24246 27.6381 8.22725L27.4768 7.79825C27.7476 7.76479 28.0245 7.74349 28.2952 7.70394V7.48791H27.5772V7.16846H28.2952V7.01329H27.6594V5.77803H28.2952V5.62287H27.5437V5.28515H28.2952V5.08739C28.0883 5.1026 27.8875 5.12086 27.6837 5.1239L27.5468 4.77097C27.6624 4.77097 27.778 4.76184 27.8936 4.75272C28.3013 4.72838 28.7121 4.69186 29.0985 4.52148C29.1319 4.56408 29.3875 4.88051 29.3875 4.92006C29.3875 4.95657 29.3601 4.97178 29.3358 4.97178C29.3114 4.97178 29.2871 4.95961 29.2658 4.94744C29.0741 4.99308 28.8855 5.0235 28.6908 5.05088V5.27298H29.3601V5.54681H29.713C29.7252 5.20605 29.7283 4.87442 29.7313 4.53366L30.1603 4.58538C30.1907 4.59147 30.2424 4.60667 30.2424 4.65535C30.2424 4.69491 30.209 4.72533 30.1846 4.74054C30.1725 5.00828 30.1664 5.27603 30.1481 5.54377H30.7414C30.7353 6.15531 30.7353 6.76989 30.6927 7.37839L30.6958 7.38447ZM28.2983 6.05795H28.0275V6.27396H28.2983V6.05795ZM28.3044 6.54778H28.0305V6.74859H28.3044V6.54778ZM28.9311 6.05795H28.6816V6.27396H28.9311V6.05795ZM28.9342 6.54778H28.6816V6.74859H28.9342V6.54778ZM29.3479 5.9332V5.62287H28.6847V5.77803H29.3023V7.01329H28.6847V7.16846H29.3084V7.48183H28.6847V7.67351C28.8916 7.64309 29.0924 7.61266 29.2962 7.57919L29.2627 7.83476C29.637 7.31754 29.6796 6.58429 29.707 5.93016H29.3479V5.9332Z" fill="white"/>
<path d="M17.9295 12.9431C18.2277 13.2991 18.5259 13.4634 18.9275 13.5942L18.6597 13.9715C18.3433 13.865 17.8261 13.4969 17.5766 13.2383L17.8961 12.9431H16.7156C16.7551 12.9766 17.0411 13.2261 17.0411 13.2596C17.0411 13.2991 16.9864 13.3082 16.962 13.3021C16.6973 13.5638 16.3018 13.8498 15.9671 13.9624L15.7237 13.6368C16.0645 13.509 16.4235 13.2717 16.6517 12.9431H15.675V12.5568H18.9731V12.9431H17.9265H17.9295ZM16.1984 12.3651V10.1836H18.4741V12.3651H16.1984ZM18.0695 10.5457H16.5939V10.8164H18.0695V10.5457ZM18.0695 11.1541H16.5939V11.4128H18.0695V11.1541ZM18.0695 11.7566H16.5939V12.0274H18.0695V11.7566Z" fill="white"/>
<path d="M22.5785 13.199C22.4385 13.0651 22.3168 12.8978 22.2042 12.7365V13.0834H21.7479V13.9109H21.3402V13.0834H20.8838V12.7517C20.7773 12.9069 20.6617 13.0651 20.5278 13.1807L20.2753 12.916V13.8866H19.8646V11.8451C19.7794 11.9789 19.6851 12.128 19.5755 12.2315L19.323 11.9181C19.755 11.4678 20.0654 10.6402 20.2053 9.99219L20.6587 10.2051C20.6769 10.2143 20.6952 10.2356 20.6952 10.2599C20.6952 10.3025 20.6404 10.3238 20.61 10.3238C20.5126 10.6037 20.4092 10.8867 20.2783 11.1483V12.843C20.6313 12.5083 21.0785 11.7538 21.1941 11.2396H20.4761V10.8319H21.3128V10.0074L21.7448 10.0378C21.7722 10.0378 21.8026 10.053 21.8026 10.0895C21.8026 10.126 21.7661 10.1534 21.7418 10.1626V10.8319H22.7336V11.2396H21.8665C22.046 11.8207 22.4963 12.4566 22.9131 12.8339L22.5785 13.199ZM20.9233 12.703H21.3463V11.8572C21.2702 12.1402 21.0816 12.4657 20.9233 12.703ZM21.7418 11.8542V12.703H22.1829C22.0095 12.4444 21.8513 12.1554 21.7418 11.8542Z" fill="white"/>
<path d="M26.5246 11.7593C26.5215 11.9449 26.5246 12.1274 26.5185 12.3069C26.4881 13.1071 26.4577 13.7764 25.6453 13.9316L25.3715 13.5635C25.7457 13.5209 26.0013 13.3262 26.0804 12.885C26.1017 12.745 26.1047 12.6051 26.1108 12.4651C26.1139 12.3678 26.1108 12.2735 26.1108 12.1731C26.1108 11.8506 26.1139 11.5341 26.1139 11.2116H25.4232C25.3198 11.4307 25.2133 11.6528 25.0672 11.8323L24.8664 11.6467V13.6335H23.4973V10.8404H23.9141C23.9872 10.5879 24.0541 10.3293 24.1089 10.0677L24.5835 10.2015C24.6078 10.2107 24.6474 10.2289 24.6474 10.2654C24.6474 10.308 24.5865 10.3323 24.5622 10.3384C24.4831 10.5088 24.3979 10.6792 24.3036 10.8404H24.8725V11.4185C25.0977 11.0382 25.2589 10.4936 25.3167 10.0342L25.7457 10.2198C25.767 10.2289 25.7974 10.2532 25.7974 10.2837C25.7974 10.3232 25.7548 10.3354 25.7275 10.3354C25.6697 10.4997 25.6149 10.667 25.548 10.8191H26.5428L26.5337 11.7532L26.5246 11.7593ZM24.4679 11.1934H23.8868V11.9692H24.4679V11.1934ZM24.4679 12.3404H23.8868V13.2623H24.4679V12.3404ZM25.6514 12.7694C25.4841 12.529 25.3015 12.3008 25.1129 12.0879L25.4323 11.7623C25.6118 11.9996 25.8005 12.2339 25.9435 12.4986L25.6544 12.7694H25.6514Z" fill="white"/>
<path d="M29.0559 11.1297C28.8764 11.1814 28.6999 11.224 28.5204 11.2574C28.3287 11.9177 28.064 12.6965 27.7202 13.2685C27.5833 13.2016 27.4494 13.1194 27.3156 13.0373C27.6289 12.514 27.8845 11.9177 28.0488 11.3092C27.8693 11.3396 27.6867 11.3518 27.5042 11.3579C27.4859 11.2088 27.4646 11.0566 27.4464 10.9015C27.5133 10.9106 27.5802 10.9106 27.6472 10.9106C27.8176 10.9106 27.9879 10.9015 28.1583 10.8771C28.2131 10.6368 28.2435 10.3842 28.2587 10.1348C28.4321 10.1591 28.5995 10.1835 28.7699 10.22C28.7273 10.4177 28.6816 10.6185 28.6238 10.8163C28.7759 10.7828 28.9189 10.722 29.065 10.6702C29.065 10.8193 29.0619 10.9745 29.0619 11.1297H29.0559ZM30.069 13.6701C29.9108 13.5119 29.7495 13.3476 29.567 13.229C29.57 13.2777 29.57 13.3233 29.57 13.3689C29.57 13.8101 29.2871 13.9318 28.9555 13.9318C28.8368 13.9318 28.7212 13.9135 28.6086 13.877C28.3835 13.7918 28.1522 13.5697 28.1522 13.2685C28.1522 12.8365 28.4534 12.6174 28.7972 12.6174C28.8976 12.6174 28.998 12.6266 29.0985 12.6418C29.0863 12.441 29.0711 12.2371 29.0711 12.0363C29.0711 11.9329 29.0832 11.8446 29.1167 11.7442H29.4453C29.4666 11.7442 29.5731 11.729 29.5731 11.7807C29.5731 11.7899 29.5731 11.7929 29.57 11.796C29.5274 11.8751 29.5061 11.9694 29.5061 12.0576C29.5061 12.2858 29.5214 12.5079 29.5396 12.7361C29.8074 12.8426 30.1146 13.0403 30.3367 13.2472C30.2516 13.3933 30.1664 13.5393 30.069 13.6701ZM29.135 13.0525C29.0528 13.016 28.9615 13.0069 28.8703 13.0069C28.7303 13.0069 28.5569 13.0495 28.5569 13.2503C28.5569 13.4511 28.7699 13.5393 28.9129 13.5393C29.0467 13.5393 29.1471 13.5089 29.1471 13.3263C29.1471 13.2351 29.138 13.1468 29.1319 13.0555L29.135 13.0525ZM30.1055 11.7442C29.8499 11.51 29.5305 11.3426 29.2141 11.2514L29.427 10.8224C29.7435 10.9167 30.0842 11.0719 30.3398 11.3153L30.1055 11.7442Z" fill="white"/>
<path d="M32.6217 13.6484C32.4635 13.3868 32.2931 13.1343 32.1076 12.9C31.9189 13.2742 31.6238 13.6941 31.3043 13.9131L30.9879 13.618C31.3378 13.3807 31.6451 13.0217 31.8185 12.5927C31.639 12.331 31.4108 12.0907 31.1826 11.8899L31.4321 11.5004C31.639 11.7012 31.8216 11.9325 31.9919 12.1698C32.0832 11.8747 32.1289 11.5613 32.1562 11.2479H31.1066V10.8767H31.779V10.1252L32.2353 10.1587C32.2597 10.1587 32.2931 10.1769 32.2931 10.2104C32.2931 10.2439 32.2566 10.2652 32.2353 10.2743V10.8737H32.7373V11.2449H32.4635C32.5 11.2631 32.6369 11.3057 32.6369 11.3605C32.6369 11.3879 32.6156 11.4 32.5974 11.4031C32.5365 11.7773 32.4483 12.1606 32.3084 12.5075C32.5183 12.76 32.7221 13.0217 32.8986 13.3107L32.6217 13.6454V13.6484ZM33.1268 12.8269C32.9686 12.5592 32.8043 12.3037 32.6187 12.0633L32.9625 11.7682C33.1237 12.0207 33.2789 12.2824 33.4067 12.5592L33.1237 12.83L33.1268 12.8269ZM33.9452 11.4944V12.9791C33.9452 13.6728 33.8692 13.901 33.2546 14.0379L32.9899 13.6484C33.4888 13.5754 33.5071 13.3959 33.5071 12.8543V11.4944H32.8165V11.0897H33.498V10.1191L33.9452 10.1526C33.9665 10.1526 34.003 10.1739 34.003 10.2043C34.003 10.2378 33.9665 10.2591 33.9452 10.2682V11.0867H34.3894V11.4913H33.9422L33.9452 11.4944Z" fill="white"/>
<path d="M38.0495 13.9316C37.5718 13.746 37.1915 13.457 36.8416 13.031V14.0655H36.4218V13.0158C36.0901 13.4266 35.6611 13.7399 35.1987 13.9042L34.9431 13.5878C35.4999 13.387 36.0962 12.955 36.4218 12.3799V12.2856H35.7524V13.0523H35.3539V11.9601H36.4218V11.7714H35.0344V11.4185H36.4126V11.1051L36.6469 11.1295L36.4704 11.0321C36.6986 10.7918 36.8721 10.3841 36.9512 10.0403L37.3345 10.1224C37.371 10.1316 37.4258 10.1407 37.4258 10.1985C37.4258 10.238 37.3771 10.2624 37.3528 10.2715C37.3284 10.3415 37.298 10.4084 37.2676 10.4784H38.2412V10.7978H37.7787C37.73 10.9408 37.6874 11.0869 37.6357 11.2268L37.3163 11.1964L37.3497 10.7978H37.0881C37.0151 10.9226 36.9359 11.0413 36.8386 11.1447C36.869 11.1538 36.9086 11.1751 36.9086 11.2177C36.9086 11.2512 36.866 11.2816 36.8416 11.2968V11.4155H38.2077V11.7684H36.8386V11.957H38.0039V12.5838C38.0039 12.9519 37.8304 13.0615 37.5475 13.1284L37.3102 12.8546C37.6296 12.7481 37.581 12.6233 37.581 12.2856H36.8355V12.383C36.9603 12.6568 37.2311 12.9367 37.4532 13.1041C37.7209 13.311 38.016 13.457 38.3233 13.5452L38.0495 13.9347V13.9316ZM36.2544 10.7887C36.2696 10.9043 36.2879 11.0199 36.3031 11.1356C36.1966 11.166 36.0932 11.1995 35.9867 11.2299C35.935 11.0838 35.8954 10.9348 35.8467 10.7887H35.7007C35.5668 10.9743 35.4299 11.1842 35.2565 11.3151L34.9492 11.093C35.2565 10.8009 35.4573 10.4662 35.5942 10.0342L36.0171 10.1376C36.0415 10.1468 36.0749 10.162 36.0749 10.2015C36.0749 10.2472 36.0262 10.2745 35.9958 10.2867C35.9654 10.3506 35.9319 10.4145 35.8954 10.4753H36.6074V10.7887H36.2544Z" fill="white"/>
<path d="M41.7918 12.1734C41.7736 12.1734 41.7553 12.1643 41.7371 12.1521C41.4724 12.2403 40.9643 12.4442 40.7209 12.5537V13.2139H40.2888C40.2919 13.15 40.2919 13.0861 40.2919 13.0131V12.7728C39.9998 12.9097 39.8507 13.0861 39.8507 13.2839C39.8507 13.4543 40.0181 13.5456 40.3527 13.5456C40.7178 13.5456 41.0464 13.4969 41.4206 13.3752L41.4054 13.8772C41.0829 13.9867 40.727 14.0019 40.4836 14.0019C39.7625 14.0019 39.4035 13.7737 39.4035 13.3174C39.4035 13.0953 39.5069 12.8884 39.7047 12.6997C39.8294 12.5841 40.0181 12.4594 40.2615 12.3316C40.2523 12.1399 40.1945 12.0395 40.088 12.0395C39.9511 12.0395 39.8264 12.0912 39.7108 12.2038C39.6377 12.2707 39.5404 12.362 39.4278 12.4959C39.2909 12.645 39.2088 12.7484 39.157 12.8001C39.0901 12.7241 38.9897 12.6085 38.8528 12.4502C39.2635 12.1277 39.5739 11.7383 39.7777 11.288C39.583 11.3124 39.367 11.3306 39.1327 11.3428C39.1175 11.1785 39.0962 11.0294 39.0749 10.8986C39.4187 10.8986 39.7016 10.8864 39.9146 10.856C39.9603 10.7312 39.9998 10.5335 40.0394 10.2627L40.5353 10.3753C40.5657 10.3844 40.5779 10.4027 40.5779 10.427C40.5779 10.4513 40.5596 10.4757 40.5201 10.4909C40.5018 10.5639 40.4683 10.6765 40.4197 10.8225C40.587 10.8012 40.8365 10.7373 41.1042 10.6643L41.0647 11.1359C40.8608 11.1785 40.59 11.2211 40.2523 11.2698C40.2006 11.3975 40.1154 11.5558 40.0241 11.6988C40.1124 11.6744 40.1854 11.6683 40.2341 11.6683C40.4562 11.6683 40.6053 11.8174 40.6692 12.1277C40.9612 11.9726 41.2959 11.8144 41.661 11.6531L41.8283 12.1338C41.8283 12.1673 41.8131 12.1856 41.7857 12.1856L41.7918 12.1734Z" fill="white"/>
<path d="M32.4179 8.26671C32.284 8.27888 32.1501 8.29713 32.0132 8.31538C31.8459 7.77991 31.8215 7.1988 31.8215 6.62985C31.8215 5.99397 31.9037 5.35504 32.0132 4.73438L32.3357 4.81044C32.3844 4.82261 32.4483 4.82869 32.4939 4.84999C32.5183 4.85912 32.5365 4.87129 32.5365 4.9078C32.5365 4.94431 32.5031 4.96561 32.4757 4.96561C32.3266 5.58628 32.2597 6.28909 32.2597 6.9341C32.2597 7.09535 32.2657 7.25356 32.2657 7.41481C32.3327 7.214 32.3966 7.00712 32.4665 6.80631C32.5609 6.8915 32.6521 6.97973 32.7434 7.06492C32.5791 7.46349 32.4605 7.81946 32.4148 8.26975L32.4179 8.26671ZM34.7788 8.05678C34.575 8.10242 34.3073 8.10242 34.1004 8.09329C33.571 8.07808 33.075 7.98984 33.0111 7.1775C33.1359 7.08318 33.2606 6.98278 33.3915 6.89455C33.3915 7.357 33.6075 7.5639 33.9543 7.57302C34.2281 7.58215 34.5294 7.56389 34.791 7.47262C34.791 7.66734 34.7849 7.85902 34.7819 8.05678H34.7788ZM34.645 5.65929C34.359 5.59845 34.076 5.58019 33.7839 5.60453C33.5831 5.61974 33.3854 5.66234 33.1907 5.70798C33.1754 5.54672 33.1633 5.34896 33.145 5.19075C33.4219 5.11469 33.7048 5.11469 33.9878 5.09035C34.2221 5.06905 34.4563 5.09035 34.6876 5.12381C34.6754 5.30028 34.6632 5.47979 34.645 5.65929Z" fill="white"/>
</svg>
