<svg width="50" height="50" viewBox="0 0 50 50" fill="none" xmlns="http://www.w3.org/2000/svg">
<path d="M50 0H0V50H50V0Z" fill="#F5A200"/>
<path d="M4.35709 6.23106C4.2719 6.2767 4.01936 6.37711 3.60252 6.5262C3.27391 6.63574 3.06395 6.7118 2.97876 6.75135V5.39738C3.24651 5.29697 3.56904 5.13875 3.94937 4.92576C4.3297 4.71277 4.59746 4.52109 4.75568 4.34766H6.17964V13.8803H4.35405V6.23106H4.35709Z" fill="white"/>
<path d="M8.34902 6.23106C8.26382 6.2767 8.01129 6.37711 7.59444 6.5262C7.26584 6.63574 7.0559 6.7118 6.9707 6.75135V5.39738C7.23846 5.29697 7.56096 5.13875 7.94129 4.92576C8.32163 4.71277 8.58939 4.52109 8.7476 4.34766H10.1716V13.8803H8.34597V6.23106H8.34902Z" fill="white"/>
<path d="M8.5284 38.1249H16.0833C16.1868 38.1249 16.2689 38.0428 16.2689 37.9393C16.2689 37.8906 16.2507 37.8481 16.2202 37.8176L16.2111 37.8055L12.4534 32.9402L12.4169 32.9007C12.3834 32.8642 12.3347 32.8398 12.28 32.8398C12.2343 32.8398 12.1918 32.8581 12.1583 32.8885L12.137 32.9159L12.1005 32.9555L8.43407 37.7689L8.37626 37.8389C8.35496 37.8694 8.34583 37.9028 8.34583 37.9424C8.34583 38.0458 8.42797 38.128 8.53142 38.128L8.5284 38.1249Z" fill="white"/>
<path d="M16.062 38.8125H8.49189C8.38844 38.8125 8.30627 38.8946 8.30627 38.9981V44.9222C8.30627 45.0256 8.38844 45.1078 8.49189 45.1078H10.929V41.3805C10.929 41.277 11.0112 41.1949 11.1147 41.1949H13.3754C13.4788 41.1949 13.561 41.277 13.561 41.3805V45.1078H16.062C16.1655 45.1078 16.2476 45.0256 16.2476 44.9222V38.9981C16.2476 38.8946 16.1655 38.8125 16.062 38.8125Z" fill="white"/>
<path d="M42.226 37.2598H34.7319C34.6315 37.2598 34.5493 37.3389 34.5493 37.4362V45.0033C34.5493 45.1007 34.6315 45.1828 34.7319 45.1828H42.226C42.3264 45.1828 42.4085 45.1037 42.4085 45.0033V37.4362C42.4085 37.3358 42.3264 37.2598 42.226 37.2598ZM38.1275 42.198C38.1275 42.2984 38.0453 42.3775 37.9449 42.3775H35.7055C35.6051 42.3775 35.5199 42.2984 35.5199 42.198V40.8379C35.5199 40.7375 35.6021 40.6584 35.7055 40.6584H37.9449C38.0453 40.6584 38.1275 40.7375 38.1275 40.8379V42.198ZM38.1275 39.6848C38.1275 39.7821 38.0453 39.8643 37.9449 39.8643H35.7055C35.6051 39.8643 35.5199 39.7852 35.5199 39.6848V38.3247C35.5199 38.2273 35.6021 38.1482 35.7055 38.1482H37.9449C38.0453 38.1482 38.1275 38.2273 38.1275 38.3247V39.6848ZM41.5474 42.198C41.5474 42.2984 41.4653 42.3775 41.3649 42.3775H39.1255C39.0251 42.3775 38.9429 42.2984 38.9429 42.198V40.8379C38.9429 40.7375 39.0251 40.6584 39.1255 40.6584H41.3649C41.4653 40.6584 41.5474 40.7375 41.5474 40.8379V42.198ZM41.5474 39.6848C41.5474 39.7821 41.4653 39.8643 41.3649 39.8643H39.1255C39.0251 39.8643 38.9429 39.7852 38.9429 39.6848V38.3247C38.9429 38.2273 39.0251 38.1482 39.1255 38.1482H41.3649C41.4653 38.1482 41.5474 38.2273 41.5474 38.3247V39.6848Z" fill="white"/>
<path d="M24.8068 19.6982H17.4739C17.3766 19.6982 17.2944 19.7774 17.2944 19.8778V44.9371C17.2944 45.0344 17.3766 45.1166 17.4739 45.1166H24.8068C24.9041 45.1166 24.9863 45.0375 24.9863 44.9371V19.8778C24.9863 19.7774 24.9041 19.6982 24.8068 19.6982ZM20.4466 42.2626C20.4466 42.3143 20.404 42.36 20.3493 42.36H18.6697C18.618 42.36 18.5723 42.3174 18.5723 42.2626V40.3914C18.5723 40.3396 18.6149 40.297 18.6697 40.297H20.3493C20.401 40.297 20.4466 40.3396 20.4466 40.3914V42.2626ZM20.4466 37.9633C20.4466 38.0181 20.404 38.0607 20.3493 38.0607H18.6697C18.618 38.0607 18.5723 38.0181 18.5723 37.9633V36.0921C18.5723 36.0373 18.6149 35.9947 18.6697 35.9947H20.3493C20.401 35.9947 20.4466 36.0373 20.4466 36.0921V37.9633ZM20.4466 33.6671C20.4466 33.7188 20.404 33.7644 20.3493 33.7644H18.6697C18.618 33.7644 18.5723 33.7219 18.5723 33.6671V31.7958C18.5723 31.7441 18.6149 31.6985 18.6697 31.6985H20.3493C20.401 31.6985 20.4466 31.7411 20.4466 31.7958V33.6671ZM20.4466 29.3708C20.4466 29.4226 20.404 29.4682 20.3493 29.4682H18.6697C18.618 29.4682 18.5723 29.4256 18.5723 29.3708V27.4996C18.5723 27.4479 18.6149 27.4053 18.6697 27.4053H20.3493C20.401 27.4053 20.4466 27.4479 20.4466 27.4996V29.3708ZM20.4466 25.0746C20.4466 25.1263 20.404 25.1689 20.3493 25.1689H18.6697C18.618 25.1689 18.5723 25.1263 18.5723 25.0746V23.2034C18.5723 23.1486 18.6149 23.106 18.6697 23.106H20.3493C20.401 23.106 20.4466 23.1486 20.4466 23.2034V25.0746ZM23.7388 42.2626C23.7388 42.3143 23.6962 42.36 23.6414 42.36H21.9619C21.9071 42.36 21.8645 42.3174 21.8645 42.2626V40.3914C21.8645 40.3396 21.9071 40.297 21.9619 40.297H23.6414C23.6962 40.297 23.7388 40.3396 23.7388 40.3914V42.2626ZM23.7388 37.9633C23.7388 38.0181 23.6962 38.0607 23.6414 38.0607H21.9619C21.9071 38.0607 21.8645 38.0181 21.8645 37.9633V36.0921C21.8645 36.0373 21.9071 35.9947 21.9619 35.9947H23.6414C23.6962 35.9947 23.7388 36.0373 23.7388 36.0921V37.9633ZM23.7388 33.6671C23.7388 33.7188 23.6962 33.7644 23.6414 33.7644H21.9619C21.9071 33.7644 21.8645 33.7219 21.8645 33.6671V31.7958C21.8645 31.7441 21.9071 31.6985 21.9619 31.6985H23.6414C23.6962 31.6985 23.7388 31.7411 23.7388 31.7958V33.6671ZM23.7388 29.3708C23.7388 29.4226 23.6962 29.4682 23.6414 29.4682H21.9619C21.9071 29.4682 21.8645 29.4256 21.8645 29.3708V27.4996C21.8645 27.4479 21.9071 27.4053 21.9619 27.4053H23.6414C23.6962 27.4053 23.7388 27.4479 23.7388 27.4996V29.3708ZM23.7388 25.0746C23.7388 25.1263 23.6962 25.1689 23.6414 25.1689H21.9619C21.9071 25.1689 21.8645 25.1263 21.8645 25.0746V23.2034C21.8645 23.1486 21.9071 23.106 21.9619 23.106H23.6414C23.6962 23.106 23.7388 23.1486 23.7388 23.2034V25.0746Z" fill="white"/>
<path d="M34.7076 34.838H42.2503C42.3325 34.838 42.3994 34.9049 42.3994 34.9871V36.4962C42.3994 36.5784 42.3325 36.6453 42.2503 36.6453H34.7076C34.6254 36.6453 34.5585 36.5784 34.5585 36.4962V34.9871C34.5585 34.9049 34.6254 34.835 34.7106 34.835L34.7076 34.838Z" fill="white"/>
<path d="M33.664 24.429C33.6396 24.3499 33.5696 24.2891 33.4784 24.2891C33.4388 24.2891 33.4053 24.3043 33.3749 24.3225C33.3688 24.3225 33.3658 24.3286 33.3597 24.3317L33.2988 24.4108L26.0908 33.5539L26.0573 33.5996C26.0208 33.6361 25.9965 33.6848 25.9934 33.7426V44.9761C25.9934 45.0735 26.0725 45.1556 26.1729 45.1556H33.4996C33.6 45.1556 33.6792 45.0765 33.6792 44.9761V24.5051C33.6792 24.4777 33.6731 24.4534 33.6609 24.429H33.664ZM30.6304 29.3946L30.6822 29.3307C31.1751 28.6979 32.0057 27.6755 32.4104 27.1796L32.4621 27.1157C32.5017 27.0701 32.5595 27.0396 32.6234 27.0396C32.7238 27.0396 32.8029 27.1126 32.8242 27.207V29.5194C32.8242 29.632 32.7359 29.7202 32.6264 29.7263C32.6234 29.7263 32.6203 29.7263 32.6173 29.7263C32.6142 29.7263 32.6112 29.7263 32.6081 29.7263H30.8069C30.8069 29.7263 30.8008 29.7263 30.7978 29.7263C30.7947 29.7263 30.7917 29.7263 30.7886 29.7263C30.6791 29.7202 30.5909 29.632 30.5909 29.5194C30.5909 29.4738 30.6061 29.4312 30.6304 29.3946ZM29.4894 42.1981C29.4894 42.2985 29.4103 42.3777 29.3099 42.3777H27.1253C27.0249 42.3777 26.9458 42.2985 26.9458 42.1981V40.8289C26.9458 40.7316 27.0249 40.6494 27.1253 40.6494H29.3099C29.4103 40.6494 29.4894 40.7285 29.4894 40.8289V42.1981ZM29.4894 39.6697C29.4894 39.7701 29.4103 39.8492 29.3099 39.8492H27.1253C27.0249 39.8492 26.9458 39.7701 26.9458 39.6697V38.3005C26.9458 38.2001 27.0249 38.121 27.1253 38.121H29.3099C29.4103 38.121 29.4894 38.2001 29.4894 38.3005V39.6697ZM29.4894 37.1412C29.4894 37.2386 29.4103 37.3208 29.3099 37.3208H27.1253C27.0249 37.3208 26.9458 37.2417 26.9458 37.1412V35.772C26.9458 35.6716 27.0249 35.5925 27.1253 35.5925H29.3099C29.4103 35.5925 29.4894 35.6716 29.4894 35.772V37.1412ZM29.4955 31.6036V34.6158C29.4955 34.7163 29.4134 34.7954 29.316 34.7954H27.1314C27.031 34.7954 26.9519 34.7163 26.9519 34.6158V34.2355C26.9519 34.2112 26.9579 34.1899 26.9671 34.1686C26.9701 34.1625 26.9701 34.1594 26.9792 34.1473C26.9823 34.1381 26.9884 34.1321 26.9945 34.1229C27.0005 34.1138 27.0097 34.1047 27.0157 34.0925C27.2957 33.6939 28.5553 32.1391 29.0848 31.491L29.1365 31.4271C29.176 31.3815 29.2338 31.3511 29.2977 31.3511C29.3981 31.3511 29.4773 31.4241 29.4986 31.5184V31.6006L29.4955 31.6036ZM32.8303 42.1981C32.8303 42.2985 32.7481 42.3777 32.6507 42.3777H30.4661C30.3657 42.3777 30.2866 42.2985 30.2866 42.1981V40.8289C30.2866 40.7316 30.3657 40.6494 30.4661 40.6494H32.6507C32.7481 40.6494 32.8303 40.7285 32.8303 40.8289V42.1981ZM32.8303 39.6697C32.8303 39.7701 32.7481 39.8492 32.6507 39.8492H30.4661C30.3657 39.8492 30.2866 39.7701 30.2866 39.6697V38.3005C30.2866 38.2001 30.3657 38.121 30.4661 38.121H32.6507C32.7481 38.121 32.8303 38.2001 32.8303 38.3005V39.6697ZM32.8303 37.1412C32.8303 37.2386 32.7481 37.3208 32.6507 37.3208H30.4661C30.3657 37.3208 30.2866 37.2417 30.2866 37.1412V35.772C30.2866 35.6716 30.3657 35.5925 30.4661 35.5925H32.6507C32.7481 35.5925 32.8303 35.6716 32.8303 35.772V37.1412ZM32.8303 34.6128C32.8303 34.7102 32.7481 34.7923 32.6507 34.7923H30.4661C30.3657 34.7923 30.2866 34.7132 30.2866 34.6128V33.2436C30.2866 33.1432 30.3657 33.0641 30.4661 33.0641H32.6507C32.7481 33.0641 32.8303 33.1432 32.8303 33.2436V34.6128ZM32.8303 32.0874C32.8303 32.1878 32.7481 32.2669 32.6507 32.2669H30.4661C30.3657 32.2669 30.2866 32.1878 30.2866 32.0874V30.7182C30.2866 30.6178 30.3657 30.5387 30.4661 30.5387H32.6507C32.7481 30.5387 32.8303 30.6178 32.8303 30.7182V32.0874Z" fill="white"/>
<path d="M15.4355 4.64351C15.3381 4.91735 15.2255 5.17902 15.1069 5.44069V8.16691H14.6931V6.14354C14.6231 6.2835 14.5166 6.41738 14.4192 6.533L14.1484 6.21657C14.5622 5.74496 14.8817 4.96299 15.0217 4.31186L15.4963 4.51876C15.5146 4.52789 15.5328 4.54615 15.5328 4.57049C15.5328 4.61917 15.4659 4.64047 15.4385 4.64351H15.4355ZM15.3229 8.05737V7.68921H16.2387V6.77945H15.5024V6.40826H16.2387V5.62629H15.3898V5.2277H17.5319V5.62629H16.6647V6.40826H17.4162V6.77945H16.6647V7.68921H17.6231V8.05737H15.3199H15.3229ZM16.4974 5.2064C16.2874 4.9995 16.0623 4.81694 15.8189 4.66177L16.111 4.30273C16.2327 4.39401 16.3513 4.5005 16.4639 4.60395C16.5673 4.69219 16.6708 4.78348 16.7621 4.88693L16.4974 5.20945V5.2064Z" fill="white"/>
<path d="M21.2134 7.37504C21.0522 7.25029 20.8878 7.1225 20.7144 7.01905C20.5714 7.39938 20.2824 7.87708 19.9568 8.06572L19.5765 7.82231C19.9233 7.62454 20.1819 7.2442 20.3249 6.82736C20.1059 6.71478 19.8746 6.62655 19.6373 6.57787C19.5856 6.72392 19.5278 6.86996 19.4608 7.00687C19.3026 7.3507 19.1048 7.69756 18.7306 7.69756C18.4233 7.69756 18.2042 7.40851 18.2042 7.05252C18.2042 6.59917 18.5267 6.27664 18.8827 6.18232C19.0288 6.14276 19.184 6.13972 19.33 6.14276C19.4335 5.88414 19.546 5.40948 19.5978 5.12651L18.8158 5.26039L18.7306 4.76748H18.7702C19.0257 4.76748 19.7925 4.70663 20.0085 4.6123C20.0633 4.67924 20.1272 4.74619 20.188 4.81008C20.112 5.07175 20.0268 5.33038 19.9477 5.589C19.8838 5.78678 19.826 5.98455 19.756 6.17624C19.9903 6.21883 20.2215 6.28881 20.4406 6.38922C20.5166 6.11538 20.5501 5.82025 20.5623 5.53119C20.7083 5.62856 20.8544 5.72287 20.9943 5.82937C20.9639 6.08191 20.9274 6.33445 20.8574 6.57482C21.0461 6.66915 21.2347 6.76347 21.4142 6.88822C21.3503 7.04643 21.2803 7.21073 21.2043 7.36895L21.2134 7.37504ZM18.6241 7.03122C18.6241 7.13771 18.6637 7.23204 18.7641 7.23204C18.831 7.23204 18.8736 7.2077 18.9192 7.15597C19.0349 7.02818 19.1566 6.70261 19.2144 6.52614C18.9558 6.54744 18.6241 6.67219 18.6241 7.03122Z" fill="white"/>
<path d="M22.5825 6.96224C22.5247 7.29997 22.4669 7.65597 22.333 7.96327L22.0166 7.79289C22.1414 7.48862 22.2144 7.04135 22.2509 6.70665L22.6038 6.85574C22.6038 6.85574 22.6282 6.88009 22.6282 6.89834C22.6282 6.93181 22.6038 6.95311 22.5795 6.96224H22.5825ZM24.9102 6.77968V6.36588H23.7357V6.79185H23.3797V6.49063L23.1211 6.60625C23.1089 6.56061 23.0937 6.50889 23.0846 6.46325L23.0176 6.47541V8.17017H22.6495V6.51801C22.476 6.53018 22.2965 6.55148 22.1231 6.57278L22.0775 6.2107C22.1353 6.2107 22.1992 6.20158 22.2539 6.18941C22.2996 6.17724 22.3178 6.15898 22.3483 6.11638C22.4426 5.98859 22.5247 5.84862 22.613 5.71475C22.4578 5.64172 22.3057 5.56262 22.1414 5.51089V5.32225C22.3756 5.02711 22.5917 4.65895 22.7438 4.29688L23.1272 4.50682C23.1546 4.52508 23.2063 4.54333 23.2063 4.59201C23.2063 4.66504 23.1394 4.66504 23.0968 4.65895C22.9294 4.87498 22.7681 5.09404 22.5856 5.2979C22.6525 5.3405 22.7225 5.37398 22.7925 5.41962C22.8594 5.31008 22.9233 5.19445 22.9872 5.08188L23.3219 5.3192C23.3402 5.33137 23.3584 5.34963 23.3584 5.38006C23.3584 5.43787 23.3006 5.43483 23.2671 5.43483C23.0755 5.68737 22.8929 5.95208 22.6921 6.18941C22.7955 6.18637 22.902 6.18028 23.0055 6.16506C22.9811 6.09204 22.9659 6.01597 22.9355 5.94904L23.2215 5.83341C23.2854 6.03119 23.3341 6.23504 23.3888 6.4389V6.02815H25.3149V6.77968H24.9163H24.9102ZM23.2185 7.57381C23.1667 7.34257 23.118 7.10524 23.0815 6.86792L23.3554 6.74926C23.398 6.98658 23.4436 7.22695 23.5014 7.45819L23.2215 7.57381H23.2185ZM24.2317 6.69448C24.2134 6.93181 24.1921 7.17218 24.1191 7.3943C24.0035 7.7442 23.7905 8.05455 23.5045 8.22494L23.185 7.96327C23.7327 7.6225 23.8209 7.20565 23.8422 6.51497L24.2256 6.58495C24.2469 6.58799 24.2743 6.60321 24.2743 6.63668C24.2743 6.66406 24.2499 6.68232 24.2317 6.69145V6.69448ZM24.4812 5.17924V5.48351H25.1323V5.82429H23.468V5.48351H24.0765V5.17315H23.3037V4.80499H24.0734V4.31513L24.4842 4.34859C24.5086 4.34859 24.542 4.36686 24.542 4.40032C24.542 4.43379 24.5086 4.46118 24.4842 4.46726V4.80499H25.2844V5.1762H24.4812V5.17924ZM25.4092 8.02717C25.2297 8.13366 24.9862 8.18539 24.7854 8.18539C24.5238 8.18539 24.3534 8.0363 24.3534 7.70769V6.52106L24.7307 6.56365C24.752 6.56669 24.7885 6.57582 24.7885 6.60929C24.7885 6.63971 24.7611 6.66102 24.7398 6.67014V7.54034C24.7398 7.74724 24.7641 7.80201 24.9436 7.80201C25.0958 7.80201 25.3148 7.67118 25.4396 7.57077L25.4122 8.03021L25.4092 8.02717Z" fill="white"/>
<path d="M26.8818 7.79516C26.7601 7.81342 26.6354 7.82863 26.5136 7.8408C26.322 7.35702 26.252 6.78804 26.2581 6.25862C26.2641 5.71094 26.3341 5.16631 26.4437 4.63688C26.5532 4.66427 26.6658 4.69469 26.7753 4.72511C26.824 4.73729 26.8727 4.74642 26.9183 4.76772C26.9396 4.77684 26.964 4.78597 26.964 4.81335C26.964 4.84682 26.9305 4.87116 26.9001 4.87725C26.7449 5.4371 26.6962 6.00912 26.6871 6.59636C26.6871 6.76675 26.684 6.96147 26.7236 7.13186C26.7966 6.92496 26.8696 6.71197 26.9427 6.50812C27.0248 6.62374 27.113 6.73936 27.2074 6.84281C27.0674 7.14099 26.9426 7.46656 26.8848 7.79516H26.8818ZM28.6891 5.99695C28.6891 6.18255 28.6891 6.3712 28.6831 6.5568C28.6739 6.79109 28.6618 7.02233 28.6039 7.25053C28.5218 7.60956 28.3423 7.9412 28.0654 8.1481C27.9315 8.069 27.8037 7.9838 27.6668 7.92295C28.1202 7.55783 28.2236 7.11969 28.2449 6.52637C28.251 6.35598 28.251 6.1856 28.251 6.01521C28.0289 6.03346 27.8098 6.03955 27.5907 6.03346C27.5208 6.03346 27.4508 6.02433 27.3808 6.02129C27.3656 5.86916 27.3565 5.72007 27.3443 5.57098C27.4995 5.59228 27.6607 5.60749 27.8189 5.61357C27.9589 5.61966 28.0958 5.61966 28.2358 5.61357C28.2358 5.37625 28.2175 5.14501 28.2084 4.91072C28.2023 4.78597 28.1932 4.65514 28.1749 4.52734C28.2936 4.54864 28.4092 4.56082 28.5248 4.57907C28.5735 4.58516 28.6252 4.5882 28.6709 4.60646C28.6952 4.61254 28.7226 4.62472 28.7196 4.65819C28.7196 4.68557 28.6922 4.71295 28.6709 4.71903C28.6709 5.002 28.6861 5.28497 28.6861 5.56794C28.9082 5.55577 29.1303 5.48274 29.3403 5.41276C29.3464 5.57098 29.3311 5.73224 29.3372 5.89046C29.1303 5.94827 28.9052 5.98174 28.6891 6.00303V5.99695Z" fill="white"/>
<path d="M31.1994 8.09325C31.1264 8.11454 31.0533 8.12975 30.9742 8.14801C30.9377 8.08412 30.746 7.77985 30.746 7.77985C30.746 7.76768 30.7612 7.76464 30.7673 7.76464C30.956 7.73117 31.1325 7.68857 31.312 7.60642C31.5767 7.4908 31.8505 7.2839 31.8566 6.91269C31.8596 6.58409 31.6832 6.40153 31.4033 6.39545C30.9742 6.38936 30.5848 6.85184 30.4418 7.29607C30.3201 7.27477 30.1953 7.24739 30.0766 7.22913C30.0493 7.01006 30.0371 6.79404 30.0401 6.57801C30.0462 6.10944 30.1071 5.64087 30.1892 5.18751L30.6152 5.31834C30.6365 5.32139 30.6578 5.33965 30.6578 5.37007C30.6578 5.40354 30.6243 5.43093 30.603 5.43701C30.5239 5.77779 30.4691 6.13073 30.46 6.47759C30.7552 6.1429 31.1111 5.96339 31.528 5.96643C31.9661 5.97252 32.3495 6.31937 32.3434 6.85488C32.3343 7.63684 31.7684 7.93198 31.1994 8.09325ZM31.4093 5.33052C31.1811 5.05363 30.9225 4.81935 30.6395 4.62766C30.7369 4.51813 30.8251 4.4025 30.9225 4.29297C31.2085 4.42989 31.5341 4.72502 31.744 4.98365C31.6284 5.09927 31.5219 5.21794 31.4093 5.33052Z" fill="white"/>
<path d="M35.6448 7.75626C35.3162 7.75626 35.1671 7.50675 35.1671 7.14164C35.1671 6.77652 35.2249 6.38401 35.2523 6.00064C35.2553 5.94587 35.2553 5.88502 35.2553 5.83025C35.2553 5.7481 35.2431 5.67204 35.1549 5.67204C34.9419 5.67204 34.4338 6.16494 34.3121 6.37184C34.3121 6.91648 34.3182 7.47329 34.3425 8.01792L33.8922 8.06965C33.8922 7.61934 33.8953 7.15989 33.8953 6.70654C33.734 6.98038 33.5606 7.24205 33.3963 7.50676C33.2806 7.38809 33.1833 7.24814 33.0737 7.12034C33.378 6.7461 33.6458 6.3323 33.874 5.88503V5.67812C33.6671 5.71767 33.4693 5.77244 33.2624 5.80591C33.238 5.65987 33.2167 5.51381 33.1833 5.37385C33.4115 5.34647 33.6427 5.33126 33.8618 5.26128C33.8618 4.96614 33.8496 4.66796 33.8374 4.37891C33.9378 4.38195 34.2208 4.40021 34.306 4.43064C34.3303 4.43976 34.3547 4.45193 34.3547 4.49148C34.3547 4.51278 34.3425 4.53408 34.3243 4.53712C34.3121 4.74706 34.303 4.95397 34.2999 5.15783C34.3638 5.13957 34.4277 5.10914 34.4946 5.08784C34.522 5.20042 34.5433 5.30996 34.5677 5.41645C34.5007 5.49861 34.4429 5.58684 34.3821 5.67812L34.3882 5.69029C34.6681 5.42862 34.9541 5.18521 35.3283 5.18521C35.5748 5.18521 35.7117 5.41645 35.7117 5.68725C35.7117 5.90327 35.6934 6.11626 35.6691 6.33533C35.6417 6.56353 35.6083 6.78869 35.6052 7.02298V7.03515C35.6022 7.12947 35.6144 7.26639 35.7178 7.26639C35.946 7.26639 36.0951 6.89823 36.1864 6.69133C36.2411 6.8891 36.2959 7.08383 36.3476 7.28464C36.1833 7.57065 35.946 7.75321 35.6448 7.75321V7.75626Z" fill="white"/>
<path d="M38.4106 8.14202C38.1063 8.14202 37.6134 8.01119 37.6134 7.54566C37.6134 7.21706 37.9055 7.06188 38.1428 7.06188C38.3588 7.06188 38.5718 7.21402 38.6479 7.46047C38.6692 7.53958 38.6814 7.62173 38.6844 7.70388C38.94 7.62477 39.156 7.3844 39.156 7.04666C39.156 6.58722 38.867 6.36511 38.514 6.36511C37.9602 6.36511 37.6408 6.89454 37.2939 7.33572C37.1813 7.21401 37.0687 7.09535 36.9531 6.97669C37.4825 6.42597 37.9511 5.79309 38.3436 5.09936C38.0515 5.16935 37.7564 5.22716 37.4643 5.29105L37.3821 4.76772C37.4217 4.7738 37.4582 4.7738 37.4978 4.7738C37.6621 4.7738 37.8233 4.7525 37.9846 4.72816C38.2067 4.69773 38.4349 4.66122 38.657 4.60341C38.7331 4.58515 38.8091 4.55473 38.8883 4.52734C38.9734 4.64601 39.0586 4.76163 39.1408 4.88334C39.1043 4.91377 39.0647 4.94724 39.0313 4.98071C38.9461 5.06894 38.867 5.18152 38.7939 5.27888C38.6175 5.51925 38.4532 5.76875 38.2828 6.01216C38.3923 5.98174 38.5079 5.97261 38.6205 5.97261C39.1317 5.97261 39.5972 6.29209 39.5972 6.9706C39.5972 7.7982 39.013 8.14202 38.4075 8.14202H38.4106ZM38.1002 7.41787C38.0302 7.41787 37.9876 7.4483 37.9876 7.53654C37.9876 7.70084 38.1976 7.72213 38.2919 7.72213C38.2736 7.59434 38.2371 7.41483 38.1002 7.41483V7.41787Z" fill="white"/>
<path d="M17.1058 13.2694C16.8411 13.0808 16.5703 12.8952 16.2751 12.7735C16.2721 13.0047 16.2508 13.2025 16.0682 13.3394C15.9374 13.4368 15.7214 13.5068 15.5662 13.5037C15.2011 13.4976 14.6504 13.3729 14.6595 12.8313C14.6656 12.4571 14.979 12.2441 15.265 12.2076C15.3593 12.1924 15.4597 12.1984 15.5571 12.1984C15.6453 12.1984 15.7305 12.2106 15.8127 12.2228C15.8127 12.0859 15.8066 11.9489 15.8005 11.8151C15.6788 11.8211 15.554 11.8242 15.4293 11.8211C15.1463 11.8181 14.7508 11.7907 14.7569 11.3495C14.7569 11.2187 14.7995 11.1 14.8512 10.9935L15.2437 10.9753C15.2132 11.0544 15.1585 11.1791 15.1585 11.2704C15.1585 11.4073 15.3106 11.4104 15.3897 11.4104C15.5236 11.4104 15.6575 11.4195 15.7853 11.3982C15.7731 11.1913 15.7731 10.9814 15.7731 10.7775C15.3593 10.7775 14.9455 10.8171 14.5347 10.8749C14.5104 10.7227 14.4952 10.5737 14.48 10.4246C14.909 10.3972 15.338 10.3728 15.7701 10.3637C15.7701 10.2298 15.7701 10.096 15.7701 9.95904V9.77344C15.8766 9.78865 15.977 9.79777 16.0804 9.81298C16.1321 9.82211 16.1899 9.82516 16.2417 9.83733C16.2599 9.84342 16.2812 9.8495 16.2812 9.87992C16.2812 9.91339 16.2538 9.9347 16.2325 9.94383C16.2234 10.0777 16.2204 10.2055 16.2173 10.3394C16.5459 10.3272 16.8715 10.3181 17.1971 10.315V10.7532C16.8685 10.7471 16.5429 10.744 16.2173 10.7532C16.2143 10.9631 16.2173 11.17 16.2234 11.38C16.5399 11.3495 16.8533 11.2978 17.1606 11.1974L17.1362 11.6873C16.835 11.7329 16.5368 11.7725 16.2356 11.7938C16.2356 11.9702 16.2417 12.1497 16.2508 12.3262C16.6281 12.451 17.0115 12.6153 17.3523 12.8526C17.2701 12.9926 17.1849 13.1325 17.0997 13.2694H17.1058ZM15.8248 12.6457C15.7183 12.597 15.6088 12.5788 15.4993 12.5757C15.3684 12.5757 15.1129 12.6244 15.1098 12.8283C15.1098 13.0291 15.3471 13.0899 15.481 13.093C15.6879 13.093 15.8248 12.9986 15.8279 12.7431C15.8279 12.7126 15.8279 12.6792 15.8279 12.6487L15.8248 12.6457Z" fill="white"/>
<path d="M20.3736 13.1198C20.0724 13.3723 19.689 13.4788 19.327 13.5305C19.2479 13.3936 19.187 13.2476 19.1018 13.1137C19.5126 13.0772 20.2611 12.9433 20.2611 12.3074C20.2611 11.9909 20.0176 11.8662 19.7803 11.8662C19.5643 11.8662 19.3087 11.9818 19.1353 12.1279C18.974 12.2617 18.8462 12.4747 18.7519 12.6755L18.3442 12.4565C18.6119 12.0822 18.7763 11.4615 18.8371 10.9838C18.6941 10.9929 18.5541 10.996 18.4111 10.996H18.113C18.1008 10.8378 18.0825 10.6826 18.0795 10.5244C18.2559 10.5457 18.4355 10.5578 18.615 10.5578C18.7032 10.5578 18.7915 10.5579 18.8797 10.5518C18.9101 10.284 18.9192 10.0102 18.9192 9.73633C19.0288 9.75154 19.1383 9.76676 19.2479 9.78198C19.2965 9.7911 19.3483 9.7911 19.3939 9.80631C19.4182 9.81544 19.4487 9.82761 19.4487 9.86717C19.4487 9.90672 19.4122 9.94019 19.3817 9.95236C19.3665 10.141 19.3574 10.3297 19.33 10.5153C19.7073 10.4848 20.0815 10.3996 20.4497 10.2931L20.4436 10.7952C20.0511 10.8682 19.6586 10.929 19.2631 10.9534C19.2174 11.2059 19.1718 11.4676 19.0896 11.708C19.3391 11.5406 19.6038 11.4767 19.8899 11.4767C20.3493 11.4767 20.7083 11.778 20.7083 12.3409C20.7083 12.6421 20.5775 12.9342 20.3676 13.1106L20.3736 13.1198Z" fill="white"/>
<path d="M24.1161 12.7845C23.748 13.1496 23.179 13.3017 22.7104 13.3778C22.6009 13.2378 22.4974 13.0887 22.3818 12.9609C22.6648 12.9244 22.9538 12.8636 23.2277 12.7632C23.6354 12.6141 24.0279 12.3433 24.0279 11.7591C24.0279 11.1749 23.7358 11.0045 23.3068 11.0045C22.8534 11.0045 22.4609 11.2449 22.0441 11.4244C21.8919 11.4913 21.7337 11.5491 21.5725 11.5917C21.5542 11.5309 21.3929 11.044 21.3929 11.0319C21.3929 10.9893 21.4386 11.0014 21.4599 11.0014C21.7581 11.0014 22.0715 10.8737 22.3605 10.7732C22.7135 10.6546 23.0634 10.542 23.4346 10.542C24.0218 10.542 24.5056 10.971 24.5056 11.7165C24.5056 12.1455 24.396 12.5106 24.1131 12.7845H24.1161ZM23.6688 10.4203C23.5593 10.2347 23.4315 10.0582 23.3007 9.89696L23.5776 9.73267C23.7084 9.89697 23.8332 10.0643 23.9336 10.2499L23.6688 10.4173V10.4203ZM24.1678 10.2834C24.0553 10.0856 23.9336 9.89392 23.7906 9.72657L24.0735 9.56836C24.2044 9.73875 24.3291 9.91522 24.4265 10.113L24.1678 10.2834Z" fill="white"/>
<path d="M27.1162 13.4698C26.8028 13.0104 26.4377 12.6149 26.0422 12.2558C25.9418 12.1585 25.8383 12.0641 25.7318 11.985C25.6679 11.9363 25.604 11.8938 25.5523 11.8268C25.5036 11.7599 25.4854 11.6838 25.4854 11.6017C25.4854 11.4404 25.5523 11.3491 25.6496 11.2457C25.82 11.0601 25.9996 10.8897 26.1669 10.7041C26.4164 10.4211 26.672 10.1351 26.9154 9.83691C27.0189 9.92515 27.1223 10.0073 27.2257 10.0955C27.2653 10.126 27.3109 10.1594 27.3444 10.1959C27.3535 10.2081 27.3627 10.2172 27.3627 10.2325C27.3627 10.2903 27.2836 10.2994 27.244 10.2903C27.0097 10.5154 26.7663 10.7375 26.5259 10.9657C26.4255 11.0601 26.3343 11.1666 26.2339 11.2609C26.1882 11.3065 26.1334 11.3491 26.0908 11.3978C26.0513 11.4374 26.0057 11.5012 26.0057 11.5651C26.0057 11.623 26.033 11.6564 26.0695 11.6899C26.2186 11.8329 26.386 11.9546 26.5411 12.0854C26.885 12.3897 27.2044 12.7335 27.4905 13.1078C27.3657 13.2234 27.244 13.3481 27.1193 13.4668L27.1162 13.4698Z" fill="white"/>
<path d="M29.1273 12.3743C29.0026 12.3652 28.8748 12.353 28.7531 12.3378C28.6527 12.0701 28.5979 11.6563 28.6071 11.3642C28.6223 10.9017 28.7014 10.4392 28.7562 9.98281C28.8657 9.99802 28.9813 10.0224 29.0908 10.0376C29.1304 10.0467 29.1821 10.0497 29.2217 10.065C29.2399 10.0741 29.2521 10.0832 29.2521 10.1106C29.2521 10.141 29.2247 10.1623 29.2065 10.1745C29.1061 10.5731 29.0391 10.9838 29.0239 11.4007C29.0239 11.4859 29.0239 11.5711 29.0239 11.6593C29.0239 11.6684 29.0209 11.6897 29.033 11.6897C29.0452 11.6897 29.0513 11.6563 29.0574 11.6532C29.1091 11.5163 29.1639 11.3855 29.2186 11.2546L29.4255 11.5619C29.3008 11.8206 29.1913 12.0853 29.1243 12.3743H29.1273ZM30.5787 10.1623C30.5757 10.6644 30.5726 11.1786 30.5544 11.6867C30.527 12.493 30.3535 13.2445 29.6994 13.6157C29.5929 13.5214 29.4347 13.4484 29.316 13.3815C29.3069 13.3784 29.2947 13.3754 29.2947 13.3602C29.2947 13.3419 29.313 13.3297 29.3251 13.3236C29.4134 13.275 29.4955 13.2263 29.5746 13.1593C29.9945 12.8094 30.0919 12.2283 30.1132 11.6532C30.1314 11.0873 30.1132 10.5092 30.0736 9.94629C30.1832 9.94933 30.3018 9.97672 30.4083 9.99194C30.4661 10.0041 30.5331 10.0041 30.5878 10.0224C30.6091 10.0284 30.6243 10.0406 30.6213 10.071C30.6213 10.1045 30.597 10.1349 30.5787 10.1593V10.1623Z" fill="white"/>
<path d="M34.3425 11.7168C34.3242 11.7168 34.309 11.7077 34.2907 11.6955C34.0412 11.7868 33.5635 11.9876 33.3353 12.1002V12.7604H32.9276C32.9307 12.6965 32.9307 12.6326 32.9307 12.5596V12.3192C32.6538 12.4562 32.5169 12.6326 32.5169 12.8304C32.5169 13.0038 32.6751 13.0921 32.9885 13.0921C33.3292 13.0921 33.6396 13.0464 33.9926 12.9217L33.9773 13.4237C33.6731 13.5302 33.3384 13.5485 33.1132 13.5485C32.4378 13.5485 32.1 13.3203 32.1 12.8608C32.1 12.6387 32.1974 12.4318 32.383 12.2432C32.4986 12.1276 32.6751 12.0028 32.9063 11.875C32.9002 11.6833 32.8455 11.5829 32.7451 11.5829C32.6173 11.5829 32.4986 11.6346 32.3891 11.7472C32.3191 11.8142 32.2309 11.9054 32.1244 12.0393C31.9966 12.1884 31.9175 12.2919 31.8688 12.3436C31.8079 12.2675 31.7106 12.1519 31.5828 11.9906C31.9692 11.6681 32.2582 11.2756 32.453 10.8253C32.2704 10.8496 32.0666 10.8679 31.8444 10.8801C31.8323 10.7158 31.811 10.5667 31.7897 10.4328C32.1122 10.4328 32.3799 10.4206 32.5808 10.3902C32.6234 10.2654 32.6599 10.0677 32.6964 9.79688L33.1619 9.90945C33.1893 9.91858 33.2045 9.93684 33.2045 9.96118C33.2045 9.98552 33.1863 10.0099 33.1497 10.0251C33.1315 10.0981 33.1011 10.2107 33.0585 10.3567C33.2167 10.3354 33.451 10.2715 33.7035 10.1985L33.667 10.6732C33.4784 10.7158 33.2228 10.7584 32.9063 10.804C32.8576 10.9348 32.7785 11.0931 32.6933 11.2361C32.7755 11.2087 32.8455 11.2056 32.8911 11.2056C33.101 11.2056 33.238 11.3547 33.3019 11.6651C33.5788 11.5099 33.8921 11.3517 34.2329 11.1874L34.3911 11.6681C34.3911 11.7046 34.379 11.7198 34.3485 11.7198L34.3425 11.7168Z" fill="white"/>
</svg>
