<svg width="50" height="50" viewBox="0 0 50 50" fill="none" xmlns="http://www.w3.org/2000/svg">
<path d="M50 0H0V50H50V0Z" fill="#ED6A02"/>
<path d="M4.64003 13.406C4.26579 13.0014 4.07714 12.3928 4.06801 11.5744V11.4344H5.78711C5.78711 11.8665 5.83275 12.1707 5.92099 12.3533C6.01227 12.5328 6.19787 12.6241 6.48084 12.6241C6.67557 12.6241 6.82466 12.5663 6.92203 12.4476C7.01939 12.3289 7.08937 12.1342 7.12892 11.8664C7.16848 11.5957 7.18674 11.2062 7.18674 10.695V9.73051C7.08329 9.90394 6.92507 10.0378 6.70295 10.1352C6.48388 10.2326 6.2283 10.2812 5.93924 10.2812C5.23335 10.2812 4.71914 10.0226 4.39662 9.50535C4.0741 8.9881 3.91284 8.30045 3.91284 7.44547C3.91284 5.30344 4.76783 4.23242 6.4778 4.23242C7.35713 4.23242 8.00522 4.50322 8.41902 5.04482C8.83586 5.58641 9.04276 6.33186 9.04276 7.28117V10.7528C9.04276 11.7813 8.85107 12.5815 8.47074 13.1535C8.09041 13.7255 7.42102 14.0115 6.46258 14.0115C5.61368 14.0115 5.00515 13.8107 4.6309 13.406H4.64003ZM7.18674 8.45563V6.93735C7.18674 6.5205 7.13501 6.1919 7.0346 5.94849C6.93115 5.70507 6.74859 5.58336 6.48084 5.58336C6.19787 5.58336 6.00923 5.7142 5.91491 5.97891C5.82058 6.24058 5.77495 6.66047 5.77495 7.23249C5.77495 7.6402 5.78712 7.95359 5.81146 8.16962C5.8358 8.38565 5.89969 8.55908 6.00618 8.69296C6.11268 8.82684 6.27394 8.89378 6.49606 8.89378C6.78511 8.89378 7.01635 8.74773 7.18978 8.45868L7.18674 8.45563Z" fill="white"/>
<path d="M37.8324 32.9005L31.8596 29.4532V22.5586C31.8596 22.4125 31.7836 22.2786 31.6558 22.2056L25.4822 18.6427C25.3575 18.5696 25.2023 18.5696 25.0745 18.6427L18.901 22.2056C18.7762 22.2786 18.6971 22.4125 18.6971 22.5586V29.4532L12.7274 32.9005C12.6027 32.9736 12.5236 33.1074 12.5236 33.2535V40.3824C12.5236 40.5285 12.5996 40.6624 12.7274 40.7354L18.901 44.2983C18.9649 44.3349 19.0348 44.3531 19.1048 44.3531C19.1748 44.3531 19.2448 44.3349 19.3087 44.2983L25.2784 40.851L31.2481 44.2983C31.312 44.3349 31.3819 44.3531 31.4519 44.3531C31.5219 44.3531 31.5919 44.3349 31.6558 44.2983L37.8293 40.7354C37.9541 40.6624 38.0332 40.5285 38.0332 40.3824V33.2535C38.0332 33.1074 37.9571 32.9736 37.8293 32.9005H37.8324ZM24.8737 39.6766L19.9203 36.8164L24.8737 33.9564V39.6766ZM30.6395 29.6875L25.6891 32.5446V26.8274L30.6395 29.6875ZM24.8737 32.5476L19.9233 29.6905L24.8737 26.8305V32.5476ZM26.0938 33.2535L31.4519 30.1591L36.8131 33.2535L31.4519 36.3479L26.0938 33.2535ZM31.0473 28.9846L26.0969 26.1246L31.0473 23.2645V28.9816V28.9846ZM24.466 26.1246L19.5156 28.9846V23.2675L24.466 26.1276V26.1246ZM18.7002 43.2395L13.342 40.1451V33.9564L18.7002 37.0507V43.2395ZM19.5125 43.2395V37.5223L24.4629 40.3824L19.5125 43.2395ZM37.2208 40.1482L31.8596 43.2425V37.0538L37.2208 33.9594V40.1482Z" fill="white"/>
<path d="M14.7477 6.11513C14.7477 6.22771 14.7538 6.33725 14.7538 6.44982C14.7538 6.89101 14.7143 7.3748 14.5895 7.79468C14.5378 7.97116 14.4374 8.25412 14.3309 8.39409L13.9901 8.14762C14.2883 7.72774 14.3431 7.08574 14.3431 6.55632C14.3431 6.29161 14.3339 6.02386 14.3248 5.75914H15.052C14.9881 5.62831 14.9242 5.49443 14.8542 5.36664L15.122 5.24493H14.3157V4.84938H15.5084V4.4082L15.9496 4.43863C15.9831 4.43863 16.0196 4.43863 16.0196 4.49035C16.0196 4.52078 15.9861 4.54816 15.9648 4.55424V4.84938H17.2092V5.24493H16.3725L16.6098 5.33621C16.6098 5.33621 16.6463 5.35143 16.6463 5.37881C16.6463 5.4062 16.6159 5.41836 16.5977 5.4214C16.5429 5.53398 16.4912 5.64656 16.4273 5.7561H17.3309V6.11513H14.7508H14.7477ZM14.7295 8.32106V7.9742H15.7731V7.58777H15.2193V7.25309H15.7731V6.93056H15.3106C15.2406 7.15267 15.1554 7.39609 15.0429 7.59082L14.7386 7.38696C14.912 7.0401 15.0124 6.62326 15.0611 6.22467L15.4506 6.3342C15.4688 6.33724 15.4932 6.34941 15.4932 6.37984C15.4932 6.41635 15.4628 6.42853 15.4384 6.43157C15.4232 6.48329 15.408 6.53502 15.3928 6.58675H15.767V6.17903L16.2143 6.21554C16.2356 6.21554 16.2508 6.24597 16.2508 6.27031C16.2508 6.31291 16.2021 6.34029 16.1747 6.34637V6.5624H17.121V6.9184H16.1747V7.23787H16.9293V7.58169H16.1747V7.95898H17.2579V8.31497H14.7295V8.32106ZM15.2832 5.24493C15.335 5.38794 15.411 5.64048 15.4536 5.78653C15.3989 5.80783 15.3167 5.82912 15.265 5.7561H16.0409C16.0895 5.58571 16.1321 5.41837 16.1656 5.24493H15.2832Z" fill="white"/>
<path d="M21.1131 8.37008C20.6536 8.24533 20.1364 7.97758 19.8108 7.5729V8.41876H19.4031V7.56378C19.0988 7.95019 18.5572 8.21186 18.1343 8.34878L17.8909 7.99279C18.2682 7.88326 18.825 7.6794 19.0927 7.3447H18.0369V6.99175H19.4061V6.82137H18.3807V6.49884H19.4061V6.3102H18.1586V5.96638H18.9193C18.8797 5.86597 18.8432 5.76557 18.7945 5.66516H17.9943V5.30308H18.6181C18.5268 5.12661 18.4294 4.95622 18.3108 4.798L18.7033 4.55763C18.7915 4.76757 18.8767 4.98056 18.9558 5.19659L18.7489 5.30308H19.0836V4.48461L19.4944 4.52416C19.5157 4.52416 19.5339 4.53633 19.5339 4.56676C19.5339 4.59718 19.5004 4.62152 19.4791 4.63065V5.30308H19.7286V4.47852L20.1485 4.51199C20.1698 4.51199 20.1881 4.53329 20.1881 4.55763C20.1881 4.58805 20.1516 4.60936 20.1333 4.61848V5.29699H20.4406L20.2581 5.19963C20.3402 4.9836 20.4224 4.77366 20.4863 4.55155L20.9061 4.75236C20.9274 4.76453 20.9548 4.78279 20.9548 4.81626C20.9548 4.86494 20.8909 4.86798 20.8666 4.86798C20.7753 5.01402 20.684 5.15703 20.5928 5.29699H21.2378V5.66211H20.4437C20.3859 5.76556 20.328 5.86293 20.2672 5.96333H21.11V6.30716H19.8108V6.4958H20.8636V6.81832H19.8108V6.98871H21.1952V7.34166H20.0938C20.3311 7.66418 21.0035 7.88934 21.3565 7.98062L21.1191 8.36703L21.1131 8.37008ZM19.2327 5.6682L19.2875 5.96943H19.8838C19.9112 5.86902 19.9325 5.7686 19.9538 5.6682H19.2296H19.2327Z" fill="white"/>
<path d="M23.4681 8.33699C22.9538 8.33699 22.1323 8.25483 22.1323 7.43635C22.1323 6.83999 22.5644 6.53573 22.9721 6.32883C22.8504 5.83592 22.8352 5.32171 22.8291 4.81055C22.9356 4.81967 23.0482 4.82576 23.1577 4.83793C23.2125 4.84097 23.2642 4.84705 23.319 4.85314C23.3372 4.85618 23.3585 4.86531 23.3585 4.8927C23.3585 4.90791 23.3433 4.92616 23.3342 4.93833C23.3159 5.06612 23.3129 5.20608 23.3129 5.33388C23.3129 5.49209 23.3098 5.9911 23.3798 6.10063C23.3889 6.10976 23.4011 6.1128 23.4133 6.1128C23.5502 6.1128 24.18 5.82071 24.32 5.73247C24.3748 5.91807 24.4113 6.10976 24.4539 6.2984C24.0036 6.40489 22.5735 6.68177 22.5735 7.38767C22.5735 7.78626 23.106 7.86537 23.3555 7.86537C23.7632 7.86537 24.1253 7.82277 24.5117 7.67368C24.533 7.8532 24.5512 8.0388 24.5604 8.22136C24.2013 8.30047 23.8332 8.33699 23.4711 8.33699H23.4681Z" fill="white"/>
<path d="M26.4164 6.65142V7.57335C26.4164 7.98411 26.2704 8.30967 25.9509 8.49527L25.6345 8.20318C25.89 8.0693 26.0148 7.84718 26.0148 7.51554V6.82789C25.9144 6.89787 25.8079 6.95265 25.7075 7.02567C25.7075 7.05914 25.6892 7.1139 25.6527 7.1139C25.6314 7.1139 25.6223 7.09261 25.6162 7.07131L25.4915 6.59969C25.6649 6.52363 25.8414 6.44452 26.0117 6.35933V5.7508H25.5797V5.3735H26.0087V4.5459L26.4286 4.60067C26.4286 4.60067 26.4681 4.61893 26.4681 4.63718C26.4681 4.66761 26.4347 4.69803 26.4164 4.7102V5.37047H26.6811V5.74775H26.4073V6.22849L26.7176 6.07027V6.47494C26.6172 6.5358 26.5138 6.58449 26.4134 6.64534L26.4164 6.65142ZM28.671 8.4831C28.3272 8.34922 27.9986 8.11494 27.7278 7.83197C27.4448 8.10277 27.1132 8.33097 26.7572 8.44659L26.4651 8.12102C26.815 8.02366 27.1832 7.80459 27.4479 7.51554C27.241 7.24778 27.0736 6.94351 26.9489 6.61795L27.1102 6.46886H26.8302V6.11287H27.4722V5.56519H26.7663V5.18181H27.457V4.5459L27.8952 4.58545C27.9286 4.5885 27.953 4.60371 27.953 4.64935C27.953 4.68282 27.9043 4.7102 27.883 4.71933V5.17878H28.7806V5.56519H27.8769V6.11287H28.5828V6.37149C28.5828 6.37149 28.5372 6.52972 28.528 6.5571C28.4124 6.92222 28.239 7.25995 28.0047 7.53379C28.2299 7.79546 28.6437 7.97498 28.9449 8.08451L28.671 8.48614V8.4831ZM27.314 6.45973C27.4083 6.7427 27.5513 7.01046 27.7309 7.23257C27.8799 7.02263 28.0321 6.72444 28.096 6.45973H27.317H27.314Z" fill="white"/>
<path d="M31.1995 5.93266V8.46416H30.7948V5.93875H30.3384V5.88399C30.2532 6.04829 30.1741 6.20955 30.0798 6.36472V8.47937H29.6751V6.89719C29.6112 6.97325 29.5382 7.04628 29.4622 7.11626L29.2583 6.77852C29.6112 6.45296 29.8881 5.98135 30.0768 5.50366L30.3384 5.73794V5.57363H30.7857V4.64258L31.2026 4.68518C31.2269 4.69127 31.2665 4.69735 31.2665 4.7369C31.2665 4.7795 31.2269 4.80993 31.1965 4.81906V5.57363H31.6955V5.93571H31.1965L31.1995 5.93266ZM30.3111 5.03508C30.1072 5.33022 29.8881 5.62231 29.6234 5.84139L29.3283 5.57059C29.6082 5.32718 29.8334 5.00769 29.9977 4.64866L30.375 4.91033C30.3932 4.92555 30.4115 4.94076 30.4115 4.96814C30.4115 5.02291 30.3506 5.04421 30.3141 5.03813L30.3111 5.03508ZM30.6792 6.54728C30.6549 6.91545 30.591 7.71871 30.4784 8.03819L30.165 7.7613C30.2837 7.29273 30.3111 6.78765 30.3202 6.30387L30.7005 6.44384C30.7005 6.44384 30.7249 6.47121 30.7249 6.48643C30.7249 6.51381 30.6914 6.53816 30.6762 6.54728H30.6792ZM31.5099 7.77043C31.3973 7.38097 31.3395 6.87893 31.306 6.46513L31.6498 6.36168C31.6833 6.76939 31.7411 7.18016 31.8415 7.5757L31.5099 7.76738V7.77043ZM31.8415 5.30892V4.99248C31.8385 5.01682 31.8111 5.02596 31.7959 5.02596C31.7411 5.18113 31.6863 5.33935 31.6255 5.49453L31.3638 5.37586C31.4155 5.17809 31.449 4.98031 31.4916 4.78254L31.8324 4.94989L31.8446 4.96814V4.89208H32.6204V5.31197H31.8446L31.8415 5.30892ZM32.3983 6.33734V7.70958C32.3983 8.14164 32.2492 8.39114 31.8902 8.49763L31.6194 8.16294C31.8659 8.08991 31.9997 7.98342 31.9997 7.6609V6.3343H31.6863V5.96309H32.6813V6.3343H32.4014L32.3983 6.33734Z" fill="white"/>
<path d="M35.0271 7.91717V8.56526H34.6225V7.91717H33.2076V7.53379H34.6225V7.25691H33.6154V6.0794H34.6225V5.86946H34.0778V5.34916H33.3233V4.97188H34.0718V4.5459L34.4947 4.57633C34.5129 4.57633 34.5403 4.59154 34.5403 4.61893C34.5403 4.64631 34.5038 4.67673 34.4856 4.6889V4.97188H35.1732V4.5459L35.5961 4.57633C35.6144 4.57633 35.6448 4.59154 35.6448 4.61893C35.6448 4.64631 35.6083 4.67673 35.59 4.6889V4.97188H36.3203V5.34916H35.5931V5.86946H35.018V6.0794H36.0708V7.25691H35.018V7.53379H36.4694V7.91717H35.0241H35.0271ZM34.6225 6.41409H34.0109V6.907H34.6225V6.41409ZM35.1762 5.33091H34.4886V5.56519H35.1762V5.33091ZM35.657 6.41409H35.0211V6.907H35.657V6.41409Z" fill="white"/>
<path d="M38.1185 6.35658V6.61216H38.6692V6.95599H38.1641C38.2797 7.14463 38.4562 7.28155 38.6175 7.40326L38.4166 7.72578C38.3071 7.64667 38.2128 7.54626 38.1215 7.43369V8.49862H37.7412V7.48237C37.6103 7.69231 37.4369 7.90834 37.2574 8.04222L36.9927 7.74403C37.2361 7.54322 37.4886 7.2846 37.6316 6.95903H37.1205V6.61521H37.7442V6.35963H37.0992V6.01276H37.513C37.4521 5.84846 37.3913 5.68415 37.3182 5.52593L37.5738 5.43161H37.1631V5.0665H37.7351V4.56445L38.158 4.5888C38.1824 4.5888 38.2128 4.60705 38.2128 4.64052C38.2128 4.68007 38.1854 4.70442 38.158 4.71355V5.0665H38.6692V5.43161H38.2675L38.517 5.57462C38.5414 5.58679 38.5536 5.61113 38.5536 5.62026C38.5536 5.66894 38.5018 5.68111 38.4744 5.68111C38.4258 5.79369 38.371 5.90322 38.3132 6.00972H38.6905V6.35658H38.1245H38.1185ZM37.7047 5.42858C37.7442 5.58984 37.8385 5.95191 37.872 6.11621C37.802 6.15272 37.6803 5.97929 37.6134 6.00972H37.9937C38.0393 5.81803 38.0819 5.62331 38.1154 5.42858H37.7077H37.7047ZM39.9075 6.36266V8.46819H39.4968V6.36266H39.2169C39.2138 7.08073 39.1012 7.99657 38.5992 8.44689L38.301 8.18522C38.8091 7.71057 38.8304 6.90426 38.8304 6.18315C38.8304 5.78456 38.8183 5.37989 38.8152 4.98131L39.0586 4.99956C39.1012 4.99652 39.2016 4.96913 39.299 4.92958C39.4694 4.86872 39.8071 4.72268 39.9167 4.65574L40.1966 5.16082C40.1966 5.20342 40.1662 5.22471 40.1357 5.22471C40.1114 5.22471 40.0871 5.21559 40.0658 5.19733C39.7919 5.26123 39.5089 5.30078 39.229 5.33729V6.00363H40.2514V6.36571H39.9136L39.9075 6.36266Z" fill="white"/>
<path d="M42.5972 8.33989C42.4876 8.2121 42.3872 8.07215 42.2777 7.9474C42.8375 7.78005 43.3578 7.53359 43.3578 6.69381C43.3578 6.12179 43.0809 5.6015 42.6154 5.48892C42.5211 6.25567 42.3324 7.47579 41.7726 7.92914C41.6691 8.01434 41.5657 8.0691 41.444 8.0691C41.2979 8.0691 41.1549 7.9474 41.0636 7.81352C40.8963 7.57315 40.8354 7.21411 40.8354 6.90376C40.8354 5.81753 41.5566 5.05078 42.4024 5.05078C43.1813 5.05078 43.8173 5.63193 43.8173 6.66643C43.8173 7.634 43.3 8.13908 42.5972 8.34294V8.33989ZM41.3497 6.29523C41.2827 6.48691 41.2493 6.69382 41.2493 6.90376C41.2493 7.08632 41.2797 7.55794 41.4805 7.55794C41.5505 7.55794 41.6113 7.47274 41.6539 7.41493C41.9886 6.98896 42.1286 6.0792 42.1651 5.49805C41.8456 5.56803 41.4805 5.92402 41.3497 6.29523Z" fill="white"/>
<path d="M17.2032 13.154C16.9841 13.0627 16.7772 12.935 16.5855 12.7767V13.0354H15.8887V13.3183H16.978V13.6652H14.4191V13.3183H15.4932V13.0354H14.8147V12.7463C14.6199 12.9045 14.41 13.0384 14.1909 13.1418L13.9475 12.8163C14.3005 12.6672 14.6565 12.4512 14.909 12.1226H14.0631V11.7453H14.8238V10.6256H14.197V10.2574H14.8177V9.79797L15.2346 9.8223C15.2559 9.8223 15.2771 9.83753 15.2771 9.86795C15.2771 9.89838 15.2437 9.92272 15.2224 9.93185V10.2544H16.1656V9.79492L16.5916 9.81927C16.6129 9.81927 16.6403 9.83448 16.6403 9.86491C16.6403 9.89533 16.6068 9.91967 16.5855 9.9288V10.2513H17.1666V10.6195H16.5855V11.7392H17.3279V12.1165H16.4577C16.6616 12.4238 17.1514 12.652 17.4648 12.7767L17.2032 13.151V13.154ZM15.9496 12.0982H15.411C15.268 12.3264 15.0855 12.5181 14.8907 12.6854H15.4932V12.3082L15.8979 12.3386C15.9161 12.3386 15.9465 12.3508 15.9465 12.3812C15.9465 12.4147 15.9161 12.442 15.8918 12.4481V12.6824H16.4851C16.2873 12.5151 16.0987 12.3234 15.9526 12.0952L15.9496 12.0982ZM16.1656 10.6225H15.2254V10.8081H16.1656V10.6225ZM16.1656 11.1033H15.2254V11.2797H16.1656V11.1033ZM16.1656 11.5718H15.2254V11.7605H16.1656V11.5718Z" fill="white"/>
<path d="M21.2074 12.3378C20.9092 12.2648 20.6475 12.1705 20.3858 11.9849C20.1728 12.1127 19.9446 12.204 19.7104 12.2648L19.5035 11.9819C19.4365 12.1796 19.2722 12.2526 19.111 12.2983L18.8767 12.0458C19.0836 11.9849 19.1809 11.921 19.1809 11.6502V11.1786L19.0592 11.1908V11.8875H18.7611V11.2273L18.6698 11.2364C18.6546 11.6472 18.5846 12.0944 18.3168 12.3865L17.9973 12.1888C18.1921 11.9453 18.2986 11.6137 18.2986 11.2851C18.2408 11.2973 18.1829 11.3155 18.1221 11.3277C18.116 11.3581 18.0947 11.3885 18.0643 11.3885C18.0369 11.3885 18.0278 11.3551 18.0186 11.3277L17.9274 10.9413C18.0491 10.9413 18.1738 10.9413 18.2955 10.9321C18.2955 10.64 18.2864 10.3449 18.2864 10.0528H18.6698C18.7154 9.94023 18.7519 9.82461 18.7854 9.70898L19.2418 9.76376C19.2631 9.76984 19.2844 9.79114 19.2844 9.81548C19.2844 9.87329 19.2205 9.89459 19.184 9.89763C19.1383 9.94935 19.0957 10.0011 19.0471 10.0528H19.543V11.5833C19.543 11.7171 19.54 11.851 19.5004 11.9727C19.6982 11.9271 19.8899 11.8571 20.0694 11.7506C19.9507 11.6532 19.8442 11.5376 19.7469 11.4159C19.7956 11.3764 19.8473 11.3429 19.899 11.3094H19.6404V10.996H19.9051L19.6008 10.8561C19.7377 10.6644 19.7712 10.4666 19.7712 10.2202C19.7712 10.1228 19.7682 10.0193 19.7651 9.91893H20.8027C20.7996 10.0863 20.7935 10.2536 20.7935 10.421C20.7935 10.5275 20.8148 10.567 20.9122 10.567C21.04 10.567 21.2195 10.4423 21.326 10.3601L21.2986 10.8013C21.1526 10.8743 20.9944 10.92 20.8361 10.92C20.5593 10.92 20.4102 10.8895 20.4102 10.5396C20.4102 10.4453 20.4132 10.3479 20.4132 10.2536H20.1516C20.1424 10.5275 20.1059 10.8074 19.9203 10.996H21.1495V11.2394C21.0491 11.4311 20.8696 11.6289 20.7053 11.7506C20.9122 11.8723 21.183 11.9301 21.4112 11.9666L21.2074 12.3409V12.3378ZM18.0521 13.6766V13.3298H18.4659V12.3226H20.8909V13.3298H21.2652V13.6766H18.0491H18.0521ZM19.1749 10.3753H18.6728V10.5822C18.7611 10.5214 18.8493 10.4636 18.9375 10.4058C19.0075 10.5092 19.0714 10.6157 19.1383 10.7222L18.9284 10.9017L19.1749 10.8835V10.3723V10.3753ZM18.6728 10.5883V10.92L18.9162 10.9017C18.8371 10.7952 18.7611 10.6826 18.6728 10.5883ZM19.1688 12.6573H18.8645V13.3358H19.1688V12.6573ZM19.8229 12.6573H19.5278V13.3358H19.8229V12.6573ZM20.1363 11.3094C20.2215 11.3946 20.3006 11.4859 20.398 11.5528C20.4893 11.4859 20.5745 11.4037 20.6445 11.3094H20.1394H20.1363ZM20.4984 12.6573H20.182V13.3358H20.4984V12.6573Z" fill="white"/>
<path d="M24.9103 11.793C24.892 11.793 24.8738 11.7838 24.8555 11.7717C24.5908 11.8599 24.0827 12.0638 23.8393 12.1733V12.8336L23.4072 12.8275C23.4103 12.7666 23.4103 12.7027 23.4103 12.6297V12.3893C23.1182 12.5262 22.9691 12.7027 22.9691 12.9005C22.9691 13.0709 23.1395 13.1622 23.4711 13.1622C23.8332 13.1622 24.1648 13.1165 24.5391 12.9918L24.5239 13.4938C24.2013 13.6033 23.8454 13.6186 23.6019 13.6186C22.8808 13.6186 22.5248 13.3904 22.5248 12.9309C22.5248 12.7088 22.6252 12.5019 22.8261 12.3133C22.9508 12.1976 23.1395 12.0729 23.3829 11.9451C23.3768 11.7534 23.3159 11.653 23.2094 11.653C23.0725 11.653 22.9478 11.7047 22.8322 11.8173C22.7591 11.8842 22.6618 11.9755 22.5492 12.1094C22.4123 12.2585 22.3301 12.3619 22.2784 12.4137C22.2114 12.3376 22.111 12.222 21.9741 12.0638C22.3849 11.7412 22.6922 11.3518 22.8991 10.9015C22.7044 10.9258 22.4883 10.9441 22.254 10.9562C22.2388 10.7919 22.2175 10.6428 22.1962 10.509C22.5401 10.509 22.823 10.4968 23.036 10.4664C23.0816 10.3416 23.1212 10.1438 23.1608 9.87305L23.6567 9.98562C23.6871 9.99475 23.7023 10.013 23.7023 10.0374C23.7023 10.0617 23.6841 10.086 23.6415 10.1012C23.6232 10.1743 23.5898 10.2868 23.5441 10.4329C23.7115 10.4116 23.961 10.3477 24.2318 10.2747L24.1922 10.7463C23.9914 10.7889 23.7176 10.8315 23.3798 10.8771C23.3281 11.0049 23.2429 11.1662 23.1516 11.3061C23.2399 11.2788 23.3129 11.2757 23.3616 11.2757C23.5837 11.2757 23.7297 11.4248 23.7967 11.7352C24.0888 11.58 24.4235 11.4218 24.7886 11.2605L24.9559 11.7412C24.9559 11.7747 24.9438 11.793 24.9103 11.793Z" fill="white"/>
<path d="M27.7095 13.2422C27.4935 13.3213 27.2744 13.3882 27.0523 13.4186C26.9397 13.2848 26.8333 13.1418 26.7115 13.02C26.9945 12.9653 27.2836 12.9014 27.5574 12.7949C27.9621 12.6336 28.3454 12.3476 28.3333 11.7695C28.3211 11.2036 28.029 11.0241 27.6 11.0332C27.0067 11.0514 26.456 11.4987 25.8779 11.6661C25.8596 11.6052 25.6892 11.1306 25.6892 11.1093C25.6892 11.0667 25.7409 11.0819 25.7653 11.0819C26.0482 11.0727 26.3738 10.9328 26.6477 10.8354C26.9976 10.7015 27.3505 10.5798 27.7217 10.5707C28.3029 10.5555 28.7988 10.9754 28.8171 11.7147C28.8353 12.6062 28.3607 13.0018 27.7156 13.2422H27.7095Z" fill="white"/>
<path d="M31.449 13.6865C31.1264 13.2149 30.7522 12.8071 30.3445 12.439C30.241 12.3416 30.1345 12.2412 30.025 12.1591C29.9581 12.1073 29.8942 12.0647 29.8394 11.9978C29.7877 11.9309 29.7694 11.8517 29.7694 11.7665C29.7694 11.6022 29.8394 11.5079 29.9368 11.4014C30.1132 11.2128 30.2958 11.0363 30.4692 10.8446C30.7279 10.5525 30.9865 10.2604 31.236 9.95312C31.3425 10.0444 31.449 10.1296 31.5554 10.2209C31.595 10.2513 31.6437 10.2848 31.6772 10.3243C31.6893 10.3365 31.6954 10.3456 31.6954 10.3639C31.6954 10.4217 31.6133 10.4308 31.5737 10.4217C31.3333 10.6529 31.0808 10.8811 30.8374 11.1185C30.7339 11.2158 30.6396 11.3254 30.5362 11.4227C30.4875 11.4714 30.4327 11.514 30.3901 11.5627C30.3506 11.6053 30.3019 11.6692 30.3019 11.7331C30.3019 11.7939 30.3323 11.8274 30.3688 11.8609C30.524 12.0069 30.6944 12.1317 30.8526 12.2686C31.2055 12.582 31.5372 12.9349 31.8293 13.3183C31.7015 13.437 31.5768 13.5678 31.449 13.6865Z" fill="white"/>
<path d="M33.8618 13.6347C33.807 13.5099 33.7401 13.3913 33.664 13.2817C33.658 13.2695 33.6458 13.2574 33.6458 13.2422C33.6458 13.23 33.664 13.2269 33.6701 13.2209C33.8527 13.2056 34.0322 13.1996 34.2117 13.1539C34.5951 13.0535 34.942 12.8588 34.942 12.3354C34.942 11.8973 34.6773 11.7421 34.3395 11.7421C33.9318 11.7421 33.6397 12.0038 33.378 12.3415C33.232 12.5332 33.0981 12.734 32.9703 12.9409C32.8456 12.8284 32.7208 12.7127 32.5961 12.6002C32.9916 12.1133 33.3111 11.6995 33.6458 11.1549C33.7401 10.9967 33.8983 10.7654 33.9622 10.589C33.8649 10.6103 33.7705 10.6407 33.6762 10.665C33.5028 10.7137 33.3263 10.7654 33.1529 10.8019C33.1255 10.6346 33.1011 10.4673 33.0677 10.2999C33.4724 10.2573 33.874 10.1934 34.2726 10.09C34.3608 10.0687 34.443 10.0443 34.5251 10.0078C34.5586 10.0535 34.7564 10.3364 34.7564 10.3729C34.7564 10.4155 34.7107 10.4277 34.6864 10.4338C34.5586 10.5159 34.0565 11.2401 33.9379 11.4196C34.0931 11.377 34.2543 11.3466 34.4156 11.3466C34.9785 11.3466 35.4166 11.6874 35.4166 12.3872C35.4166 13.3 34.4916 13.5951 33.8618 13.6316V13.6347Z" fill="white"/>
<path d="M37.1418 13.7078C37.0079 13.58 36.871 13.4491 36.728 13.3335C37.0961 13.2179 37.583 12.9714 37.7838 12.5668C37.8842 12.372 37.9268 12.1438 37.9268 11.9187C37.9268 11.5262 37.802 11.301 37.4612 11.301C37.2239 11.301 36.6397 11.6235 36.4207 11.7726C36.3963 11.7057 36.2198 11.2523 36.2198 11.2128C36.2198 11.1823 36.2564 11.1854 36.2716 11.1854C36.3507 11.1854 36.6397 11.0941 36.728 11.0576C37.014 10.9511 37.2787 10.8324 37.583 10.8324C38.1702 10.8324 38.4288 11.3071 38.4288 11.9643C38.4288 12.868 37.802 13.4491 37.1448 13.7047L37.1418 13.7078ZM37.7838 10.5343C37.446 10.37 37.1053 10.227 36.7462 10.1387C36.8162 9.9805 36.8831 9.82228 36.9501 9.66406C37.3182 9.74013 37.6742 9.88314 38.015 10.0657C37.942 10.2239 37.869 10.3821 37.7838 10.5373V10.5343Z" fill="white"/>
</svg>
