<svg width="50" height="50" viewBox="0 0 50 50" fill="none" xmlns="http://www.w3.org/2000/svg">
<path d="M50 0H0V50H50V0Z" fill="#003067"/>
<path d="M4.36002 6.23399C4.27483 6.27963 4.02227 6.38004 3.60543 6.52913C3.27682 6.63867 3.06688 6.71473 2.98169 6.75428V5.40031C3.24944 5.2999 3.57197 5.14167 3.9523 4.92869C4.33263 4.7157 4.60039 4.52402 4.75861 4.35059H6.18257V13.8832H4.35698V6.23399H4.36002Z" fill="white"/>
<path d="M9.85505 5.73804H7.26575V4.35059H11.632V5.54027L9.61772 13.8863H7.85298L9.85505 5.74108V5.73804Z" fill="white"/>
<path d="M37.7684 30.35C37.7684 26.8235 34.9631 23.9391 31.4671 23.8144C30.5665 21.2737 28.1415 19.4512 25.2996 19.4512C22.4578 19.4512 20.0328 21.2768 19.1322 23.8144C15.6361 23.9421 12.8308 26.8235 12.8308 30.35C12.8308 32.4433 13.8197 34.3085 15.3562 35.5073C15.1889 36.0854 15.0976 36.6939 15.0976 37.3238C15.0976 40.9293 18.0338 43.8655 21.6393 43.8655C23.0085 43.8655 24.2803 43.4425 25.3331 42.7214C26.3737 43.4182 27.6212 43.8229 28.963 43.8229C32.5716 43.8229 35.5047 40.8867 35.5047 37.2812C35.5047 36.6635 35.4165 36.0671 35.2582 35.5012C36.7857 34.3024 37.7715 32.4403 37.7715 30.35M30.5239 25.9899C30.5239 28.6096 28.5857 30.7759 26.0694 31.1502C26.0299 30.8885 26.0025 30.6208 26.0025 30.3469C26.0025 27.7272 27.9406 25.5578 30.4569 25.1835C30.4965 25.4452 30.5239 25.713 30.5239 25.9868M25.3209 41.0206C24.3442 40.0713 23.7327 38.7447 23.7327 37.2781C23.7327 35.8115 24.3229 34.5245 25.2722 33.5782C26.2489 34.5276 26.8605 35.8541 26.8605 37.3207C26.8605 38.7873 26.2702 40.0743 25.3209 41.0206ZM20.1423 25.1866C22.6586 25.5608 24.5968 27.7302 24.5968 30.35C24.5968 30.6238 24.5694 30.8916 24.5268 31.1532C22.0105 30.779 20.0724 28.6096 20.0724 25.9929C20.0724 25.719 20.0997 25.4513 20.1393 25.1896M24.0369 32.6867C23.1759 34.3967 21.4111 35.5742 19.3695 35.5742C18.5054 35.5742 17.6899 35.3582 16.9688 34.984C17.8299 33.274 19.5946 32.0965 21.6363 32.0965C22.5034 32.0965 23.3158 32.3125 24.0369 32.6867ZM26.541 32.6502C27.2652 32.2699 28.0867 32.0539 28.9569 32.0539C31.0107 32.0539 32.7876 33.2496 33.6396 34.9779C32.9154 35.3582 32.0939 35.5742 31.2237 35.5742C29.1699 35.5742 27.393 34.3784 26.541 32.6502ZM25.2966 20.7656C27.4386 20.7656 29.2794 22.0618 30.0857 23.9087C27.9589 24.2829 26.185 25.6856 25.2966 27.5842C24.4081 25.6856 22.6343 24.2829 20.5074 23.9087C21.3138 22.0618 23.1576 20.7656 25.2966 20.7656ZM14.1452 30.35C14.1452 27.6572 16.193 25.4361 18.8096 25.1562C18.7762 25.43 18.7549 25.7099 18.7549 25.9929C18.7549 27.9067 19.5794 29.6289 20.8908 30.8246C18.7214 31.0711 16.8684 32.3825 15.8735 34.2233C14.8146 33.2679 14.1422 31.8865 14.1422 30.35M16.412 37.3238C16.412 36.9526 16.4516 36.5905 16.5276 36.2406C17.3887 36.6574 18.3532 36.8917 19.3725 36.8917C20.5196 36.8917 21.5937 36.5965 22.5308 36.0763C22.4578 36.4657 22.4182 36.8674 22.4182 37.2812C22.4182 39.0489 23.1241 40.6524 24.2682 41.8299C23.4953 42.2833 22.5977 42.548 21.6393 42.548C18.7579 42.548 16.4151 40.2052 16.4151 37.3238M34.1842 37.2781C34.1842 40.1595 31.8413 42.5023 28.9599 42.5023C28.0228 42.5023 27.1435 42.2498 26.3828 41.8177C27.4934 40.6433 28.178 39.0611 28.178 37.3238C28.178 36.8947 28.1354 36.4779 28.0563 36.0732C28.9965 36.5965 30.0766 36.8947 31.2237 36.8947C32.246 36.8947 33.2136 36.6574 34.0777 36.2375C34.1477 36.5753 34.1842 36.9252 34.1842 37.2812M29.7419 30.7851C31.029 29.5893 31.8383 27.8824 31.8383 25.9899C31.8383 25.7069 31.817 25.427 31.7835 25.1531C34.4033 25.4331 36.4479 27.6542 36.4479 30.3469C36.4479 31.8774 35.7846 33.2496 34.7319 34.2081C33.7461 32.3642 31.9052 31.0437 29.7419 30.7851Z" fill="white"/>
<path d="M16.6555 5.28223C16.6251 5.46783 16.5855 5.64735 16.5369 5.82382C16.3725 6.45974 16.1291 7.07436 15.7519 7.53684C15.6271 7.41818 15.4841 7.32082 15.3533 7.21737C15.9405 6.53581 16.1048 5.77819 16.2235 4.79845L16.7012 5.15445C16.7012 5.15445 16.7225 5.18791 16.7225 5.20617C16.7225 5.24572 16.6859 5.27006 16.6586 5.27919L16.6555 5.28223ZM18.0034 7.3695C17.8361 6.60579 17.5318 5.74472 17.1484 5.12097L17.5257 4.80453C17.8787 5.37655 18.2651 6.2924 18.4263 6.99525L18.0034 7.3695ZM18.0795 4.97492C17.8787 4.97492 17.7144 4.76194 17.7144 4.49723C17.7144 4.23252 17.8787 4.01953 18.0795 4.01953C18.2803 4.01953 18.4476 4.23556 18.4476 4.49723C18.4476 4.7589 18.2833 4.97492 18.0795 4.97492ZM18.0795 4.24468C17.973 4.24468 17.8878 4.3603 17.8878 4.50027C17.8878 4.64023 17.973 4.75585 18.0795 4.75585C18.186 4.75585 18.2742 4.63719 18.2742 4.50027C18.2742 4.36335 18.186 4.24468 18.0795 4.24468Z" fill="white"/>
<path d="M21.2042 6.16743C21.0064 6.15526 20.8482 6.15526 20.6839 6.15526C20.4983 6.14918 19.3025 6.15527 18.8583 6.17048C18.8522 5.99401 18.8401 5.76885 18.837 5.63801C18.834 5.57108 18.8614 5.56803 18.8827 5.57108C18.9435 5.58933 19.0561 5.59846 19.0865 5.6015C19.2995 5.61368 19.622 5.61063 19.8685 5.61063C20.3766 5.61063 20.6535 5.59542 21.2225 5.58933C21.2133 5.76581 21.2072 5.99096 21.2042 6.16439V6.16743Z" fill="white"/>
<path d="M23.5227 6.50827C23.2002 6.23138 22.8594 5.99406 22.4943 5.80846C22.4943 5.88148 22.4943 5.94842 22.4943 6.01536V7.00118C22.4943 7.2598 22.5004 7.52451 22.5034 7.78314H22.0135C22.0379 7.22025 22.0409 6.65432 22.0409 6.09142C22.0409 5.43725 22.0349 4.78003 22.0227 4.12891L22.5278 4.18672C22.5521 4.1928 22.5765 4.20498 22.5765 4.23845C22.5765 4.278 22.546 4.30539 22.5217 4.31756C22.5126 4.71919 22.5034 5.11777 22.4973 5.5194C22.543 5.44942 22.5856 5.37944 22.6191 5.30338C23.0359 5.49202 23.4375 5.7263 23.7996 6.04274C23.7053 6.19792 23.614 6.35309 23.5227 6.50522V6.50827Z" fill="white"/>
<path d="M27.107 5.70489C26.9336 5.70489 26.7632 5.70185 26.5928 5.70185H26.036C26.0269 6.66029 25.7804 7.41487 25.041 7.80433C24.9193 7.67653 24.7824 7.57612 24.6455 7.47571C25.3301 7.14102 25.5613 6.59031 25.5766 5.69577C25.1749 5.71402 24.7702 5.73228 24.3717 5.75358C24.3717 5.57406 24.3686 5.39149 24.3564 5.21198C24.5816 5.2211 24.8037 5.22415 25.0258 5.22415H25.4549C25.5005 5.22415 25.5431 5.22415 25.5857 5.21807C25.5857 5.15721 25.5857 5.09636 25.5857 5.02942C25.5857 4.73124 25.5766 4.43002 25.5613 4.13184L26.0482 4.19269C26.0695 4.19878 26.0999 4.21094 26.0999 4.24441C26.0999 4.27484 26.0756 4.30223 26.0573 4.3144L26.0482 5.21198C26.4072 5.19981 26.7632 5.1846 27.1253 5.16026C27.1253 5.33977 27.1101 5.52233 27.107 5.70185V5.70489Z" fill="white"/>
<path d="M29.9367 6.16743C29.7359 6.15526 29.5776 6.15526 29.4194 6.15526C29.2338 6.14918 28.1719 6.15527 27.7247 6.17048C27.7186 5.99401 27.7094 5.76885 27.7034 5.63801C27.7003 5.57108 27.7277 5.56803 27.749 5.57108C27.8099 5.58933 27.9224 5.59846 27.9529 5.6015C28.1658 5.61368 28.7135 5.61063 28.9569 5.61063C29.4651 5.61063 29.386 5.59542 29.9519 5.58933C29.9397 5.76581 29.9397 5.99096 29.9336 6.16439L29.9367 6.16743Z" fill="white"/>
<path d="M31.4854 6.08173C31.242 5.8231 30.9712 5.62228 30.6913 5.44277C30.7765 5.29672 30.8556 5.14763 30.9377 5.00159C31.2237 5.1598 31.5037 5.37279 31.741 5.62837L31.4885 6.08173H31.4854ZM30.9621 7.66391C30.9377 7.61219 30.7278 7.19229 30.7278 7.17099C30.7278 7.14057 30.7613 7.13753 30.7765 7.13145C30.9925 7.07972 31.2055 7.02495 31.4124 6.93367C32.0848 6.64157 32.7207 6.10911 33.2441 5.50666C33.2562 5.72573 33.2775 5.94481 33.3019 6.15779C32.6295 6.92454 31.8445 7.41441 30.9621 7.66391ZM31.954 5.10807C31.7228 4.89813 31.4793 4.72774 31.2177 4.58473C31.2968 4.44477 31.3698 4.29264 31.4398 4.14355C31.7136 4.26222 31.9783 4.44477 32.2065 4.6608C32.1274 4.81598 32.0422 4.96202 31.9509 5.10807H31.954Z" fill="white"/>
<path d="M34.4246 6.44382C34.3637 6.11217 34.2603 5.80486 34.1477 5.50059L34.528 5.34542C34.6467 5.6436 34.738 5.96308 34.7958 6.28256C34.6741 6.34341 34.5463 6.39209 34.4276 6.44077L34.4246 6.44382ZM36.2745 5.46713C36.165 6.07566 36.0098 6.69331 35.6751 7.17101C35.4317 7.51483 35.0788 7.77041 34.7289 7.90429C34.6345 7.78563 34.5311 7.67305 34.4337 7.55134C35.4135 7.2562 35.7634 6.39817 35.8668 5.19328L36.2989 5.36063C36.2989 5.36063 36.3232 5.37889 36.3232 5.40019C36.3232 5.43366 36.2958 5.46104 36.2745 5.46713ZM35.0635 6.21257C34.9966 5.89918 34.9145 5.59188 34.7958 5.30282C34.9205 5.26023 35.0453 5.21763 35.1731 5.16895C35.2887 5.46104 35.3769 5.76226 35.4317 6.0787C35.31 6.11825 35.1853 6.16389 35.0666 6.21257H35.0635Z" fill="white"/>
<path d="M39.2138 5.08718C38.9673 5.96042 38.6874 6.66632 38.0789 7.22617C37.8841 7.40568 37.659 7.56998 37.4277 7.66735C37.2999 7.52739 37.16 7.39351 37.02 7.26876C37.8628 6.99796 38.4561 6.20687 38.6965 5.15716C38.1032 5.16628 37.5099 5.20889 36.9166 5.23931C36.9074 5.06284 36.8983 4.8894 36.8953 4.71293C37.0535 4.71597 37.2147 4.7251 37.373 4.7251C37.6864 4.7251 37.9967 4.71597 38.3101 4.71293C38.4714 4.70989 38.6326 4.71293 38.7939 4.70076C38.873 4.69163 38.8973 4.69163 38.9704 4.63686C39.0099 4.67946 39.2837 4.9746 39.2837 5.00807C39.2837 5.04154 39.2351 5.06892 39.2199 5.08718H39.2138ZM39.4176 4.74639C39.2259 4.74639 39.0677 4.54862 39.0677 4.3113C39.0677 4.07397 39.2229 3.87012 39.4176 3.87012C39.6124 3.87012 39.7675 4.06788 39.7675 4.3113C39.7675 4.55471 39.6093 4.74639 39.4176 4.74639ZM39.4176 4.07397C39.3172 4.07397 39.232 4.17742 39.232 4.3113C39.232 4.44517 39.3172 4.5395 39.4176 4.5395C39.518 4.5395 39.6032 4.43605 39.6032 4.3113C39.6032 4.18655 39.518 4.07397 39.4176 4.07397Z" fill="white"/>
<path d="M42.6368 4.84353C42.6368 4.84353 42.6094 4.83441 42.5941 4.83441C42.4572 4.82832 42.2868 4.86483 42.153 4.9196C41.7392 5.09303 41.4227 5.63159 41.4014 6.20665C41.368 7.04946 41.9582 7.16813 42.4572 7.18638C42.4298 7.3446 42.3964 7.50587 42.3599 7.66408C42.3386 7.66408 42.3142 7.66408 42.2899 7.66408C42.0739 7.65496 41.8122 7.59714 41.6083 7.49369C41.228 7.29591 40.9937 6.87299 41.015 6.31922C41.0333 5.82631 41.1611 5.43381 41.3953 5.0474C41.0211 5.11129 40.6529 5.18736 40.2848 5.28168C40.2726 5.11737 40.2513 4.95915 40.2391 4.79485C40.5769 4.7553 40.9085 4.70966 41.2402 4.65489C41.6905 4.57578 42.1438 4.49059 42.585 4.32324C42.6002 4.39322 42.6794 4.76443 42.6763 4.80702C42.6763 4.84049 42.658 4.84658 42.6337 4.84658L42.6368 4.84353ZM42.3507 5.90543C42.2899 5.70461 42.226 5.50075 42.153 5.31211L42.3933 5.18431C42.4694 5.37295 42.5272 5.56769 42.5759 5.77155L42.3507 5.90543ZM42.7402 5.75633C42.6885 5.5403 42.6215 5.32732 42.5394 5.12954L42.7767 4.99567C42.8497 5.19648 42.9167 5.40034 42.9745 5.6042L42.7372 5.75633H42.7402Z" fill="white"/>
<path d="M15.7183 13.3118V9.64844H18.0672V13.3118H15.7183ZM17.6564 10.0835H16.1138V10.7255H17.6564V10.0835ZM17.6564 11.1515H16.1138V11.7844H17.6564V11.1515ZM17.6564 12.186H16.1138V12.8949H17.6564V12.186Z" fill="white"/>
<path d="M19.7164 11.799C19.6677 11.726 19.616 11.6621 19.5764 11.583V13.3538H19.2052V11.7077C19.1474 11.8751 19.0409 12.0637 18.9344 12.1885L18.6819 11.8842C18.904 11.5921 19.1322 11.0749 19.1839 10.6763H18.8218V10.2899H19.2022V9.45312L19.5764 9.48355C19.6008 9.48355 19.6342 9.50181 19.6342 9.54136C19.6342 9.57483 19.6008 9.60222 19.5764 9.6083V10.2899H19.7864V10.6763H19.5734V10.8862C19.6586 11.1023 19.7925 11.2818 19.9202 11.4552C19.8533 11.5708 19.7864 11.6864 19.7194 11.799H19.7164ZM20.4132 12.6266C20.2702 12.8639 20.1119 13.0739 19.9142 13.2443L19.6525 12.9796C19.8533 12.8244 20.0359 12.5901 20.1332 12.3193L20.471 12.5505C20.471 12.5505 20.4831 12.5719 20.4831 12.584C20.4831 12.6297 20.4375 12.6357 20.4101 12.6266H20.4132ZM21.2042 9.97952V10.2442H21.7428V11.2787H19.8716V10.2442H20.3645V9.97952H19.7651V9.62656H21.8554V9.97952H21.2073H21.2042ZM21.0247 12.2615C21.0247 12.4593 21.0247 12.6601 21.0247 12.8579C21.0247 13.2656 20.7874 13.3508 20.5136 13.3934L20.3006 13.0678C20.4436 13.0374 20.6292 13.0374 20.6292 12.797V12.2615H19.7803V11.9268H21.8614V12.2615H21.0217H21.0247ZM20.0389 11.7777V11.4552H21.5967V11.7777H20.0389ZM20.3766 10.5728H20.1971V10.9805H20.3766V10.5728ZM20.8756 9.97952H20.687V10.2442H20.8756V9.97952ZM20.8756 10.5728H20.687V10.9805H20.8756V10.5728ZM21.7093 13.2564C21.4994 13.0648 21.3047 12.8244 21.1495 12.5597L21.4659 12.3406C21.6028 12.5992 21.7732 12.794 21.974 12.9704L21.7093 13.2534V13.2564ZM21.3929 10.5728H21.1951V10.9805H21.3929V10.5728Z" fill="white"/>
<path d="M25.254 11.4921C25.2388 11.4921 25.2205 11.4829 25.2023 11.4708C24.9528 11.562 24.4781 11.7629 24.2499 11.8724V12.5326H23.8452C23.8483 12.4688 23.8483 12.4049 23.8483 12.3318V12.0915C23.5744 12.2284 23.4375 12.4049 23.4375 12.6026C23.4375 12.773 23.5957 12.8643 23.9091 12.8643C24.2499 12.8643 24.5572 12.8156 24.9071 12.6939L24.8919 13.1959C24.5907 13.3024 24.256 13.3207 24.0308 13.3207C23.3584 13.3207 23.0207 13.0955 23.0207 12.6331C23.0207 12.4109 23.118 12.204 23.3036 12.0154C23.4193 11.8998 23.5957 11.775 23.8239 11.6472C23.8178 11.4556 23.7631 11.3551 23.6627 11.3551C23.5349 11.3551 23.4193 11.4069 23.3097 11.5195C23.2428 11.5894 23.1515 11.6777 23.045 11.8115C22.9172 11.9606 22.8412 12.0641 22.7925 12.1158C22.7316 12.0397 22.6343 11.9241 22.5065 11.7659C22.8929 11.4434 23.1789 11.0539 23.3736 10.6036C23.1911 10.631 22.9872 10.6462 22.7681 10.6584C22.756 10.4941 22.7347 10.345 22.7134 10.2111C23.0359 10.2111 23.3006 10.1989 23.5014 10.1685C23.544 10.0438 23.5805 9.84599 23.617 9.5752L24.0795 9.68777C24.1069 9.6969 24.1221 9.71515 24.1221 9.73949C24.1221 9.76383 24.1069 9.78818 24.0673 9.80339C24.0491 9.87642 24.0187 9.98899 23.9761 10.135C24.1343 10.1137 24.3686 10.0499 24.6181 9.97683L24.5815 10.4484C24.3929 10.491 24.1373 10.5336 23.8209 10.5823C23.7722 10.7101 23.6961 10.8683 23.6079 11.0113C23.6901 10.987 23.76 10.9809 23.8057 10.9809C24.0156 10.9809 24.1525 11.13 24.2134 11.4403C24.4872 11.2852 24.8006 11.127 25.1414 10.9657L25.2996 11.4464C25.2996 11.4799 25.2875 11.4982 25.2601 11.4982L25.254 11.4921Z" fill="white"/>
<path d="M28.8109 13.2991C28.6344 13.3021 28.4549 13.3113 28.2784 13.3113C27.6121 13.3113 27.0492 13.2352 26.4528 12.8275C26.3829 13.004 26.3037 13.2017 26.1972 13.3478L25.9052 13.1287C26.2277 12.7271 26.2855 11.9786 26.2885 11.4339H25.8656V11.0597H26.6749C26.6719 11.4613 26.6384 12.0212 26.5411 12.4015C27.034 12.8883 27.746 12.9127 28.3454 12.9127C28.5371 12.9127 28.7318 12.8975 28.9235 12.8883L28.8139 13.296L28.8109 13.2991ZM26.4833 10.3812C26.3098 10.226 26.1364 10.0647 25.9478 9.93999L26.2155 9.55053C26.3585 9.68137 26.5806 9.90044 26.6993 10.0647L26.4833 10.3812ZM28.458 10.7007C28.4154 10.8041 28.3727 10.9137 28.3332 11.0232H28.8778V11.3548H27.9803V11.5526H28.6922V11.8751H27.9803V12.0546H28.89V12.3954H27.9833V12.797H27.6182V12.3954H26.7754V12.0546H27.6182V11.8751H26.9549V11.5526H27.6182V11.3548H26.7693V11.0232H27.2561C27.2257 10.9137 27.1983 10.8041 27.1618 10.7007H26.7662V10.369H27.6121V10.1256H26.8727V9.7696H27.609V9.42578L27.9833 9.45621C28.0137 9.45621 28.0472 9.45621 28.0472 9.50794C28.0472 9.54141 28.0137 9.55662 27.9924 9.56879V9.7696H28.7835V10.1256H27.9863V10.369H28.893V10.7007H28.4549H28.458ZM27.5391 10.6915C27.5512 10.8041 27.5725 10.9136 27.5847 11.0262H28.0076C28.0289 10.9136 28.0502 10.8041 28.0685 10.6915H27.5391Z" fill="white"/>
<path d="M32.4378 13.3753C32.1244 13.1501 31.9176 12.9158 31.6863 12.5629C31.4642 12.9037 31.1843 13.1836 30.8587 13.3479L30.5818 13.0558C30.9469 12.8459 31.2512 12.5903 31.4794 12.1582C31.2482 11.6592 31.1386 11.1054 31.0778 10.5334H30.2532V10.5547C30.2532 10.719 30.2532 10.8773 30.2532 11.0416H31.0534C31.0473 11.3732 31.0473 11.7079 31.0108 12.0335C30.9469 12.572 30.7918 12.7454 30.3749 12.788L30.1893 12.4381C30.6001 12.3864 30.6549 12.2099 30.6609 11.7049V11.4036H30.2441C30.2441 12.0274 30.1559 12.8824 29.809 13.3479L29.4895 13.0954C29.8394 12.6542 29.8638 11.9209 29.8638 11.3245C29.8638 10.9259 29.8425 10.5243 29.8364 10.1288H31.0473C31.026 9.86709 31.02 9.60238 31.0139 9.34375L31.4612 9.40461C31.4855 9.40765 31.5311 9.42286 31.5311 9.46545C31.5311 9.50501 31.4946 9.54457 31.4672 9.55674C31.4642 9.66323 31.4642 9.76364 31.4642 9.87013C31.4642 9.95533 31.4642 10.0436 31.4672 10.1257H32.5535V10.5365H31.4825C31.5098 10.9351 31.5768 11.3215 31.6894 11.6927C31.8019 11.4158 31.8841 11.0537 31.9267 10.7434L32.3496 11.0355C32.3709 11.0476 32.3922 11.0842 32.3922 11.1146C32.3922 11.1633 32.3253 11.1815 32.2979 11.1846C32.1975 11.5253 32.0879 11.8631 31.9267 12.1643C32.1305 12.5081 32.4257 12.7363 32.7178 12.9341L32.4318 13.3661L32.4378 13.3753ZM32.3344 9.6754C32.2522 9.82145 32.1731 9.97053 32.091 10.1135L31.7806 9.99488C31.8537 9.78798 31.9206 9.57499 31.9693 9.35592L32.3648 9.53239C32.3892 9.54761 32.4196 9.56891 32.4196 9.60846C32.4196 9.65106 32.3648 9.6754 32.3374 9.67844L32.3344 9.6754Z" fill="white"/>
<path d="M35.1792 12.9585C34.9084 13.1593 34.5859 13.2506 34.2694 13.2506C33.7826 13.2506 33.4753 12.9037 33.4479 12.2952C33.4418 12.213 33.4449 12.1309 33.4449 12.0487C33.4449 11.8175 33.4479 11.5862 33.454 11.3489C33.4631 10.7951 33.4722 10.2383 33.4783 9.68457C33.5848 9.70283 33.6944 9.72412 33.8009 9.74846C33.8465 9.75759 33.8921 9.76064 33.9347 9.77889C33.9621 9.79106 33.9956 9.80932 33.9956 9.84888C33.9956 9.88235 33.9682 9.90973 33.9439 9.9219C33.9013 10.6673 33.8708 11.4219 33.8708 12.1674C33.8708 12.5507 34.0078 12.782 34.3272 12.782C34.4733 12.782 34.6254 12.7364 34.7623 12.6573C35.0788 12.4899 35.2978 12.1309 35.453 11.7627L35.7055 12.3195C35.5808 12.5568 35.3709 12.8124 35.1761 12.9585H35.1792Z" fill="white"/>
<path d="M38.6873 13.0956C38.447 12.8553 38.1853 12.6514 37.9084 12.4871C37.8689 13.0348 37.5676 13.2021 37.166 13.2021C36.8252 13.2021 36.3049 12.9891 36.3049 12.4719C36.3049 11.9546 36.7066 11.7782 37.0565 11.7782C37.1995 11.7782 37.3455 11.7964 37.4855 11.8329C37.4855 11.2335 37.4611 10.628 37.4155 10.0317C37.4033 9.88562 37.3942 9.73957 37.3699 9.59961L37.8263 9.67263C37.8476 9.67567 37.8841 9.70002 37.8841 9.73349C37.8841 9.75783 37.8628 9.77913 37.8476 9.79434V9.95864C37.8476 10.1473 37.8445 10.3359 37.8506 10.5246H37.8932C38.0514 10.5246 38.2096 10.5215 38.3678 10.5002C38.4926 10.482 38.6113 10.4546 38.733 10.4333C38.733 10.6006 38.7269 10.768 38.7238 10.9384C38.5322 10.9536 38.3344 10.9688 38.1427 10.9688C38.0545 10.9688 37.9632 10.9658 37.8719 10.9597C37.881 11.3005 37.8871 11.6473 37.8962 11.9942C38.2735 12.1615 38.6265 12.3867 38.9703 12.6453L38.6873 13.0987V13.0956ZM37.4885 12.2832C37.3516 12.2102 37.1812 12.1706 37.0352 12.1706C36.9165 12.1706 36.7279 12.265 36.7279 12.4415C36.7279 12.7062 36.9682 12.7761 37.1356 12.7761C37.3425 12.7761 37.4855 12.6818 37.4855 12.4049V12.2832H37.4885Z" fill="white"/>
<path d="M40.4703 13.2656C40.3425 13.1408 40.2178 13.013 40.0809 12.9004C40.4247 12.7879 40.8811 12.5475 41.0697 12.1519C41.164 11.9633 41.2036 11.7412 41.2036 11.5221C41.2036 11.1387 41.088 10.9227 40.7685 10.9227C40.5464 10.9227 39.9987 11.2361 39.7979 11.3822C39.7736 11.3183 39.6093 10.8771 39.6093 10.8375C39.6093 10.8071 39.6427 10.8101 39.6579 10.8101C39.734 10.8101 40.0018 10.7219 40.0839 10.6854C40.3517 10.5819 40.5981 10.4663 40.8841 10.4663C41.4348 10.4663 41.6752 10.9288 41.6752 11.5677C41.6752 12.4471 41.088 13.013 40.4734 13.2625L40.4703 13.2656ZM41.0697 10.1712C40.7533 10.0129 40.4338 9.86995 40.0991 9.78476C40.163 9.62958 40.2269 9.4744 40.2908 9.32227C40.6346 9.39529 40.9663 9.5383 41.2888 9.71477C41.2188 9.86995 41.1488 10.0251 41.0728 10.1742L41.0697 10.1712Z" fill="white"/>
</svg>
