<svg width="50" height="50" viewBox="0 0 50 50" fill="none" xmlns="http://www.w3.org/2000/svg">
<path d="M50 0H0V50H50V0Z" fill="#00973B"/>
<path d="M4.564 13.293C4.16237 12.791 3.96459 12.0821 3.96459 11.1632V10.8346H5.77802V11.151C5.78714 11.6378 5.84496 11.9877 5.95449 12.1977C6.06403 12.4107 6.26485 12.5141 6.5539 12.5141C6.84295 12.5141 7.03768 12.4076 7.13505 12.1916C7.23241 11.9756 7.28109 11.6257 7.28109 11.1388C7.28109 10.652 7.20503 10.2504 7.05594 10.0039C6.90684 9.75748 6.63301 9.62968 6.23138 9.62056C6.20704 9.61143 6.0975 9.60839 5.90277 9.60839V8.27875H6.1979C6.60562 8.27875 6.88859 8.16921 7.04681 7.95014C7.20503 7.73107 7.28109 7.36899 7.28109 6.86695C7.28109 6.45924 7.22328 6.15801 7.1107 5.96024C6.99812 5.76551 6.79427 5.6651 6.50521 5.6651C6.23138 5.6651 6.04273 5.7716 5.93928 5.98154C5.83583 6.19453 5.78106 6.50792 5.77498 6.92172V7.34465H3.96155V6.8274C3.96155 5.99675 4.18366 5.35171 4.62789 4.89835C5.07212 4.44195 5.69587 4.2168 6.50521 4.2168C7.31456 4.2168 7.96569 4.43587 8.41296 4.87705C8.86023 5.3152 9.08539 5.94807 9.08539 6.77263C9.08539 7.32335 8.97281 7.78279 8.74461 8.15704C8.51641 8.53128 8.22736 8.76253 7.87441 8.85685C8.68376 9.15503 9.08539 9.90352 9.08539 11.1054C9.08539 12.0243 8.88153 12.7423 8.47381 13.2657C8.0661 13.789 7.41801 14.0476 6.5326 14.0476C5.64718 14.0476 4.96563 13.7951 4.56704 13.293H4.564Z" fill="white"/>
<path d="M41.8729 31.2777C41.8729 29.8659 40.9662 28.7189 39.594 28.7189C38.9063 28.7189 38.0787 29.4704 37.6284 29.9329C37.1781 29.4704 36.4053 28.7158 35.7176 28.7158C34.3454 28.7158 33.3809 29.8629 33.3809 31.2747C33.3809 31.9806 33.6577 32.6226 34.1111 33.0851L37.6315 36.6115L41.1488 33.0881C41.5991 32.6226 41.879 31.9806 41.879 31.2747L41.8729 31.2777Z" fill="white"/>
<path d="M26.8819 42.3715C26.8819 42.3715 26.8576 42.3715 26.8454 42.3715C26.5776 42.3562 26.3555 42.1554 26.3099 41.8907L24.5208 31.4757L21.8128 36.4991C21.6942 36.7182 21.4477 36.8369 21.2043 36.7943C20.9578 36.7517 20.7692 36.5539 20.7327 36.3074L19.5826 28.2687L17.477 32.994C17.3827 33.2039 17.1758 33.3378 16.9476 33.3378H8.76896C8.44948 33.3378 8.19086 33.0792 8.19086 32.7597C8.19086 32.4402 8.44948 32.1816 8.76896 32.1816H16.5703L19.3391 25.9654C19.4426 25.7312 19.6921 25.5942 19.9477 25.6277C20.2033 25.6642 20.4041 25.862 20.4406 26.1176L21.6272 34.4058L24.2987 29.4523C24.4143 29.2333 24.6577 29.1146 24.9011 29.1572C25.1445 29.1968 25.3362 29.3854 25.3758 29.6288L27.031 39.2771L33.0676 19.226C33.1376 18.9978 33.3384 18.8335 33.5757 18.8152C33.8131 18.7969 34.0382 18.9247 34.1417 19.1408L37.3182 25.7251C37.4582 26.0141 37.3365 26.358 37.0474 26.4979C36.7614 26.6379 36.4145 26.5162 36.2746 26.2271L33.7431 20.9816L27.4265 41.9607C27.3535 42.2072 27.1284 42.3715 26.8728 42.3715H26.8819Z" fill="white"/>
<path d="M32.3526 8.47419C32.2218 8.48636 32.091 8.50462 31.9571 8.52287C31.7928 7.99345 31.7684 7.42143 31.7684 6.85854C31.7684 6.23175 31.8475 5.59888 31.9571 4.9873L32.2735 5.06033C32.3222 5.0725 32.3831 5.07859 32.4287 5.09988C32.45 5.10901 32.4682 5.12118 32.4682 5.1577C32.4682 5.19421 32.4348 5.2155 32.4104 5.2155C32.2644 5.83012 32.2005 6.52385 32.2005 7.15976C32.2005 7.31798 32.2066 7.47316 32.2066 7.63137C32.2705 7.4336 32.3344 7.22974 32.4013 7.03197C32.4926 7.11717 32.5839 7.20236 32.6751 7.28755C32.5139 7.68006 32.3983 8.03301 32.3526 8.47419ZM34.665 8.39204C34.4642 8.43768 34.2026 8.43464 33.9987 8.42855C33.4784 8.41334 32.9916 8.3251 32.9307 7.52488C33.0524 7.4336 33.1772 7.33319 33.3019 7.24496C33.3019 7.70135 33.5149 7.90521 33.8527 7.91739C34.1204 7.92651 34.4155 7.90826 34.6742 7.81698C34.6742 8.00866 34.6681 8.19731 34.665 8.39204ZM34.5738 5.93966C34.2938 5.8788 34.017 5.86359 33.731 5.88793C33.5362 5.90315 33.3415 5.9427 33.1468 5.99138C33.1315 5.83316 33.1194 5.63843 33.1011 5.48021C33.3719 5.40415 33.6488 5.40415 33.9257 5.37981C34.1539 5.36155 34.3851 5.37981 34.6133 5.41328C34.6011 5.58671 34.589 5.76623 34.5707 5.93966H34.5738Z" fill="white"/>
<path d="M15.8889 5.91192C15.7367 5.89975 15.5846 5.89062 15.4355 5.88758C15.2134 5.88149 14.9913 5.87236 14.7722 5.87845C14.7752 6.04275 14.7692 6.19793 14.7783 6.36223C14.8939 6.57217 14.9152 6.82471 14.9152 7.06812C14.9152 7.81357 14.617 8.47687 13.9994 8.70812C13.8655 8.59249 13.7255 8.48904 13.5947 8.37038C13.9294 8.28823 14.2854 8.00527 14.401 7.60363C14.3097 7.66144 14.2032 7.67666 14.0937 7.67666C13.7773 7.67666 13.5917 7.26894 13.5917 6.92512C13.5917 6.4961 13.8046 6.07318 14.1941 6.07318C14.2428 6.07318 14.2945 6.07926 14.3432 6.09143C14.3432 6.02145 14.3401 5.94843 14.3371 5.8754C14.0846 5.8754 13.832 5.89366 13.5825 5.90887C13.3422 5.93017 13.1048 5.95451 12.8645 5.98798C12.8492 5.8176 12.8553 5.64416 12.8492 5.47377C13.3422 5.46465 13.832 5.46465 14.328 5.44639C14.3158 5.22732 14.3097 5.01129 14.3067 4.78613C14.4132 4.79526 14.5288 4.81352 14.6383 4.83177C14.6809 4.8409 14.7357 4.8409 14.7752 4.85307C14.7996 4.85916 14.83 4.86524 14.83 4.90784C14.83 4.95044 14.8057 4.9839 14.7813 4.99912C14.7783 5.14212 14.7752 5.29425 14.7752 5.43726C15.1556 5.43726 15.5359 5.42509 15.9162 5.41292L15.8889 5.90583V5.91192ZM14.2306 6.50523C14.0602 6.50523 13.9841 6.69997 13.9841 6.88557C13.9841 7.03161 14.0298 7.24764 14.1819 7.24764C14.3462 7.24764 14.3767 6.99814 14.3767 6.84601C14.3767 6.72735 14.3767 6.50523 14.2306 6.50523Z" fill="white"/>
<path d="M19.3605 8.56222C19.1719 8.30968 18.9528 8.04801 18.7581 7.76504C18.5268 7.43339 18.2865 7.08653 18.0613 6.75792C17.9852 6.64534 17.9061 6.52364 17.83 6.4141C17.7905 6.35629 17.7388 6.25588 17.6688 6.25588C17.5684 6.25588 17.4741 6.44757 17.4193 6.52972C17.3463 6.64839 17.2702 6.77314 17.2033 6.88571C17.0785 7.09261 16.969 7.30256 16.8473 7.50337V7.52771C16.8473 7.56423 16.8321 7.59769 16.7986 7.59769L16.3909 7.14738C16.543 6.96482 16.6921 6.78226 16.826 6.5784C16.9659 6.36846 17.0907 6.13418 17.2398 5.92119C17.3797 5.7295 17.4893 5.61693 17.6992 5.61693C17.8544 5.61693 17.9578 5.72037 18.0643 5.85121C18.1465 5.94857 18.2226 6.08245 18.2956 6.18286C18.469 6.42932 18.6424 6.6849 18.8189 6.91918C19.0897 7.28734 19.4457 7.72853 19.7317 8.07539L19.3666 8.56526L19.3605 8.56222ZM18.822 5.94249C18.7033 5.73254 18.5725 5.53477 18.4416 5.337L18.6942 5.11793C18.828 5.30657 18.9528 5.51347 19.0623 5.72342L18.8189 5.93945L18.822 5.94249ZM19.254 5.65648C19.1414 5.44045 19.0136 5.24268 18.8737 5.04795L19.1262 4.83496C19.2571 5.02969 19.3818 5.23659 19.4913 5.44654L19.251 5.65952L19.254 5.65648Z" fill="white"/>
<path d="M23.0452 5.6714C22.8931 5.70182 22.6892 5.7505 22.5036 5.81744C22.0564 5.95132 21.7491 6.40772 21.7551 7.01017C21.7612 7.90471 22.318 7.9899 22.8718 7.99903C22.8475 8.16638 22.8201 8.33981 22.7836 8.50715C22.7592 8.50715 22.7318 8.50715 22.7075 8.50715C22.4641 8.50107 22.2146 8.4463 21.9833 8.33677C21.5513 8.13595 21.2775 7.65216 21.2805 7.05885C21.2835 6.49595 21.4813 6.08824 21.7126 5.78397C21.3048 5.80831 20.8484 5.85396 20.4468 5.91177C20.4286 5.68965 20.4377 5.55882 20.4164 5.38843C21.1223 5.3793 21.8251 5.35496 22.5158 5.25759C22.6801 5.23325 22.96 5.19674 23.0544 5.18457C23.0726 5.25151 23.1122 5.59533 23.1183 5.6288C23.1243 5.66531 23.0757 5.66835 23.0392 5.67748L23.0452 5.6714Z" fill="white"/>
<path d="M25.7257 8.50727C25.6162 8.37643 25.5158 8.23951 25.4032 8.11172C25.9722 7.94133 26.4955 7.69488 26.4955 6.84597C26.4955 6.26787 26.2156 5.74453 25.744 5.62587C25.6466 6.40175 25.4549 7.63402 24.8921 8.09042C24.7886 8.17562 24.6852 8.23343 24.5574 8.23343C24.4083 8.23343 24.2653 8.10868 24.174 7.97176C24.0066 7.73139 23.9427 7.36931 23.9427 7.05288C23.9427 5.95752 24.6699 5.18164 25.5249 5.18164C26.316 5.18164 26.958 5.76887 26.958 6.81251C26.958 7.7892 26.4347 8.30037 25.7227 8.50727H25.7257ZM24.463 6.4413C24.3961 6.63299 24.3626 6.84598 24.3626 7.05288C24.3626 7.23544 24.3961 7.71313 24.5969 7.71313C24.6699 7.71313 24.7308 7.62794 24.7734 7.57013C25.1111 7.14111 25.2541 6.22223 25.2906 5.635C24.9681 5.70498 24.5969 6.06401 24.4661 6.4413H24.463Z" fill="white"/>
<path d="M30.591 8.67735C29.9855 8.26963 29.4926 7.51809 29.237 6.7483C29.1792 6.94912 29.1214 7.14384 29.0392 7.32945C28.8597 7.75238 28.5767 8.13575 28.2421 8.41264C28.1203 8.51 27.9956 8.60128 27.8648 8.66517L27.5422 8.29093C27.6852 8.22095 27.8465 8.1175 27.9773 8.00188C28.455 7.58807 28.7623 6.98563 28.884 6.25843C28.9601 5.80203 28.9419 5.33651 28.9419 4.87402L29.453 4.93183C29.4835 4.93488 29.523 4.95313 29.523 4.99877C29.523 5.04441 29.4865 5.06875 29.4561 5.08092C29.45 5.26044 29.4439 5.43996 29.4439 5.62251C29.4439 6.22192 29.7177 6.87305 30.0159 7.33553C30.235 7.67631 30.6458 8.0536 30.9683 8.2392L30.5879 8.68039L30.591 8.67735Z" fill="white"/>
<path d="M16.1566 14.1789C15.9893 14.182 15.8219 14.1881 15.6516 14.1881C15.0947 14.1881 14.5745 14.1242 14.1485 13.6526C14.0359 13.8534 13.902 14.042 13.7468 14.1972L13.5034 13.9873V14.2337H13.0927V12.1525C13.044 12.2438 12.9923 12.3412 12.9345 12.4233L12.6941 12.0582C13.0014 11.6231 13.2539 10.7316 13.3391 10.1748L13.7834 10.3756C13.7834 10.3756 13.8138 10.3969 13.8138 10.4182C13.8138 10.4456 13.7925 10.4669 13.7742 10.476H14.5684V10.832L14.0663 11.7326H14.6079C14.5805 12.259 14.5471 12.8006 14.3554 13.2874C14.6536 13.7438 15.2499 13.7804 15.7002 13.7804C15.895 13.7804 16.0836 13.7682 16.2783 13.753L16.1597 14.1729L16.1566 14.1789ZM13.5704 12.0643V11.9152L14.0968 10.8381H13.7529V10.5369C13.683 10.8046 13.6008 11.0724 13.5034 11.331V13.8777C13.6738 13.7378 13.8229 13.5522 13.9233 13.3331C13.7955 12.9953 13.689 12.6485 13.6251 12.2895C13.7408 12.2286 13.8533 12.1677 13.969 12.1069C13.9964 12.3564 14.0511 12.6028 14.1181 12.8371C14.1637 12.5846 14.1911 12.326 14.2063 12.0673H13.5673L13.5704 12.0643ZM16.0441 11.5562V12.1647H15.4112V12.3959H16.108V12.7306H15.4112V12.9467H16.1566V13.2935H15.4142V13.6708H15.0126V13.2844H14.5653V12.9558H15.0126V12.7337H14.6323V12.4051H15.0126V12.1677H14.6596V11.8513H15.0126V11.5592H14.4527V11.2093H15.0126V10.9294H14.4862V10.5704H15.0004V10.1931L15.4294 10.2326C15.4629 10.2357 15.4903 10.2539 15.4903 10.2996C15.4903 10.333 15.4477 10.3604 15.4264 10.3787V10.5704H16.041V11.2093H16.2662V11.5592H16.0441V11.5562ZM15.6576 10.9233H15.4112V11.2124H15.6576V10.9233ZM15.6576 11.5562H15.4112V11.8483H15.6576V11.5562Z" fill="white"/>
<path d="M20.0938 14.1058C19.6709 13.9476 19.2388 13.622 18.9406 13.2265C18.9406 13.3299 18.9437 13.4303 18.9437 13.5338C18.9437 13.9993 18.825 14.1697 18.4508 14.2731L18.1587 13.9536C18.4416 13.8715 18.5451 13.8167 18.5451 13.4425V12.5692H17.967C18.1039 12.6909 18.2408 12.8126 18.3656 12.9496L18.1191 13.2082C17.97 13.1017 17.8209 12.9952 17.6688 12.8978L17.9092 12.5723H17.8514V12.2437H18.542V12.0368H17.5927C17.5897 12.195 17.5897 12.3532 17.5775 12.5114C17.544 13.0256 17.4132 13.768 17.1302 14.1636C17.0207 14.0784 16.9173 13.9932 16.8047 13.911C17.1485 13.3816 17.182 12.5571 17.182 11.912C17.182 11.4343 17.1637 10.9566 17.1576 10.4759H18.4264V10.0469C18.5694 10.056 18.7489 10.056 18.8859 10.0743C18.9132 10.0803 18.9467 10.0864 18.9467 10.129C18.9467 10.1716 18.9102 10.196 18.8828 10.2051V10.4759H20.1607V10.8593H17.5988C17.5988 11.1301 17.5988 11.3948 17.5988 11.6656H18.539V11.4769H17.8544V11.1361H18.5329V10.9019L18.9254 10.9232C18.9558 10.9232 18.9924 10.9292 18.9924 10.9779C18.9924 11.0144 18.968 11.0357 18.9406 11.0479V11.1331H19.7591V11.6534H20.2186V12.0398H19.7591V12.4384L19.7926 12.411L20.0695 12.7944C20.0816 12.8127 20.0877 12.8309 20.0877 12.8552C20.0877 12.8857 20.0664 12.91 20.039 12.91C20.0117 12.91 19.9782 12.8918 19.9569 12.8765C19.753 12.9404 19.5461 13.0165 19.3423 13.0865C19.5887 13.4242 20.0086 13.6098 20.3585 13.7315L20.0938 14.1058ZM18.4447 13.5125C18.2165 13.6433 17.9822 13.7467 17.7479 13.8502C17.7388 13.8837 17.7205 13.9415 17.6871 13.9415C17.6688 13.9415 17.6536 13.9232 17.6414 13.905L17.4254 13.5216C17.7753 13.3908 18.1252 13.2599 18.466 13.0926L18.4416 13.5125H18.4447ZM19.3483 11.4648H18.9376V11.6686H19.3483V11.4648ZM19.3483 12.0307H18.9376V12.2467H19.3483V12.0307ZM18.9376 12.5723V12.9191C19.1536 12.8127 19.3696 12.7001 19.5765 12.5692H18.9376V12.5723Z" fill="white"/>
<path d="M22.5371 14.148C22.0229 14.148 21.2014 14.0658 21.2014 13.223C21.2014 12.6115 21.6335 12.2981 22.0412 12.0881C21.9195 11.583 21.9043 11.0536 21.8982 10.5303C22.0047 10.5394 22.1173 10.5485 22.2268 10.5577C22.2816 10.5637 22.3333 10.5668 22.3881 10.5759C22.4063 10.582 22.4276 10.5881 22.4276 10.6155C22.4276 10.6337 22.4124 10.652 22.4033 10.6642C22.385 10.795 22.382 10.9349 22.382 11.0688C22.382 11.2331 22.3789 11.7413 22.4489 11.8569C22.458 11.866 22.4702 11.869 22.4824 11.869C22.6193 11.869 23.2491 11.5709 23.3891 11.4765C23.4439 11.6652 23.4773 11.863 23.523 12.0577C23.0727 12.1672 21.6426 12.4502 21.6426 13.1774C21.6426 13.5881 22.1751 13.6673 22.4246 13.6673C22.8323 13.6673 23.1974 13.652 23.5869 13.5121C23.6021 13.6977 23.6142 13.8863 23.6173 14.078C23.2552 14.1419 22.9023 14.151 22.5402 14.151L22.5371 14.148Z" fill="white"/>
<path d="M25.8658 14.2242V12.639L25.6924 12.9828C25.6163 12.8976 25.5524 12.8094 25.4794 12.7211V14.2698H25.0778V12.6724C24.9865 12.8002 24.8709 12.9189 24.7583 13.0163L24.5057 12.7029C24.8617 12.4169 25.2421 11.8996 25.3607 11.4036H24.664V11.0294H25.0747V10.29L25.4976 10.3235C25.5189 10.3235 25.5585 10.3357 25.5585 10.3722C25.5585 10.4087 25.525 10.433 25.4976 10.4422V11.0264H25.8688C25.8049 11.4249 25.665 11.8144 25.4672 12.1491C25.5433 12.3043 25.7441 12.4899 25.8628 12.5964V12.353H27.9409V14.2181H25.8628L25.8658 14.2242ZM25.8719 10.8803V10.4909H28.0048V10.8803H25.8719ZM26.0575 12.1552V11.1024H27.7553V12.1552H26.0575ZM26.6995 12.6998H26.2644V13.1106H26.6995V12.6998ZM26.6995 13.4331H26.2644V13.8986H26.6995V13.4331ZM27.3445 11.4432H26.4409V11.8327H27.3445V11.4432ZM27.5362 12.6998H27.089V13.1106H27.5362V12.6998ZM27.5362 13.4331H27.089V13.8986H27.5362V13.4331Z" fill="white"/>
<path d="M29.5625 12.2248V12.243C29.7025 12.4377 29.882 12.5868 30.0554 12.742L29.8333 13.0919C29.739 13.0037 29.6508 12.9154 29.5686 12.812V14.2968H29.1518V12.7177C29.0483 12.8455 28.9388 12.9611 28.8171 13.0584L28.5493 12.7268C28.8962 12.453 29.3708 11.8475 29.523 11.3911H28.7136V11.0107H29.1822V10.2744L29.6325 10.314C29.6538 10.314 29.6842 10.3444 29.6842 10.3748C29.6842 10.4113 29.6508 10.4326 29.6234 10.4418V11.0077H30.0767C30.0189 11.3972 29.7755 11.9144 29.5625 12.2187V12.2248ZM29.7907 14.166V13.7796H30.165V11.2724L30.5909 11.3241C30.6214 11.3272 30.6487 11.3515 30.6487 11.385C30.6487 11.4245 30.6092 11.4458 30.5818 11.461V13.7796H30.9074V10.3383L31.3364 10.387C31.3668 10.3931 31.4033 10.4083 31.4033 10.4478C31.4033 10.4874 31.3607 10.5117 31.3364 10.527V11.7562H32.0058V12.1822H31.3273V13.7704H32.0636V14.1629H29.7907V14.166Z" fill="white"/>
<path d="M35.7726 12.3651C35.7543 12.3651 35.7361 12.356 35.7178 12.3438C35.4531 12.4321 34.9419 12.6359 34.7016 12.7454V13.4057H34.2695C34.2726 13.3418 34.2726 13.2779 34.2726 13.2049V12.9645C33.9774 13.1014 33.8314 13.2779 33.8314 13.4757C33.8314 13.6461 33.9987 13.7374 34.3334 13.7374C34.6955 13.7374 35.0271 13.6917 35.4014 13.567L35.3862 14.069C35.0636 14.1755 34.7076 14.1938 34.4642 14.1938C33.7462 14.1938 33.3841 13.9686 33.3841 13.5061C33.3841 13.284 33.4875 13.0771 33.6853 12.8885C33.8101 12.7728 33.9957 12.6481 34.2421 12.5203C34.236 12.3286 34.1752 12.2282 34.0687 12.2282C33.9318 12.2282 33.807 12.2799 33.6914 12.3925C33.6184 12.4594 33.521 12.5507 33.4084 12.6846C33.2715 12.8367 33.1894 12.9371 33.1376 12.9889C33.0707 12.9098 32.9703 12.7972 32.8334 12.6359C33.2441 12.3134 33.5545 11.9239 33.7583 11.4736C33.5636 11.498 33.3476 11.5162 33.1133 11.5284C33.0981 11.3641 33.0768 11.215 33.0555 11.0842C33.3993 11.0842 33.6823 11.072 33.8953 11.0416C33.9379 10.9168 33.9805 10.719 34.02 10.4482L34.516 10.5608C34.5464 10.57 34.5616 10.5852 34.5616 10.6125C34.5616 10.6399 34.5433 10.6582 34.5038 10.6764C34.4855 10.7495 34.4521 10.862 34.4064 11.005C34.5738 10.9838 34.8233 10.9199 35.091 10.8468L35.0515 11.3184C34.8507 11.361 34.5768 11.4036 34.2421 11.4523C34.1904 11.5801 34.1052 11.7383 34.0139 11.8813C34.1022 11.857 34.1752 11.8509 34.2239 11.8509C34.449 11.8509 34.5951 12 34.662 12.3104C34.9541 12.1552 35.2918 11.997 35.6539 11.8357L35.8243 12.3164C35.8243 12.3499 35.8091 12.3682 35.7787 12.3682L35.7726 12.3651Z" fill="white"/>
</svg>
