<svg width="50" height="50" viewBox="0 0 50 50" fill="none" xmlns="http://www.w3.org/2000/svg">
<path d="M50 0H0V50H50V0Z" fill="#E83819"/>
<path d="M5.01135 13.6884C4.64927 13.4571 4.40282 13.1285 4.26894 12.7056C4.13506 12.2827 4.06812 11.7533 4.06812 11.1173H5.83285C5.83285 11.6681 5.88458 12.0636 5.98499 12.3131C6.08539 12.5596 6.28622 12.6843 6.5844 12.6843C6.81868 12.6843 6.99212 12.6052 7.10165 12.45C7.21119 12.2918 7.28117 12.0788 7.30855 11.808C7.33594 11.5372 7.35115 11.1478 7.35115 10.6366C7.35115 10.0555 7.29942 9.6234 7.19293 9.33739C7.08644 9.05138 6.8704 8.90837 6.53875 8.90837C6.11582 8.90837 5.84503 9.19438 5.72637 9.7664H4.15939L4.29022 4.35352H8.68079V5.92048H5.78418L5.67769 8.026C5.78723 7.89213 5.97587 7.77955 6.24362 7.69131C6.51138 7.60003 6.79739 7.55743 7.10165 7.55743C7.75278 7.55743 8.24264 7.8191 8.57429 8.34548C8.9029 8.87186 9.0672 9.60818 9.0672 10.5575C9.0672 11.3121 9.00027 11.9358 8.86639 12.4348C8.73252 12.9338 8.47997 13.3263 8.10573 13.6123C7.73148 13.8983 7.20206 14.0413 6.51138 14.0413C5.86938 14.0413 5.36429 13.9257 5.00526 13.6945L5.01135 13.6884Z" fill="white"/>
<path d="M36.4722 18.8916H30.2287C30.1861 18.8916 30.1496 18.9281 30.1496 18.9707V21.0458C30.1496 21.0914 30.1861 21.1249 30.2287 21.1249H32.7145L29.9549 23.8846C28.5644 22.7923 26.8148 22.1381 24.9132 22.1381C20.4039 22.1381 16.7375 25.8045 16.7375 30.3137C16.7375 34.4639 19.8472 37.8991 23.8574 38.4194V40.8109H21.3959C21.3502 40.8109 21.3167 40.8474 21.3167 40.89V43.1142C21.3167 43.1598 21.3502 43.1933 21.3959 43.1933H23.8574V45.5453C23.8574 45.5879 23.8939 45.6244 23.9365 45.6244H26.1576C26.2033 45.6244 26.2367 45.5879 26.2367 45.5453V43.1933H28.6982C28.7408 43.1933 28.7773 43.1568 28.7773 43.1142V40.89C28.7773 40.8474 28.7408 40.8109 28.6982 40.8109H26.2367V38.3829C30.1161 37.747 33.0857 34.3726 33.0857 30.3168C33.0857 28.5673 32.532 26.9455 31.5918 25.6128L34.3119 22.8927V25.2142C34.3119 25.2568 34.3485 25.2934 34.3911 25.2934H36.4661C36.5118 25.2934 36.5483 25.2568 36.5483 25.2142V18.9707C36.5483 18.9251 36.5118 18.8916 36.4661 18.8916M24.9162 36.3352C21.5967 36.3352 18.8978 33.6363 18.8978 30.3168C18.8978 26.9972 21.5967 24.2984 24.9162 24.2984C28.2358 24.2984 30.9346 26.9972 30.9346 30.3168C30.9346 33.6363 28.2358 36.3352 24.9162 36.3352Z" fill="white"/>
<path d="M28.5918 27.8457H21.2925C21.2499 27.8457 21.2134 27.8792 21.2134 27.9157V29.6835C21.2134 29.7261 21.2499 29.7565 21.2925 29.7565H28.5918C28.6375 29.7565 28.674 29.7261 28.674 29.6835V27.9157C28.674 27.8761 28.6375 27.8457 28.5918 27.8457Z" fill="white"/>
<path d="M28.5918 31.001H21.2925C21.2499 31.001 21.2134 31.0344 21.2134 31.074V32.8418C21.2134 32.8813 21.2499 32.9118 21.2925 32.9118H28.5918C28.6375 32.9118 28.674 32.8813 28.674 32.8418V31.074C28.674 31.0344 28.6375 31.001 28.5918 31.001Z" fill="white"/>
<path d="M14.0936 6.51399C13.832 6.26145 13.5429 6.06063 13.2386 5.87503C13.3299 5.73507 13.4151 5.58293 13.5064 5.43688C13.8107 5.5951 14.1149 5.80809 14.3736 6.05759L14.0936 6.51095V6.51399ZM13.5368 8.09617C13.5064 8.04444 13.2812 7.60022 13.2812 7.57283C13.2812 7.54545 13.3147 7.53936 13.333 7.53632C13.5642 7.48155 13.7955 7.42374 14.0237 7.32638C14.7509 7.01298 15.4415 6.45314 16.0014 5.81113C16.0166 6.03933 16.0379 6.27057 16.0683 6.50181C15.3442 7.31116 14.4861 7.8345 13.5399 8.09617H13.5368ZM14.6078 5.54338C14.3583 5.32735 14.0936 5.15696 13.8076 5.02004C13.8959 4.87399 13.975 4.7249 14.0571 4.57581C14.3462 4.69448 14.6322 4.88008 14.8817 5.09307C14.7935 5.24824 14.7052 5.39733 14.6048 5.54338H14.6078ZM15.7184 5.31214C15.6302 5.11132 15.5237 4.91659 15.4111 4.73403L15.6849 4.58799C15.7914 4.76446 15.8827 4.9531 15.9679 5.14175L15.7184 5.31214ZM16.1839 5.12653C16.0835 4.92876 15.9862 4.7249 15.8706 4.53322L16.1353 4.375C16.2448 4.55452 16.3421 4.7462 16.4243 4.95006L16.1839 5.12653Z" fill="white"/>
<path d="M17.124 7.94037V7.53874H18.1038V6.25778H17.3035V5.83789H19.3725V6.25778H18.548V7.53874H19.5551V7.94037H17.124Z" fill="white"/>
<path d="M21.5177 7.71215C21.3078 7.81256 21.0978 7.89167 20.8726 7.9434C20.8513 7.89167 20.6201 7.40789 20.6201 7.40789C20.6201 7.38963 20.6384 7.38963 20.6505 7.38963C20.7023 7.38963 20.757 7.3805 20.8088 7.36833C21.2165 7.28314 21.612 7.08841 21.9802 6.86325C22.4761 6.55898 22.9386 6.17257 23.3494 5.7253C23.3798 5.93524 23.4163 6.14518 23.4498 6.35513C22.8808 6.95149 22.2297 7.3805 21.5238 7.70911L21.5177 7.71215ZM21.4355 5.98088C21.2165 5.68574 20.9761 5.41495 20.7023 5.1837C20.8453 5.06504 20.9822 4.93421 21.1191 4.8125C21.3838 5.03461 21.6181 5.29933 21.828 5.59751C21.7094 5.74356 21.5755 5.86222 21.4355 5.98392V5.98088Z" fill="white"/>
<path d="M26.6294 5.46444C26.6142 5.51617 26.602 5.57093 26.5868 5.62266C26.5533 5.75958 26.5107 5.8965 26.462 6.02733C26.3738 6.28596 26.2643 6.5385 26.1395 6.77278C26.3038 6.90057 26.4681 7.04053 26.6233 7.18658C26.529 7.31437 26.4255 7.43912 26.319 7.55779C26.1821 7.42087 26.036 7.28699 25.893 7.1592C25.5583 7.59734 25.035 8.0081 24.5482 8.17545C24.4447 8.05678 24.3352 7.93812 24.2196 7.82858C24.2165 7.82554 24.2105 7.81641 24.2105 7.80729C24.2105 7.78903 24.2257 7.78903 24.2318 7.78599C24.3048 7.76773 24.3748 7.74339 24.4448 7.71296C24.822 7.53953 25.2602 7.23527 25.5127 6.85798C25.3667 6.73932 25.2084 6.63586 25.0563 6.52937C25.1476 6.40767 25.2298 6.28595 25.321 6.16425C25.4671 6.2677 25.6131 6.3742 25.7531 6.48677C25.9083 6.22511 25.9995 5.92388 26.0695 5.61961C25.82 5.61961 25.5736 5.62266 25.3241 5.63178C25.1111 5.99082 24.8494 6.39854 24.5482 6.66629C24.4265 6.57197 24.3017 6.47764 24.174 6.39245C24.6729 5.92996 25.0289 5.26362 25.1841 4.54556L25.6801 4.7555C25.6801 4.7555 25.7105 4.7768 25.7105 4.80418C25.7105 4.84069 25.6709 4.85591 25.6436 4.85591C25.5949 4.96849 25.5523 5.07802 25.5036 5.18451C25.8474 5.17539 26.1912 5.17539 26.5351 5.13279C26.5868 5.19669 26.6355 5.26058 26.6933 5.32144C26.672 5.36708 26.6476 5.4188 26.6294 5.46748V5.46444ZM26.4833 5.04151C26.392 4.85286 26.2886 4.67031 26.1821 4.48775L26.4559 4.33561C26.5594 4.506 26.6476 4.69769 26.7298 4.88634L26.4803 5.04151H26.4833ZM26.9823 4.9198C26.891 4.72203 26.7937 4.52426 26.6811 4.34474L26.9458 4.18652C27.0584 4.363 27.1497 4.55469 27.2318 4.75246L26.9823 4.9198Z" fill="white"/>
<path d="M30.5848 6.57765C30.3748 6.56548 30.1953 6.5594 30.028 6.5594C29.8332 6.55636 28.108 6.5594 27.6425 6.57765C27.6364 6.40726 27.6273 6.18819 27.6243 6.0604C27.6212 5.99651 27.6486 6.02693 27.6729 6.02693C27.7338 6.03606 27.8525 6.0391 27.8859 6.04215C28.1081 6.04823 28.6831 6.03302 28.9387 6.03302C29.4712 6.03302 29.9975 6.02085 30.5908 6.01172C30.5787 6.18211 30.5909 6.40422 30.5878 6.57765H30.5848Z" fill="white"/>
<path d="M33.3842 6.86106V8.26676H32.9399V6.86106H31.5464V6.44117H32.9399V5.01721H31.7411V4.60645H34.589V5.01721H33.3811V6.44117H34.7746V6.86106H33.3842ZM32.3344 6.27687C32.2067 5.9726 32.0758 5.66225 31.9206 5.37624L32.3131 5.16325C32.4379 5.42796 32.5931 5.79917 32.657 6.08822L32.3344 6.27687ZM34.3821 5.49186C34.2544 5.76266 34.1266 6.03345 33.9775 6.29512L33.6519 6.13995C33.7736 5.81743 33.8831 5.48882 33.9775 5.15412L34.4187 5.35494C34.443 5.36711 34.4704 5.39449 34.4704 5.42796C34.4704 5.4736 34.4095 5.49186 34.3821 5.49186Z" fill="white"/>
<path d="M36.515 5.10194L36.5545 5.39708L36.2533 5.47922L36.1346 5.09281H36.0312C35.9095 5.26928 35.7939 5.46706 35.6387 5.60702L35.3192 5.39708C35.5778 5.10802 35.7695 4.73073 35.8638 4.3291L36.2868 4.46602C36.3081 4.47515 36.3355 4.4934 36.3355 4.52079C36.3355 4.56034 36.2959 4.58468 36.2655 4.58773C36.2442 4.63945 36.2198 4.69422 36.1864 4.7429H36.8984V5.09889H36.5119L36.515 5.10194ZM37.7594 6.61718V6.87581H38.4775V7.25918H37.7594C37.7594 7.91639 37.8264 8.28456 37.157 8.40018L36.9075 8.03506C37.16 7.98638 37.3456 7.96508 37.3456 7.61213V7.25918H36.2746C36.3841 7.36263 36.4876 7.46912 36.588 7.5817C36.6641 7.66385 36.7462 7.73688 36.8192 7.82511L36.5454 8.13547C36.3415 7.92857 36.1468 7.71558 35.9247 7.53606L36.1712 7.26222H35.4896V6.87885H37.3487V6.61718H35.3801V6.25815H36.731V5.99952H35.7574V5.6344H36.7188V5.3423L37.1631 5.40316C37.1813 5.4062 37.1813 5.3849 37.1813 5.4062C37.1813 5.43663 37.1661 5.4914 37.1448 5.50052V5.6344H38.2128V5.99952H37.1387V6.25815H38.5627V6.62327H37.7625L37.7594 6.61718ZM38.0302 5.12019L37.9146 5.48836L37.5951 5.45489L37.6103 5.10802H37.37C37.3061 5.20843 37.2178 5.41229 37.1418 5.49748L36.7158 5.33926C36.8983 5.11715 37.1478 4.64858 37.2178 4.35344L37.6499 4.48123C37.6681 4.48428 37.6955 4.50253 37.6955 4.52687C37.6955 4.56643 37.6468 4.57556 37.6225 4.57556C37.5951 4.63945 37.5677 4.70031 37.5373 4.76116H38.511V5.12324H38.0302V5.12019Z" fill="white"/>
<path d="M41.9978 6.43802C41.9796 6.43802 41.9613 6.42889 41.9461 6.41672C41.6936 6.50496 41.2067 6.70882 40.9755 6.81835V7.47861H40.5617C40.5647 7.41471 40.5647 7.35082 40.5647 7.27779V7.03743C40.2848 7.17434 40.1449 7.35082 40.1449 7.54859C40.1449 7.71898 40.3061 7.81026 40.6226 7.81026C40.9694 7.81026 41.2858 7.76462 41.6418 7.63987L41.6266 8.14191C41.3193 8.2484 40.9785 8.26666 40.7473 8.26666C40.0597 8.26666 39.7158 8.03846 39.7158 7.58206C39.7158 7.35994 39.8132 7.15304 40.0049 6.9644C40.1235 6.84878 40.3031 6.72403 40.5373 6.59624C40.5313 6.40455 40.4735 6.30414 40.3731 6.30414C40.2422 6.30414 40.1236 6.35587 40.011 6.46844C39.941 6.53843 39.8497 6.62667 39.7402 6.76054C39.6093 6.90963 39.5302 7.01308 39.4816 7.06481C39.4177 6.98874 39.3203 6.87312 39.1895 6.7149C39.582 6.39238 39.8741 6.00292 40.0718 5.55261C39.8862 5.57999 39.6793 5.5952 39.4542 5.61042C39.442 5.44611 39.4207 5.29702 39.3994 5.16315C39.728 5.16315 39.9988 5.15098 40.2027 5.12055C40.2453 4.9958 40.2848 4.79803 40.3213 4.53027L40.796 4.64285C40.8234 4.65198 40.8386 4.66719 40.8386 4.69458C40.8386 4.72196 40.8203 4.74326 40.7808 4.75847C40.7625 4.8315 40.7321 4.94408 40.6865 5.09012C40.8477 5.06883 41.085 5.00493 41.3406 4.9319L41.3011 5.40351C41.1094 5.44611 40.8477 5.48871 40.5282 5.53739C40.4795 5.66518 40.4004 5.8234 40.3122 5.96641C40.3974 5.94207 40.4674 5.93598 40.513 5.93598C40.726 5.93598 40.866 6.08507 40.9299 6.39542C41.2098 6.24025 41.5293 6.08203 41.8761 5.92077L42.0374 6.40151C42.0374 6.43498 42.0252 6.45324 41.9948 6.45324L41.9978 6.43802Z" fill="white"/>
<path d="M16.2904 13.6309C16.0226 13.5853 15.6606 13.4027 15.4263 13.2506C15.192 13.0954 14.979 12.8794 14.8299 12.6147C14.5135 13.1715 13.9749 13.4636 13.4333 13.6066L13.1838 13.2293C13.6554 13.1289 14.1514 12.9585 14.4435 12.4686H13.2021V12.0883H14.5804C14.5835 12.0062 14.5895 11.924 14.5895 11.8449H13.5429V11.4767H14.5987V11.209H13.768V10.8408H14.5987V10.567L15.0277 10.5974C15.049 10.5974 15.0703 10.6096 15.0703 10.64C15.0703 10.6704 15.0459 10.6917 15.0216 10.7009V10.8439H15.8766V11.212H15.0125V11.4798H16.117V11.8479H15.0064C15.0033 11.9301 15.0033 12.0122 15.0033 12.0914H16.4456V12.4717H15.192C15.4628 12.9159 16.0896 13.1411 16.5308 13.2141L16.2843 13.634L16.2904 13.6309ZM15.9618 11.0325V10.497H13.698V11.0325H13.2934V10.1197H14.5956V9.65723L15.052 9.68765C15.0764 9.68765 15.1098 9.69982 15.1098 9.73937C15.1098 9.77284 15.0733 9.80327 15.0459 9.8124V10.1228H16.3817V11.0356H15.9587L15.9618 11.0325Z" fill="white"/>
<path d="M18.3838 12.4254C18.043 12.5928 17.6931 12.7358 17.3493 12.894C17.3432 12.9214 17.325 12.9579 17.2976 12.9579C17.2824 12.9579 17.2641 12.9457 17.2489 12.9153L17.0876 12.4863C17.2672 12.4254 17.4467 12.3676 17.6262 12.3007V11.3848H17.2033V11.0106H17.6262V10.2682H17.1698V9.90002H18.3838V10.2682H18.043V11.0106H18.3473V11.3848H18.0309V12.1851C18.1495 12.1333 18.2712 12.0786 18.3868 12.0268L18.3808 12.4254H18.3838ZM20.5806 13.5025C20.3981 13.5938 20.1546 13.6181 19.9569 13.6181C19.6739 13.6181 19.3818 13.5634 19.3818 13.1496V12.2672H19.0501C19.0836 12.2946 19.2601 12.4224 19.2601 12.465C19.2601 12.4893 19.2266 12.5076 19.2084 12.5106C19.1384 12.6567 19.0654 12.8027 18.9771 12.9366C18.7428 13.2804 18.4295 13.5512 18.0765 13.7094L17.7601 13.4082C18.2712 13.1983 18.615 12.8636 18.8219 12.2672H18.4964V9.85742H20.3007V12.2672H19.7865V13.0096C19.7865 13.1496 19.826 13.2439 19.9599 13.2439C20.179 13.2439 20.4437 13.1252 20.6171 12.967L20.5806 13.5025ZM19.8808 10.2347H18.9011V10.5694H19.8808V10.2347ZM18.9011 10.9132V11.2388H19.8808V10.9132H18.9011ZM19.8838 11.5826H18.9011V11.9356H19.8838V11.5826Z" fill="white"/>
<path d="M23.3098 13.1869C23.0207 13.3877 22.6739 13.479 22.3362 13.479C21.8159 13.479 21.4872 13.1321 21.4599 12.5236C21.4507 12.4414 21.4568 12.3593 21.4568 12.2802C21.4568 12.0489 21.4599 11.8177 21.469 11.5803C21.4781 11.0296 21.4872 10.4698 21.4933 9.91602C21.6059 9.93123 21.7246 9.95557 21.8372 9.97991C21.8828 9.98904 21.9376 9.99209 21.9801 10.0103C22.0106 10.0225 22.0471 10.0408 22.0471 10.0773C22.0471 10.1107 22.0197 10.1381 21.9923 10.1503C21.9497 10.8988 21.9163 11.6503 21.9163 12.3988C21.9163 12.7792 22.0623 13.0134 22.4061 13.0134C22.5643 13.0134 22.7256 12.9648 22.8716 12.8887C23.2094 12.7213 23.4437 12.3623 23.608 11.9942L23.8757 12.551C23.7419 12.7852 23.5197 13.0439 23.3098 13.1899V13.1869Z" fill="white"/>
<path d="M27.2348 13.366C26.9762 13.1257 26.6993 12.9218 26.4011 12.7575C26.3616 13.3052 26.036 13.4756 25.61 13.4756C25.2449 13.4756 24.6881 13.2626 24.6881 12.7453C24.6881 12.2281 25.1171 12.0516 25.4914 12.0516C25.6466 12.0516 25.7987 12.0668 25.9508 12.1064C25.9508 11.507 25.9265 10.9015 25.8778 10.3051C25.8626 10.1591 25.8565 10.013 25.8291 9.87305L26.319 9.94607C26.3403 9.94911 26.3829 9.97041 26.3829 10.0069C26.3829 10.0313 26.3616 10.0526 26.3433 10.0678V10.2321C26.3433 10.4207 26.3403 10.6094 26.3464 10.798H26.3889C26.5563 10.798 26.7267 10.795 26.894 10.7737C27.0249 10.7554 27.1557 10.725 27.2835 10.7067C27.2835 10.8741 27.2774 11.0414 27.2713 11.2118C27.0675 11.2301 26.8575 11.2422 26.6506 11.2422C26.5563 11.2422 26.4589 11.2392 26.3616 11.2331C26.3707 11.5769 26.3768 11.9208 26.3859 12.2676C26.7906 12.435 27.1679 12.6632 27.536 12.9187L27.2348 13.3721V13.366ZM25.9538 12.5536C25.8078 12.4806 25.6283 12.4441 25.4701 12.4441C25.3423 12.4441 25.1445 12.5384 25.1445 12.7149C25.1445 12.9826 25.4001 13.0496 25.5827 13.0496C25.8017 13.0496 25.9569 12.9553 25.9569 12.6753V12.5536H25.9538Z" fill="white"/>
<path d="M29.4103 13.5369C29.2734 13.4122 29.1395 13.2844 28.9965 13.1718C29.3616 13.0592 29.8515 12.8219 30.0523 12.4263C30.1497 12.2377 30.1953 12.0156 30.1953 11.7965C30.1953 11.4162 30.0706 11.1971 29.7298 11.1971C29.4894 11.1971 28.9083 11.5105 28.6892 11.6566C28.6649 11.5927 28.4884 11.1515 28.4884 11.1119C28.4884 11.0815 28.5249 11.0876 28.5401 11.0876C28.6192 11.0876 28.9083 10.9963 28.9965 10.9628C29.2825 10.8594 29.5472 10.7438 29.8515 10.7438C30.4387 10.7438 30.6974 11.2062 30.6974 11.8452C30.6974 12.7245 30.0706 13.2905 29.4134 13.54L29.4103 13.5369ZM30.0523 10.4456C29.7146 10.2874 29.3738 10.1444 29.0148 10.0592C29.0848 9.90398 29.1517 9.75186 29.2217 9.59668C29.5898 9.6697 29.9428 9.81271 30.2866 9.98614C30.2136 10.1413 30.1406 10.2965 30.0554 10.4456H30.0523Z" fill="white"/>
</svg>
