<svg width="50" height="50" viewBox="0 0 50 50" fill="none" xmlns="http://www.w3.org/2000/svg">
<path d="M50 0H0V50H50V0Z" fill="#C60F28"/>
<path d="M6.69075 11.6226H3.81848V10.1865L6.30128 4.34766H8.33682V10.2443H9.28917V11.6226H8.33682V13.8833H6.68771V11.6226H6.69075ZM6.69075 10.2474V6.19759L5.24244 10.2474H6.69075Z" fill="white"/>
<path d="M22.1596 26.8182L13.1503 21.6152V38.4442L22.1596 41.1613V26.8182Z" fill="white"/>
<path d="M23.1484 26.8515V41.1672L32.2156 38.441V21.6182L23.1484 26.8515Z" fill="white"/>
<path d="M37.4214 38.1458H37.1567L38.2217 41.87L39.2866 38.1458H39.0219H39.2866V23.1729H39.0219H38.7572H38.4772H37.9478H37.6862H37.4214H37.1567V38.1458H37.4214Z" fill="white"/>
<path d="M34.1507 22.3389L33.1862 21.5752V38.9001L23.1758 42.1344H22.7133H22.6221H22.1596L12.1918 39.3504V21.5752L11.2273 22.3389V40.0289L22.1109 43.0411H22.6221H22.7133H23.2214L33.2653 39.8524L34.1507 39.5908V22.3389Z" fill="white"/>
<path d="M39.2866 21.1919C39.2866 20.6016 38.8089 20.127 38.2217 20.127C37.6344 20.127 37.1567 20.6047 37.1567 21.1919V22.342H39.2866V21.1919Z" fill="white"/>
<path d="M14.2062 5.22673V5.68921H13.8198V5.21456H13.5733C13.5398 5.54013 13.3907 5.81092 13.1686 6.00869L12.8552 5.78962C13.1717 5.53404 13.1778 5.28759 13.1778 4.87378C13.1778 4.71557 13.1717 4.55735 13.1656 4.39609L13.5033 4.42043C13.6889 4.39609 14.0875 4.30176 14.2305 4.2257L14.5287 4.58777C14.5287 4.62124 14.4922 4.63341 14.4678 4.63341C14.4435 4.63341 14.4161 4.62124 14.3948 4.60907C14.1271 4.6608 13.8563 4.69122 13.5855 4.71557C13.5855 4.77642 13.5855 4.83119 13.5824 4.89204H14.8938V5.22673H14.2062ZM15.7549 5.26629V5.68921H15.332V5.24194H15.0429C14.9942 5.47319 14.8664 5.67096 14.696 5.79571H15.7488V7.47221H15.3167C15.5206 7.65173 15.9618 7.74605 16.2174 7.78256L15.9466 8.18724C15.5449 8.07466 15.1494 7.91644 14.7843 7.69433C14.8664 7.61522 14.9577 7.55741 15.0338 7.47526H14.0662C14.0997 7.51481 14.2914 7.69433 14.2914 7.7278C14.2914 7.75823 14.2609 7.7704 14.2396 7.7704C14.2244 7.7704 14.2092 7.76735 14.194 7.76126C13.8532 7.94078 13.4942 8.10204 13.123 8.17507L12.8887 7.82212C13.2051 7.75822 13.5124 7.7065 13.7772 7.47526H13.3786V5.79875H14.5835C14.5104 5.75615 14.4405 5.70443 14.3705 5.65879C14.6048 5.49144 14.6717 5.33627 14.6717 5.01983C14.6717 4.80989 14.6656 4.59386 14.6565 4.38392L14.9942 4.4113C15.1737 4.39304 15.5328 4.31698 15.7153 4.22266L16.0531 4.56952C16.0683 4.58473 16.0926 4.60603 16.0926 4.63341C16.0926 4.66688 16.0439 4.67297 16.0257 4.67297C15.9922 4.67297 15.9587 4.66384 15.9314 4.64559C15.6423 4.6821 15.3502 4.70948 15.0612 4.72165C15.0612 4.78555 15.0612 4.8464 15.0612 4.9103H16.2265V5.26629H15.7518H15.7549ZM15.3137 6.10302H13.765V6.27949H15.3137V6.10302ZM15.3167 6.54725H13.765V6.71459H15.3167V6.54725ZM15.3167 6.99147H13.765V7.16186H15.3167V6.99147Z" fill="white"/>
<path d="M18.612 7.9043C18.4994 7.77955 18.396 7.64567 18.2834 7.52701C18.8615 7.36271 19.397 7.12842 19.397 6.31299C19.397 5.75922 19.111 5.25719 18.6303 5.14765C18.5299 5.89006 18.3351 7.07061 17.7601 7.50571C17.6536 7.58786 17.5471 7.64263 17.4193 7.64263C17.2671 7.64263 17.1211 7.52397 17.0268 7.39313C16.8533 7.16189 16.7925 6.81503 16.7925 6.5138C16.7925 5.46409 17.5379 4.72168 18.4112 4.72168C19.2175 4.72168 19.8747 5.28457 19.8747 6.28256C19.8747 7.21666 19.3392 7.70652 18.612 7.9043ZM17.3189 5.92657C17.2489 6.11217 17.2154 6.31299 17.2154 6.5138C17.2154 6.69028 17.2489 7.14363 17.4528 7.14363C17.5258 7.14363 17.5897 7.06148 17.6323 7.00671C17.9761 6.59596 18.1252 5.71663 18.1617 5.15374C17.8331 5.22372 17.4527 5.56754 17.3189 5.92657Z" fill="white"/>
<path d="M20.5835 5.01747V4.62497H21.8675V4.20508L22.3269 4.2355C22.3513 4.2355 22.3847 4.24768 22.3847 4.28723C22.3847 4.3207 22.3482 4.35113 22.3209 4.36025V4.62497H23.6475V5.01747H20.5835ZM22.9355 8.13315L22.6555 7.78628C22.9111 7.73456 23.1332 7.70109 23.1332 7.32685V6.54184H21.116V8.03578H20.6991V6.21019H23.5683V7.36031C23.5683 7.86235 23.3432 8.0723 22.9355 8.13619V8.13315ZM21.1251 6.04284V5.16352H23.0998V6.04284H21.1251ZM21.3624 7.67979V6.73048H22.8959V7.67979H21.3624ZM22.689 5.47691H21.5267V5.74466H22.689V5.47691ZM22.5034 7.03779H21.7488V7.36031H22.5034V7.03779Z" fill="white"/>
<path d="M25.1263 7.9073C25.0198 7.9073 24.9193 7.86166 24.8402 7.78255C24.5238 7.45699 24.4234 6.84237 24.4112 6.37076C24.3991 5.97521 24.4295 5.57967 24.4843 5.19325C24.5025 5.04416 24.5208 4.89811 24.5451 4.74902C24.6607 4.77945 24.968 4.87986 25.0654 4.94071C25.0806 4.94984 25.0928 4.96505 25.0928 4.98635C25.0928 5.03199 25.0502 5.05937 25.0167 5.07154C24.9437 5.29062 24.895 5.69529 24.8768 5.9387C24.8585 6.12126 24.8646 6.30078 24.8676 6.48334C24.8737 6.67198 24.9011 6.87584 24.9559 7.05536C24.9802 7.13447 25.035 7.33224 25.1293 7.3292C25.3058 7.32311 25.5248 6.75718 25.6009 6.5807L25.8321 7.12838C25.7226 7.41439 25.4153 7.89818 25.1263 7.9073ZM26.9184 7.21358C26.8362 6.52594 26.6689 5.96 26.2977 5.40319C26.4498 5.33017 26.5898 5.24498 26.7419 5.17804C27.0705 5.64965 27.3048 6.39814 27.39 6.99146C27.2348 7.07361 27.0796 7.1436 26.9184 7.21358Z" fill="white"/>
<path d="M30.0189 4.74043C29.888 5.01732 29.742 5.29724 29.5716 5.54674H29.8089V5.8936H29.3404C29.2856 5.96054 29.2339 6.03052 29.1761 6.1005H29.6811V6.39564C29.5564 6.54473 29.4286 6.68774 29.2856 6.81553V6.92202C29.4864 6.88855 29.6933 6.85508 29.8941 6.8064L29.8607 7.20194C29.6781 7.25367 29.4894 7.28409 29.3069 7.32061V7.57315C29.3069 7.98086 29.1091 8.16038 28.7896 8.24253L28.5188 7.92914C28.8353 7.83786 28.8992 7.78005 28.8992 7.38754C28.7349 7.4271 28.5645 7.46057 28.4002 7.50013C28.3971 7.52447 28.3728 7.57315 28.3485 7.57315C28.3272 7.57315 28.315 7.55793 28.3089 7.53359L28.1416 7.09545C28.3911 7.06503 28.6405 7.02243 28.887 6.97374C28.887 6.83682 28.8809 6.69382 28.8809 6.5569L29.1061 6.56907C29.1578 6.51126 29.2035 6.45041 29.246 6.37738H28.9083C28.7105 6.57516 28.4945 6.7425 28.2572 6.87029L28.0046 6.5782C28.3211 6.40172 28.6162 6.17961 28.8627 5.88447H28.0959V5.52848H28.7136V5.16032H28.242V4.76782H28.7105V4.23535L29.1456 4.27491C29.1669 4.27491 29.1882 4.28708 29.1882 4.3175C29.1882 4.35402 29.1578 4.3814 29.1335 4.39661V4.7739H29.6629L29.4103 5.02036C29.5016 4.81041 29.5868 4.60047 29.6507 4.37836L30.0523 4.62177C30.0736 4.63394 30.0949 4.65524 30.0949 4.69175C30.0949 4.73739 30.0432 4.74348 30.0189 4.73739V4.74043ZM29.1243 5.15424V5.53457C29.2065 5.4159 29.2826 5.28507 29.3525 5.15424H29.1243ZM31.2603 8.14821C31.0473 7.99303 30.7795 7.66747 30.6244 7.43319C30.384 7.74962 30.0493 8.0265 29.7177 8.19689L29.4499 7.8622C29.8059 7.72224 30.171 7.43927 30.3779 7.06502C30.2501 6.79423 30.1619 6.50822 30.0919 6.21004C30.0463 6.29219 29.9976 6.37434 29.9428 6.44736L29.6903 6.17353C30.0097 5.67453 30.2106 4.85301 30.2714 4.23839L30.7369 4.38444C30.7613 4.39357 30.7856 4.42704 30.7856 4.45747C30.7856 4.49702 30.7309 4.53049 30.7035 4.53962C30.6517 4.74043 30.597 4.94734 30.5361 5.14511H31.458V5.52848H31.2572C31.2177 6.03356 31.1142 6.63905 30.88 7.07719C31.0625 7.37842 31.3181 7.60966 31.5798 7.80135L31.2603 8.15125V8.14821ZM30.4023 5.52544L30.3657 5.61976C30.4114 5.96967 30.5027 6.31044 30.6213 6.63601C30.7369 6.28306 30.8039 5.90273 30.8252 5.52544H30.4023Z" fill="white"/>
<path d="M34.3547 5.03895C34.5798 5.30062 34.8171 5.54707 35.0301 5.81787L34.7015 6.1191C34.6072 5.98522 34.5129 5.85743 34.4033 5.7418C33.6487 5.81179 32.8881 5.83005 32.1274 5.87873L32.0392 5.46188H32.4165C32.4682 5.46188 32.5199 5.44058 32.5595 5.40103C32.669 5.30366 32.7573 5.16066 32.8455 5.03591H31.9175V4.66775H33.2623V4.22656L33.7796 4.26003C33.807 4.26003 33.8252 4.29046 33.8252 4.32089C33.8252 4.36044 33.7735 4.39391 33.7492 4.40608V4.66775H35.1032V5.03591H34.3577L34.3547 5.03895ZM34.0626 8.14551L33.7978 7.82907C34.0443 7.78647 34.1934 7.74083 34.1934 7.40918H32.7877V8.11204H32.3739V6.02782H34.6224V7.49438C34.6224 7.92339 34.4094 8.11204 34.0595 8.14551H34.0626ZM32.7877 6.35338V6.54507H34.1964V6.35338H32.7877ZM34.1995 6.8615H32.7846V7.07145H34.1995V6.8615ZM33.4723 5.03895C33.3171 5.185 33.1711 5.3493 33.0068 5.48014C33.378 5.46797 33.7522 5.44058 34.1234 5.41928C34.0565 5.35843 33.9956 5.2915 33.9348 5.2276C34.0413 5.16675 34.1477 5.10893 34.2512 5.03895H33.4753H33.4723Z" fill="white"/>
<path d="M38.5991 6.38281C38.5809 6.38281 38.5626 6.37368 38.5444 6.36151C38.2797 6.44975 37.7685 6.6536 37.5281 6.76314V7.4234H37.0961C37.0991 7.3595 37.0991 7.29561 37.0991 7.22258V6.98221C36.804 7.11913 36.6579 7.29561 36.6579 7.49338C36.6579 7.66377 36.8283 7.75505 37.1599 7.75505C37.522 7.75505 37.8537 7.70941 38.2279 7.58466L38.2127 8.0867C37.8902 8.19319 37.5342 8.21145 37.2908 8.21145C36.5697 8.21145 36.2106 7.98629 36.2106 7.5238C36.2106 7.30169 36.3141 7.09479 36.5119 6.90614C36.6366 6.79052 36.8253 6.66578 37.0687 6.53799C37.0626 6.3463 37.0017 6.24589 36.8952 6.24589C36.7583 6.24589 36.6336 6.29762 36.5179 6.41019C36.4449 6.47713 36.3506 6.56841 36.235 6.69925C36.0981 6.85138 36.0159 6.95179 35.9642 7.00351C35.8972 6.9244 35.7968 6.81182 35.6599 6.65056C36.0707 6.32804 36.381 5.93858 36.5849 5.48827C36.3902 5.51261 36.1741 5.53086 35.9398 5.54303C35.9246 5.37873 35.9033 5.22964 35.882 5.09881C36.2259 5.09881 36.5088 5.08664 36.7218 5.05621C36.7644 4.93146 36.807 4.73369 36.8466 4.46289L37.3425 4.57547C37.3729 4.5846 37.3881 4.59981 37.3881 4.62719C37.3881 4.65458 37.3699 4.67283 37.3303 4.69109C37.3121 4.76411 37.2786 4.87669 37.233 5.0197C37.4003 4.9984 37.6498 4.9345 37.9176 4.86148L37.878 5.33309C37.6772 5.37569 37.4034 5.41829 37.0687 5.46697C37.0169 5.59476 36.9317 5.75298 36.8405 5.89598C36.9287 5.87164 37.0017 5.86556 37.0504 5.86556C37.2756 5.86556 37.4216 6.01465 37.4886 6.325C37.7806 6.16982 38.1153 6.0116 38.4805 5.85034L38.6478 6.33108C38.6478 6.36455 38.6326 6.38281 38.6022 6.38281H38.5991Z" fill="white"/>
<path d="M16.0409 12.8496C15.8797 12.7218 15.7154 12.5879 15.5419 12.4814C15.3989 12.877 15.1099 13.3729 14.7874 13.5676L14.407 13.3151C14.7569 13.1112 15.0125 12.7157 15.1555 12.2836C14.9365 12.168 14.7052 12.0737 14.4709 12.025C14.4192 12.1772 14.3614 12.3262 14.2945 12.4692C14.1362 12.8252 13.9385 13.1843 13.5642 13.1843C13.2569 13.1843 13.0409 12.8861 13.0409 12.5149C13.0409 12.0433 13.3634 11.7086 13.7194 11.6112C13.8654 11.5717 14.0206 11.5686 14.1667 11.5717C14.2701 11.3039 14.3827 10.811 14.4344 10.5189L13.6525 10.6558L13.5673 10.1447H13.6068C13.8624 10.1447 14.6261 10.0808 14.8421 9.9834C14.8969 10.0564 14.9608 10.1234 15.0217 10.1903C14.9456 10.4611 14.8604 10.7289 14.7782 10.9996C14.7143 11.2066 14.6565 11.4104 14.5866 11.6112C14.8208 11.6569 15.0521 11.7268 15.2742 11.8333C15.3503 11.5473 15.3837 11.24 15.3959 10.9418C15.542 11.0422 15.688 11.1427 15.828 11.2522C15.7975 11.5169 15.761 11.7755 15.691 12.0281C15.8766 12.1254 16.0683 12.2228 16.2478 12.3536C16.1809 12.5179 16.1109 12.6883 16.0379 12.8526L16.0409 12.8496ZM13.4516 12.4936C13.4516 12.6062 13.4912 12.7035 13.5916 12.7035C13.6586 12.7035 13.7012 12.6762 13.7468 12.6244C13.8655 12.4906 13.9841 12.1528 14.045 11.9703C13.7894 11.9946 13.4547 12.1224 13.4547 12.4966L13.4516 12.4936Z" fill="white"/>
<path d="M18.7671 13.5127C18.2803 13.5127 18.3168 12.9924 18.3168 12.5877V12.1861C18.3168 12.0674 18.3198 11.9244 18.1829 11.9244C18.1494 11.9244 18.1159 11.9336 18.0855 11.9427C17.5348 12.104 17.3249 12.9559 17.1514 13.4914C17.0054 13.4123 16.8624 13.3301 16.7194 13.251C16.8685 12.8342 17.0388 12.4265 17.2123 12.0188C17.407 11.5624 17.5957 11.0999 17.7965 10.6435C17.906 10.3909 18.0094 10.1323 18.1281 9.88281C18.265 9.94671 18.4659 10.041 18.5906 10.1201C18.6058 10.1262 18.6149 10.1414 18.6149 10.1627C18.6149 10.1962 18.5815 10.2175 18.5541 10.2175C18.3076 10.6435 18.0886 11.0968 17.8634 11.535C17.8421 11.5776 17.8208 11.6171 17.7965 11.6536C17.9456 11.5684 18.1159 11.4924 18.2863 11.4924C18.6423 11.4924 18.7519 11.7662 18.7519 12.1344C18.7519 12.3535 18.7488 12.5695 18.7488 12.7886C18.7488 12.8981 18.764 13.0502 18.8888 13.0502C19.05 13.0502 19.2356 12.8981 19.3513 12.7794C19.5004 12.6242 19.619 12.4204 19.7255 12.2226C19.7833 12.4265 19.8411 12.6242 19.8959 12.8281C19.6494 13.2389 19.2083 13.5127 18.7732 13.5127H18.7671Z" fill="white"/>
<path d="M22.184 10.7216C22.0045 10.7733 21.828 10.8159 21.6485 10.8494C21.4568 11.5097 21.1921 12.2916 20.8483 12.8606C20.7114 12.7937 20.5744 12.7115 20.4436 12.6294C20.757 12.106 21.0126 11.5097 21.1769 10.9011C20.9974 10.9316 20.8118 10.9437 20.6292 10.9468C20.611 10.7977 20.5897 10.6486 20.5714 10.4934C20.6383 10.5026 20.7053 10.5026 20.7722 10.5026C20.9426 10.5026 21.113 10.4934 21.2834 10.466C21.3381 10.2257 21.3686 9.97313 21.3838 9.72363C21.5572 9.74797 21.7246 9.76927 21.895 9.80883C21.8524 10.0066 21.8067 10.2074 21.7489 10.4052C21.898 10.3717 22.0441 10.3109 22.1901 10.2591C22.1901 10.4113 22.1871 10.5634 22.1871 10.7186L22.184 10.7216ZM23.2124 13.3444C23.0603 13.1862 22.9051 13.0249 22.7256 12.9032C22.7256 12.9519 22.7256 12.9975 22.7256 13.0432C22.7104 13.4874 22.4213 13.6061 22.0927 13.6061C21.9741 13.6061 21.8584 13.5909 21.7459 13.5513C21.5268 13.4661 21.3016 13.2409 21.3138 12.9428C21.329 12.5107 21.6394 12.2916 21.9832 12.2916C22.0836 12.2916 22.184 12.3008 22.2844 12.316C22.2814 12.1152 22.2723 11.9143 22.2814 11.7105C22.2844 11.607 22.2996 11.5188 22.3361 11.4184H22.6678C22.6891 11.4184 22.7956 11.4001 22.7956 11.4519C22.7956 11.461 22.7956 11.464 22.7925 11.4701C22.7469 11.5462 22.7195 11.6405 22.7165 11.7318C22.7074 11.96 22.7165 12.1821 22.7256 12.4103C22.9903 12.5168 23.2915 12.7146 23.5045 12.9215C23.4163 13.0675 23.322 13.2136 23.2216 13.3444H23.2124ZM22.2966 12.7267C22.2175 12.6902 22.1262 12.6811 22.0319 12.6811C21.8919 12.6811 21.7185 12.7237 21.7094 12.9245C21.7033 13.1223 21.9132 13.2136 22.0562 13.2136C22.1931 13.2136 22.2936 13.1831 22.2996 13.0006C22.3027 12.9093 22.2996 12.8211 22.2966 12.7298V12.7267ZM23.2794 11.2906C23.0238 11.0533 22.7013 10.889 22.3879 10.7977L22.6009 10.3687C22.9173 10.463 23.2581 10.6151 23.5167 10.8616L23.2824 11.2906H23.2794Z" fill="white"/>
<path d="M24.9893 13.4763C24.8554 13.4885 24.7216 13.5068 24.5846 13.525C24.4173 12.9986 24.3929 12.4297 24.3929 11.8728C24.3929 11.2491 24.4751 10.6223 24.5846 10.0107L24.9072 10.0838C24.9558 10.0959 25.0197 10.102 25.0654 10.1233C25.0867 10.1324 25.108 10.1446 25.108 10.1811C25.108 10.2176 25.0745 10.2389 25.0471 10.2389C24.898 10.8505 24.8311 11.5382 24.8311 12.171C24.8311 12.3292 24.8402 12.4844 24.8402 12.6396C24.9071 12.4418 24.9711 12.241 25.041 12.0432C25.1354 12.1284 25.2266 12.2136 25.3179 12.2988C25.1536 12.6883 25.038 13.0382 24.9893 13.4794V13.4763ZM27.3869 13.3516C27.1831 13.3972 26.9153 13.3942 26.7084 13.3881C26.179 13.3729 25.683 13.2877 25.6191 12.4905C25.7439 12.3992 25.8686 12.3019 25.9964 12.2136C25.9964 12.667 26.2124 12.8708 26.5563 12.88C26.8301 12.8891 27.1313 12.8708 27.393 12.7796C27.393 12.9682 27.3869 13.1568 27.3839 13.3516H27.3869ZM27.2956 10.9175C27.0096 10.8566 26.7267 10.8414 26.4376 10.8657C26.2368 10.8809 26.039 10.9205 25.8443 10.9661C25.8291 10.8079 25.8169 10.6162 25.7987 10.458C26.0755 10.3819 26.3555 10.3819 26.6415 10.3576C26.8758 10.3393 27.107 10.3576 27.3413 10.3911C27.3291 10.5645 27.3169 10.741 27.2987 10.9144L27.2956 10.9175Z" fill="white"/>
</svg>
