<svg width="50" height="50" viewBox="0 0 50 50" fill="none" xmlns="http://www.w3.org/2000/svg">
<path d="M50 0H0V50H50V0Z" fill="#DC007A"/>
<path d="M4.35707 6.23106C4.27188 6.2767 4.01934 6.37711 3.6025 6.5262C3.27389 6.63574 3.06395 6.7118 2.97876 6.75135V5.39738C3.24651 5.29697 3.56904 5.13875 3.94937 4.92576C4.3297 4.71277 4.59744 4.52109 4.75566 4.34766H6.17964V13.8803H4.35405V6.23106H4.35707Z" fill="white"/>
<path d="M7.7771 13.2991C7.342 12.8001 7.12292 12.1308 7.12292 11.291V7.01908C7.12292 6.14888 7.3359 5.46428 7.75883 4.96529C8.18176 4.46629 8.82074 4.2168 9.67876 4.2168C10.5368 4.2168 11.1605 4.46629 11.5865 4.96529C12.0094 5.46428 12.2224 6.14888 12.2224 7.01908V11.291C12.2224 12.1216 12.0033 12.791 11.5622 13.293C11.124 13.7951 10.4942 14.0476 9.67876 14.0476C8.86333 14.0476 8.2122 13.7981 7.7771 13.2991ZM10.3725 11.2575V7.05559C10.3725 6.70264 10.3268 6.40751 10.2386 6.17322C10.1473 5.93894 9.96173 5.82027 9.67876 5.82027C9.38058 5.82027 9.18889 5.9359 9.10065 6.16714C9.01546 6.39838 8.96982 6.69352 8.96982 7.05559V11.2575C8.96982 12.0516 9.20411 12.4472 9.67572 12.4472C10.1473 12.4472 10.3694 12.0516 10.3694 11.2575H10.3725Z" fill="white"/>
<path d="M29.6383 32.8086H20.4312C20.3765 32.8086 20.3308 32.8603 20.3308 32.9212V35.69C20.3308 35.7539 20.3765 35.8026 20.4312 35.8026H29.6383C29.6961 35.8026 29.7387 35.7539 29.7387 35.69V32.9212C29.7387 32.8603 29.6931 32.8086 29.6383 32.8086Z" fill="white"/>
<path d="M29.6383 26.9219H20.4312C20.3765 26.9219 20.3308 26.9736 20.3308 27.0345V29.8033C20.3308 29.8672 20.3765 29.9158 20.4312 29.9158H29.6383C29.6961 29.9158 29.7387 29.8672 29.7387 29.8033V27.0345C29.7387 26.9736 29.6931 26.9219 29.6383 26.9219Z" fill="white"/>
<path d="M29.5108 22.7377L25.0898 18.3168C25.0594 18.2863 25.0107 18.2863 24.9833 18.3168L20.5623 22.7377C20.5136 22.7864 20.5471 22.8686 20.6171 22.8686H29.456C29.5229 22.8686 29.5595 22.7864 29.5108 22.7377Z" fill="white"/>
<path d="M33.6578 35.8328L38.0788 31.4118C38.1092 31.3814 38.1092 31.3327 38.0788 31.3053L33.6578 26.8843C33.6091 26.8356 33.527 26.8691 33.527 26.9391V35.778C33.527 35.845 33.6091 35.8815 33.6578 35.8328Z" fill="white"/>
<path d="M20.5623 39.9843L24.9833 44.4053C25.0137 44.4358 25.0624 44.4358 25.0898 44.4053L29.5107 39.9843C29.5594 39.9357 29.526 39.8535 29.456 39.8535H20.617C20.5501 39.8535 20.5136 39.9357 20.5623 39.9843Z" fill="white"/>
<path d="M16.4121 26.8876L11.9911 31.3086C11.9607 31.339 11.9607 31.3877 11.9911 31.4151L16.4121 35.836C16.4607 35.8847 16.5429 35.8513 16.5429 35.7813V26.9424C16.5429 26.8754 16.4607 26.8389 16.4121 26.8876Z" fill="white"/>
<path d="M19.3239 8.00171C18.7184 7.60616 18.2255 6.88201 17.9699 6.13656C17.9121 6.33129 17.8543 6.51993 17.7721 6.69945C17.5926 7.10717 17.3096 7.47837 16.9749 7.74613C16.8532 7.84045 16.7285 7.92564 16.5977 7.98953L16.269 7.60312C16.4151 7.53314 16.5794 7.46315 16.7102 7.35057C17.1879 6.95199 17.4952 6.3678 17.6169 5.66495C17.693 5.22376 17.6747 4.77344 17.6747 4.32617L18.1859 4.38398C18.2163 4.38703 18.2559 4.40529 18.2559 4.44789C18.2559 4.49048 18.2194 4.51786 18.189 4.52699C18.1829 4.70346 18.1768 4.87385 18.1768 5.05033C18.1768 5.63147 18.4537 6.26131 18.7488 6.70858C18.9679 7.03719 19.3817 7.40231 19.7042 7.58486L19.3239 8.00779V8.00171Z" fill="white"/>
<path d="M22.1231 6.69632C21.9771 6.69632 21.831 6.68111 21.688 6.6446C21.6576 6.48942 21.5998 6.34642 21.5481 6.19733C21.7002 6.23992 21.8584 6.27339 22.0166 6.27339C22.3027 6.27339 22.5765 6.16081 22.5765 5.75309C22.5765 5.51576 22.4213 5.3606 22.2357 5.3606C22.1627 5.3606 22.0897 5.37276 22.0197 5.39406C22.0623 5.52489 22.1079 5.65573 22.1536 5.78657C22.0319 5.84742 21.9102 5.90219 21.7915 5.95087C21.7428 5.81091 21.6941 5.67398 21.6454 5.53402C21.4781 5.61009 21.3138 5.69833 21.1525 5.79569C21.2712 6.12126 21.3838 6.45291 21.4842 6.78456C21.5785 7.10099 21.6941 7.4083 21.7702 7.72778C21.6394 7.80385 21.5055 7.85253 21.3686 7.91643C21.2134 7.26225 21.0217 6.61417 20.7996 5.99346C20.6109 6.11517 20.4223 6.23992 20.2428 6.37075C20.1697 6.2247 20.0937 6.07866 20.0267 5.92957C20.2306 5.81395 20.4345 5.69833 20.6414 5.58879C20.5409 5.34842 20.4253 5.10805 20.3036 4.87985C20.3554 4.86464 20.7144 4.73076 20.7387 4.73076C20.7631 4.73076 20.7631 4.74597 20.7752 4.77336C20.8543 4.9833 20.9274 5.19933 21.0095 5.40927C21.1647 5.32408 21.3199 5.24497 21.4781 5.16891C21.3899 4.94984 21.2803 4.73989 21.1647 4.53603C21.3016 4.4843 21.4355 4.4265 21.5724 4.38086C21.688 4.58776 21.7793 4.80987 21.8736 5.02894C22.0136 4.98634 22.1596 4.97417 22.3027 4.97417C22.6921 4.97417 23.0207 5.27235 23.0207 5.76526C23.0207 6.37988 22.6039 6.69632 22.1323 6.69632H22.1231Z" fill="white"/>
<path d="M23.8513 8.01714V4.32031H26.8727V8.01714H23.8513ZM26.4406 4.73412H24.2773V7.62464H26.4406V4.73412ZM24.4081 7.2656V6.89744H25.1171V6.26761H24.5542V5.91771H25.1171V5.47348H24.4446V5.10531H26.2915V5.46739H25.5248V5.91163H26.1059V6.21285L26.2915 6.32238C26.2915 6.32238 26.3098 6.34368 26.3098 6.35281C26.3098 6.39236 26.2642 6.41062 26.2337 6.41062C26.1698 6.55666 26.109 6.69967 26.0512 6.84876L25.7469 6.73314C25.7956 6.58101 25.8382 6.42279 25.8838 6.26458H25.5217V6.90353H26.3007V7.26257H24.4081V7.2656Z" fill="white"/>
<path d="M29.5716 7.7284C29.4651 7.60669 29.3707 7.47889 29.2612 7.36023C29.8058 7.20201 30.3048 6.97077 30.3048 6.17664C30.3048 5.63809 30.0371 5.14822 29.5868 5.04173C29.4955 5.76588 29.3129 6.91297 28.7713 7.33894C28.6709 7.41805 28.5705 7.47282 28.4519 7.47282C28.3119 7.47282 28.1719 7.35719 28.0837 7.2294C27.9224 7.00424 27.8646 6.66651 27.8646 6.37441C27.8646 5.34904 28.5614 4.62793 29.3799 4.62793C30.1345 4.62793 30.7491 5.17561 30.7491 6.14926C30.7491 7.05901 30.247 7.53671 29.5685 7.7284H29.5716ZM28.3606 5.80239C28.2967 5.98191 28.2663 6.17968 28.2663 6.37441C28.2663 6.5448 28.2967 6.98903 28.4884 6.98903C28.5583 6.98903 28.6162 6.90992 28.6557 6.85515C28.9813 6.45352 29.1152 5.59854 29.1486 5.04782C28.8413 5.11476 28.4853 5.44945 28.3575 5.79935L28.3606 5.80239Z" fill="white"/>
<path d="M33.5696 4.81671C33.4996 4.95363 33.4296 5.09055 33.3536 5.22443V8.02976H32.9093V5.86339C32.6203 6.28632 32.1456 6.73967 31.7257 6.97395L31.4124 6.67882C32.0422 6.31065 32.7511 5.57738 33.025 4.81671H31.6223V4.3877H34.6437V4.81671H33.5726H33.5696ZM34.5676 7.03481C34.169 6.77314 33.6791 6.21025 33.4022 5.78732C33.5209 5.68083 33.6304 5.5652 33.743 5.45263C33.9986 5.95771 34.452 6.35021 34.8779 6.64839L34.5706 7.03481H34.5676Z" fill="white"/>
<path d="M37.2178 6.67855V8.08426H36.7735V6.67855H35.38V6.25867H36.7735V4.8347H35.5747V4.4209H38.4227V4.8347H37.2147V6.25867H38.6113V6.67855H37.2208H37.2178ZM36.1681 6.09741C36.0403 5.79314 35.9064 5.48279 35.7542 5.19678L36.1468 4.98076C36.2715 5.24851 36.4267 5.61667 36.4906 5.90876L36.1681 6.09741ZM38.2158 5.30936C38.088 5.58016 37.9602 5.85096 37.8111 6.11262L37.4855 5.95745C37.6072 5.63492 37.7168 5.30632 37.8111 4.97163L38.2523 5.17244C38.2766 5.18461 38.304 5.20895 38.304 5.24547C38.304 5.29111 38.2462 5.30936 38.2158 5.30936Z" fill="white"/>
<path d="M40.3882 4.91932L40.4277 5.21446L40.1265 5.29661L40.0109 4.91019H39.9074C39.7857 5.08667 39.6671 5.2814 39.5149 5.4244L39.1954 5.21446C39.451 4.92541 39.6458 4.54812 39.7401 4.14648L40.163 4.28341C40.1843 4.29254 40.2117 4.30775 40.2117 4.33817C40.2117 4.37773 40.1721 4.40207 40.1417 4.40816C40.1174 4.45988 40.0961 4.51464 40.0626 4.56333H40.7746V4.91932H40.3882ZM41.6357 6.43457V6.69319H42.3537V7.07657H41.6357C41.6357 7.73378 41.6996 8.10194 41.0332 8.21756L40.7837 7.85245C41.0363 7.80377 41.2219 7.78246 41.2219 7.42647V7.07657H40.1508C40.2604 7.18002 40.3638 7.28651 40.4673 7.39605C40.5433 7.4782 40.6255 7.55122 40.6985 7.63946L40.4216 7.94981C40.2208 7.74291 40.0231 7.52992 39.8009 7.3504L40.0474 7.07657H39.3628V6.69319H41.2219V6.43152H39.2532V6.06945H40.6042V5.81386H39.6305V5.44874H40.592V5.15665H41.0484C41.0667 5.15969 40.9632 5.23575 40.9632 5.25705C40.9632 5.28748 41.0089 5.15665 41.018 5.12927V5.44874H42.086V5.81386H41.0119V6.06945H42.4359V6.43457H41.6357ZM41.9065 4.93758L41.7908 5.30574L41.4714 5.27227L41.4866 4.9254H41.2492C41.1914 5.01364 41.0575 5.19012 40.9663 5.29053L40.5951 5.15665C40.7776 4.93453 41.0271 4.46597 41.0971 4.17083L41.5322 4.29862C41.5504 4.30166 41.5748 4.31992 41.5748 4.3473C41.5748 4.38686 41.5261 4.39294 41.5018 4.39294C41.4774 4.45683 41.447 4.51769 41.4166 4.57855H42.3902V4.94062H41.9095L41.9065 4.93758Z" fill="white"/>
<path d="M19.4912 11.6991C19.473 11.6991 19.4547 11.69 19.4364 11.6778C19.1717 11.7691 18.6606 11.9699 18.4202 12.0825V12.7427L17.9881 12.7366C17.9912 12.6758 17.9912 12.6119 17.9912 12.5389V12.2985C17.6991 12.4354 17.55 12.6119 17.55 12.8097C17.55 12.9801 17.7173 13.0713 18.052 13.0713C18.4141 13.0713 18.7458 13.0227 19.12 12.901L19.1048 13.403C18.7823 13.5095 18.4232 13.5277 18.1829 13.5277C17.4618 13.5277 17.1027 13.2995 17.1027 12.8401C17.1027 12.618 17.2062 12.4111 17.4039 12.2224C17.5287 12.1068 17.7143 11.9821 17.9608 11.8543C17.9547 11.6626 17.8938 11.5622 17.7873 11.5622C17.6504 11.5622 17.5287 11.6139 17.41 11.7234C17.337 11.7904 17.2396 11.8817 17.1271 12.0155C16.9901 12.1646 16.908 12.2681 16.8563 12.3198C16.7893 12.2437 16.6889 12.1281 16.552 11.9699C16.9628 11.6474 17.2731 11.2579 17.477 10.8076C17.2822 10.8319 17.0662 10.8502 16.8319 10.8624C16.8167 10.6981 16.7954 10.549 16.7741 10.4151C17.1179 10.4151 17.4009 10.4029 17.6139 10.3725C17.6595 10.2478 17.6991 10.05 17.7386 9.78223L18.2346 9.8948C18.265 9.90393 18.2772 9.91914 18.2772 9.94652C18.2772 9.97391 18.2589 9.99217 18.2194 10.0104C18.2011 10.0834 18.1677 10.196 18.122 10.3421C18.2894 10.3208 18.5389 10.2569 18.8066 10.1839L18.7671 10.6555C18.5663 10.6981 18.2924 10.7407 17.9577 10.7863C17.906 10.9141 17.8208 11.0723 17.7295 11.2153C17.8177 11.1879 17.8908 11.1849 17.9395 11.1849C18.1616 11.1849 18.3107 11.334 18.3776 11.6443C18.6697 11.4892 19.0044 11.3309 19.3695 11.1697L19.5368 11.6504C19.5368 11.6869 19.5216 11.7021 19.4912 11.7021V11.6991Z" fill="white"/>
<path d="M22.035 10.6982C21.8554 10.7499 21.679 10.7925 21.4995 10.826C21.3078 11.4862 21.0431 12.2682 20.6992 12.8372C20.5623 12.7702 20.4284 12.6881 20.2946 12.6059C20.6079 12.0826 20.8635 11.4862 21.0278 10.8777C20.8483 10.9081 20.6658 10.9203 20.4802 10.9233C20.4619 10.7743 20.4406 10.6252 20.4224 10.47C20.4893 10.4791 20.5562 10.4791 20.6262 10.4791C20.7936 10.4791 20.967 10.47 21.1374 10.4426C21.1921 10.2022 21.2226 9.94969 21.2378 9.7002C21.4112 9.72454 21.5786 9.74583 21.749 9.78539C21.7064 9.98316 21.6607 10.184 21.6029 10.3818C21.755 10.3483 21.898 10.2874 22.0441 10.2357C22.0441 10.3878 22.038 10.54 22.038 10.6952L22.035 10.6982ZM23.0603 13.321C22.9082 13.1627 22.753 13.0015 22.5735 12.8798C22.5735 12.9285 22.5735 12.9741 22.5735 13.0197C22.5583 13.464 22.2692 13.5826 21.9376 13.5826C21.8189 13.5826 21.7033 13.5674 21.5907 13.5279C21.3717 13.4427 21.1465 13.2175 21.1587 12.9193C21.1739 12.4873 21.4842 12.2682 21.8281 12.2682C21.9285 12.2682 22.0289 12.2773 22.1293 12.2925C22.1262 12.0917 22.1171 11.8909 22.1262 11.6871C22.1293 11.5836 22.1445 11.4954 22.181 11.395H22.5127C22.534 11.395 22.6405 11.3767 22.6405 11.4284C22.6405 11.4376 22.6404 11.4406 22.6374 11.4467C22.5887 11.5228 22.5644 11.6171 22.5613 11.7084C22.5522 11.9366 22.5613 12.1587 22.5705 12.3869C22.8352 12.4934 23.1364 12.6911 23.3494 12.898C23.2612 13.0441 23.1668 13.1901 23.0664 13.321H23.0603ZM22.1475 12.7033C22.0684 12.6668 21.9772 12.6577 21.8859 12.6577C21.7459 12.6577 21.5725 12.7003 21.5634 12.9011C21.5573 13.0989 21.7672 13.1901 21.9102 13.1901C22.0471 13.1901 22.1475 13.1597 22.1536 12.9771C22.1567 12.8859 22.1536 12.7976 22.1506 12.7063L22.1475 12.7033ZM23.1273 11.2702C22.8686 11.0329 22.5492 10.8686 22.2327 10.7773L22.4457 10.3483C22.7622 10.4426 23.1029 10.5947 23.3616 10.8412L23.1273 11.2702Z" fill="white"/>
<path d="M25.8961 13.6008C25.5827 13.1231 25.2175 12.7062 24.819 12.3289C24.7185 12.2285 24.6151 12.1281 24.5056 12.0429C24.4417 11.9912 24.3747 11.9455 24.326 11.8756C24.2774 11.8056 24.2591 11.7265 24.2622 11.6413C24.2652 11.477 24.3382 11.3857 24.4386 11.2792C24.6181 11.0936 24.8068 10.9232 24.9833 10.7346C25.248 10.4486 25.5127 10.1626 25.7713 9.86133C25.8748 9.95261 25.9813 10.0408 26.0847 10.1321C26.1243 10.1626 26.173 10.1991 26.2034 10.2386C26.2156 10.2508 26.2216 10.2599 26.2216 10.2782C26.2216 10.339 26.1395 10.3451 26.0999 10.336C25.8535 10.5611 25.5979 10.7833 25.3453 11.0145C25.2389 11.1088 25.1415 11.2153 25.038 11.3127C24.9894 11.3583 24.9315 11.4009 24.889 11.4496C24.8464 11.4922 24.7977 11.5561 24.7977 11.62C24.7977 11.6808 24.825 11.7143 24.8616 11.7508C25.0137 11.8999 25.181 12.0277 25.3362 12.1707C25.6831 12.4932 26.0056 12.8523 26.2916 13.2448C26.1608 13.3604 26.033 13.4882 25.9021 13.6038L25.8961 13.6008Z" fill="white"/>
<path d="M28.8596 11.7257C28.6375 11.8809 28.4853 12.3038 28.5523 12.6537C28.6314 13.0706 29.1365 13.1162 29.4012 13.1101C29.4864 13.1101 29.5746 13.101 29.6629 13.0918C29.6264 13.2562 29.5838 13.4144 29.5472 13.5756H29.4712C28.9539 13.5909 28.2085 13.5148 28.1233 12.7176C28.0716 12.2277 28.1993 11.8413 28.4002 11.607C27.9681 11.6801 27.536 11.7896 27.1192 11.9387C27.0918 11.7774 27.0523 11.6162 27.0157 11.4579C27.2379 11.4032 27.4813 11.3849 27.6943 11.2784C27.9133 11.1689 28.3849 10.5847 28.5614 10.3626C28.3028 10.39 28.0442 10.4082 27.7886 10.4021C27.7886 10.25 27.7825 10.0979 27.7673 9.95183C28.1506 9.97313 28.5492 9.98834 28.9326 9.91532C29.0361 9.89706 29.1274 9.85142 29.2217 9.80273C29.3008 9.93661 29.3768 10.0735 29.4468 10.2105C29.0695 10.4873 28.6953 10.895 28.3576 11.2389C28.8991 11.1567 29.4468 11.0928 29.9915 11.0441C29.9915 11.2176 29.9915 11.388 29.9915 11.5614C29.6689 11.534 29.1578 11.5218 28.8687 11.7227L28.8596 11.7257Z" fill="white"/>
<path d="M31.9296 13.7222C31.7927 13.5944 31.6528 13.4636 31.5067 13.348C31.881 13.2354 32.38 12.9889 32.5869 12.5843C32.6873 12.3926 32.7238 12.1309 32.739 11.9058C32.7633 11.5163 32.6538 11.2851 32.3039 11.2607C32.0605 11.2455 31.4459 11.5254 31.2146 11.6593C31.1933 11.5924 31.0442 11.1299 31.0473 11.0903C31.0473 11.0599 31.0868 11.066 31.1021 11.069C31.1842 11.0751 31.4824 11.0021 31.5737 10.9717C31.8718 10.8865 32.1487 10.7861 32.4591 10.8074C33.0585 10.8469 33.2867 11.3368 33.2441 11.991C33.1832 12.8885 32.6021 13.4697 31.9296 13.7222ZM32.5869 10.4605C32.2431 10.2962 31.8931 10.1471 31.525 10.0589C31.595 9.89761 31.6619 9.73939 31.7349 9.57812C32.1092 9.65419 32.4743 9.80024 32.8212 9.98584C32.7451 10.1471 32.6721 10.3053 32.5869 10.4635V10.4605Z" fill="white"/>
</svg>
